<svg width="64" height="64" viewBox="0 0 64 64" fill="none" xmlns="http://www.w3.org/2000/svg">
<path d="M32.0002 2C18.9002 2 7.8002 10.4 3.7002 22H60.3002C56.2002 10.4 45.1002 2 32.0002 2Z" fill="#ED4C5C"/>
<path d="M32.0002 62C45.1002 62 56.2002 53.7 60.3002 42H3.7002C7.8002 53.7 18.9002 62 32.0002 62Z" fill="#428BC1"/>
<path d="M3.7 22C2.6 25.1 2 28.5 2 32C2 35.5 2.6 38.9 3.7 42H60.3C61.4 38.9 62 35.5 62 32C62 28.5 61.4 25.1 60.3 22H3.7Z" fill="#F9F9F9"/>
<path d="M42.9 25.2L45.5 19.2L43.5 16L40.2 17.2L37.9 14.5L34.8 16.3L32 14L29.2 16.3L26.1 14.5L23.8 17.2L20.5 16L18.5 19.3L21.1 25.3C24.4 23.8 28.1 23 32 23C35.9 22.8 39.6 23.7 42.9 25.2Z" fill="white"/>
<path d="M34.6998 16.5L31.9998 14.3L29.2998 16.5L29.7998 22.7C30.4998 22.6 31.2998 22.6 31.9998 22.6C32.6998 22.6 33.4998 22.6 34.1998 22.7L34.6998 16.5Z" fill="#428BC1"/>
<path d="M32.0002 50C38.2002 50 43.3002 44.9 43.3002 38.7V25.3H20.7002V38.7C20.7002 44.9 25.8002 50 32.0002 50Z" fill="#ED4C5C"/>
<path d="M32.0004 49.8C38.1004 49.8 43.1004 44.8 43.1004 38.7V25.5H20.9004V38.7C20.9004 44.8 25.9004 49.8 32.0004 49.8Z" fill="white"/>
<path d="M25.5998 25.9H21.2998V30.6H25.5998V25.9ZM25.5998 35.3H29.8998V30.6H25.5998V35.3ZM21.2998 38.7C21.2998 39.1 21.2998 39.5 21.3998 40H25.5998V35.3H21.2998V38.7ZM34.0998 35.3H29.7998V40H34.0998V35.3ZM34.0998 44.7H38.3998V40H34.0998V44.7ZM38.3998 47.2C39.2998 46.5 40.1998 45.6 40.7998 44.6H38.3998V47.2ZM25.5998 44.7H29.8998V40H25.5998V44.7ZM23.1998 44.7C23.8998 45.7 24.6998 46.5 25.5998 47.3V44.7H23.1998Z" fill="#ED4C5C"/>
<path d="M32.6998 49.3C33.1998 49.3 33.5998 49.2 34.0998 49.1V44.6H29.7998V49.1C30.2998 49.2 30.6998 49.3 31.1998 49.3C31.6998 49.4 32.1998 49.4 32.6998 49.3ZM42.5998 40C42.5998 39.6 42.6998 39.2 42.6998 38.7V35.3H38.3998V40H42.5998ZM34.0998 35.3H38.3998V30.6H34.0998V35.3ZM34.0998 25.9H29.7998V30.6H34.0998V25.9Z" fill="#ED4C5C"/>
<path d="M42.5998 30.6V25.9H38.2998V30.6H42.5998Z" fill="#ED4C5C"/>
<path d="M23.9002 17.4L20.6002 16.2L18.7002 19.2L19.4002 20.8L21.2002 24.9C22.5002 24.3 23.9002 23.8 25.4002 23.5L23.9002 17.4Z" fill="#428BC1"/>
<path d="M23.7002 20.4C23.8002 20.6 23.9002 20.9 23.9002 21.2C23.9002 22.1 23.2002 22.8 22.3002 22.8C21.5002 22.8 20.9002 22.2 20.7002 21.5C21.0002 22 21.5002 22.3 22.1002 22.3C23.0002 22.3 23.7002 21.6 23.7002 20.7V20.4Z" fill="white"/>
<path d="M22.2 18.2L22.1 18.8L22.6 19.1V19.2H22.5L22 19.4L21.9 19.9V20L21.8 19.9L21.4 19.6L20.8 19.8V19.7L20.9 19.2L20.5 18.8V18.7L21.1 18.5L21.2 18L21.6 18.3L22.2 18.2Z" fill="#FFE62E"/>
<path d="M29.3004 16.5L26.2004 14.8L23.9004 17.4L25.4004 23.4C26.8004 23 28.3004 22.8 29.8004 22.7L29.3004 16.5Z" fill="#2A5F9E"/>
<path d="M25.0004 21.9C26.5004 21.5 28.0004 21.3 29.6004 21.1L29.5004 19.5C27.8004 19.6 26.2004 19.9 24.6004 20.3L25.0004 21.9ZM24.3004 18.9C26.0004 18.5 27.7004 18.2 29.4004 18L29.3004 16.5C27.5004 16.7 25.7004 17 23.9004 17.4L24.3004 18.9Z" fill="#ED4C5C"/>
<path d="M31.9998 19.3C31.7998 19.3 31.4998 20 31.0998 19.5C31.0998 19.5 31.3998 19.9 31.3998 20.1L31.0998 20C31.0998 22.1 32.9998 22 32.9998 20L32.6998 20.1C32.6998 20 32.9998 19.5 32.9998 19.5C32.4998 20 32.2998 19.4 31.9998 19.3ZM33.1998 16.4C32.9998 16.4 32.6998 17.1 32.2998 16.6C32.2998 16.6 32.5998 17 32.5998 17.2L32.2998 17.1C32.2998 19.2 34.1998 19.1 34.1998 17.1L33.8998 17.2C33.8998 17.1 34.1998 16.6 34.1998 16.6C33.7998 17.1 33.4998 16.4 33.1998 16.4ZM30.6998 16.4C30.4998 16.4 30.1998 17.1 29.7998 16.6C29.7998 16.6 30.0998 17 30.0998 17.2L29.7998 17.1C29.7998 19.2 31.6998 19.1 31.6998 17.1L31.3998 17.2C31.3998 17.1 31.6998 16.6 31.6998 16.6C31.2998 17.1 30.9998 16.4 30.6998 16.4Z" fill="#FFE62E"/>
<path d="M40.1002 17.4L37.8002 14.7L34.7002 16.5L34.2002 22.7C35.7002 22.8 37.2002 23.1 38.6002 23.4L40.1002 17.4Z" fill="#2A5F9E"/>
<path d="M35.2999 17.8H35.5999C35.7999 17.9 35.7999 17.8 35.8999 17.7C36.0999 17.6 36.6999 17.5 37.2999 17.8C37.3999 17.9 37.9999 17.9 37.9999 17.9C37.9999 17.9 37.4999 18.1 36.9999 17.9C37.1999 18 37.2999 18.2 37.4999 18.3C37.5999 18.3 38.2999 18.5 38.2999 18.5C38.2999 18.5 37.6999 18.8 37.2999 18.5C36.9999 18.2 36.6999 17.9 36.1999 18L36.4999 18.1C36.3999 18.2 36.0999 18.3 35.9999 18.2C35.9999 18.5 36.9999 19.5 38.1999 19.2C38.6999 19 38.3999 19.4 38.2999 19.6C38.1999 19.7 37.7999 21.9 36.6999 21.4C36.6999 21.4 37.2999 21.2 37.2999 20.8L37.0999 20.6C36.6999 20.6 36.3999 21.8 35.8999 21.2C35.8999 21.2 36.4999 20.9 36.3999 20.4H35.9999C35.6999 20.5 35.7999 21.6 35.1999 21.3C35.1999 21.3 35.8999 20.3 35.4999 20.3C35.3999 20.5 35.1999 20.7 35.1999 20.9C35.3999 21.1 34.6999 21.1 34.7999 20.9C34.7999 20.8 35.2999 20.3 35.1999 19.8C34.9999 19.7 35.1999 18.8 35.2999 18.6C34.6999 18.6 35.0999 18.4 35.1999 18C35.3999 18 35.2999 18 35.2999 17.8Z" fill="#FFE62E"/>
<path d="M42.7996 24.9L45.2996 19.2L43.3996 16.2L40.0996 17.4L38.5996 23.4C39.9996 23.8 41.3996 24.3 42.7996 24.9Z" fill="#428BC1"/>
<path d="M39.6 19.6C41.3 20 42.9 20.6 44.4 21.3L43.4 23.5C42 22.9 40.5 22.4 39 22L39.6 19.6Z" fill="white"/>
<path d="M43.5 23.1L44.1 21.6C42.6 20.9 41 20.4 39.4 20L39 21.5C40.6 21.9 42.1 22.4 43.5 23.1Z" fill="#ED4C5C"/>
<path d="M42.0002 17.4L42.1002 18L41.7002 18.4L42.3002 18.6L42.4002 19.2L42.9002 18.8L43.5002 19L43.4002 18.4L43.8002 18L43.2002 17.8L43.1002 17.2L42.7002 17.6L42.0002 17.4Z" fill="#FFE62E"/>
</svg>
