<svg width="64" height="64" viewBox="0 0 64 64" fill="none" xmlns="http://www.w3.org/2000/svg">
<path d="M61.0998 25C57.9998 11.8 46.0998 2 31.9998 2H30.9998V25H61.0998ZM16.9998 6C9.9998 10.1 4.6998 16.9 2.7998 25H16.9998V6ZM2.7998 39C4.6998 47.1 9.9998 53.9 16.9998 58V39H2.7998ZM30.9998 62H31.9998C46.1998 62 57.9998 52.2 61.1998 39H30.9998V62Z" fill="#F9F9F9"/>
<path d="M61.1 25H31V2C25.9 2.2 21.1 3.6 17 6V25H2.8C2.3 27.2 2 29.6 2 32C2 34.4 2.3 36.8 2.8 39H17V58C21.1 60.4 25.9 61.8 31 62V39H61.2C61.7 36.8 62 34.4 62 32C62 29.6 61.7 27.2 61.1 25Z" fill="#428BC1"/>
</svg>
