<svg width="64" height="64" viewBox="0 0 64 64" fill="none" xmlns="http://www.w3.org/2000/svg">
<path d="M61.7002 28C61.6002 27 61.4002 26 61.1002 25H2.8002L2.2002 28H61.7002ZM2.3002 36C2.4002 37 2.6002 38 2.9002 39H61.2002L61.8002 36H2.3002Z" fill="white"/>
<path d="M20 4.5C19 4.9 18 5.5 17 6V58C18 58.6 19 59.1 20 59.5V4.5ZM28 2.3V61.8L31 62.1V2C30 2 29 2.1 28 2.3Z" fill="white"/>
<path d="M2 32C2 33.4 2.1 34.7 2.3 36H61.8C62 34.7 62.1 33.4 62.1 32C62.1 30.6 62 29.3 61.8 28H2.3C2.1 29.3 2 30.6 2 32Z" fill="#ED4C5C"/>
<path d="M20 59.5C22.5 60.6 25.2 61.4 28 61.7V2.29999C25.2 2.69999 22.5 3.39999 20 4.49999V59.5Z" fill="#ED4C5C"/>
<path d="M16.9998 25V6C9.9998 10.1 4.7998 16.9 2.7998 25H16.9998ZM16.9998 39V58C9.9998 53.9 4.7998 47.1 2.7998 39H16.9998ZM31.9998 2H30.9998V25H61.1998C57.9998 11.8 46.1998 2 31.9998 2ZM30.9998 39V62H31.9998C46.1998 62 57.9998 52.2 61.1998 39H30.9998Z" fill="#2A5F9E"/>
</svg>
