<svg width="64" height="64" viewBox="0 0 64 64" fill="none" xmlns="http://www.w3.org/2000/svg">
<path d="M1.7998 32C1.7998 45.1 10.1998 56.2 21.7998 60.3V3.70001C10.0998 7.80001 1.7998 18.9 1.7998 32Z" fill="#83BF4F"/>
<path d="M61.7998 32C61.7998 18.9 53.3998 7.80001 41.7998 3.70001V60.3C53.3998 56.2 61.7998 45.1 61.7998 32Z" fill="#FF8736"/>
<path d="M21.7998 60.3C24.8998 61.4 28.2998 62 31.7998 62C35.2998 62 38.6998 61.4 41.7998 60.3V3.7C38.5998 2.6 35.2998 2 31.7998 2C28.2998 2 24.8998 2.6 21.7998 3.7V60.3Z" fill="white"/>
</svg>
