<svg width="64" height="64" viewBox="0 0 64 64" fill="none" xmlns="http://www.w3.org/2000/svg">
<path d="M61.6998 28C61.5998 27 61.3998 26 61.1998 25H2.7998C2.5998 26 2.3998 27 2.2998 28H61.6998ZM2.2998 36C2.3998 37 2.5998 38 2.7998 39H61.0998C61.2998 38 61.4998 37 61.5998 36H2.2998Z" fill="white"/>
<path d="M20 4.5C19 4.9 18 5.5 17 6V58C18 58.6 19 59.1 20 59.5V4.5ZM28 2.3V61.8L31 62.1V2C30 2 29 2.1 28 2.3Z" fill="white"/>
<path d="M2 32C2 33.4 2.1 34.7 2.3 36H61.8C62 34.7 62.1 33.4 62.1 32C62.1 30.6 62 29.3 61.8 28H2.3C2.1 29.3 2 30.6 2 32Z" fill="#428BC1"/>
<path d="M20 59.5C22.5 60.6 25.2 61.4 28 61.7V2.29999C25.2 2.69999 22.5 3.39999 20 4.49999V59.5Z" fill="#428BC1"/>
<path d="M16.9998 25V6C9.9998 10.1 4.7998 16.9 2.7998 25H16.9998ZM16.9998 39V58C9.9998 53.9 4.7998 47.1 2.7998 39H16.9998ZM31.9998 2H30.9998V25H61.1998C57.9998 11.8 46.1998 2 31.9998 2ZM30.9998 39V62H31.9998C46.1998 62 57.9998 52.2 61.1998 39H30.9998Z" fill="#ED4C5C"/>
</svg>
