<svg width="64" height="64" viewBox="0 0 64 64" fill="none" xmlns="http://www.w3.org/2000/svg">
<path d="M17 58V6C8 11.2 2 20.9 2 32C2 43.1 8 52.8 17 58Z" fill="#699635"/>
<path d="M32 2C26.5 2 21.4 3.5 17 6V58C21.4 60.6 26.5 62 32 62C48.6 62 62 48.6 62 32C62 15.4 48.6 2 32 2Z" fill="#ED4C5C"/>
<path d="M17 20C10.4 20 5 25.4 5 32C5 38.6 10.4 44 17 44C23.6 44 29 38.6 29 32C29 25.4 23.6 20 17 20ZM17 42.5C11.2 42.5 6.5 37.8 6.5 32C6.5 26.2 11.2 21.5 17 21.5C22.8 21.5 27.5 26.2 27.5 32C27.5 37.8 22.8 42.5 17 42.5Z" fill="#FFE62E"/>
<path d="M21.0998 43.7C20.8998 43.9 20.5998 43.9 20.3998 43.7L6.6998 25.6C6.4998 25.4 6.4998 25.1 6.6998 24.9L6.9998 24.6C7.1998 24.4 7.4998 24.4 7.6998 24.6L21.3998 42.7C21.5998 42.9 21.5998 43.2 21.3998 43.4L21.0998 43.7Z" fill="#FFE62E"/>
<path d="M17.1992 19.5C17.4992 19.5 17.6992 19.7 17.6992 20V44C17.6992 44.3 17.4992 44.5 17.1992 44.5H16.6992C16.3992 44.5 16.1992 44.3 16.1992 44V20C16.1992 19.7 16.3992 19.5 16.6992 19.5H17.1992Z" fill="#FFE62E"/>
<path d="M28.8993 33.3L16.9993 31.2V32.7L28.6993 34.8C28.9993 34.8 29.1993 34.7 29.2993 34.4L29.3993 33.9C29.3993 33.7 29.1993 33.4 28.8993 33.3ZM16.9993 31.1L7.59925 24.5C7.39925 24.3 7.09925 24.4 6.89925 24.6L6.59925 25C6.39925 25.2 6.49925 25.5 6.69925 25.7L16.9993 32.9V31.1Z" fill="#FFE62E"/>
<path d="M16.5996 30L7.19964 39.4C6.99964 39.6 6.99964 39.9 7.19964 40.1L7.59964 40.5C7.79964 40.7 8.09964 40.7 8.29964 40.5L16.5996 32.2V30ZM16.9996 25.5L4.49964 31.4C4.29964 31.5 4.09964 31.8 4.29964 32.1L4.49964 32.6C4.59964 32.8 4.89964 33 5.19964 32.8L16.9996 27.2V25.5Z" fill="#FFE62E"/>
<path d="M28.0992 27.2L16.1992 25.1V26.6L27.8992 28.7C28.1992 28.7 28.3992 28.6 28.4992 28.3L28.5992 27.8C28.4992 27.5 28.2992 27.2 28.0992 27.2ZM16.8992 38.9C16.6992 39 16.4992 39.3 16.6992 39.6L16.8992 40.1C16.9992 40.3 17.2992 40.5 17.5992 40.3L27.5992 35.7L28.0992 33.8L16.8992 38.9ZM16.8992 35.5L5.69922 31.4V33L16.8992 37.1V35.5Z" fill="#FFE62E"/>
<path d="M9.09961 38.8V40.3L23.8996 41.3C24.4996 40.9 24.9996 40.4 25.4996 39.9L9.09961 38.8Z" fill="#FFE62E"/>
<path d="M12 27V34C12 36.8 14.2 39 17 39C19.8 39 22 36.8 22 34V27H12Z" fill="white"/>
<path d="M17 41C13.1 41 10 37.9 10 34V25H24V34C24 37.9 20.9 41 17 41ZM14 29V34C14 35.7 15.3 37 17 37C18.7 37 20 35.7 20 34V29H14Z" fill="#ED4C5C"/>
<path d="M16.0996 29.4V31C16.0996 31.3 16.2996 31.5 16.5996 31.5H17.3996C17.6996 31.5 17.8996 31.3 17.8996 31V29.3H16.0996V29.4ZM16.0996 31.9V33.6C16.0996 33.9 16.2996 34.1 16.5996 34.1H17.3996C17.6996 34.1 17.8996 33.9 17.8996 33.6V31.9H16.0996ZM14.0996 31.9V33.6C14.0996 33.9 14.2996 34.1 14.5996 34.1H15.3996C15.6996 34.1 15.8996 33.9 15.8996 33.6V31.9H14.0996ZM18.0996 31.9V33.6C18.0996 33.9 18.2996 34.1 18.5996 34.1H19.3996C19.6996 34.1 19.8996 33.9 19.8996 33.6V31.9H18.0996ZM16.0996 34.3V36C16.0996 36.3 16.2996 36.5 16.5996 36.5H17.3996C17.6996 36.5 17.8996 36.3 17.8996 36V34.3H16.0996Z" fill="#0071BC"/>
<path d="M17.0008 33.1C17.1112 33.1 17.2008 33.0105 17.2008 32.9C17.2008 32.7896 17.1112 32.7 17.0008 32.7C16.8903 32.7 16.8008 32.7896 16.8008 32.9C16.8008 33.0105 16.8903 33.1 17.0008 33.1Z" fill="white"/>
<path d="M16.6004 33.6C16.7108 33.6 16.8004 33.5105 16.8004 33.4C16.8004 33.2896 16.7108 33.2 16.6004 33.2C16.4899 33.2 16.4004 33.2896 16.4004 33.4C16.4004 33.5105 16.4899 33.6 16.6004 33.6Z" fill="white"/>
<path d="M17.4002 33.6C17.5107 33.6 17.6002 33.5105 17.6002 33.4C17.6002 33.2896 17.5107 33.2 17.4002 33.2C17.2897 33.2 17.2002 33.2896 17.2002 33.4C17.2002 33.5105 17.2897 33.6 17.4002 33.6Z" fill="white"/>
<path d="M16.6004 32.6C16.7108 32.6 16.8004 32.5105 16.8004 32.4C16.8004 32.2896 16.7108 32.2 16.6004 32.2C16.4899 32.2 16.4004 32.2896 16.4004 32.4C16.4004 32.5105 16.4899 32.6 16.6004 32.6Z" fill="white"/>
<path d="M17.4002 32.6C17.5107 32.6 17.6002 32.5105 17.6002 32.4C17.6002 32.2896 17.5107 32.2 17.4002 32.2C17.2897 32.2 17.2002 32.2896 17.2002 32.4C17.2002 32.5105 17.2897 32.6 17.4002 32.6Z" fill="white"/>
<path d="M17.0008 30.6C17.1112 30.6 17.2008 30.5105 17.2008 30.4C17.2008 30.2896 17.1112 30.2 17.0008 30.2C16.8903 30.2 16.8008 30.2896 16.8008 30.4C16.8008 30.5105 16.8903 30.6 17.0008 30.6Z" fill="white"/>
<path d="M16.6004 31.1C16.7108 31.1 16.8004 31.0105 16.8004 30.9C16.8004 30.7896 16.7108 30.7 16.6004 30.7C16.4899 30.7 16.4004 30.7896 16.4004 30.9C16.4004 31.0105 16.4899 31.1 16.6004 31.1Z" fill="white"/>
<path d="M17.4002 31.1C17.5107 31.1 17.6002 31.0105 17.6002 30.9C17.6002 30.7896 17.5107 30.7 17.4002 30.7C17.2897 30.7 17.2002 30.7896 17.2002 30.9C17.2002 31.0105 17.2897 31.1 17.4002 31.1Z" fill="white"/>
<path d="M16.6004 30.1C16.7108 30.1 16.8004 30.0105 16.8004 29.9C16.8004 29.7896 16.7108 29.7 16.6004 29.7C16.4899 29.7 16.4004 29.7896 16.4004 29.9C16.4004 30.0105 16.4899 30.1 16.6004 30.1Z" fill="white"/>
<path d="M17.4002 30.1C17.5107 30.1 17.6002 30.0105 17.6002 29.9C17.6002 29.7896 17.5107 29.7 17.4002 29.7C17.2897 29.7 17.2002 29.7896 17.2002 29.9C17.2002 30.0105 17.2897 30.1 17.4002 30.1Z" fill="white"/>
<path d="M19.0008 33.1C19.1112 33.1 19.2008 33.0105 19.2008 32.9C19.2008 32.7896 19.1112 32.7 19.0008 32.7C18.8903 32.7 18.8008 32.7896 18.8008 32.9C18.8008 33.0105 18.8903 33.1 19.0008 33.1Z" fill="white"/>
<path d="M18.6004 33.6C18.7108 33.6 18.8004 33.5105 18.8004 33.4C18.8004 33.2896 18.7108 33.2 18.6004 33.2C18.4899 33.2 18.4004 33.2896 18.4004 33.4C18.4004 33.5105 18.4899 33.6 18.6004 33.6Z" fill="white"/>
<path d="M19.4002 33.6C19.5107 33.6 19.6002 33.5105 19.6002 33.4C19.6002 33.2896 19.5107 33.2 19.4002 33.2C19.2897 33.2 19.2002 33.2896 19.2002 33.4C19.2002 33.5105 19.2897 33.6 19.4002 33.6Z" fill="white"/>
<path d="M18.6004 32.6C18.7108 32.6 18.8004 32.5105 18.8004 32.4C18.8004 32.2896 18.7108 32.2 18.6004 32.2C18.4899 32.2 18.4004 32.2896 18.4004 32.4C18.4004 32.5105 18.4899 32.6 18.6004 32.6Z" fill="white"/>
<path d="M19.4002 32.6C19.5107 32.6 19.6002 32.5105 19.6002 32.4C19.6002 32.2896 19.5107 32.2 19.4002 32.2C19.2897 32.2 19.2002 32.2896 19.2002 32.4C19.2002 32.5105 19.2897 32.6 19.4002 32.6Z" fill="white"/>
<path d="M15.0008 33.1C15.1112 33.1 15.2008 33.0105 15.2008 32.9C15.2008 32.7896 15.1112 32.7 15.0008 32.7C14.8903 32.7 14.8008 32.7896 14.8008 32.9C14.8008 33.0105 14.8903 33.1 15.0008 33.1Z" fill="white"/>
<path d="M14.6004 33.6C14.7108 33.6 14.8004 33.5105 14.8004 33.4C14.8004 33.2896 14.7108 33.2 14.6004 33.2C14.4899 33.2 14.4004 33.2896 14.4004 33.4C14.4004 33.5105 14.4899 33.6 14.6004 33.6Z" fill="white"/>
<path d="M15.4002 33.6C15.5107 33.6 15.6002 33.5105 15.6002 33.4C15.6002 33.2896 15.5107 33.2 15.4002 33.2C15.2897 33.2 15.2002 33.2896 15.2002 33.4C15.2002 33.5105 15.2897 33.6 15.4002 33.6Z" fill="white"/>
<path d="M14.6004 32.6C14.7108 32.6 14.8004 32.5105 14.8004 32.4C14.8004 32.2896 14.7108 32.2 14.6004 32.2C14.4899 32.2 14.4004 32.2896 14.4004 32.4C14.4004 32.5105 14.4899 32.6 14.6004 32.6Z" fill="white"/>
<path d="M15.4002 32.6C15.5107 32.6 15.6002 32.5105 15.6002 32.4C15.6002 32.2896 15.5107 32.2 15.4002 32.2C15.2897 32.2 15.2002 32.2896 15.2002 32.4C15.2002 32.5105 15.2897 32.6 15.4002 32.6Z" fill="white"/>
<path d="M17.0008 35.6C17.1112 35.6 17.2008 35.5105 17.2008 35.4C17.2008 35.2896 17.1112 35.2 17.0008 35.2C16.8903 35.2 16.8008 35.2896 16.8008 35.4C16.8008 35.5105 16.8903 35.6 17.0008 35.6Z" fill="white"/>
<path d="M16.6004 36.1C16.7108 36.1 16.8004 36.0105 16.8004 35.9C16.8004 35.7896 16.7108 35.7 16.6004 35.7C16.4899 35.7 16.4004 35.7896 16.4004 35.9C16.4004 36.0105 16.4899 36.1 16.6004 36.1Z" fill="white"/>
<path d="M17.4002 36.1C17.5107 36.1 17.6002 36.0105 17.6002 35.9C17.6002 35.7896 17.5107 35.7 17.4002 35.7C17.2897 35.7 17.2002 35.7896 17.2002 35.9C17.2002 36.0105 17.2897 36.1 17.4002 36.1Z" fill="white"/>
<path d="M16.6004 35.1C16.7108 35.1 16.8004 35.0105 16.8004 34.9C16.8004 34.7896 16.7108 34.7 16.6004 34.7C16.4899 34.7 16.4004 34.7896 16.4004 34.9C16.4004 35.0105 16.4899 35.1 16.6004 35.1Z" fill="white"/>
<path d="M17.4002 35.1C17.5107 35.1 17.6002 35.0105 17.6002 34.9C17.6002 34.7896 17.5107 34.7 17.4002 34.7C17.2897 34.7 17.2002 34.7896 17.2002 34.9C17.2002 35.0105 17.2897 35.1 17.4002 35.1Z" fill="white"/>
<path d="M16 28H18L17.8 27V26H18V25.5H17.7V25.8H17.6V25.5H17.3V25.8H17.1V25.5H16.9V25.8H16.7V25.5H16.4V25.8H16.2V25.5H16V26H16.2V27L16 28Z" fill="#FFE62E"/>
<path d="M17.3004 28H17.2004V27.6C17.2004 27.5 17.1004 27.4 17.0004 27.4C16.9004 27.4 16.8004 27.5 16.8004 27.6V28H16.7004V27.6C16.7004 27.4 16.8004 27.3 17.0004 27.3C17.2004 27.3 17.3004 27.4 17.3004 27.6V28ZM17.0004 26.9H16.4004V26.4C16.4004 26.2 16.5004 26.1 16.7004 26.1C16.9004 26.1 17.0004 26.2 17.0004 26.4V26.9ZM16.5004 26.8H16.9004V26.4C16.9004 26.3 16.8004 26.2 16.7004 26.2C16.6004 26.2 16.5004 26.3 16.5004 26.4V26.8ZM17.6004 26.9H17.0004V26.4C17.0004 26.2 17.1004 26.1 17.3004 26.1C17.5004 26.1 17.6004 26.2 17.6004 26.4V26.9ZM17.1004 26.8H17.5004V26.4C17.5004 26.3 17.4004 26.2 17.3004 26.2C17.2004 26.2 17.1004 26.3 17.1004 26.4V26.8Z" fill="#3E4347"/>
<path d="M11 28H13L12.8 27V26H13V25.5H12.7V25.8H12.6V25.5H12.3V25.8H12.1V25.5H11.9V25.8H11.7V25.5H11.4V25.8H11.2V25.5H11V26H11.2V27L11 28Z" fill="#FFE62E"/>
<path d="M12.3004 28H12.2004V27.6C12.2004 27.5 12.1004 27.4 12.0004 27.4C11.9004 27.4 11.8004 27.5 11.8004 27.6V28H11.7004V27.6C11.7004 27.4 11.8004 27.3 12.0004 27.3C12.2004 27.3 12.3004 27.4 12.3004 27.6V28ZM12.0004 26.9H11.4004V26.4C11.4004 26.2 11.5004 26.1 11.7004 26.1C11.9004 26.1 12.0004 26.2 12.0004 26.4V26.9ZM11.5004 26.8H11.9004V26.4C11.9004 26.3 11.8004 26.2 11.7004 26.2C11.6004 26.2 11.5004 26.3 11.5004 26.4V26.8Z" fill="#3E4347"/>
<path d="M12.6 26.9H12V26.4C12 26.2 12.1 26.1 12.3 26.1C12.5 26.1 12.6 26.2 12.6 26.4V26.9ZM12.1 26.8H12.5V26.4C12.5 26.3 12.4 26.2 12.3 26.2C12.2 26.2 12.1 26.3 12.1 26.4V26.8Z" fill="#3E4347"/>
<path d="M11 33.9H13L12.8 32.9V31.9H13V31.4H12.8V31.7H12.6V31.4H12.4V31.7H12.1V31.4H11.9V31.7H11.7V31.4H11.5V31.7H11.3V31.4H11V31.9H11.3V32.9L11 33.9Z" fill="#FFE62E"/>
<path d="M12.3004 33.9H12.2004V33.5C12.2004 33.4 12.1004 33.3 12.0004 33.3C11.9004 33.3 11.8004 33.4 11.8004 33.5V33.9H11.7004V33.5C11.7004 33.3 11.8004 33.2 12.0004 33.2C12.2004 33.2 12.3004 33.3 12.3004 33.5V33.9ZM12.0004 32.8H11.4004V32.3C11.4004 32.1 11.5004 32 11.7004 32C11.9004 32 12.0004 32.1 12.0004 32.3V32.8ZM11.5004 32.7H11.9004V32.3C11.9004 32.2 11.8004 32.1 11.7004 32.1C11.6004 32.1 11.5004 32.2 11.5004 32.3V32.7ZM12.7004 32.8H12.1004V32.3C12.1004 32.1 12.2004 32 12.4004 32C12.6004 32 12.7004 32.1 12.7004 32.3V32.8ZM12.2004 32.7H12.6004V32.3C12.6004 32.2 12.5004 32.1 12.4004 32.1C12.3004 32.1 12.2004 32.2 12.2004 32.3V32.7Z" fill="#3E4347"/>
<path d="M21 34H23L22.8 33V32H23V31.6H22.7V31.8H22.6V31.6H22.3V31.8H22.1V31.6H21.9V31.8H21.7V31.6H21.4V31.8H21.2V31.6H21V32H21.2V33L21 34Z" fill="#FFE62E"/>
<path d="M22.3004 34H22.2004V33.6C22.2004 33.5 22.1004 33.4 22.0004 33.4C21.9004 33.4 21.8004 33.5 21.8004 33.6V34H21.7004V33.6C21.7004 33.4 21.8004 33.3 22.0004 33.3C22.2004 33.3 22.3004 33.4 22.3004 33.6V34ZM22.0004 32.9H21.4004V32.4C21.4004 32.2 21.5004 32.1 21.7004 32.1C21.9004 32.1 22.0004 32.2 22.0004 32.4V32.9ZM21.5004 32.8H21.9004V32.4C21.9004 32.3 21.8004 32.2 21.7004 32.2C21.6004 32.2 21.5004 32.3 21.5004 32.4V32.8ZM22.6004 32.9H22.0004V32.4C22.0004 32.2 22.1004 32.1 22.3004 32.1C22.5004 32.1 22.6004 32.2 22.6004 32.4V32.9ZM22.1004 32.8H22.5004V32.4C22.5004 32.3 22.4004 32.2 22.3004 32.2C22.2004 32.2 22.1004 32.3 22.1004 32.4V32.8Z" fill="#3E4347"/>
<path d="M21 28H23L22.8 27V26H23V25.5H22.7V25.8H22.6V25.5H22.3V25.8H22.1V25.5H21.9V25.8H21.7V25.5H21.4V25.8H21.2V25.5H21V26H21.2V27L21 28Z" fill="#FFE62E"/>
<path d="M22.3004 28H22.2004V27.6C22.2004 27.5 22.1004 27.4 22.0004 27.4C21.9004 27.4 21.8004 27.5 21.8004 27.6V28H21.7004V27.6C21.7004 27.4 21.8004 27.3 22.0004 27.3C22.2004 27.3 22.3004 27.4 22.3004 27.6V28ZM22.0004 26.9H21.4004V26.4C21.4004 26.2 21.5004 26.1 21.7004 26.1C21.9004 26.1 22.0004 26.2 22.0004 26.4V26.9ZM21.5004 26.8H21.9004V26.4C21.9004 26.3 21.8004 26.2 21.7004 26.2C21.6004 26.2 21.5004 26.3 21.5004 26.4V26.8ZM22.6004 26.9H22.0004V26.4C22.0004 26.2 22.1004 26.1 22.3004 26.1C22.5004 26.1 22.6004 26.2 22.6004 26.4V26.9ZM22.1004 26.8H22.5004V26.4C22.5004 26.3 22.4004 26.2 22.3004 26.2C22.2004 26.2 22.1004 26.3 22.1004 26.4V26.8Z" fill="#3E4347"/>
<path d="M14.2 39.6L15.6 38.1L14.7 37.6L14 36.9L14.2 36.7L13.9 36.4L13.7 36.6L13.9 36.8L13.8 36.9L13.6 36.7L13.4 36.9L13.6 37L13.4 37.2L13.3 37L13.1 37.2L13.3 37.4L13.1 37.5L13 37.3L12.8 37.5L12.9 37.7L12.8 37.8L12.7 37.6L12.5 37.8L12.8 38.1H12.9L13 38L13.7 38.7L14.2 39.6Z" fill="#FFE62E"/>
<path d="M14.7002 38.4C14.6002 38.3 14.5002 38.3 14.4002 38.4C14.3002 38.5 14.3002 38.6 14.4002 38.7L14.7002 39L14.6002 39.1L14.3002 38.8C14.2002 38.7 14.2002 38.5 14.3002 38.4C14.4002 38.3 14.6002 38.3 14.7002 38.4ZM14.1002 38.1L13.7002 38.5L13.4002 38.2C13.3002 38.1 13.3002 37.9 13.4002 37.8C13.5002 37.7 13.7002 37.7 13.8002 37.8L14.1002 38.1ZM13.7002 38.4L14.0002 38.1L13.7002 37.8C13.6002 37.7 13.5002 37.7 13.4002 37.8C13.3002 37.9 13.3002 38 13.4002 38.1L13.7002 38.4ZM14.6002 37.6L14.2002 38L13.9002 37.7C13.8002 37.6 13.8002 37.4 13.9002 37.3C14.0002 37.2 14.2002 37.2 14.3002 37.3L14.6002 37.6ZM14.2002 37.9L14.5002 37.6L14.2002 37.3C14.1002 37.2 14.0002 37.2 13.9002 37.3C13.8002 37.4 13.8002 37.5 13.9002 37.6L14.2002 37.9Z" fill="#3E4347"/>
<path d="M19.8004 39.6L18.4004 38.1L19.2004 37.6L19.9004 36.9L19.8004 36.7L20.1004 36.4L20.3004 36.6L20.1004 36.8L20.2004 36.9L20.4004 36.7L20.6004 36.9L20.4004 37L20.6004 37.2L20.7004 37L20.9004 37.2L20.7004 37.4L20.9004 37.5L21.0004 37.3L21.2004 37.5L21.0004 37.7L21.2004 37.8L21.3004 37.6L21.5004 37.8L21.2004 38.1H21.1004L21.0004 38L20.3004 38.7L19.8004 39.6Z" fill="#FFE62E"/>
<path d="M18.9004 38.6L19.3004 38.4C19.4004 38.3 19.5004 38.3 19.6004 38.4C19.7004 38.5 19.7004 38.6 19.6004 38.7L19.2004 39L19.3004 39.1L19.6004 38.8C19.7004 38.7 19.7004 38.5 19.6004 38.4C19.5004 38.3 19.3004 38.3 19.2004 38.4L18.9004 38.6ZM20.2004 37.8C20.3004 37.7 20.5004 37.7 20.6004 37.8C20.7004 37.9 20.7004 38.1 20.6004 38.2L20.3004 38.5L19.9004 38.1L20.2004 37.8ZM20.5004 38.1C20.6004 38 20.6004 37.9 20.5004 37.8C20.4004 37.7 20.3004 37.7 20.2004 37.8L20.0004 38.1L20.3004 38.4L20.5004 38.1ZM19.7004 37.3C19.8004 37.2 20.0004 37.2 20.1004 37.3C20.2004 37.4 20.2004 37.6 20.1004 37.7L19.8004 38L19.4004 37.6L19.7004 37.3ZM20.1004 37.6C20.2004 37.5 20.2004 37.4 20.1004 37.3C20.0004 37.2 19.9004 37.2 19.8004 37.3L19.5004 37.6L19.8004 37.9L20.1004 37.6Z" fill="#3E4347"/>
</svg>
