<svg width="64" height="64" viewBox="0 0 64 64" fill="none" xmlns="http://www.w3.org/2000/svg">
<path d="M32.0002 2C18.9002 2 7.8002 10.4 3.7002 22H60.3002C56.2002 10.4 45.1002 2 32.0002 2Z" fill="#ED4C5C"/>
<path d="M32.0002 62C45.1002 62 56.2002 53.7 60.3002 42H3.7002C7.8002 53.7 18.9002 62 32.0002 62Z" fill="#F9F9F9"/>
<path d="M3.7 22C2.6 25.1 2 28.5 2 32C2 35.5 2.6 38.9 3.7 42H60.3C61.4 38.9 62 35.5 62 32C62 28.5 61.4 25.1 60.3 22H3.7Z" fill="#2872A0"/>
<path d="M15.5 21.7V37.9C15.5 43.5 20.2 48 26 48C31.8 48 36.5 43.5 36.5 37.9V21.7H15.5Z" fill="#ED4C5C"/>
<path d="M29.7995 46.3L29.5995 45.4L28.7995 44L29.0995 43.8L28.8995 42.9L28.1995 41.8L28.3995 41.7L28.1995 40.8L27.6995 39.8L28.4995 38.3L28.9995 39.9L29.3995 39.3L29.9995 40.2L30.1995 39.6L30.7995 39.9L30.6995 38.7L32.0995 39.1L31.0995 37.8H31.1995L30.3995 36.2L30.5995 35.6L31.0995 36.6L31.2995 36.2L32.0995 38.4V38.3L32.4995 39.1L32.6995 38.7L33.4995 40.3L33.7995 39.4L34.9995 40.3C34.9995 40.3 34.8995 37.3 34.8995 36.4C35.0995 33.8 35.9995 28.5 35.2995 26.1C34.9995 24.9 32.5995 22 32.5995 22C32.5995 22 32.4995 25.5 31.8995 26.6C31.6995 27 29.8995 28.1 29.8995 28.1L29.1995 28L29.4995 27.9L28.1995 26.6L28.6995 24L29.9995 22.1L27.9995 22.2L26.4995 22.6L26.8995 23.2L25.9995 26.4L25.0995 23.3L25.4995 22.7L23.9995 22.2L21.9995 22.1L23.2995 24L23.7995 26.6L22.4995 27.9L22.7995 28L21.9995 28.2C21.9995 28.2 20.1995 27.1 19.9995 26.7C19.3995 25.7 19.2995 22.1 19.2995 22.1C19.2995 22.1 16.8995 25 16.5995 26.2C15.8995 28.7 16.8995 34 16.9995 36.5C17.0995 37.5 16.8995 40.4 16.8995 40.4L18.0995 39.5L18.3995 40.4L19.1995 38.8L19.3995 39.2L19.7995 38.4V38.5L20.5995 36.3L20.7995 36.7L21.2995 35.7L21.4995 36.3L20.6995 37.9H20.7995L19.7995 39.2L21.1995 38.8V40L21.7995 39.7L21.9995 40.3L22.5995 39.4L22.9995 40L23.4995 38.4L24.2995 39.9L23.7995 40.9L23.5995 41.8L23.7995 41.9L23.0995 43L22.8995 43.9L23.1995 44.1L22.4995 45.6L22.2995 46.5L29.7995 46.3Z" fill="white"/>
<path d="M20 41.7L20.2 41.3L21.1 40.9L21.7 40.7H22.1L22.2 40.6L21.6 40.3L21.5 40.2L21 40.4L20.6 40.7L21.4 39.7L22.1 38.1L21 38.8L20 40.6L19.6 40.8H18.6L18.1 40.7L17.5 41L17.6 41.1H18L18.4 41.3L19.3 41.2L18.3 41.5L18.1 41.9V42.5H18.2L18.3 42.2H18.8L19.7 41.4L19 42.5L18.9 43L19.2 43.7L19.4 43.6V43.1L19.8 42.7L20 41.7ZM31.9 41.7L31.8 41.3L30.9 40.9L30.3 40.7H29.9L29.8 40.6L30.4 40.3L30.5 40.2L31 40.4L31.4 40.7L30.6 39.7L29.9 38.1L31 38.8L32 40.6L32.4 40.8H33.4L33.9 40.7L34.5 41L34.4 41.1H34L33.6 41.3L32.7 41.2L33.7 41.5L33.9 41.9V42.5H33.8L33.7 42.2H33.2L32.3 41.4L33 42.5L33.1 43L32.8 43.7L32.6 43.6V43.1L32.2 42.7L31.9 41.7ZM21.4 22.2C20.4 22.3 20.5 23 21.4 23.9C21.6 24.1 21.6 24.1 21.7 23.9C21.8 23.6 22.1 23.4 22.3 23.6C22.4 23.8 22.4 23.9 22.8 23.8C22.9 23.9 23.1 24 23.2 24.1C23.1 24.1 22.7 24.2 22.1 24.3C21.6 24.4 21.3 24.2 20.9 23.8C21 24.3 22.2 24.6 22.1 24.6C22.2 24.8 22.2 24.9 22.3 24.9C22.7 25 23.1 24.7 23.5 24.8C24.4 25 22.9 22.5 23 22.4C23.1 22.2 21.7 21.8 21.4 22.2ZM29.6 25C29.7 25 29.7 25 29.8 24.7C29.7 24.7 30.9 24.4 31 23.9C30.7 24.3 30.3 24.5 29.8 24.4C29.2 24.3 28.8 24.1 28.7 24.2C28.8 24.1 28.9 24 29.1 23.9C29.5 24 29.5 23.9 29.6 23.7C29.8 23.5 30.1 23.6 30.2 24C30.2 24.2 30.3 24.2 30.5 24C31.4 23.1 31.5 22.4 30.5 22.3C30.3 21.9 28.9 22.3 29 22.6C29 22.7 27.6 25.2 28.5 25C28.8 24.8 29.2 25 29.6 25Z" fill="#FFCE31"/>
<path d="M21.5996 28.6V35.9C21.5996 38.1 23.5996 39.9 25.9996 39.9C28.3996 39.9 30.3996 38.1 30.3996 35.9V28.6H21.5996Z" fill="#ED4C5C"/>
<path d="M24.7998 27.3H27.2998V42.3H24.7998V27.3Z" fill="white"/>
<path d="M19.0996 32.3H32.8996V34.8H19.0996V32.3ZM23.9996 30.4L22.9996 31.4L23.2996 30.4L22.9996 29.5L23.9996 30.4ZM23.9996 36.7L22.9996 37.7L23.2996 36.7L22.9996 35.7L23.9996 36.7ZM27.9996 30.4L28.9996 31.4L28.7996 30.4L28.9996 29.5L27.9996 30.4ZM27.9996 36.7L28.9996 37.7L28.7996 36.7L28.9996 35.7L27.9996 36.7Z" fill="white"/>
<path d="M27 11.7H25V13.7H27V11.7Z" fill="#428BC1"/>
<path d="M25.1004 10.4L25.3004 10.5L25.5004 10.4H25.8004V11.6H25.0004V12H27.0004V11.6H26.2004V10.4H26.5004L26.7004 10.5L26.9004 10.4L27.1004 10.2L26.9004 10L26.7004 9.8L26.5004 10H26.2004V9.6L26.4004 9.4L26.2004 9.2L26.0004 9L25.8004 9.2L25.6004 9.4L25.8004 9.6V10H25.5004L25.3004 9.8L25.1004 10L24.9004 10.2L25.1004 10.4ZM32.5004 14.4C31.2004 13.7 30.4004 13.5 30.1004 14C30.1004 14 30.1004 14.1 30.0004 14.1C28.4004 13.3 27.2004 13.2 26.0004 13.7C24.8004 13.2 23.7004 13.3 22.0004 14.1C22.0004 14 22.0004 14 21.9004 14C21.6004 13.5 20.8004 13.6 19.5004 14.4C18.2004 15.1 17.0004 16.1 17.3004 16.5C17.4004 17.2 17.8004 17.8 18.5004 18.5C19.3004 18.9 20.9004 19 22.6004 18.9C24.8004 18.8 27.1004 18.8 29.3004 18.9C31.0004 19 32.6004 18.9 33.4004 18.5C34.1004 17.8 34.5004 17.2 34.6004 16.5C35.0004 16.2 33.7004 15.2 32.5004 14.4Z" fill="#FFCE31"/>
<path d="M27.3996 17.2C28.1996 16.5 28.6996 15.8 29.0996 15.1C28.3996 14.9 27.6996 14.8 27.0996 14.9C27.1996 15.7 27.2996 16.5 27.3996 17.2ZM24.5996 17.2C24.6996 16.4 24.7996 15.6 24.9996 14.8C24.3996 14.7 23.6996 14.8 22.9996 15C23.1996 15.8 23.7996 16.5 24.5996 17.2ZM32.5996 15.8C32.4996 15.7 32.2996 15.5 31.9996 15.4C31.6996 15.3 31.3996 15.2 31.1996 15.2C31.0996 16 30.7996 16.8 30.0996 17.6C30.3996 17.6 30.6996 17.5 30.8996 17.4C31.6996 17 32.1996 16.5 32.5996 16.1C32.6996 16 32.6996 15.9 32.5996 15.8ZM20.7996 15.1C20.5996 15.1 20.2996 15.2 19.9996 15.3C19.4996 15.5 19.1996 15.9 19.3996 16C19.7996 16.4 20.2996 16.8 21.0996 17.3C21.2996 17.4 21.5996 17.4 21.8996 17.5C21.1996 16.7 20.8996 16 20.7996 15.1Z" fill="#ED4C5C"/>
<path d="M18.5996 18.5H33.3996V20.5H18.5996V18.5Z" fill="#FFCE31"/>
<path d="M18.6002 18.9L18.2002 19.6L18.7002 20.1L19.4002 19.4L18.6002 18.9ZM33.4002 18.9L32.6002 19.4L33.3002 20.1L33.8002 19.6L33.4002 18.9ZM26.0002 18.4L25.2002 19.1L26.0002 19.7L26.8002 19.1L26.0002 18.4Z" fill="#428BC1"/>
<path d="M22.3 19.8L23 19.1L22.2 18.6L21.5 19.2L22.3 19.8ZM29.7 19.8L30.5 19.2L29.8 18.6L29 19.1L29.7 19.8Z" fill="#ED4C5C"/>
</svg>
