<svg width="61" height="61" viewBox="0 0 61 61" fill="none" xmlns="http://www.w3.org/2000/svg">
<path d="M58.3314 23.8281C55.2814 11.2469 44.0346 1.90625 30.5002 1.90625H29.5471V23.8281H58.3314ZM16.2033 5.71875C9.53145 9.62656 4.5752 16.1078 2.66895 23.8281H16.2033V5.71875ZM2.66895 37.1719C4.5752 44.8922 9.53145 51.3734 16.2033 55.2812V37.1719H2.66895ZM29.5471 59.0938H30.5002C44.0346 59.0938 55.2814 49.7531 58.3314 37.1719H29.5471V59.0938Z" fill="#428BC1"/>
<path d="M58.3312 23.8281H29.5469V1.90625C24.6859 2.09687 20.1109 3.43125 16.2031 5.71875V23.8281H2.66875C2.19219 25.925 1.90625 28.2125 1.90625 30.5C1.90625 32.7875 2.19219 35.075 2.66875 37.1719H16.2031V55.2812C20.1109 57.5687 24.6859 58.9031 29.5469 59.0938V37.1719H58.3312C58.8078 35.075 59.0938 32.7875 59.0938 30.5C59.0938 28.2125 58.8078 25.925 58.3312 23.8281Z" fill="#FFE62E"/>
</svg>
