<svg width="63" height="63" viewBox="0 0 63 63" fill="none" xmlns="http://www.w3.org/2000/svg">
<path d="M60.2434 24.6094C57.0934 11.6156 45.4777 1.96875 31.4996 1.96875H30.5152V24.6094H60.2434ZM16.734 5.90625C9.84336 9.94219 4.72461 16.6359 2.75586 24.6094H16.734V5.90625ZM2.75586 38.3906C4.72461 46.3641 9.84336 53.0578 16.734 57.0938V38.3906H2.75586ZM30.5152 61.0312H31.4996C45.4777 61.0312 57.0934 51.3844 60.2434 38.3906H30.5152V61.0312Z" fill="#428BC1"/>
<path d="M60.2438 24.6094H30.5156V1.96875C25.4953 2.16563 20.7703 3.54375 16.7344 5.90625V24.6094H2.75625C2.26406 26.775 1.96875 29.1375 1.96875 31.5C1.96875 33.8625 2.26406 36.225 2.75625 38.3906H16.7344V57.0938C20.7703 59.4563 25.4953 60.8344 30.5156 61.0312V38.3906H60.2438C60.7359 36.225 61.0312 33.8625 61.0312 31.5C61.0312 29.1375 60.7359 26.775 60.2438 24.6094Z" fill="#FFE62E"/>
</svg>
