<svg width="66" height="65" viewBox="0 0 66 65" fill="none" xmlns="http://www.w3.org/2000/svg">
<circle cx="33.2964" cy="32.5" r="32.5" fill="#624CAB"/>
<path d="M26.6993 51C25.7916 51 25.0147 50.6771 24.3688 50.0314C23.7218 49.3846 23.3984 48.6075 23.3984 47.7C23.3984 46.7925 23.7218 46.0153 24.3688 45.3685C25.0147 44.7228 25.7916 44.4 26.6993 44.4C27.6071 44.4 28.3839 44.7228 29.0298 45.3685C29.6768 46.0153 30.0003 46.7925 30.0003 47.7C30.0003 48.6075 29.6768 49.3846 29.0298 50.0314C28.3839 50.6771 27.6071 51 26.6993 51ZM43.2042 51C42.2965 51 41.5196 50.6771 40.8738 50.0314C40.2268 49.3846 39.9033 48.6075 39.9033 47.7C39.9033 46.7925 40.2268 46.0153 40.8738 45.3685C41.5196 44.7228 42.2965 44.4 43.2042 44.4C44.112 44.4 44.8894 44.7228 45.5364 45.3685C46.1823 46.0153 46.5052 46.7925 46.5052 47.7C46.5052 48.6075 46.1823 49.3846 45.5364 50.0314C44.8894 50.6771 44.112 51 43.2042 51ZM25.2964 24.6L29.2576 32.85H40.811L45.3499 24.6H25.2964ZM26.6993 42.75C25.4615 42.75 24.5262 42.2066 23.8935 41.1198C23.2608 40.0341 23.2333 38.955 23.811 37.8825L26.0391 33.84L20.0974 21.3H18.4056C17.938 21.3 17.5529 21.1416 17.2503 20.8248C16.9477 20.5091 16.7964 20.1175 16.7964 19.65C16.7964 19.1825 16.9548 18.7903 17.2717 18.4735C17.5875 18.1578 17.9792 18 18.4469 18H21.1289C21.4315 18 21.7204 18.0825 21.9954 18.2475C22.2705 18.4125 22.4768 18.6463 22.6144 18.9488L23.7284 21.3H48.0732C48.8159 21.3 49.3248 21.575 49.5999 22.125C49.875 22.675 49.8612 23.2525 49.5586 23.8575L43.6994 34.4175C43.3968 34.9675 42.9979 35.3938 42.5028 35.6963C42.0076 35.9988 41.4437 36.15 40.811 36.15H28.5149L26.6993 39.45H44.896C45.3636 39.45 45.7488 39.6078 46.0513 39.9235C46.3539 40.2403 46.5052 40.6325 46.5052 41.1C46.5052 41.5675 46.3468 41.9591 46.0299 42.2748C45.7141 42.5916 45.3224 42.75 44.8547 42.75H26.6993ZM29.2576 32.85H40.811H29.2576Z" fill="white"/>
</svg>
