<svg width="43" height="43" viewBox="0 0 43 43" fill="none" xmlns="http://www.w3.org/2000/svg">
<path d="M21.715 36.4387L21.5 36.673L21.2635 36.4387C11.051 26.339 4.3 19.6605 4.3 12.8883C4.3 8.20163 7.525 4.68665 11.825 4.68665C15.136 4.68665 18.361 7.02997 19.5005 10.2169H23.4995C24.639 7.02997 27.864 4.68665 31.175 4.68665C35.475 4.68665 38.7 8.20163 38.7 12.8883C38.7 19.6605 31.949 26.339 21.715 36.4387ZM31.175 0C27.434 0 23.8435 1.89809 21.5 4.87411C19.1565 1.89809 15.566 0 11.825 0C5.203 0 0 5.64741 0 12.8883C0 21.7226 7.31 28.9635 18.3825 39.9068L21.5 43L24.6175 39.9068C35.69 28.9635 43 21.7226 43 12.8883C43 5.64741 37.797 0 31.175 0Z" fill="#F06C9B"/>
<path d="M19.6985 13.9802C19.6985 13.4239 19.2304 12.8459 19.0868 12.3432C18.8982 11.6831 18.863 11.0537 18.5785 10.4134C18.4057 10.0247 18.0683 9.1093 17.76 8.86261C17.468 8.62903 16.8433 7.90275 16.7434 7.55307C16.62 7.12112 15.5746 6.68866 15.2012 6.50198C14.364 6.08338 13.4482 5.80609 12.5477 5.60598C10.7257 5.20111 9.12452 5.11199 7.44731 5.95059C6.66883 6.33984 6.40736 7.11116 5.819 7.69953C5.33294 8.18559 5.37431 8.80149 4.93161 9.29338C4.2297 10.0733 4.11903 12.2233 4.35437 13.2823C5.00922 16.2292 6.31027 18.9335 7.63685 21.7341C8.04576 22.5973 9.09822 23.1612 9.46333 23.9827C9.76265 24.6562 10.9087 25.6406 11.5138 26.0763C12.5728 26.8387 13.6343 27.7571 14.3483 28.8677C14.7254 29.4543 15.2036 30.1091 15.7354 30.5649C15.889 30.6966 16.369 31.1524 16.4418 31.28C17.2403 32.6773 18.8197 33.7267 19.9311 34.8381C21.0796 35.9867 22.3763 34.1677 23.1446 33.3994C24.1523 32.3917 25.2869 31.6139 26.2117 30.5735C26.7825 29.9314 27.3738 29.4114 27.9951 28.7901C28.7617 28.0235 29.5529 27.12 30.3988 26.4553C30.9504 26.022 31.7141 25.1898 31.9841 24.5599C32.093 24.3057 32.5002 23.77 32.725 23.6295C33.0823 23.4061 33.2708 22.8942 33.5779 22.587C33.8659 22.299 34.23 21.9993 34.4309 21.6479C35.5148 19.7511 37.451 18.0007 37.5324 15.7205C37.573 14.5849 37.8426 13.5096 37.8426 12.3519C37.8426 11.391 37.1671 10.5371 37.0672 9.638C36.993 8.97082 36.058 8.00905 35.5078 7.69953C34.6841 7.23621 33.9853 6.3316 33.1041 6.07983C31.3368 5.57488 28.0359 5.21239 26.4443 6.45029C25.8477 6.91436 25.2957 7.25496 24.8505 7.81153C24.3764 8.40417 24.6795 9.55048 24.1613 10.0688C23.6701 10.5599 23.3612 11.2939 22.7311 11.654C22.452 11.8135 21.3062 12.2291 20.9735 11.9297C20.7921 11.7664 20.6289 11.0394 20.6289 11.2835C20.6289 11.7147 20.7405 11.8579 20.9391 12.2054C21.124 12.529 21.4799 12.6353 21.6369 12.9808C21.6599 13.0313 22.1925 14.2069 22.3262 13.7389C22.6092 12.7484 20.7096 10.0412 19.6209 10.646C19.1649 10.8993 18.7278 10.6086 18.3028 11.0337C18.0699 11.2665 17.7226 11.4676 17.6825 11.8091C17.5499 12.9359 15.4498 10.7832 15.2357 10.4134C14.676 9.44672 12.9288 8.11887 11.7895 8.08722C9.81831 8.03247 6.98208 7.73167 6.98208 10.3445C6.98208 11.2074 6.64177 12.0514 7.01654 12.8946C7.23493 13.386 7.05392 13.9223 7.2147 14.4368C7.36543 14.9191 7.48366 15.3814 7.68855 15.8497C8.41851 17.5182 9.50708 19.0825 10.4283 20.6485C10.7942 21.2706 11.4977 22.0626 12.0221 22.587C12.8947 23.4596 13.7109 24.8514 14.3052 25.9212C14.6314 26.5083 15.5467 26.5566 16.0369 26.9378C16.2951 27.1386 16.5929 27.4679 16.8295 27.7046C17.3918 28.2669 17.781 29.1636 18.3803 29.643C19.1139 30.2299 19.4302 31.1803 20.3188 31.6246C20.9325 31.9314 21.6217 32.8153 22.3348 32.3569C23.1219 31.8509 23.8063 30.6035 24.2302 29.7981C24.951 28.4285 25.7876 27.308 26.7114 26.0763C27.3483 25.2271 28.4086 24.3417 29.3908 23.9052C30.0481 23.6131 31.1731 22.7707 31.4499 22.0787C32.1928 20.2214 33.7466 18.8144 34.3447 16.8491C34.6729 15.7707 34.9395 14.6087 34.8961 13.4805C34.8646 12.6607 33.9053 11.5654 33.4315 10.9562C32.1668 9.33019 30.6335 8.86261 28.5379 8.86261C27.7541 8.86261 26.3087 8.57882 25.6776 9.09523C24.7998 9.81339 26.184 8.99708 26.5219 8.82815C27.4035 8.38733 28.2584 7.90131 29.1582 7.50137C29.6822 7.2685 30.2367 7.94903 30.5625 8.2423C31.2125 8.82723 31.9685 9.15112 32.8025 9.33646C33.2428 9.43429 33.536 9.79308 34.0432 9.79308C34.5396 9.79308 34.8518 9.94076 35.2838 10.1808C36.0189 10.5892 36.5682 11.3634 36.6019 12.2399C36.6186 12.6735 36.6681 13.0404 36.2056 12.662C35.8101 12.3384 35.1814 12.1569 34.7066 11.9986C33.6905 11.6599 32.6757 11.2612 31.6481 10.9648C28.4132 10.0316 26.4909 11.7389 24.6954 14.0663C24.6333 14.1468 24.3343 14.4326 24.3508 14.1353C24.3709 13.7738 24.9463 13.3836 25.2123 13.2134C26.2409 12.5551 27.6071 12.7396 28.7705 12.7396C30.2263 12.7396 31.1596 13.2076 32.3804 13.9457C32.7852 14.1905 33.5296 14.3053 33.6469 14.8331C33.7554 15.3216 33.6385 15.8751 33.4228 16.3063C32.6989 17.7543 31.8655 18.8717 30.709 20.0282C29.4657 21.2715 28.0797 22.3473 26.832 23.595C26.0354 24.3916 24.9135 25.304 24.2819 26.2227C23.7988 26.9254 23.0525 27.6576 22.4554 28.2818C21.9361 28.8247 21.4299 29.6939 20.784 30.0738C20.3271 30.3426 20.1036 30.4601 19.9742 29.9187C19.7092 28.8109 19.1164 27.5343 18.1821 26.8516C17.4846 26.3419 17.026 25.7319 16.0714 25.6196C15.4226 25.5433 15.3727 25.3173 14.96 24.9046C13.9585 23.9031 13.5563 22.4977 12.9095 21.2688C12.213 19.9455 11.3258 18.7036 10.4713 17.4694C9.49661 16.0615 9.7532 14.3164 9.07563 12.8257C8.74817 12.1053 8.26205 10.6694 9.15317 10.2239C10.219 9.69092 11.2307 10.0381 12.2461 10.4823C12.6587 10.6628 14.5691 12.2172 14.0812 12.7051C13.8439 12.9424 12.3648 11.9729 11.979 11.9642C11.3457 11.9498 11.1937 12.1692 10.8935 12.7396C10.1126 14.2232 11.0394 14.2108 11.867 15.2294C12.7989 16.3763 13.9928 16.94 14.1157 18.5981C14.1929 19.6402 14.5269 20.4395 15.2787 21.1913C15.8222 21.7347 16.4367 22.1942 16.976 22.7335C17.3968 23.1543 17.6606 23.711 18.0788 24.1292C18.8441 24.8945 19.8413 26.2962 21.0597 26.3864C22.6545 26.5045 24.0784 24.1775 25.04 23.2159C25.5801 22.6759 25.9817 21.9889 26.5563 21.5101C27.4252 20.786 28.2189 20.1913 29.2099 19.6319C30.0464 19.1597 31.5075 18.2921 31.9841 17.3919C32.8653 15.7273 30.5143 15.8032 29.3047 15.8497C26.8406 15.9445 24.444 15.8411 21.9902 15.8411C19.5062 15.8411 16.7001 16.0059 14.512 14.7556C13.3921 14.1156 17.1203 14.1353 17.2172 14.1353C19.6304 14.1353 22.1124 14.3079 24.5145 14.0577C26.3297 13.8686 30.1482 13.5943 30.0887 16.2719C30.0607 17.5307 29.4865 17.3595 28.4517 17.6417C27.684 17.8511 26.9747 18.2745 26.272 18.6411C24.4902 19.5708 22.693 21.2019 21.68 22.9747C21.4163 23.4362 21.074 24.0804 20.7065 24.4479C20.1658 24.9886 19.5051 24.357 18.9317 24.1378C18.1853 23.8524 13.0518 19.6447 14.0467 19.0116C14.8628 18.4923 15.567 17.8217 16.528 17.5814C17.2755 17.3945 17.6588 17.9439 18.1132 18.4774C19.1724 19.7208 20.5513 21.7341 22.4123 21.7341C23.382 21.7341 22.2696 21.7341 21.8696 21.7341C20.2859 21.7341 18.6631 21.8961 17.1311 21.4584C16.309 21.2235 15.5002 18.0452 17.3723 18.6325C18.3851 18.9503 25.7723 19.6144 25.4277 18.4085C25.239 17.7479 22.4782 17.7079 21.9902 17.702C21.1943 17.6925 20.6033 17.7728 19.8708 18.0725C19.565 18.1976 19.2091 18.0731 18.9231 18.2017C18.7014 18.3015 17.9 18.8269 17.6825 18.555C17.3989 18.2005 17.1861 17.7987 17.7083 17.6159C18.9806 17.1706 20.6867 16.9672 22.0419 17.0904C22.347 17.1181 24.1841 17.7469 24.3508 17.2885C25.1971 14.9612 20.2044 15.5336 19.888 17.4953C19.6826 18.7685 19.6884 20.6135 20.5428 21.6307C21.0374 22.2195 21.8077 22.8575 22.4037 23.3452C22.89 23.743 22.3622 23.878 21.9557 23.6122C20.5529 22.695 19.8535 20.9657 19.8535 19.3217C19.8535 17.0081 23.483 17.3605 24.9711 16.6165" stroke="#F06C9B" stroke-width="3" stroke-linecap="round"/>
<path d="M33.6555 8.39738C34.0745 7.45465 33.2065 7.62199 32.5699 7.62199C31.8003 7.62199 31.4042 8.04087 30.709 8.31123C29.8317 8.65238 28.8964 8.69717 28.0382 8.98323C26.5813 9.46886 25.0765 9.94344 23.6702 10.5685C23.2064 10.7746 22.8497 11.3737 22.9637 11.8866C23.2159 13.0213 25.3815 11.5269 25.9016 11.3783C26.6357 11.1686 27.0376 10.9429 27.3748 10.3359C27.618 9.8982 27.6717 9.7176 27.0474 9.88785C25.3356 10.3547 23.6384 10.945 21.9385 11.4645C19.9063 12.0854 17.7748 12.3351 15.7698 13.0497C14.7534 13.412 13.8772 14.0167 12.9095 14.411C11.7827 14.87 11.5813 14.184 11.0916 13.2048C10.6257 12.2728 9.29319 10.4217 9.80794 9.32785C9.89482 9.14323 10.1482 9.78301 10.2387 9.9137C10.6358 10.4872 11.1053 10.9872 11.488 11.5851C12.2986 12.8517 13.9626 15.2862 15.6664 15.3759C16.8717 15.4393 16.2369 13.3273 15.7267 12.8171C14.9565 12.0469 13.9315 11.7616 12.8664 11.8177C11.4886 11.8902 11.0141 12.4973 11.0141 13.8251C11.0141 14.9918 11.2012 16.3279 11.7895 17.3574C12.4435 18.5019 13.7758 18.8363 15.0031 19.0116C16.3529 19.2044 18.0734 19.2753 19.3883 18.8479C19.9538 18.6641 21.4693 18.1083 21.5508 17.3747C21.69 16.1219 19.6125 15.0486 18.7335 14.6091C15.8677 13.1762 12.7119 12.2849 9.68733 11.2577C9.62528 11.2366 7.36873 10.2885 7.91255 10.2583C8.64177 10.2178 9.29536 10.4632 10.0061 10.5685C10.6606 10.6654 11.2835 10.7235 11.9446 10.7235C12.6666 10.7235 12.6986 11.1947 12.9095 11.8436C14.0908 15.4782 13.5808 19.4576 13.6504 23.2159C13.6769 24.6459 14.7517 25.241 15.2787 26.4123C15.8548 27.6923 15.7992 29.1794 16.3729 30.4874C16.6409 31.0984 16.9408 31.6584 17.4585 32.0898C17.5318 32.151 17.9418 32.4222 17.648 32.4344C16.7872 32.4703 16.1021 31.916 15.5114 31.3489C14.1618 30.0533 12.741 28.8185 11.3501 27.5667C10.7685 27.0433 10.4513 25.5089 11.5483 25.3095C11.7797 25.2674 12.062 25.2993 12.2892 25.3353C14.1692 25.6337 15.9423 25.5632 17.8634 25.4042C19.9733 25.2296 22.4363 25.2387 24.1268 23.7845C24.8582 23.1554 25.433 22.4552 25.9016 21.6135C26.582 20.3912 27.2455 19.157 27.7625 17.8571C28.0769 17.0667 28.2588 15.7833 28.8481 15.1519C29.8484 14.0801 32.0338 14.7371 33.3453 14.7556C34.3951 14.7704 35.4533 15.1233 36.4124 15.531C36.8133 15.7013 38.6802 16.6127 38.997 15.979C40.0618 13.8495 36.6884 12.138 35.1718 11.8091C34.0326 11.562 32.8327 11.654 31.6739 11.654C31.2289 11.654 31.0601 11.7122 30.7693 11.4214C30.1553 10.8074 29.5439 10.1787 28.9256 9.56046C28.7428 9.37768 28.3749 8.83597 28.1071 8.77646C27.9465 8.74076 28.3782 8.97778 28.5379 9.01769" stroke="#F06C9B" stroke-width="3" stroke-linecap="round"/>
</svg>
