<svg width="24" height="24" viewBox="0 0 24 24" fill="none" xmlns="http://www.w3.org/2000/svg">
<path d="M4.70695 3.29298C4.51835 3.11082 4.26575 3.01003 4.00355 3.01231C3.74136 3.01458 3.49054 3.11975 3.30514 3.30516C3.11973 3.49057 3.01456 3.74138 3.01228 4.00358C3.01 4.26578 3.1108 4.51838 3.29295 4.70698L5.71695 7.13098C4.28695 8.20698 3.03895 9.68498 2.10595 11.553C2.0366 11.6918 2.00049 11.8448 2.00049 12C2.00049 12.1551 2.0366 12.3082 2.10595 12.447C4.26395 16.764 8.09595 19 12 19C13.555 19 15.1 18.645 16.53 17.945L19.293 20.707C19.4816 20.8891 19.7342 20.9899 19.9964 20.9877C20.2586 20.9854 20.5094 20.8802 20.6948 20.6948C20.8802 20.5094 20.9854 20.2586 20.9876 19.9964C20.9899 19.7342 20.8891 19.4816 20.707 19.293L4.70695 3.29298V3.29298ZM15.014 16.428C14.034 16.811 13.014 17 12 17C9.03095 17 5.99795 15.38 4.12995 12C4.94695 10.521 5.98795 9.37998 7.14795 8.56298L9.29195 10.707C9.02404 11.2669 8.93642 11.8962 9.04117 12.508C9.14592 13.1199 9.43789 13.6842 9.87682 14.1231C10.3158 14.562 10.88 14.854 11.4919 14.9588C12.1037 15.0635 12.733 14.9759 13.293 14.708L15.013 16.428H15.014ZM18.552 13.896C19.035 13.34 19.478 12.709 19.87 12C18.002 8.61998 14.97 6.99998 12 6.99998C11.888 6.99998 11.776 7.00198 11.664 7.00698L9.87895 5.22298C10.5762 5.07484 11.2871 5.0001 12 4.99998C15.903 4.99998 19.736 7.23598 21.894 11.553C21.9633 11.6918 21.9994 11.8448 21.9994 12C21.9994 12.1551 21.9633 12.3082 21.894 12.447C21.3814 13.4827 20.7341 14.446 19.969 15.312L18.552 13.896V13.896Z" fill="black"/>
</svg>
