<svg width="23" height="25" viewBox="0 0 23 25" fill="none" xmlns="http://www.w3.org/2000/svg">
<path d="M22.5 1.25C22.5 1.58152 22.3683 1.89946 22.1339 2.13388C21.8995 2.3683 21.5815 2.5 21.25 2.5H15.9062L9.23438 22.5H13.75C14.0815 22.5 14.3995 22.6317 14.6339 22.8661C14.8683 23.1005 15 23.4185 15 23.75C15 24.0815 14.8683 24.3995 14.6339 24.6339C14.3995 24.8683 14.0815 25 13.75 25H1.25C0.918479 25 0.600537 24.8683 0.366117 24.6339C0.131696 24.3995 0 24.0815 0 23.75C0 23.4185 0.131696 23.1005 0.366117 22.8661C0.600537 22.6317 0.918479 22.5 1.25 22.5H6.59375L13.2656 2.5H8.75C8.41848 2.5 8.10054 2.3683 7.86612 2.13388C7.6317 1.89946 7.5 1.58152 7.5 1.25C7.5 0.918479 7.6317 0.600537 7.86612 0.366117C8.10054 0.131696 8.41848 0 8.75 0H21.25C21.5815 0 21.8995 0.131696 22.1339 0.366117C22.3683 0.600537 22.5 0.918479 22.5 1.25Z" fill="#918282"/>
</svg>
