<svg width="24" height="30" viewBox="0 0 24 30" fill="none" xmlns="http://www.w3.org/2000/svg">
<path d="M0 30H23.3333V26.6667H0V30ZM11.6667 23.3333C14.3188 23.3333 16.8624 22.2798 18.7377 20.4044C20.6131 18.529 21.6667 15.9855 21.6667 13.3333V0H17.5V13.3333C17.5 14.8804 16.8854 16.3642 15.7915 17.4581C14.6975 18.5521 13.2138 19.1667 11.6667 19.1667C10.1196 19.1667 8.63584 18.5521 7.54188 17.4581C6.44792 16.3642 5.83333 14.8804 5.83333 13.3333V0H1.66667V13.3333C1.66667 15.9855 2.72024 18.529 4.5956 20.4044C6.47096 22.2798 9.0145 23.3333 11.6667 23.3333Z" fill="#918282"/>
</svg>
