<svg width="40" height="40" viewBox="0 0 40 40" fill="none" xmlns="http://www.w3.org/2000/svg">
<path d="M5 40C3.625 40 2.44833 39.6087 1.47 38.826C0.49 38.042 0 37.1 0 36V12C0 10.9 0.49 9.95867 1.47 9.176C2.44833 8.392 3.625 8 5 8H10C10 5.8 10.9792 3.91667 12.9375 2.35C14.8958 0.783333 17.25 0 20 0C22.75 0 25.1042 0.783333 27.0625 2.35C29.0208 3.91667 30 5.8 30 8H35C36.375 8 37.5525 8.392 38.5325 9.176C39.5108 9.95867 40 10.9 40 12V36C40 37.1 39.5108 38.042 38.5325 38.826C37.5525 39.6087 36.375 40 35 40H5ZM5 36H35V12H30V16C30 16.5667 29.7608 17.0413 29.2825 17.424C28.8025 17.808 28.2083 18 27.5 18C26.7917 18 26.1983 17.808 25.72 17.424C25.24 17.0413 25 16.5667 25 16V12H15V16C15 16.5667 14.7608 17.0413 14.2825 17.424C13.8025 17.808 13.2083 18 12.5 18C11.7917 18 11.1983 17.808 10.72 17.424C10.24 17.0413 10 16.5667 10 16V12H5V36ZM15 8H25C25 6.9 24.5108 5.95867 23.5325 5.176C22.5525 4.392 21.375 4 20 4C18.625 4 17.4483 4.392 16.47 5.176C15.49 5.95867 15 6.9 15 8ZM5 36V12V36Z" fill="#7F2982"/>
</svg>
