<svg width="16" height="16" viewBox="0 0 16 16" fill="none" xmlns="http://www.w3.org/2000/svg">
<path d="M10.2573 8.00294L15.5225 2.73771C15.6729 2.58976 15.7926 2.4135 15.8745 2.21908C15.9565 2.02466 15.9991 1.81594 16 1.60496C16.0009 1.39398 15.96 1.18492 15.8797 0.989819C15.7993 0.794723 15.6812 0.61746 15.532 0.468255C15.3828 0.31905 15.2056 0.200856 15.0105 0.120491C14.8155 0.040125 14.6064 -0.000821647 14.3954 1.24923e-05C14.1844 0.000846632 13.9757 0.0434451 13.7813 0.125351C13.5868 0.207256 13.4105 0.326848 13.2626 0.477228L7.99732 5.74246L2.7321 0.47776C2.58367 0.329335 2.40746 0.211597 2.21354 0.13127C2.01961 0.0509429 1.81176 0.00959887 1.60185 0.00959887C1.39195 0.00959887 1.1841 0.0509429 0.99017 0.13127C0.796243 0.211597 0.620036 0.329335 0.471611 0.47776C0.171852 0.777519 0.0034494 1.18408 0.0034494 1.608C0.0034494 2.03193 0.171852 2.43849 0.471611 2.73824L5.73684 8.00294L0.458825 13.281C0.163158 13.5815 -0.0017523 13.9868 1.40444e-05 14.4084C0.00178039 14.8301 0.170081 15.2339 0.468255 15.532C0.76643 15.8301 1.17032 15.9983 1.59195 16C2.01358 16.0016 2.41879 15.8366 2.71931 15.5409L7.99679 10.2634L13.2615 15.5281C13.5737 15.8403 13.9828 15.9964 14.3915 15.9964C14.8001 15.9964 15.2092 15.8403 15.5214 15.5281C15.6699 15.3798 15.7877 15.2036 15.8681 15.0097C15.9485 14.8159 15.9898 14.608 15.9898 14.3981C15.9898 14.1883 15.9485 13.9804 15.8681 13.7865C15.7877 13.5927 15.6699 13.4165 15.5214 13.2682L10.2573 8.00294Z" fill="#908282"/>
</svg>
