<svg width="44" height="43" viewBox="0 0 44 43" fill="none" xmlns="http://www.w3.org/2000/svg">
<path d="M22.5029 36.4387L22.2879 36.673L22.0514 36.4387C11.8389 26.339 5.08787 19.6605 5.08787 12.8883C5.08787 8.20163 8.31287 4.68665 12.6129 4.68665C15.9239 4.68665 19.1489 7.02997 20.2884 10.2169H24.2874C25.4269 7.02997 28.6519 4.68665 31.9629 4.68665C36.2629 4.68665 39.4879 8.20163 39.4879 12.8883C39.4879 19.6605 32.7369 26.339 22.5029 36.4387ZM31.9629 0C28.2219 0 24.6314 1.89809 22.2879 4.87411C19.9444 1.89809 16.3539 0 12.6129 0C5.99087 0 0.787872 5.64741 0.787872 12.8883C0.787872 21.7226 8.09787 28.9635 19.1704 39.9068L22.2879 43L25.4054 39.9068C36.4779 28.9635 43.7879 21.7226 43.7879 12.8883C43.7879 5.64741 38.5849 0 31.9629 0Z" fill="#F06C9B"/>
</svg>
