<svg width="26" height="28" viewBox="0 0 26 28" fill="none" xmlns="http://www.w3.org/2000/svg">
<g clip-path="url(#clip0_66_2419)">
<path d="M25.4572 13.8252C25.4572 6.18975 19.7584 0 12.7286 0C5.69878 0 0 6.18975 0 13.8252C0 20.7256 4.65464 26.4453 10.7397 27.4824V17.8215H7.50788V13.8252H10.7397V10.7793C10.7397 7.31439 12.6401 5.40047 15.5475 5.40047C16.9397 5.40047 18.3968 5.67049 18.3968 5.67049V9.07278H16.7918C15.2107 9.07278 14.7174 10.1386 14.7174 11.233V13.8252H18.2476L17.6833 17.8215H14.7174V27.4824C20.8025 26.4453 25.4572 20.7256 25.4572 13.8252Z" fill="white"/>
</g>
<defs>
<clipPath id="clip0_66_2419">
<rect width="25.4572" height="27.6504" fill="white"/>
</clipPath>
</defs>
</svg>
