<svg width="30" height="20" viewBox="0 0 30 20" fill="none" xmlns="http://www.w3.org/2000/svg">
<path d="M13.3333 20C12.8611 20 12.4656 19.84 12.1467 19.52C11.8267 19.2011 11.6667 18.8056 11.6667 18.3333C11.6667 17.8611 11.8267 17.4656 12.1467 17.1467C12.4656 16.8267 12.8611 16.6667 13.3333 16.6667H16.6667C17.1389 16.6667 17.535 16.8267 17.855 17.1467C18.1739 17.4656 18.3333 17.8611 18.3333 18.3333C18.3333 18.8056 18.1739 19.2011 17.855 19.52C17.535 19.84 17.1389 20 16.6667 20H13.3333ZM1.66667 3.33333C1.19444 3.33333 0.798889 3.17389 0.48 2.855C0.16 2.535 0 2.13889 0 1.66667C0 1.19444 0.16 0.798334 0.48 0.478334C0.798889 0.159445 1.19444 0 1.66667 0H28.3333C28.8056 0 29.2011 0.159445 29.52 0.478334C29.84 0.798334 30 1.19444 30 1.66667C30 2.13889 29.84 2.535 29.52 2.855C29.2011 3.17389 28.8056 3.33333 28.3333 3.33333H1.66667ZM6.66667 11.6667C6.19444 11.6667 5.79833 11.5067 5.47833 11.1867C5.15944 10.8678 5 10.4722 5 10C5 9.52778 5.15944 9.13167 5.47833 8.81167C5.79833 8.49278 6.19444 8.33333 6.66667 8.33333H23.3333C23.8056 8.33333 24.2011 8.49278 24.52 8.81167C24.84 9.13167 25 9.52778 25 10C25 10.4722 24.84 10.8678 24.52 11.1867C24.2011 11.5067 23.8056 11.6667 23.3333 11.6667H6.66667Z" fill="#F06C9B"/>
</svg>
