<svg width="40" height="40" viewBox="0 0 40 40" fill="none" xmlns="http://www.w3.org/2000/svg">
<path fill-rule="evenodd" clip-rule="evenodd" d="M26.6667 15C26.6667 16.7681 25.9643 18.4638 24.714 19.714C23.4638 20.9643 21.7681 21.6667 20 21.6667C18.2319 21.6667 16.5362 20.9643 15.286 19.714C14.0357 18.4638 13.3333 16.7681 13.3333 15C13.3333 13.2319 14.0357 11.5362 15.286 10.286C16.5362 9.03571 18.2319 8.33334 20 8.33334C21.7681 8.33334 23.4638 9.03571 24.714 10.286C25.9643 11.5362 26.6667 13.2319 26.6667 15ZM23.3333 15C23.3333 15.8841 22.9821 16.7319 22.357 17.357C21.7319 17.9821 20.8841 18.3333 20 18.3333C19.1159 18.3333 18.2681 17.9821 17.643 17.357C17.0179 16.7319 16.6667 15.8841 16.6667 15C16.6667 14.1159 17.0179 13.2681 17.643 12.643C18.2681 12.0179 19.1159 11.6667 20 11.6667C20.8841 11.6667 21.7319 12.0179 22.357 12.643C22.9821 13.2681 23.3333 14.1159 23.3333 15Z" fill="#7F2982"/>
<path fill-rule="evenodd" clip-rule="evenodd" d="M20 1.66667C9.875 1.66667 1.66666 9.875 1.66666 20C1.66666 30.125 9.875 38.3333 20 38.3333C30.125 38.3333 38.3333 30.125 38.3333 20C38.3333 9.875 30.125 1.66667 20 1.66667ZM5 20C5 23.4833 6.18833 26.69 8.18 29.2367C9.57872 27.3998 11.3832 25.9112 13.4524 24.8872C15.5216 23.8631 17.7996 23.3313 20.1083 23.3333C22.3872 23.3312 24.6365 23.8492 26.6849 24.848C28.7332 25.8467 30.5266 27.2999 31.9283 29.0967C33.3724 27.2027 34.3447 24.992 34.7648 22.6477C35.1849 20.3033 35.0407 17.8926 34.3442 15.615C33.6476 13.3374 32.4187 11.2584 30.7591 9.55006C29.0996 7.84171 27.0571 6.5531 24.8006 5.79085C22.5442 5.0286 20.1387 4.81462 17.7831 5.16662C15.4275 5.51863 13.1896 6.42649 11.2546 7.81509C9.31958 9.20369 7.74302 11.0331 6.65538 13.152C5.56774 15.2709 5.0003 17.6183 5 20ZM20 35C16.5566 35.0052 13.2171 33.8206 10.5467 31.6467C11.6215 30.1079 13.0522 28.8515 14.717 27.9845C16.3817 27.1174 18.2313 26.6653 20.1083 26.6667C21.9619 26.6652 23.7891 27.106 25.4382 27.9524C27.0873 28.7988 28.5106 30.0264 29.59 31.5333C26.8988 33.7778 23.5043 35.0049 20 35Z" fill="#7F2982"/>
</svg>
