<svg width="429" height="79" viewBox="0 0 429 79" fill="none" xmlns="http://www.w3.org/2000/svg">
<path d="M15.9575 61.304C17.2802 61.304 18.2935 60.984 18.9975 60.344C19.7228 59.6827 20.0855 58.8613 20.0855 57.88C20.0855 57.2187 19.9362 56.6213 19.6375 56.088C19.3602 55.5333 18.8162 55.032 18.0055 54.584C17.1948 54.1147 16.0215 53.688 14.4855 53.304C11.2215 52.5573 8.6935 51.6507 6.9015 50.584C5.13083 49.5173 3.90417 48.3013 3.2215 46.936C2.53883 45.5493 2.1975 44.0027 2.1975 42.296C2.1975 39.2027 3.26417 36.792 5.3975 35.064C7.53083 33.336 10.5602 32.472 14.4855 32.472C15.9362 32.472 17.1095 32.6 18.0055 32.856C18.9228 33.0907 19.6482 33.336 20.1815 33.592C20.7148 33.8267 21.1522 33.944 21.4935 33.944C21.8988 33.944 22.3042 33.8267 22.7095 33.592C23.1148 33.336 23.5202 33.08 23.9255 32.824C24.3308 32.568 24.7255 32.44 25.1095 32.44C25.3868 32.44 25.6428 32.536 25.8775 32.728C26.1122 32.8987 26.2935 33.2293 26.4215 33.72L28.1815 41.144C28.3735 41.8053 28.4268 42.3387 28.3415 42.744C28.2562 43.128 28.0215 43.3947 27.6375 43.544C27.2535 43.6933 26.9122 43.704 26.6135 43.576C26.3148 43.4267 26.0268 43.1493 25.7495 42.744C24.6188 40.824 23.4775 39.288 22.3255 38.136C21.1948 36.984 20.0322 36.152 18.8375 35.64C17.6642 35.128 16.4162 34.872 15.0935 34.872C13.5362 34.872 12.3628 35.2133 11.5735 35.896C10.7842 36.5573 10.3895 37.4427 10.3895 38.552C10.3895 39.2773 10.5708 39.928 10.9335 40.504C11.2962 41.08 11.9682 41.6133 12.9495 42.104C13.9522 42.5733 15.4028 43.0213 17.3015 43.448C20.0108 44.0667 22.1655 44.8773 23.7655 45.88C25.3655 46.8613 26.5175 48.0453 27.2215 49.432C27.9255 50.7973 28.2775 52.3653 28.2775 54.136C28.2775 56.0773 27.7762 57.7733 26.7735 59.224C25.7708 60.6747 24.4055 61.7947 22.6775 62.584C20.9495 63.3733 18.9762 63.768 16.7575 63.768C15.3922 63.768 14.2722 63.6187 13.3975 63.32C12.5228 63.0427 11.8082 62.7653 11.2535 62.488C10.7202 62.1893 10.2722 62.04 9.9095 62.04C9.5255 62.04 9.1095 62.1787 8.6615 62.456C8.23483 62.7333 7.80817 63.0107 7.3815 63.288C6.95483 63.5653 6.56017 63.704 6.1975 63.704C5.89883 63.704 5.64283 63.5867 5.4295 63.352C5.21617 63.1387 5.06683 62.7653 4.9815 62.232L3.7975 55.544C3.69083 54.84 3.68017 54.3173 3.7655 53.976C3.87217 53.6347 4.09617 53.3893 4.4375 53.24C4.8215 53.0693 5.15217 53.08 5.4295 53.272C5.72817 53.4427 6.0375 53.752 6.3575 54.2C7.93617 56.76 9.5255 58.584 11.1255 59.672C12.7255 60.76 14.3362 61.304 15.9575 61.304ZM48.545 63.064H44.545C43.9903 63.064 43.5103 62.936 43.105 62.68C42.6997 62.424 42.3797 61.9867 42.145 61.368L33.793 37.432C33.5797 36.8347 33.3663 36.4293 33.153 36.216C32.961 35.9813 32.7263 35.8213 32.449 35.736L31.425 35.448C31.1263 35.3413 30.913 35.2027 30.785 35.032C30.657 34.8613 30.593 34.6373 30.593 34.36C30.593 33.9973 30.7103 33.72 30.945 33.528C31.201 33.336 31.5317 33.24 31.937 33.24H47.073C47.4997 33.24 47.8303 33.336 48.065 33.528C48.321 33.72 48.449 33.9973 48.449 34.36C48.449 34.6373 48.3637 34.8613 48.193 35.032C48.0437 35.2027 47.7877 35.3307 47.425 35.416L46.177 35.704C45.601 35.8107 45.249 36.0773 45.121 36.504C45.0143 36.9093 45.1423 37.6453 45.505 38.712L51.329 56.312L48.865 59.672L56.193 38.136L58.529 39.608L50.881 61.528C50.6677 62.1253 50.3477 62.5307 49.921 62.744C49.4943 62.9573 49.0357 63.064 48.545 63.064ZM68.737 63.064H64.833C64.2997 63.064 63.8197 62.936 63.393 62.68C62.9877 62.4027 62.6783 61.9653 62.465 61.368L54.369 37.432C54.1557 36.792 53.9423 36.3653 53.729 36.152C53.537 35.9387 53.313 35.7893 53.057 35.704L52.225 35.48C51.905 35.352 51.681 35.2027 51.553 35.032C51.425 34.8613 51.361 34.6373 51.361 34.36C51.361 33.6133 51.8197 33.24 52.737 33.24H67.553C68.449 33.24 68.897 33.6133 68.897 34.36C68.897 34.6373 68.8223 34.872 68.673 35.064C68.5237 35.2347 68.289 35.352 67.969 35.416L66.401 35.704C65.8037 35.8107 65.4517 36.0773 65.345 36.504C65.2597 36.9093 65.377 37.6133 65.697 38.616L71.393 56.376L69.025 59.736L75.265 39.704C75.713 38.36 75.8517 37.4 75.681 36.824C75.5317 36.2267 75.105 35.8533 74.401 35.704L73.249 35.416C72.8863 35.3307 72.6197 35.2027 72.449 35.032C72.2997 34.8613 72.225 34.6373 72.225 34.36C72.225 33.9973 72.3423 33.72 72.577 33.528C72.833 33.336 73.1637 33.24 73.569 33.24H81.089C81.5157 33.24 81.8463 33.336 82.081 33.528C82.337 33.72 82.465 33.9973 82.465 34.36C82.465 34.5947 82.401 34.808 82.273 35C82.145 35.1707 81.889 35.32 81.505 35.448L80.737 35.672C80.289 35.8427 79.873 36.2267 79.489 36.824C79.105 37.4 78.7103 38.2853 78.305 39.48L71.105 61.528C70.8917 62.1253 70.561 62.5307 70.113 62.744C69.6863 62.9573 69.2277 63.064 68.737 63.064ZM112.859 44.92C112.859 45.816 112.603 46.52 112.091 47.032C111.6 47.5227 110.864 47.768 109.883 47.768H90.2345V45.72H101.019C101.851 45.72 102.267 45.304 102.267 44.472C102.267 41.2507 101.84 38.8933 100.987 37.4C100.133 35.8853 99.0665 35.128 97.7865 35.128C96.8052 35.128 95.9305 35.4693 95.1625 36.152C94.4158 36.8347 93.8185 37.8907 93.3705 39.32C92.9225 40.7493 92.6985 42.5627 92.6985 44.76C92.6985 48.92 93.6158 52.0027 95.4505 54.008C97.2852 55.992 99.7278 56.984 102.779 56.984C104.677 56.984 106.309 56.5893 107.675 55.8C109.04 55.0107 110.043 53.8693 110.683 52.376C110.981 52.0347 111.227 51.8107 111.419 51.704C111.611 51.576 111.792 51.512 111.963 51.512C112.219 51.512 112.411 51.64 112.539 51.896C112.688 52.1307 112.752 52.4293 112.731 52.792C112.688 54.7973 112.059 56.632 110.843 58.296C109.648 59.96 108.005 61.2933 105.915 62.296C103.824 63.2773 101.424 63.768 98.7145 63.768C95.7065 63.768 93.0185 63.1493 90.6505 61.912C88.3038 60.6533 86.4585 58.904 85.1145 56.664C83.7705 54.4027 83.0985 51.768 83.0985 48.76C83.0985 45.496 83.7385 42.648 85.0185 40.216C86.2985 37.7627 88.1438 35.864 90.5545 34.52C92.9652 33.1547 95.8345 32.472 99.1625 32.472C102.064 32.472 104.528 33.016 106.555 34.104C108.603 35.1707 110.16 36.6427 111.227 38.52C112.315 40.376 112.859 42.5093 112.859 44.92ZM145.734 44.92C145.734 45.816 145.478 46.52 144.966 47.032C144.475 47.5227 143.739 47.768 142.758 47.768H123.11V45.72H133.894C134.726 45.72 135.142 45.304 135.142 44.472C135.142 41.2507 134.715 38.8933 133.862 37.4C133.008 35.8853 131.942 35.128 130.662 35.128C129.68 35.128 128.806 35.4693 128.038 36.152C127.291 36.8347 126.694 37.8907 126.246 39.32C125.798 40.7493 125.574 42.5627 125.574 44.76C125.574 48.92 126.491 52.0027 128.326 54.008C130.16 55.992 132.603 56.984 135.654 56.984C137.552 56.984 139.184 56.5893 140.55 55.8C141.915 55.0107 142.918 53.8693 143.558 52.376C143.856 52.0347 144.102 51.8107 144.294 51.704C144.486 51.576 144.667 51.512 144.838 51.512C145.094 51.512 145.286 51.64 145.414 51.896C145.563 52.1307 145.627 52.4293 145.606 52.792C145.563 54.7973 144.934 56.632 143.718 58.296C142.523 59.96 140.88 61.2933 138.79 62.296C136.699 63.2773 134.299 63.768 131.59 63.768C128.582 63.768 125.894 63.1493 123.526 61.912C121.179 60.6533 119.334 58.904 117.99 56.664C116.646 54.4027 115.974 51.768 115.974 48.76C115.974 45.496 116.614 42.648 117.894 40.216C119.174 37.7627 121.019 35.864 123.43 34.52C125.84 33.1547 128.71 32.472 132.038 32.472C134.939 32.472 137.403 33.016 139.43 34.104C141.478 35.1707 143.035 36.6427 144.102 38.52C145.19 40.376 145.734 42.5093 145.734 44.92ZM150.641 35.928L148.913 35.448C148.55 35.32 148.283 35.1707 148.113 35C147.963 34.808 147.889 34.584 147.889 34.328C147.889 33.9867 148.006 33.72 148.241 33.528C148.497 33.336 148.806 33.24 149.169 33.24H151.345C151.665 33.24 151.953 33.176 152.209 33.048C152.465 32.8987 152.753 32.6427 153.073 32.28L158.705 26.744C159.11 26.296 159.494 25.9653 159.857 25.752C160.241 25.5387 160.614 25.432 160.977 25.432C161.361 25.432 161.659 25.56 161.873 25.816C162.107 26.0507 162.225 26.4133 162.225 26.904V53.368C162.225 55.0107 162.523 56.248 163.121 57.08C163.718 57.912 164.55 58.328 165.617 58.328C166.257 58.328 166.779 58.2 167.185 57.944C167.611 57.6667 167.963 57.336 168.241 56.952C168.518 56.5467 168.785 56.1413 169.041 55.736C169.297 55.3307 169.595 55 169.937 54.744C170.193 54.68 170.406 54.7333 170.577 54.904C170.747 55.0533 170.833 55.352 170.833 55.8C170.705 57.3573 170.225 58.7333 169.393 59.928C168.582 61.1013 167.473 62.0293 166.065 62.712C164.657 63.3733 163.003 63.704 161.105 63.704C158.118 63.704 155.803 62.9893 154.161 61.56C152.518 60.1093 151.697 57.912 151.697 54.968V37.4C151.697 36.9733 151.611 36.664 151.441 36.472C151.291 36.2587 151.025 36.0773 150.641 35.928ZM158.577 35.928L158.705 33.24H169.393C169.798 33.24 170.107 33.3253 170.321 33.496C170.555 33.6667 170.673 33.912 170.673 34.232C170.673 34.7013 170.438 35.1067 169.969 35.448C169.499 35.768 168.731 35.928 167.665 35.928H158.577ZM188.881 35.8L186.705 35.32C186.342 35.2133 186.086 35.096 185.937 34.968C185.788 34.8187 185.713 34.6587 185.713 34.488C185.713 34.2533 185.798 34.0827 185.969 33.976C186.14 33.848 186.353 33.784 186.609 33.784H188.977C189.404 33.784 189.745 33.72 190.001 33.592C190.257 33.4427 190.481 33.1973 190.673 32.856L194.001 27.736C194.236 27.3947 194.46 27.1493 194.673 27C194.908 26.8293 195.153 26.744 195.409 26.744C195.665 26.744 195.868 26.8293 196.017 27C196.166 27.1707 196.241 27.4053 196.241 27.704V55.64C196.241 57.176 196.55 58.3387 197.169 59.128C197.788 59.896 198.652 60.28 199.761 60.28C200.401 60.28 200.924 60.184 201.329 59.992C201.756 59.7787 202.108 59.512 202.385 59.192C202.662 58.872 202.918 58.5627 203.153 58.264C203.388 57.944 203.644 57.6773 203.921 57.464C204.092 57.4213 204.241 57.464 204.369 57.592C204.497 57.6987 204.55 57.9013 204.529 58.2C204.401 59.2027 204.017 60.1093 203.377 60.92C202.758 61.7307 201.937 62.3707 200.913 62.84C199.889 63.3093 198.694 63.544 197.329 63.544C195.046 63.544 193.244 62.968 191.921 61.816C190.62 60.664 189.969 58.9147 189.969 56.568V37.176C189.969 36.792 189.884 36.4933 189.713 36.28C189.564 36.0667 189.286 35.9067 188.881 35.8ZM193.649 35.576L193.713 33.784H203.409C203.729 33.784 203.964 33.8373 204.113 33.944C204.284 34.0507 204.369 34.2213 204.369 34.456C204.369 34.776 204.198 35.0427 203.857 35.256C203.537 35.4693 203.036 35.576 202.353 35.576H193.649ZM217.362 46.808C217.362 43.8213 217.788 41.3147 218.642 39.288C219.495 37.2613 220.604 35.7253 221.97 34.68C223.335 33.6347 224.775 33.112 226.29 33.112C228.06 33.112 229.436 33.624 230.418 34.648C231.399 35.6507 231.89 37.0373 231.89 38.808C231.89 40.1733 231.58 41.208 230.962 41.912C230.364 42.616 229.596 42.968 228.658 42.968C227.74 42.968 227.026 42.712 226.514 42.2C226.002 41.6667 225.746 40.92 225.746 39.96L225.714 38.936C225.714 38.1893 225.554 37.6453 225.234 37.304C224.914 36.9413 224.37 36.76 223.602 36.76C222.727 36.76 221.874 37.1333 221.042 37.88C220.21 38.6267 219.516 39.7467 218.962 41.24C218.428 42.7333 218.162 44.6 218.162 46.84L217.362 46.808ZM217.97 34.552L218.162 43.352V59.576C218.162 59.9813 218.268 60.312 218.482 60.568C218.695 60.8027 219.036 60.952 219.506 61.016L222.482 61.432C222.802 61.4747 223.036 61.5707 223.186 61.72C223.356 61.848 223.442 62.0293 223.442 62.264C223.442 62.4773 223.346 62.6587 223.154 62.808C222.983 62.936 222.727 63 222.385 63H209.202C208.86 63 208.604 62.936 208.434 62.808C208.284 62.6587 208.21 62.4773 208.21 62.264C208.21 62.072 208.274 61.912 208.402 61.784C208.551 61.656 208.764 61.5493 209.042 61.464L210.738 61.144C211.1 61.0587 211.367 60.8987 211.538 60.664C211.73 60.4293 211.826 60.0987 211.826 59.672V38.36C211.826 38.0187 211.762 37.7627 211.634 37.592C211.527 37.4213 211.324 37.3253 211.026 37.304L208.722 37.24C208.466 37.2187 208.284 37.1547 208.178 37.048C208.071 36.92 208.018 36.7707 208.018 36.6C208.018 36.408 208.082 36.248 208.21 36.12C208.338 35.992 208.572 35.8747 208.914 35.768L215.026 33.88C215.602 33.6667 216.028 33.528 216.306 33.464C216.604 33.4 216.85 33.368 217.042 33.368C217.319 33.368 217.532 33.464 217.682 33.656C217.831 33.848 217.927 34.1467 217.97 34.552ZM253.518 59.416V58.936L253.166 58.904V40.28C253.166 38.4027 252.729 36.9733 251.854 35.992C251.001 34.9893 249.763 34.488 248.142 34.488C246.521 34.488 245.305 34.8507 244.494 35.576C243.705 36.28 243.31 37.08 243.31 37.976V40.376C243.31 41.3573 242.99 42.1253 242.35 42.68C241.71 43.2347 240.846 43.512 239.758 43.512C238.862 43.512 238.158 43.2667 237.646 42.776C237.155 42.264 236.91 41.5707 236.91 40.696C236.91 39.4587 237.379 38.264 238.318 37.112C239.278 35.9387 240.665 34.9787 242.478 34.232C244.313 33.4853 246.542 33.112 249.166 33.112C252.643 33.112 255.235 33.8693 256.942 35.384C258.649 36.8987 259.502 38.9467 259.502 41.528V58.712C259.502 59.48 259.63 60.0347 259.886 60.376C260.163 60.696 260.526 60.856 260.974 60.856C261.465 60.856 261.838 60.7387 262.094 60.504C262.35 60.2693 262.542 59.992 262.67 59.672C262.734 59.544 262.809 59.448 262.894 59.384C262.979 59.32 263.086 59.288 263.214 59.288C263.363 59.288 263.47 59.3413 263.534 59.448C263.619 59.5547 263.662 59.704 263.662 59.896C263.662 60.4293 263.47 60.984 263.086 61.56C262.723 62.136 262.158 62.6267 261.39 63.032C260.643 63.4587 259.683 63.672 258.51 63.672C256.91 63.672 255.673 63.2987 254.798 62.552C253.945 61.8053 253.518 60.76 253.518 59.416ZM235.438 56.536C235.438 54.1253 236.483 52.1627 238.574 50.648C240.665 49.112 243.662 48.344 247.566 48.344C249.038 48.344 250.339 48.4827 251.47 48.76C252.601 49.0373 253.614 49.3787 254.51 49.784L254.094 50.968C253.241 50.584 252.345 50.2747 251.406 50.04C250.489 49.8053 249.486 49.688 248.398 49.688C246.35 49.688 244.761 50.2107 243.63 51.256C242.499 52.3013 241.934 53.72 241.934 55.512C241.934 57.2827 242.414 58.648 243.374 59.608C244.355 60.568 245.614 61.048 247.15 61.048C248.43 61.048 249.678 60.76 250.894 60.184C252.131 59.608 253.177 58.776 254.03 57.688L254.542 58.712C253.411 60.2907 251.918 61.5173 250.062 62.392C248.206 63.2453 246.233 63.672 244.142 63.672C241.561 63.672 239.459 63.0213 237.838 61.72C236.238 60.4187 235.438 58.6907 235.438 56.536ZM289.515 58.232L289.419 58.04V20.856C289.419 20.5147 289.355 20.2693 289.227 20.12C289.099 19.9493 288.896 19.8533 288.619 19.832L286.315 19.768C286.059 19.7467 285.878 19.6827 285.771 19.576C285.664 19.448 285.611 19.2987 285.611 19.128C285.611 18.936 285.675 18.776 285.803 18.648C285.931 18.52 286.155 18.4027 286.475 18.296L292.683 16.312C293.152 16.1413 293.536 16.024 293.835 15.96C294.134 15.8747 294.4 15.832 294.635 15.832C294.998 15.832 295.275 15.9387 295.467 16.152C295.659 16.3653 295.755 16.6533 295.755 17.016V59.608C295.755 60.0773 295.84 60.4293 296.011 60.664C296.203 60.8987 296.48 61.0587 296.843 61.144L298.507 61.464C298.806 61.528 299.019 61.6347 299.147 61.784C299.275 61.912 299.339 62.072 299.339 62.264C299.339 62.4773 299.254 62.6587 299.083 62.808C298.912 62.936 298.656 63 298.315 63H291.851C291.147 63 290.582 62.7973 290.155 62.392C289.728 61.9653 289.515 61.3573 289.515 60.568V58.232ZM267.115 49.112C267.115 45.8267 267.755 42.9893 269.035 40.6C270.315 38.1893 272.032 36.344 274.187 35.064C276.342 33.7627 278.72 33.112 281.323 33.112C283.734 33.112 285.835 33.6773 287.627 34.808C289.419 35.9387 290.87 37.5067 291.979 39.512L290.795 40.632C289.856 38.904 288.662 37.5813 287.211 36.664C285.782 35.7253 284.203 35.256 282.475 35.256C280.832 35.256 279.35 35.736 278.027 36.696C276.704 37.6347 275.648 39.0747 274.859 41.016C274.091 42.9573 273.707 45.4213 273.707 48.408C273.707 51.1813 274.07 53.496 274.795 55.352C275.52 57.208 276.512 58.6053 277.771 59.544C279.03 60.4827 280.459 60.952 282.059 60.952C283.574 60.952 285.056 60.5253 286.507 59.672C287.958 58.7973 289.302 57.464 290.539 55.672L291.307 56.824C289.664 59.1067 287.883 60.824 285.963 61.976C284.043 63.128 281.952 63.704 279.691 63.704C277.28 63.704 275.126 63.096 273.227 61.88C271.328 60.6427 269.835 58.9253 268.747 56.728C267.659 54.5307 267.115 51.992 267.115 49.112ZM313.101 34.488V59.608C313.101 60.0773 313.186 60.4293 313.357 60.664C313.549 60.8987 313.826 61.0587 314.189 61.144L315.853 61.464C316.151 61.528 316.365 61.6347 316.493 61.784C316.621 61.912 316.685 62.072 316.685 62.264C316.685 62.4773 316.599 62.6587 316.429 62.808C316.279 62.936 316.023 63 315.661 63H304.109C303.789 63 303.543 62.936 303.373 62.808C303.223 62.6587 303.149 62.4773 303.149 62.264C303.149 62.072 303.213 61.912 303.341 61.784C303.469 61.656 303.661 61.56 303.917 61.496L305.677 61.144C306.039 61.0587 306.306 60.8987 306.477 60.664C306.669 60.4293 306.765 60.088 306.765 59.64V38.36C306.765 38.0187 306.701 37.7733 306.573 37.624C306.466 37.4533 306.263 37.3573 305.965 37.336L303.693 37.272C303.437 37.2293 303.245 37.1547 303.117 37.048C303.01 36.9413 302.957 36.8027 302.957 36.632C302.957 36.4187 303.021 36.2587 303.149 36.152C303.277 36.024 303.501 35.896 303.821 35.768L310.029 33.816C310.519 33.624 310.903 33.496 311.181 33.432C311.479 33.368 311.735 33.336 311.949 33.336C312.333 33.336 312.621 33.4427 312.813 33.656C313.005 33.8693 313.101 34.1467 313.101 34.488ZM309.421 27.672C308.162 27.672 307.138 27.2987 306.349 26.552C305.581 25.8053 305.197 24.8667 305.197 23.736C305.197 22.584 305.591 21.6453 306.381 20.92C307.17 20.1733 308.183 19.8 309.421 19.8C310.701 19.8 311.735 20.1733 312.525 20.92C313.314 21.6667 313.709 22.6053 313.709 23.736C313.709 24.8667 313.314 25.8053 312.525 26.552C311.735 27.2987 310.701 27.672 309.421 27.672ZM322.444 35.8L320.268 35.32C319.905 35.2133 319.649 35.096 319.5 34.968C319.35 34.8187 319.276 34.6587 319.276 34.488C319.276 34.2533 319.361 34.0827 319.532 33.976C319.702 33.848 319.916 33.784 320.172 33.784H322.54C322.966 33.784 323.308 33.72 323.564 33.592C323.82 33.4427 324.044 33.1973 324.236 32.856L327.564 27.736C327.798 27.3947 328.022 27.1493 328.236 27C328.47 26.8293 328.716 26.744 328.972 26.744C329.228 26.744 329.43 26.8293 329.58 27C329.729 27.1707 329.804 27.4053 329.804 27.704V55.64C329.804 57.176 330.113 58.3387 330.732 59.128C331.35 59.896 332.214 60.28 333.324 60.28C333.964 60.28 334.486 60.184 334.892 59.992C335.318 59.7787 335.67 59.512 335.948 59.192C336.225 58.872 336.481 58.5627 336.716 58.264C336.95 57.944 337.206 57.6773 337.484 57.464C337.654 57.4213 337.804 57.464 337.932 57.592C338.06 57.6987 338.113 57.9013 338.092 58.2C337.964 59.2027 337.58 60.1093 336.94 60.92C336.321 61.7307 335.5 62.3707 334.476 62.84C333.452 63.3093 332.257 63.544 330.892 63.544C328.609 63.544 326.806 62.968 325.484 61.816C324.182 60.664 323.532 58.9147 323.532 56.568V37.176C323.532 36.792 323.446 36.4933 323.276 36.28C323.126 36.0667 322.849 35.9067 322.444 35.8ZM327.212 35.576L327.276 33.784H336.972C337.292 33.784 337.526 33.8373 337.676 33.944C337.846 34.0507 337.932 34.2213 337.932 34.456C337.932 34.776 337.761 35.0427 337.42 35.256C337.1 35.4693 336.598 35.576 335.916 35.576H327.212ZM351.788 34.488V59.608C351.788 60.0773 351.873 60.4293 352.044 60.664C352.236 60.8987 352.513 61.0587 352.876 61.144L354.54 61.464C354.839 61.528 355.052 61.6347 355.18 61.784C355.308 61.912 355.372 62.072 355.372 62.264C355.372 62.4773 355.287 62.6587 355.116 62.808C354.967 62.936 354.711 63 354.348 63H342.796C342.476 63 342.231 62.936 342.06 62.808C341.911 62.6587 341.836 62.4773 341.836 62.264C341.836 62.072 341.9 61.912 342.028 61.784C342.156 61.656 342.348 61.56 342.604 61.496L344.364 61.144C344.727 61.0587 344.993 60.8987 345.164 60.664C345.356 60.4293 345.452 60.088 345.452 59.64V38.36C345.452 38.0187 345.388 37.7733 345.26 37.624C345.153 37.4533 344.951 37.3573 344.652 37.336L342.38 37.272C342.124 37.2293 341.932 37.1547 341.804 37.048C341.697 36.9413 341.644 36.8027 341.644 36.632C341.644 36.4187 341.708 36.2587 341.836 36.152C341.964 36.024 342.188 35.896 342.508 35.768L348.716 33.816C349.207 33.624 349.591 33.496 349.868 33.432C350.167 33.368 350.423 33.336 350.636 33.336C351.02 33.336 351.308 33.4427 351.5 33.656C351.692 33.8693 351.788 34.1467 351.788 34.488ZM348.108 27.672C346.849 27.672 345.825 27.2987 345.036 26.552C344.268 25.8053 343.884 24.8667 343.884 23.736C343.884 22.584 344.279 21.6453 345.068 20.92C345.857 20.1733 346.871 19.8 348.108 19.8C349.388 19.8 350.423 20.1733 351.212 20.92C352.001 21.6667 352.396 22.6053 352.396 23.736C352.396 24.8667 352.001 25.8053 351.212 26.552C350.423 27.2987 349.388 27.672 348.108 27.672ZM374.475 33.144C377.44 33.144 380.064 33.7947 382.347 35.096C384.63 36.3973 386.422 38.2 387.723 40.504C389.024 42.808 389.675 45.464 389.675 48.472C389.675 51.416 389.014 54.04 387.691 56.344C386.368 58.6267 384.544 60.4293 382.219 61.752C379.915 63.0533 377.248 63.704 374.219 63.704C371.254 63.704 368.63 63.064 366.347 61.784C364.064 60.4827 362.283 58.68 361.003 56.376C359.723 54.072 359.083 51.4267 359.083 48.44C359.083 45.4533 359.734 42.8187 361.035 40.536C362.336 38.232 364.139 36.4293 366.443 35.128C368.768 33.8053 371.446 33.144 374.475 33.144ZM376.427 61.784C378.134 61.5707 379.542 60.8667 380.651 59.672C381.76 58.4773 382.507 56.8453 382.891 54.776C383.296 52.6853 383.296 50.2107 382.891 47.352C382.486 44.4507 381.782 42.0507 380.779 40.152C379.798 38.2533 378.582 36.8773 377.131 36.024C375.68 35.1493 374.07 34.8187 372.299 35.032C370.571 35.2453 369.152 35.96 368.043 37.176C366.955 38.3707 366.219 40.0133 365.835 42.104C365.451 44.1733 365.462 46.6373 365.867 49.496C366.272 52.3333 366.976 54.712 367.979 56.632C368.982 58.5307 370.208 59.9173 371.659 60.792C373.11 61.6667 374.699 61.9973 376.427 61.784ZM404.099 34.488V59.608C404.099 60.0773 404.184 60.4293 404.355 60.664C404.547 60.8987 404.824 61.0587 405.187 61.144L406.819 61.464C407.331 61.6133 407.587 61.8693 407.587 62.232C407.587 62.744 407.246 63 406.563 63H395.107C394.787 63 394.542 62.936 394.371 62.808C394.2 62.6587 394.115 62.4773 394.115 62.264C394.115 62.072 394.179 61.912 394.307 61.784C394.435 61.656 394.638 61.56 394.915 61.496L396.675 61.144C397.038 61.0587 397.304 60.8987 397.475 60.664C397.667 60.4293 397.763 60.088 397.763 59.64V38.36C397.763 38.0187 397.699 37.7733 397.571 37.624C397.443 37.4533 397.24 37.3573 396.963 37.336L394.659 37.272C394.403 37.2293 394.222 37.1547 394.115 37.048C394.008 36.9413 393.955 36.8027 393.955 36.632C393.955 36.4187 394.019 36.2587 394.147 36.152C394.275 36.024 394.499 35.896 394.819 35.768L401.027 33.816C401.496 33.624 401.87 33.496 402.147 33.432C402.446 33.368 402.723 33.336 402.979 33.336C403.342 33.336 403.619 33.4427 403.811 33.656C404.003 33.8693 404.099 34.1467 404.099 34.488ZM403.363 40.952L402.467 40.056L403.747 38.936C406.094 36.8453 408.11 35.352 409.795 34.456C411.48 33.56 413.102 33.112 414.659 33.112C417.006 33.112 418.83 33.8907 420.131 35.448C421.432 37.0053 422.243 39.192 422.563 42.008L424.739 59.448C424.803 59.96 424.92 60.3547 425.091 60.632C425.283 60.9093 425.592 61.0907 426.019 61.176L427.491 61.496C427.768 61.56 427.96 61.656 428.067 61.784C428.195 61.912 428.259 62.072 428.259 62.264C428.259 62.4773 428.184 62.6587 428.035 62.808C427.886 62.936 427.64 63 427.299 63H415.683C415 63 414.659 62.744 414.659 62.232C414.659 61.8907 414.904 61.6347 415.395 61.464L417.123 61.144C417.55 61.0587 417.859 60.8773 418.051 60.6C418.264 60.3227 418.35 59.9387 418.307 59.448L416.259 42.872C415.982 40.76 415.438 39.192 414.627 38.168C413.838 37.144 412.675 36.632 411.139 36.632C410.158 36.632 409.134 36.8987 408.067 37.432C407.022 37.9653 405.87 38.776 404.611 39.864L403.363 40.952Z" fill="#F06C9B"/>
<path d="M352.325 17.1313H341.688C340.481 17.1313 339.5 18.1125 339.5 19.3188C339.5 20.525 340.481 21.5063 341.688 21.5063H352.325C353.531 21.5063 354.513 20.525 354.513 19.3188C354.513 18.1125 353.531 17.1313 352.325 17.1313Z" fill="url(#paint0_linear_89_618)"/>
<path d="M352.325 17.1313H341.688C340.481 17.1313 339.5 18.1125 339.5 19.3188C339.5 20.525 340.481 21.5063 341.688 21.5063H352.325C353.531 21.5063 354.513 20.525 354.513 19.3188C354.513 18.1125 353.531 17.1313 352.325 17.1313Z" fill="url(#paint1_linear_89_618)"/>
<path d="M352.325 17.1313H341.688C340.481 17.1313 339.5 18.1125 339.5 19.3188C339.5 20.525 340.481 21.5063 341.688 21.5063H352.325C353.531 21.5063 354.513 20.525 354.513 19.3188C354.513 18.1125 353.531 17.1313 352.325 17.1313Z" fill="url(#paint2_radial_89_618)"/>
<path d="M352.325 17.1313H341.688C340.481 17.1313 339.5 18.1125 339.5 19.3188C339.5 20.525 340.481 21.5063 341.688 21.5063H352.325C353.531 21.5063 354.513 20.525 354.513 19.3188C354.513 18.1125 353.531 17.1313 352.325 17.1313Z" fill="url(#paint3_radial_89_618)"/>
<path d="M352.325 17.1313H341.688C340.481 17.1313 339.5 18.1125 339.5 19.3188C339.5 20.525 340.481 21.5063 341.688 21.5063H352.325C353.531 21.5063 354.513 20.525 354.513 19.3188C354.513 18.1125 353.531 17.1313 352.325 17.1313Z" fill="url(#paint4_radial_89_618)"/>
<path d="M352.325 17.1313H341.688C340.481 17.1313 339.5 18.1125 339.5 19.3188C339.5 20.525 340.481 21.5063 341.688 21.5063H352.325C353.531 21.5063 354.513 20.525 354.513 19.3188C354.513 18.1125 353.531 17.1313 352.325 17.1313Z" fill="url(#paint5_radial_89_618)"/>
<g filter="url(#filter0_f_89_618)">
<path d="M350.45 14.8006H343.569C340.756 14.8006 341.346 18.4819 343.562 18.4819H346.981C347.996 18.4819 350.372 18.6031 350.372 18.6031C352.837 18.6031 353.272 14.8006 350.45 14.8006Z" fill="url(#paint6_linear_89_618)"/>
</g>
<path d="M350.45 14.0062H343.569C343.281 14.0058 342.997 14.062 342.731 14.1716C342.466 14.2811 342.224 14.4419 342.021 14.6447C341.61 15.0544 341.379 15.6105 341.378 16.1906C341.377 16.7708 341.607 17.3275 342.017 17.7383C342.426 18.1492 342.982 18.3804 343.562 18.3812H350.444C351.65 18.3812 352.631 17.4 352.631 16.1937C352.637 14.9812 351.656 14.0062 350.45 14.0062Z" fill="url(#paint7_linear_89_618)"/>
<path d="M350.45 14.0062H343.569C343.281 14.0058 342.997 14.062 342.731 14.1716C342.466 14.2811 342.224 14.4419 342.021 14.6447C341.61 15.0544 341.379 15.6105 341.378 16.1906C341.377 16.7708 341.607 17.3275 342.017 17.7383C342.426 18.1492 342.982 18.3804 343.562 18.3812H350.444C351.65 18.3812 352.631 17.4 352.631 16.1937C352.637 14.9812 351.656 14.0062 350.45 14.0062Z" fill="url(#paint8_radial_89_618)"/>
<path d="M350.45 14.0062H343.569C343.281 14.0058 342.997 14.062 342.731 14.1716C342.466 14.2811 342.224 14.4419 342.021 14.6447C341.61 15.0544 341.379 15.6105 341.378 16.1906C341.377 16.7708 341.607 17.3275 342.017 17.7383C342.426 18.1492 342.982 18.3804 343.562 18.3812H350.444C351.65 18.3812 352.631 17.4 352.631 16.1937C352.637 14.9812 351.656 14.0062 350.45 14.0062Z" fill="url(#paint9_radial_89_618)"/>
<g filter="url(#filter1_f_89_618)">
<path d="M344.002 13.4675C344.002 14.9969 345.752 15.1463 346.977 15.055C348.15 14.9675 349.881 14.9763 349.881 13.4675C348.314 11.9788 345.24 12.2519 344.002 13.4675Z" fill="#D73A7E"/>
</g>
<path d="M349.656 12.2188C349.619 12.1813 349.581 12.15 349.538 12.1125L347.706 10.5125C347.306 10.1625 346.706 10.1625 346.306 10.5125L344.413 12.1625C344.088 12.45 343.881 12.8687 343.881 13.3438C343.881 14.85 345.798 14.9062 347.006 14.9062C348.18 14.9062 350.131 14.7712 350.131 13.3438C350.138 12.9 349.95 12.5 349.656 12.2188Z" fill="#F252B5"/>
<path d="M349.656 12.2188C349.619 12.1813 349.581 12.15 349.538 12.1125L347.706 10.5125C347.306 10.1625 346.706 10.1625 346.306 10.5125L344.413 12.1625C344.088 12.45 343.881 12.8687 343.881 13.3438C343.881 14.85 345.798 14.9062 347.006 14.9062C348.18 14.9062 350.131 14.7712 350.131 13.3438C350.138 12.9 349.95 12.5 349.656 12.2188Z" fill="url(#paint10_radial_89_618)"/>
<path d="M349.656 12.2188C349.619 12.1813 349.581 12.15 349.538 12.1125L347.706 10.5125C347.306 10.1625 346.706 10.1625 346.306 10.5125L344.413 12.1625C344.088 12.45 343.881 12.8687 343.881 13.3438C343.881 14.85 345.798 14.9062 347.006 14.9062C348.18 14.9062 350.131 14.7712 350.131 13.3438C350.138 12.9 349.95 12.5 349.656 12.2188Z" fill="url(#paint11_radial_89_618)"/>
<path d="M349.656 12.2188C349.619 12.1813 349.581 12.15 349.538 12.1125L347.706 10.5125C347.306 10.1625 346.706 10.1625 346.306 10.5125L344.413 12.1625C344.088 12.45 343.881 12.8687 343.881 13.3438C343.881 14.85 345.798 14.9062 347.006 14.9062C348.18 14.9062 350.131 14.7712 350.131 13.3438C350.138 12.9 349.95 12.5 349.656 12.2188Z" fill="url(#paint12_radial_89_618)"/>
<path d="M352.775 21.5063H341.238C341.065 21.506 340.894 21.5461 340.74 21.6236C340.585 21.701 340.451 21.8135 340.347 21.9521C340.244 22.0907 340.175 22.2516 340.145 22.4218C340.115 22.5921 340.125 22.767 340.175 22.9325L341.494 27.3494C341.569 27.5869 341.794 27.75 342.05 27.75H351.969C352.219 27.75 352.444 27.5875 352.525 27.35L353.844 22.9325C353.892 22.7665 353.901 22.5915 353.87 22.4214C353.839 22.2513 353.769 22.0907 353.666 21.9524C353.562 21.814 353.428 21.7017 353.273 21.6242C353.118 21.5468 352.948 21.5064 352.775 21.5063Z" fill="url(#paint13_linear_89_618)"/>
<path d="M352.775 21.5063H341.238C341.065 21.506 340.894 21.5461 340.74 21.6236C340.585 21.701 340.451 21.8135 340.347 21.9521C340.244 22.0907 340.175 22.2516 340.145 22.4218C340.115 22.5921 340.125 22.767 340.175 22.9325L341.494 27.3494C341.569 27.5869 341.794 27.75 342.05 27.75H351.969C352.219 27.75 352.444 27.5875 352.525 27.35L353.844 22.9325C353.892 22.7665 353.901 22.5915 353.87 22.4214C353.839 22.2513 353.769 22.0907 353.666 21.9524C353.562 21.814 353.428 21.7017 353.273 21.6242C353.118 21.5468 352.948 21.5064 352.775 21.5063Z" fill="url(#paint14_radial_89_618)"/>
<path d="M352.775 21.5063H341.238C341.065 21.506 340.894 21.5461 340.74 21.6236C340.585 21.701 340.451 21.8135 340.347 21.9521C340.244 22.0907 340.175 22.2516 340.145 22.4218C340.115 22.5921 340.125 22.767 340.175 22.9325L341.494 27.3494C341.569 27.5869 341.794 27.75 342.05 27.75H351.969C352.219 27.75 352.444 27.5875 352.525 27.35L353.844 22.9325C353.892 22.7665 353.901 22.5915 353.87 22.4214C353.839 22.2513 353.769 22.0907 353.666 21.9524C353.562 21.814 353.428 21.7017 353.273 21.6242C353.118 21.5468 352.948 21.5064 352.775 21.5063Z" fill="url(#paint15_radial_89_618)"/>
<g filter="url(#filter2_f_89_618)">
<path d="M344.764 15.5775C344.639 15.4525 344.639 15.2587 344.764 15.1337L345.227 14.6712C345.352 14.5462 345.546 14.5462 345.671 14.6712C345.796 14.7962 345.796 14.99 345.671 15.115L345.202 15.5775C345.083 15.7025 344.883 15.7025 344.764 15.5775Z" fill="#C8397E"/>
</g>
<path d="M344.764 15.4344C344.639 15.3094 344.639 15.1156 344.764 14.9906L345.227 14.5281C345.352 14.4031 345.546 14.4031 345.671 14.5281C345.796 14.6531 345.796 14.8469 345.671 14.9719L345.202 15.4344C345.083 15.5594 344.883 15.5594 344.764 15.4344Z" fill="url(#paint16_linear_89_618)"/>
<g filter="url(#filter3_f_89_618)">
<path d="M344.356 20.4625C344.325 20.4319 344.3 20.3952 344.283 20.3548C344.266 20.3143 344.257 20.2708 344.257 20.2269C344.257 20.1829 344.266 20.1395 344.283 20.099C344.3 20.0585 344.325 20.0219 344.356 19.9913L344.847 19.5C344.878 19.4684 344.915 19.4433 344.955 19.4262C344.996 19.409 345.039 19.4002 345.083 19.4002C345.127 19.4002 345.171 19.409 345.212 19.4262C345.252 19.4433 345.289 19.4684 345.319 19.5C345.351 19.5306 345.376 19.5673 345.393 19.6077C345.41 19.6482 345.419 19.6917 345.419 19.7356C345.419 19.7796 345.41 19.823 345.393 19.8635C345.376 19.904 345.351 19.9406 345.319 19.9713L344.827 20.4631C344.797 20.4946 344.76 20.5196 344.72 20.5367C344.679 20.5538 344.636 20.5626 344.592 20.5626C344.548 20.5626 344.504 20.5538 344.464 20.5367C344.424 20.5196 344.387 20.4946 344.356 20.4631V20.4625Z" fill="#DC41B7"/>
</g>
<path d="M344.413 20.3188C344.288 20.1938 344.288 20 344.413 19.875L344.875 19.4125C345 19.2875 345.194 19.2875 345.319 19.4125C345.444 19.5375 345.444 19.7313 345.319 19.8563L344.856 20.3188C344.738 20.4438 344.538 20.4438 344.413 20.3188Z" fill="url(#paint17_linear_89_618)"/>
<g filter="url(#filter4_f_89_618)">
<path d="M341.691 19.5119C341.566 19.3869 341.566 19.1931 341.691 19.0681L342.154 18.6056C342.279 18.4806 342.473 18.4806 342.598 18.6056C342.723 18.7306 342.723 18.9244 342.598 19.0494L342.135 19.5119C342.01 19.6306 341.816 19.6306 341.691 19.5119Z" fill="#D53275"/>
</g>
<path d="M341.564 19.5119C341.439 19.3869 341.439 19.1931 341.564 19.0681L342.027 18.6056C342.152 18.4806 342.346 18.4806 342.471 18.6056C342.596 18.7306 342.596 18.9244 342.471 19.0494L342.008 19.5119C341.883 19.6306 341.689 19.6306 341.564 19.5119Z" fill="url(#paint18_linear_89_618)"/>
<g filter="url(#filter5_f_89_618)">
<path d="M351.61 19.695C351.578 19.6693 351.551 19.6374 351.531 19.6012C351.511 19.5649 351.499 19.525 351.494 19.4839C351.49 19.4427 351.494 19.4012 351.506 19.3617C351.519 19.3221 351.538 19.2854 351.565 19.2538L351.979 18.7469C352.004 18.7145 352.036 18.6875 352.073 18.6677C352.109 18.6478 352.149 18.6354 352.19 18.6312C352.231 18.627 352.273 18.6311 352.312 18.6432C352.352 18.6554 352.388 18.6753 352.42 18.7019C352.558 18.8144 352.576 19.0069 352.465 19.1438L352.051 19.65C351.998 19.7129 351.922 19.7527 351.84 19.7611C351.757 19.7695 351.675 19.7458 351.61 19.695Z" fill="#C840AF"/>
</g>
<path d="M351.562 19.5119C351.437 19.3869 351.437 19.1931 351.562 19.0681L352.024 18.6056C352.149 18.4806 352.343 18.4806 352.468 18.6056C352.593 18.7306 352.593 18.9244 352.468 19.0494L352.006 19.5119C351.881 19.6306 351.681 19.6306 351.562 19.5119Z" fill="url(#paint19_linear_89_618)"/>
<path d="M351.562 19.5119C351.437 19.3869 351.437 19.1931 351.562 19.0681L352.024 18.6056C352.149 18.4806 352.343 18.4806 352.468 18.6056C352.593 18.7306 352.593 18.9244 352.468 19.0494L352.006 19.5119C351.881 19.6306 351.681 19.6306 351.562 19.5119Z" fill="url(#paint20_radial_89_618)"/>
<g filter="url(#filter6_f_89_618)">
<path d="M349.796 16.5206C349.921 16.3956 350.115 16.3956 350.24 16.5206L350.703 16.9831C350.828 17.1081 350.828 17.3019 350.703 17.4269C350.578 17.5519 350.384 17.5519 350.259 17.4269L349.796 16.9644C349.671 16.8456 349.671 16.6456 349.796 16.5206Z" fill="url(#paint21_linear_89_618)"/>
<path d="M349.796 16.5206C349.921 16.3956 350.115 16.3956 350.24 16.5206L350.703 16.9831C350.828 17.1081 350.828 17.3019 350.703 17.4269C350.578 17.5519 350.384 17.5519 350.259 17.4269L349.796 16.9644C349.671 16.8456 349.671 16.6456 349.796 16.5206Z" fill="#DA41D6"/>
</g>
<g filter="url(#filter7_f_89_618)">
<path d="M342.779 17.2863C342.779 17.1113 342.917 16.9738 343.092 16.9738H343.748C343.923 16.9738 344.061 17.1113 344.061 17.2863C344.061 17.4613 343.923 17.5988 343.748 17.5988H343.092C342.917 17.5988 342.779 17.4613 342.779 17.2863Z" fill="#B03F95"/>
</g>
<path d="M342.75 17.3937C342.75 17.2187 342.888 17.0812 343.062 17.0812H343.719C343.894 17.0812 344.031 17.2187 344.031 17.3937C344.031 17.5687 343.894 17.7062 343.719 17.7062H343.062C342.888 17.7062 342.75 17.5687 342.75 17.3937Z" fill="url(#paint22_linear_89_618)"/>
<path d="M342.75 17.3937C342.75 17.2187 342.888 17.0812 343.062 17.0812H343.719C343.894 17.0812 344.031 17.2187 344.031 17.3937C344.031 17.5687 343.894 17.7062 343.719 17.7062H343.062C342.888 17.7062 342.75 17.5687 342.75 17.3937Z" fill="url(#paint23_radial_89_618)"/>
<path d="M349.904 16.3937C350.029 16.2687 350.222 16.2687 350.347 16.3937L350.81 16.8562C350.935 16.9812 350.935 17.175 350.81 17.3C350.685 17.425 350.491 17.425 350.366 17.3L349.904 16.8375C349.779 16.7187 349.779 16.5187 349.904 16.3937Z" fill="url(#paint24_linear_89_618)"/>
<path d="M349.904 16.3937C350.029 16.2687 350.222 16.2687 350.347 16.3937L350.81 16.8562C350.935 16.9812 350.935 17.175 350.81 17.3C350.685 17.425 350.491 17.425 350.366 17.3L349.904 16.8375C349.779 16.7187 349.779 16.5187 349.904 16.3937Z" fill="url(#paint25_radial_89_618)"/>
<g filter="url(#filter8_f_89_618)">
<path d="M342.127 27.6856H351.945C352.582 27.6856 352.798 27.2875 352.865 27.0687C352.865 27.0687 354.052 23.3244 353.979 23.0206C353.934 22.86 353.737 22.8406 353.679 22.9644L353.586 23.1806L353.52 23.0206C353.476 22.9206 353.258 22.7919 353.042 23.0206L352.583 23.5575C352.542 23.605 352.471 23.6194 352.442 23.5575L352.231 23.0687C352.124 22.8312 351.68 22.7737 351.332 23.09L350.84 23.5575C350.749 23.6512 350.609 23.67 350.521 23.5575L350.09 23.02C349.872 22.7556 349.361 22.8706 349.031 23.115L348.506 23.5575C348.379 23.6481 348.222 23.6625 348.104 23.5575L347.614 23.0687C347.338 22.8456 346.772 22.7662 346.436 23.09L345.949 23.5575C345.86 23.6262 345.674 23.6369 345.564 23.5575L344.926 23.02C344.651 22.7844 344.124 22.8275 343.891 23.115L343.54 23.5575C343.484 23.6225 343.379 23.6512 343.249 23.5575L342.649 23.02C342.413 22.82 341.962 22.8169 341.816 23.115L341.647 23.4913C341.647 23.4913 341.601 23.6512 341.516 23.5575L341.076 23.02C340.763 22.68 340.523 23.02 340.476 23.1806L340.382 22.9637C340.305 22.795 339.986 22.9637 340.101 23.3694L341.207 27.0687C341.254 27.2119 341.516 27.6856 342.127 27.6856Z" fill="url(#paint26_linear_89_618)"/>
<path d="M342.127 27.6856H351.945C352.582 27.6856 352.798 27.2875 352.865 27.0687C352.865 27.0687 354.052 23.3244 353.979 23.0206C353.934 22.86 353.737 22.8406 353.679 22.9644L353.586 23.1806L353.52 23.0206C353.476 22.9206 353.258 22.7919 353.042 23.0206L352.583 23.5575C352.542 23.605 352.471 23.6194 352.442 23.5575L352.231 23.0687C352.124 22.8312 351.68 22.7737 351.332 23.09L350.84 23.5575C350.749 23.6512 350.609 23.67 350.521 23.5575L350.09 23.02C349.872 22.7556 349.361 22.8706 349.031 23.115L348.506 23.5575C348.379 23.6481 348.222 23.6625 348.104 23.5575L347.614 23.0687C347.338 22.8456 346.772 22.7662 346.436 23.09L345.949 23.5575C345.86 23.6262 345.674 23.6369 345.564 23.5575L344.926 23.02C344.651 22.7844 344.124 22.8275 343.891 23.115L343.54 23.5575C343.484 23.6225 343.379 23.6512 343.249 23.5575L342.649 23.02C342.413 22.82 341.962 22.8169 341.816 23.115L341.647 23.4913C341.647 23.4913 341.601 23.6512 341.516 23.5575L341.076 23.02C340.763 22.68 340.523 23.02 340.476 23.1806L340.382 22.9637C340.305 22.795 339.986 22.9637 340.101 23.3694L341.207 27.0687C341.254 27.2119 341.516 27.6856 342.127 27.6856Z" fill="url(#paint27_radial_89_618)"/>
<path d="M342.127 27.6856H351.945C352.582 27.6856 352.798 27.2875 352.865 27.0687C352.865 27.0687 354.052 23.3244 353.979 23.0206C353.934 22.86 353.737 22.8406 353.679 22.9644L353.586 23.1806L353.52 23.0206C353.476 22.9206 353.258 22.7919 353.042 23.0206L352.583 23.5575C352.542 23.605 352.471 23.6194 352.442 23.5575L352.231 23.0687C352.124 22.8312 351.68 22.7737 351.332 23.09L350.84 23.5575C350.749 23.6512 350.609 23.67 350.521 23.5575L350.09 23.02C349.872 22.7556 349.361 22.8706 349.031 23.115L348.506 23.5575C348.379 23.6481 348.222 23.6625 348.104 23.5575L347.614 23.0687C347.338 22.8456 346.772 22.7662 346.436 23.09L345.949 23.5575C345.86 23.6262 345.674 23.6369 345.564 23.5575L344.926 23.02C344.651 22.7844 344.124 22.8275 343.891 23.115L343.54 23.5575C343.484 23.6225 343.379 23.6512 343.249 23.5575L342.649 23.02C342.413 22.82 341.962 22.8169 341.816 23.115L341.647 23.4913C341.647 23.4913 341.601 23.6512 341.516 23.5575L341.076 23.02C340.763 22.68 340.523 23.02 340.476 23.1806L340.382 22.9637C340.305 22.795 339.986 22.9637 340.101 23.3694L341.207 27.0687C341.254 27.2119 341.516 27.6856 342.127 27.6856Z" fill="url(#paint28_radial_89_618)"/>
<path d="M342.127 27.6856H351.945C352.582 27.6856 352.798 27.2875 352.865 27.0687C352.865 27.0687 354.052 23.3244 353.979 23.0206C353.934 22.86 353.737 22.8406 353.679 22.9644L353.586 23.1806L353.52 23.0206C353.476 22.9206 353.258 22.7919 353.042 23.0206L352.583 23.5575C352.542 23.605 352.471 23.6194 352.442 23.5575L352.231 23.0687C352.124 22.8312 351.68 22.7737 351.332 23.09L350.84 23.5575C350.749 23.6512 350.609 23.67 350.521 23.5575L350.09 23.02C349.872 22.7556 349.361 22.8706 349.031 23.115L348.506 23.5575C348.379 23.6481 348.222 23.6625 348.104 23.5575L347.614 23.0687C347.338 22.8456 346.772 22.7662 346.436 23.09L345.949 23.5575C345.86 23.6262 345.674 23.6369 345.564 23.5575L344.926 23.02C344.651 22.7844 344.124 22.8275 343.891 23.115L343.54 23.5575C343.484 23.6225 343.379 23.6512 343.249 23.5575L342.649 23.02C342.413 22.82 341.962 22.8169 341.816 23.115L341.647 23.4913C341.647 23.4913 341.601 23.6512 341.516 23.5575L341.076 23.02C340.763 22.68 340.523 23.02 340.476 23.1806L340.382 22.9637C340.305 22.795 339.986 22.9637 340.101 23.3694L341.207 27.0687C341.254 27.2119 341.516 27.6856 342.127 27.6856Z" fill="url(#paint29_radial_89_618)"/>
<path d="M342.127 27.6856H351.945C352.582 27.6856 352.798 27.2875 352.865 27.0687C352.865 27.0687 354.052 23.3244 353.979 23.0206C353.934 22.86 353.737 22.8406 353.679 22.9644L353.586 23.1806L353.52 23.0206C353.476 22.9206 353.258 22.7919 353.042 23.0206L352.583 23.5575C352.542 23.605 352.471 23.6194 352.442 23.5575L352.231 23.0687C352.124 22.8312 351.68 22.7737 351.332 23.09L350.84 23.5575C350.749 23.6512 350.609 23.67 350.521 23.5575L350.09 23.02C349.872 22.7556 349.361 22.8706 349.031 23.115L348.506 23.5575C348.379 23.6481 348.222 23.6625 348.104 23.5575L347.614 23.0687C347.338 22.8456 346.772 22.7662 346.436 23.09L345.949 23.5575C345.86 23.6262 345.674 23.6369 345.564 23.5575L344.926 23.02C344.651 22.7844 344.124 22.8275 343.891 23.115L343.54 23.5575C343.484 23.6225 343.379 23.6512 343.249 23.5575L342.649 23.02C342.413 22.82 341.962 22.8169 341.816 23.115L341.647 23.4913C341.647 23.4913 341.601 23.6512 341.516 23.5575L341.076 23.02C340.763 22.68 340.523 23.02 340.476 23.1806L340.382 22.9637C340.305 22.795 339.986 22.9637 340.101 23.3694L341.207 27.0687C341.254 27.2119 341.516 27.6856 342.127 27.6856Z" fill="url(#paint30_linear_89_618)"/>
<path d="M342.127 27.6856H351.945C352.582 27.6856 352.798 27.2875 352.865 27.0687C352.865 27.0687 354.052 23.3244 353.979 23.0206C353.934 22.86 353.737 22.8406 353.679 22.9644L353.586 23.1806L353.52 23.0206C353.476 22.9206 353.258 22.7919 353.042 23.0206L352.583 23.5575C352.542 23.605 352.471 23.6194 352.442 23.5575L352.231 23.0687C352.124 22.8312 351.68 22.7737 351.332 23.09L350.84 23.5575C350.749 23.6512 350.609 23.67 350.521 23.5575L350.09 23.02C349.872 22.7556 349.361 22.8706 349.031 23.115L348.506 23.5575C348.379 23.6481 348.222 23.6625 348.104 23.5575L347.614 23.0687C347.338 22.8456 346.772 22.7662 346.436 23.09L345.949 23.5575C345.86 23.6262 345.674 23.6369 345.564 23.5575L344.926 23.02C344.651 22.7844 344.124 22.8275 343.891 23.115L343.54 23.5575C343.484 23.6225 343.379 23.6512 343.249 23.5575L342.649 23.02C342.413 22.82 341.962 22.8169 341.816 23.115L341.647 23.4913C341.647 23.4913 341.601 23.6512 341.516 23.5575L341.076 23.02C340.763 22.68 340.523 23.02 340.476 23.1806L340.382 22.9637C340.305 22.795 339.986 22.9637 340.101 23.3694L341.207 27.0687C341.254 27.2119 341.516 27.6856 342.127 27.6856Z" fill="#856E5F"/>
</g>
<g filter="url(#filter9_f_89_618)">
<path d="M348.383 15.4344C348.258 15.3094 348.258 15.1156 348.383 14.9906L348.845 14.5281C348.97 14.4031 349.164 14.4031 349.289 14.5281C349.414 14.6531 349.414 14.8469 349.289 14.9719L348.826 15.4344C348.701 15.5594 348.501 15.5594 348.383 15.4344Z" fill="#954093"/>
</g>
<g filter="url(#filter10_f_89_618)">
<path d="M348.377 14.825L348.824 14.4075C348.949 14.2825 349.266 14.305 349.368 14.495C349.153 14.6956 348.626 14.7619 348.377 14.825Z" fill="#954093"/>
</g>
<path d="M348.431 15.3563C348.306 15.2313 348.306 15.0375 348.431 14.9125L348.894 14.45C349.019 14.325 349.212 14.325 349.337 14.45C349.462 14.575 349.462 14.7688 349.337 14.8938L348.875 15.3563C348.75 15.4813 348.55 15.4813 348.431 15.3563Z" fill="url(#paint31_linear_89_618)"/>
<path d="M348.431 15.3563C348.306 15.2313 348.306 15.0375 348.431 14.9125L348.894 14.45C349.019 14.325 349.212 14.325 349.337 14.45C349.462 14.575 349.462 14.7688 349.337 14.8938L348.875 15.3563C348.75 15.4813 348.55 15.4813 348.431 15.3563Z" fill="url(#paint32_radial_89_618)"/>
<g filter="url(#filter11_f_89_618)">
<path d="M350.038 20.5275C350.163 20.4025 350.163 20.2088 350.038 20.0838L349.575 19.6213C349.45 19.4963 349.256 19.4963 349.131 19.6213C349.006 19.7463 349.006 19.94 349.131 20.065L349.594 20.5275C349.719 20.6525 349.919 20.6525 350.038 20.5275Z" fill="#C53DD2"/>
</g>
<path d="M350.044 20.3188C350.169 20.1938 350.169 20 350.044 19.875L349.581 19.4125C349.456 19.2875 349.263 19.2875 349.138 19.4125C349.013 19.5375 349.013 19.7313 349.138 19.8563L349.6 20.3188C349.725 20.4438 349.925 20.4438 350.044 20.3188Z" fill="url(#paint33_linear_89_618)"/>
<path d="M350.044 20.3188C350.169 20.1938 350.169 20 350.044 19.875L349.581 19.4125C349.456 19.2875 349.263 19.2875 349.138 19.4125C349.013 19.5375 349.013 19.7313 349.138 19.8563L349.6 20.3188C349.725 20.4438 349.925 20.4438 350.044 20.3188Z" fill="url(#paint34_radial_89_618)"/>
<path d="M342 27.75H352C352.65 27.75 352.869 27.3463 352.938 27.125C352.938 27.125 354.148 23.33 354.073 23.0225C354.026 22.86 353.826 22.8406 353.766 22.9656L353.671 23.1844L353.604 23.0225C353.561 22.9225 353.338 22.7913 353.118 23.0225L352.65 23.5662C352.609 23.6144 352.536 23.6287 352.507 23.5662L352.292 23.0712C352.183 22.8306 351.73 22.7725 351.377 23.0931L350.875 23.5669C350.783 23.6619 350.64 23.68 350.55 23.5669L350.111 23.0231C349.889 22.7544 349.368 22.8706 349.033 23.1181L348.498 23.5669C348.369 23.6581 348.208 23.6731 348.088 23.5669L347.589 23.0712C347.308 22.8456 346.732 22.765 346.389 23.0931L345.893 23.5669C345.803 23.6362 345.613 23.6475 345.501 23.5669L344.851 23.0231C344.569 22.7831 344.034 22.8269 343.797 23.1181L343.439 23.5669C343.381 23.6331 343.276 23.6619 343.144 23.5669L342.533 23.0231C342.291 22.82 341.832 22.8163 341.683 23.1181L341.511 23.4994C341.511 23.4994 341.464 23.6619 341.378 23.5669L340.929 23.0231C340.611 22.6775 340.366 23.0231 340.318 23.185L340.223 22.965C340.144 22.7944 339.819 22.965 339.936 23.3756L341.063 27.125C341.111 27.27 341.378 27.75 342 27.75Z" fill="url(#paint35_linear_89_618)"/>
<path d="M342 27.75H352C352.65 27.75 352.869 27.3463 352.938 27.125C352.938 27.125 354.148 23.33 354.073 23.0225C354.026 22.86 353.826 22.8406 353.766 22.9656L353.671 23.1844L353.604 23.0225C353.561 22.9225 353.338 22.7913 353.118 23.0225L352.65 23.5662C352.609 23.6144 352.536 23.6287 352.507 23.5662L352.292 23.0712C352.183 22.8306 351.73 22.7725 351.377 23.0931L350.875 23.5669C350.783 23.6619 350.64 23.68 350.55 23.5669L350.111 23.0231C349.889 22.7544 349.368 22.8706 349.033 23.1181L348.498 23.5669C348.369 23.6581 348.208 23.6731 348.088 23.5669L347.589 23.0712C347.308 22.8456 346.732 22.765 346.389 23.0931L345.893 23.5669C345.803 23.6362 345.613 23.6475 345.501 23.5669L344.851 23.0231C344.569 22.7831 344.034 22.8269 343.797 23.1181L343.439 23.5669C343.381 23.6331 343.276 23.6619 343.144 23.5669L342.533 23.0231C342.291 22.82 341.832 22.8163 341.683 23.1181L341.511 23.4994C341.511 23.4994 341.464 23.6619 341.378 23.5669L340.929 23.0231C340.611 22.6775 340.366 23.0231 340.318 23.185L340.223 22.965C340.144 22.7944 339.819 22.965 339.936 23.3756L341.063 27.125C341.111 27.27 341.378 27.75 342 27.75Z" fill="url(#paint36_radial_89_618)"/>
<path d="M342 27.75H352C352.65 27.75 352.869 27.3463 352.938 27.125C352.938 27.125 354.148 23.33 354.073 23.0225C354.026 22.86 353.826 22.8406 353.766 22.9656L353.671 23.1844L353.604 23.0225C353.561 22.9225 353.338 22.7913 353.118 23.0225L352.65 23.5662C352.609 23.6144 352.536 23.6287 352.507 23.5662L352.292 23.0712C352.183 22.8306 351.73 22.7725 351.377 23.0931L350.875 23.5669C350.783 23.6619 350.64 23.68 350.55 23.5669L350.111 23.0231C349.889 22.7544 349.368 22.8706 349.033 23.1181L348.498 23.5669C348.369 23.6581 348.208 23.6731 348.088 23.5669L347.589 23.0712C347.308 22.8456 346.732 22.765 346.389 23.0931L345.893 23.5669C345.803 23.6362 345.613 23.6475 345.501 23.5669L344.851 23.0231C344.569 22.7831 344.034 22.8269 343.797 23.1181L343.439 23.5669C343.381 23.6331 343.276 23.6619 343.144 23.5669L342.533 23.0231C342.291 22.82 341.832 22.8163 341.683 23.1181L341.511 23.4994C341.511 23.4994 341.464 23.6619 341.378 23.5669L340.929 23.0231C340.611 22.6775 340.366 23.0231 340.318 23.185L340.223 22.965C340.144 22.7944 339.819 22.965 339.936 23.3756L341.063 27.125C341.111 27.27 341.378 27.75 342 27.75Z" fill="url(#paint37_radial_89_618)"/>
<path d="M342 27.75H352C352.65 27.75 352.869 27.3463 352.938 27.125C352.938 27.125 354.148 23.33 354.073 23.0225C354.026 22.86 353.826 22.8406 353.766 22.9656L353.671 23.1844L353.604 23.0225C353.561 22.9225 353.338 22.7913 353.118 23.0225L352.65 23.5662C352.609 23.6144 352.536 23.6287 352.507 23.5662L352.292 23.0712C352.183 22.8306 351.73 22.7725 351.377 23.0931L350.875 23.5669C350.783 23.6619 350.64 23.68 350.55 23.5669L350.111 23.0231C349.889 22.7544 349.368 22.8706 349.033 23.1181L348.498 23.5669C348.369 23.6581 348.208 23.6731 348.088 23.5669L347.589 23.0712C347.308 22.8456 346.732 22.765 346.389 23.0931L345.893 23.5669C345.803 23.6362 345.613 23.6475 345.501 23.5669L344.851 23.0231C344.569 22.7831 344.034 22.8269 343.797 23.1181L343.439 23.5669C343.381 23.6331 343.276 23.6619 343.144 23.5669L342.533 23.0231C342.291 22.82 341.832 22.8163 341.683 23.1181L341.511 23.4994C341.511 23.4994 341.464 23.6619 341.378 23.5669L340.929 23.0231C340.611 22.6775 340.366 23.0231 340.318 23.185L340.223 22.965C340.144 22.7944 339.819 22.965 339.936 23.3756L341.063 27.125C341.111 27.27 341.378 27.75 342 27.75Z" fill="url(#paint38_radial_89_618)"/>
<path d="M342 27.75H352C352.65 27.75 352.869 27.3463 352.938 27.125C352.938 27.125 354.148 23.33 354.073 23.0225C354.026 22.86 353.826 22.8406 353.766 22.9656L353.671 23.1844L353.604 23.0225C353.561 22.9225 353.338 22.7913 353.118 23.0225L352.65 23.5662C352.609 23.6144 352.536 23.6287 352.507 23.5662L352.292 23.0712C352.183 22.8306 351.73 22.7725 351.377 23.0931L350.875 23.5669C350.783 23.6619 350.64 23.68 350.55 23.5669L350.111 23.0231C349.889 22.7544 349.368 22.8706 349.033 23.1181L348.498 23.5669C348.369 23.6581 348.208 23.6731 348.088 23.5669L347.589 23.0712C347.308 22.8456 346.732 22.765 346.389 23.0931L345.893 23.5669C345.803 23.6362 345.613 23.6475 345.501 23.5669L344.851 23.0231C344.569 22.7831 344.034 22.8269 343.797 23.1181L343.439 23.5669C343.381 23.6331 343.276 23.6619 343.144 23.5669L342.533 23.0231C342.291 22.82 341.832 22.8163 341.683 23.1181L341.511 23.4994C341.511 23.4994 341.464 23.6619 341.378 23.5669L340.929 23.0231C340.611 22.6775 340.366 23.0231 340.318 23.185L340.223 22.965C340.144 22.7944 339.819 22.965 339.936 23.3756L341.063 27.125C341.111 27.27 341.378 27.75 342 27.75Z" fill="url(#paint39_linear_89_618)"/>
<path d="M342 27.75H352C352.65 27.75 352.869 27.3463 352.938 27.125C352.938 27.125 354.148 23.33 354.073 23.0225C354.026 22.86 353.826 22.8406 353.766 22.9656L353.671 23.1844L353.604 23.0225C353.561 22.9225 353.338 22.7913 353.118 23.0225L352.65 23.5662C352.609 23.6144 352.536 23.6287 352.507 23.5662L352.292 23.0712C352.183 22.8306 351.73 22.7725 351.377 23.0931L350.875 23.5669C350.783 23.6619 350.64 23.68 350.55 23.5669L350.111 23.0231C349.889 22.7544 349.368 22.8706 349.033 23.1181L348.498 23.5669C348.369 23.6581 348.208 23.6731 348.088 23.5669L347.589 23.0712C347.308 22.8456 346.732 22.765 346.389 23.0931L345.893 23.5669C345.803 23.6362 345.613 23.6475 345.501 23.5669L344.851 23.0231C344.569 22.7831 344.034 22.8269 343.797 23.1181L343.439 23.5669C343.381 23.6331 343.276 23.6619 343.144 23.5669L342.533 23.0231C342.291 22.82 341.832 22.8163 341.683 23.1181L341.511 23.4994C341.511 23.4994 341.464 23.6619 341.378 23.5669L340.929 23.0231C340.611 22.6775 340.366 23.0231 340.318 23.185L340.223 22.965C340.144 22.7944 339.819 22.965 339.936 23.3756L341.063 27.125C341.111 27.27 341.378 27.75 342 27.75Z" fill="url(#paint40_linear_89_618)"/>
<path d="M342 27.75H352C352.65 27.75 352.869 27.3463 352.938 27.125C352.938 27.125 354.148 23.33 354.073 23.0225C354.026 22.86 353.826 22.8406 353.766 22.9656L353.671 23.1844L353.604 23.0225C353.561 22.9225 353.338 22.7913 353.118 23.0225L352.65 23.5662C352.609 23.6144 352.536 23.6287 352.507 23.5662L352.292 23.0712C352.183 22.8306 351.73 22.7725 351.377 23.0931L350.875 23.5669C350.783 23.6619 350.64 23.68 350.55 23.5669L350.111 23.0231C349.889 22.7544 349.368 22.8706 349.033 23.1181L348.498 23.5669C348.369 23.6581 348.208 23.6731 348.088 23.5669L347.589 23.0712C347.308 22.8456 346.732 22.765 346.389 23.0931L345.893 23.5669C345.803 23.6362 345.613 23.6475 345.501 23.5669L344.851 23.0231C344.569 22.7831 344.034 22.8269 343.797 23.1181L343.439 23.5669C343.381 23.6331 343.276 23.6619 343.144 23.5669L342.533 23.0231C342.291 22.82 341.832 22.8163 341.683 23.1181L341.511 23.4994C341.511 23.4994 341.464 23.6619 341.378 23.5669L340.929 23.0231C340.611 22.6775 340.366 23.0231 340.318 23.185L340.223 22.965C340.144 22.7944 339.819 22.965 339.936 23.3756L341.063 27.125C341.111 27.27 341.378 27.75 342 27.75Z" fill="url(#paint41_linear_89_618)"/>
<g filter="url(#filter12_f_89_618)">
<path d="M342.131 27.6856H351.867C352.501 27.6856 352.714 27.3444 352.78 27.1569C352.78 27.1569 353.114 26.1019 353.431 25.1525C353.666 24.4469 353.882 23.7994 353.851 23.6888L353.85 23.6869C353.806 23.5506 353.801 23.535 353.744 23.64L353.65 23.8256L353.585 23.6881C353.542 23.6031 353.299 23.4925 353.084 23.6881L352.664 24.1488C352.576 24.2588 352.474 24.285 352.41 24.1488C352.41 24.1488 352.288 23.8863 352.191 23.6888C352.092 23.4913 351.697 23.42 351.424 23.6888L350.96 24.1488C350.867 24.2763 350.608 24.3163 350.456 24.1488L350.029 23.6888C349.812 23.4619 349.302 23.5325 349.021 23.7694C348.741 24.0056 348.528 24.1488 348.528 24.1488C348.387 24.25 348.186 24.2763 348.059 24.1488L347.498 23.64C347.225 23.4487 346.865 23.3625 346.531 23.64L345.921 24.1488C345.799 24.2544 345.584 24.2588 345.447 24.1488L344.807 23.64C344.534 23.4381 344.184 23.3944 343.953 23.64L343.533 24.1488C343.446 24.2544 343.216 24.245 343.113 24.1488L342.532 23.64C342.327 23.4425 341.969 23.385 341.824 23.64C341.824 23.64 341.648 23.9869 341.599 24.0919C341.551 24.1969 341.424 24.2144 341.326 24.1L341.023 23.64C340.713 23.3481 340.481 23.6888 340.435 23.8256L340.342 23.64C340.265 23.4956 340.148 23.5844 340.262 23.9319L340.632 25.1619L341.219 27.1569C341.266 27.28 341.526 27.6856 342.132 27.6856H342.131Z" fill="url(#paint42_linear_89_618)"/>
<path d="M342.131 27.6856H351.867C352.501 27.6856 352.714 27.3444 352.78 27.1569C352.78 27.1569 353.114 26.1019 353.431 25.1525C353.666 24.4469 353.882 23.7994 353.851 23.6888L353.85 23.6869C353.806 23.5506 353.801 23.535 353.744 23.64L353.65 23.8256L353.585 23.6881C353.542 23.6031 353.299 23.4925 353.084 23.6881L352.664 24.1488C352.576 24.2588 352.474 24.285 352.41 24.1488C352.41 24.1488 352.288 23.8863 352.191 23.6888C352.092 23.4913 351.697 23.42 351.424 23.6888L350.96 24.1488C350.867 24.2763 350.608 24.3163 350.456 24.1488L350.029 23.6888C349.812 23.4619 349.302 23.5325 349.021 23.7694C348.741 24.0056 348.528 24.1488 348.528 24.1488C348.387 24.25 348.186 24.2763 348.059 24.1488L347.498 23.64C347.225 23.4487 346.865 23.3625 346.531 23.64L345.921 24.1488C345.799 24.2544 345.584 24.2588 345.447 24.1488L344.807 23.64C344.534 23.4381 344.184 23.3944 343.953 23.64L343.533 24.1488C343.446 24.2544 343.216 24.245 343.113 24.1488L342.532 23.64C342.327 23.4425 341.969 23.385 341.824 23.64C341.824 23.64 341.648 23.9869 341.599 24.0919C341.551 24.1969 341.424 24.2144 341.326 24.1L341.023 23.64C340.713 23.3481 340.481 23.6888 340.435 23.8256L340.342 23.64C340.265 23.4956 340.148 23.5844 340.262 23.9319L340.632 25.1619L341.219 27.1569C341.266 27.28 341.526 27.6856 342.132 27.6856H342.131Z" fill="url(#paint43_radial_89_618)"/>
<path d="M342.131 27.6856H351.867C352.501 27.6856 352.714 27.3444 352.78 27.1569C352.78 27.1569 353.114 26.1019 353.431 25.1525C353.666 24.4469 353.882 23.7994 353.851 23.6888L353.85 23.6869C353.806 23.5506 353.801 23.535 353.744 23.64L353.65 23.8256L353.585 23.6881C353.542 23.6031 353.299 23.4925 353.084 23.6881L352.664 24.1488C352.576 24.2588 352.474 24.285 352.41 24.1488C352.41 24.1488 352.288 23.8863 352.191 23.6888C352.092 23.4913 351.697 23.42 351.424 23.6888L350.96 24.1488C350.867 24.2763 350.608 24.3163 350.456 24.1488L350.029 23.6888C349.812 23.4619 349.302 23.5325 349.021 23.7694C348.741 24.0056 348.528 24.1488 348.528 24.1488C348.387 24.25 348.186 24.2763 348.059 24.1488L347.498 23.64C347.225 23.4487 346.865 23.3625 346.531 23.64L345.921 24.1488C345.799 24.2544 345.584 24.2588 345.447 24.1488L344.807 23.64C344.534 23.4381 344.184 23.3944 343.953 23.64L343.533 24.1488C343.446 24.2544 343.216 24.245 343.113 24.1488L342.532 23.64C342.327 23.4425 341.969 23.385 341.824 23.64C341.824 23.64 341.648 23.9869 341.599 24.0919C341.551 24.1969 341.424 24.2144 341.326 24.1L341.023 23.64C340.713 23.3481 340.481 23.6888 340.435 23.8256L340.342 23.64C340.265 23.4956 340.148 23.5844 340.262 23.9319L340.632 25.1619L341.219 27.1569C341.266 27.28 341.526 27.6856 342.132 27.6856H342.131Z" fill="url(#paint44_radial_89_618)"/>
<path d="M342.131 27.6856H351.867C352.501 27.6856 352.714 27.3444 352.78 27.1569C352.78 27.1569 353.114 26.1019 353.431 25.1525C353.666 24.4469 353.882 23.7994 353.851 23.6888L353.85 23.6869C353.806 23.5506 353.801 23.535 353.744 23.64L353.65 23.8256L353.585 23.6881C353.542 23.6031 353.299 23.4925 353.084 23.6881L352.664 24.1488C352.576 24.2588 352.474 24.285 352.41 24.1488C352.41 24.1488 352.288 23.8863 352.191 23.6888C352.092 23.4913 351.697 23.42 351.424 23.6888L350.96 24.1488C350.867 24.2763 350.608 24.3163 350.456 24.1488L350.029 23.6888C349.812 23.4619 349.302 23.5325 349.021 23.7694C348.741 24.0056 348.528 24.1488 348.528 24.1488C348.387 24.25 348.186 24.2763 348.059 24.1488L347.498 23.64C347.225 23.4487 346.865 23.3625 346.531 23.64L345.921 24.1488C345.799 24.2544 345.584 24.2588 345.447 24.1488L344.807 23.64C344.534 23.4381 344.184 23.3944 343.953 23.64L343.533 24.1488C343.446 24.2544 343.216 24.245 343.113 24.1488L342.532 23.64C342.327 23.4425 341.969 23.385 341.824 23.64C341.824 23.64 341.648 23.9869 341.599 24.0919C341.551 24.1969 341.424 24.2144 341.326 24.1L341.023 23.64C340.713 23.3481 340.481 23.6888 340.435 23.8256L340.342 23.64C340.265 23.4956 340.148 23.5844 340.262 23.9319L340.632 25.1619L341.219 27.1569C341.266 27.28 341.526 27.6856 342.132 27.6856H342.131Z" fill="url(#paint45_radial_89_618)"/>
</g>
<g filter="url(#filter13_f_89_618)">
<path d="M340.208 23.2313C340.131 23.0719 340.009 23.2313 340.122 23.6131L340.512 24.8544C344.827 27.1269 353.46 24.8838 353.46 24.8838C353.69 24.1231 353.958 23.36 354.002 23.2087C354.046 23.0581 353.918 23.0388 353.861 23.155L353.655 23.6438L353.621 23.2087C353.621 23.0919 353.314 23.0038 353.084 23.2844L352.664 23.7906C352.576 23.9119 352.591 23.9413 352.527 23.7906C352.527 23.7906 352.405 23.5019 352.307 23.2844C352.21 23.0669 351.697 22.9894 351.424 23.2844L350.96 23.7906C350.867 23.9319 350.795 23.9756 350.642 23.7906L350.215 23.2844C349.999 23.0344 349.302 23.1131 349.021 23.3731C348.741 23.6338 348.528 23.7906 348.528 23.7906C348.387 23.9025 348.186 23.9319 348.059 23.7906L347.498 23.2313C347.225 23.0206 346.787 22.925 346.453 23.2313L345.843 23.7906C345.721 23.9075 345.584 23.9119 345.447 23.7906L344.807 23.2313C344.534 23.0081 344.032 22.96 343.801 23.2313L343.382 23.7906C343.294 23.9075 343.216 23.8969 343.113 23.7906L342.532 23.2313C342.327 23.0138 341.969 22.95 341.824 23.2313C341.824 23.2313 341.648 23.6131 341.599 23.7288C341.551 23.8444 341.424 23.8631 341.326 23.7375L340.889 23.2313C340.579 22.91 340.347 23.2844 340.301 23.4356L340.208 23.2313Z" fill="url(#paint46_linear_89_618)"/>
<path d="M340.208 23.2313C340.131 23.0719 340.009 23.2313 340.122 23.6131L340.512 24.8544C344.827 27.1269 353.46 24.8838 353.46 24.8838C353.69 24.1231 353.958 23.36 354.002 23.2087C354.046 23.0581 353.918 23.0388 353.861 23.155L353.655 23.6438L353.621 23.2087C353.621 23.0919 353.314 23.0038 353.084 23.2844L352.664 23.7906C352.576 23.9119 352.591 23.9413 352.527 23.7906C352.527 23.7906 352.405 23.5019 352.307 23.2844C352.21 23.0669 351.697 22.9894 351.424 23.2844L350.96 23.7906C350.867 23.9319 350.795 23.9756 350.642 23.7906L350.215 23.2844C349.999 23.0344 349.302 23.1131 349.021 23.3731C348.741 23.6338 348.528 23.7906 348.528 23.7906C348.387 23.9025 348.186 23.9319 348.059 23.7906L347.498 23.2313C347.225 23.0206 346.787 22.925 346.453 23.2313L345.843 23.7906C345.721 23.9075 345.584 23.9119 345.447 23.7906L344.807 23.2313C344.534 23.0081 344.032 22.96 343.801 23.2313L343.382 23.7906C343.294 23.9075 343.216 23.8969 343.113 23.7906L342.532 23.2313C342.327 23.0138 341.969 22.95 341.824 23.2313C341.824 23.2313 341.648 23.6131 341.599 23.7288C341.551 23.8444 341.424 23.8631 341.326 23.7375L340.889 23.2313C340.579 22.91 340.347 23.2844 340.301 23.4356L340.208 23.2313Z" fill="url(#paint47_radial_89_618)"/>
<path d="M340.208 23.2313C340.131 23.0719 340.009 23.2313 340.122 23.6131L340.512 24.8544C344.827 27.1269 353.46 24.8838 353.46 24.8838C353.69 24.1231 353.958 23.36 354.002 23.2087C354.046 23.0581 353.918 23.0388 353.861 23.155L353.655 23.6438L353.621 23.2087C353.621 23.0919 353.314 23.0038 353.084 23.2844L352.664 23.7906C352.576 23.9119 352.591 23.9413 352.527 23.7906C352.527 23.7906 352.405 23.5019 352.307 23.2844C352.21 23.0669 351.697 22.9894 351.424 23.2844L350.96 23.7906C350.867 23.9319 350.795 23.9756 350.642 23.7906L350.215 23.2844C349.999 23.0344 349.302 23.1131 349.021 23.3731C348.741 23.6338 348.528 23.7906 348.528 23.7906C348.387 23.9025 348.186 23.9319 348.059 23.7906L347.498 23.2313C347.225 23.0206 346.787 22.925 346.453 23.2313L345.843 23.7906C345.721 23.9075 345.584 23.9119 345.447 23.7906L344.807 23.2313C344.534 23.0081 344.032 22.96 343.801 23.2313L343.382 23.7906C343.294 23.9075 343.216 23.8969 343.113 23.7906L342.532 23.2313C342.327 23.0138 341.969 22.95 341.824 23.2313C341.824 23.2313 341.648 23.6131 341.599 23.7288C341.551 23.8444 341.424 23.8631 341.326 23.7375L340.889 23.2313C340.579 22.91 340.347 23.2844 340.301 23.4356L340.208 23.2313Z" fill="url(#paint48_radial_89_618)"/>
<path d="M340.208 23.2313C340.131 23.0719 340.009 23.2313 340.122 23.6131L340.512 24.8544C344.827 27.1269 353.46 24.8838 353.46 24.8838C353.69 24.1231 353.958 23.36 354.002 23.2087C354.046 23.0581 353.918 23.0388 353.861 23.155L353.655 23.6438L353.621 23.2087C353.621 23.0919 353.314 23.0038 353.084 23.2844L352.664 23.7906C352.576 23.9119 352.591 23.9413 352.527 23.7906C352.527 23.7906 352.405 23.5019 352.307 23.2844C352.21 23.0669 351.697 22.9894 351.424 23.2844L350.96 23.7906C350.867 23.9319 350.795 23.9756 350.642 23.7906L350.215 23.2844C349.999 23.0344 349.302 23.1131 349.021 23.3731C348.741 23.6338 348.528 23.7906 348.528 23.7906C348.387 23.9025 348.186 23.9319 348.059 23.7906L347.498 23.2313C347.225 23.0206 346.787 22.925 346.453 23.2313L345.843 23.7906C345.721 23.9075 345.584 23.9119 345.447 23.7906L344.807 23.2313C344.534 23.0081 344.032 22.96 343.801 23.2313L343.382 23.7906C343.294 23.9075 343.216 23.8969 343.113 23.7906L342.532 23.2313C342.327 23.0138 341.969 22.95 341.824 23.2313C341.824 23.2313 341.648 23.6131 341.599 23.7288C341.551 23.8444 341.424 23.8631 341.326 23.7375L340.889 23.2313C340.579 22.91 340.347 23.2844 340.301 23.4356L340.208 23.2313Z" fill="url(#paint49_radial_89_618)"/>
</g>
<path fill-rule="evenodd" clip-rule="evenodd" d="M347.008 24.7031C347.091 24.7031 347.17 24.736 347.229 24.7947C347.288 24.8533 347.321 24.9327 347.321 25.0156V27.75H346.696V25.0156C346.696 24.9327 346.729 24.8533 346.787 24.7947C346.846 24.736 346.925 24.7031 347.008 24.7031Z" fill="url(#paint50_linear_89_618)"/>
<path fill-rule="evenodd" clip-rule="evenodd" d="M343.539 24.6312C343.58 24.623 343.621 24.6228 343.661 24.6306C343.702 24.6384 343.74 24.6541 343.774 24.6767C343.808 24.6994 343.838 24.7285 343.861 24.7625C343.884 24.7966 343.9 24.8348 343.908 24.875L344.481 27.7437H343.852L343.296 25C343.287 24.9598 343.287 24.9183 343.295 24.878C343.303 24.8377 343.318 24.7994 343.341 24.7651C343.364 24.7309 343.393 24.7014 343.427 24.6785C343.461 24.6555 343.499 24.6394 343.539 24.6312Z" fill="url(#paint51_linear_89_618)"/>
<g filter="url(#filter14_f_89_618)">
<path d="M347.345 13.4506C347.22 13.5756 347.026 13.5756 346.901 13.4506L346.439 12.9881C346.314 12.8631 346.314 12.6694 346.439 12.5444C346.564 12.4194 346.758 12.4194 346.883 12.5444L347.345 13.0131C347.47 13.1319 347.47 13.3319 347.345 13.4506Z" fill="#C5419E"/>
</g>
<path d="M347.453 13.275C347.328 13.4 347.134 13.4 347.009 13.275L346.547 12.8125C346.422 12.6875 346.422 12.4937 346.547 12.3687C346.672 12.2437 346.866 12.2437 346.991 12.3687L347.453 12.8375C347.578 12.9562 347.578 13.1562 347.453 13.275Z" fill="url(#paint52_linear_89_618)"/>
<path d="M347.453 13.275C347.328 13.4 347.134 13.4 347.009 13.275L346.547 12.8125C346.422 12.6875 346.422 12.4937 346.547 12.3687C346.672 12.2437 346.866 12.2437 346.991 12.3687L347.453 12.8375C347.578 12.9562 347.578 13.1562 347.453 13.275Z" fill="url(#paint53_radial_89_618)"/>
<path fill-rule="evenodd" clip-rule="evenodd" d="M350.494 24.63C350.576 24.6452 350.648 24.6921 350.695 24.7604C350.742 24.8288 350.76 24.9129 350.744 24.9944L350.218 27.75H349.589L350.131 24.8806C350.146 24.7992 350.193 24.7271 350.261 24.6802C350.329 24.6333 350.414 24.6155 350.495 24.6306L350.494 24.63Z" fill="url(#paint54_linear_89_618)"/>
<g filter="url(#filter15_f_89_618)">
<path d="M347.453 17.7019C347.328 17.8269 347.134 17.8269 347.009 17.7019L346.547 17.2394C346.422 17.1144 346.422 16.9206 346.547 16.7956C346.672 16.6706 346.866 16.6706 346.991 16.7956L347.453 17.2581C347.578 17.3831 347.578 17.5769 347.453 17.7019Z" fill="#D939B9"/>
</g>
<path d="M347.456 17.5844C347.331 17.7094 347.137 17.7094 347.012 17.5844L346.55 17.1219C346.425 16.9969 346.425 16.8031 346.55 16.6781C346.675 16.5531 346.869 16.5531 346.994 16.6781L347.456 17.1406C347.581 17.2656 347.581 17.4594 347.456 17.5844Z" fill="url(#paint55_linear_89_618)"/>
<path d="M347.456 17.5844C347.331 17.7094 347.137 17.7094 347.012 17.5844L346.55 17.1219C346.425 16.9969 346.425 16.8031 346.55 16.6781C346.675 16.5531 346.869 16.5531 346.994 16.6781L347.456 17.1406C347.581 17.2656 347.581 17.4594 347.456 17.5844Z" fill="url(#paint56_radial_89_618)"/>
<g filter="url(#filter16_f_89_618)">
<path d="M340.681 23.0431L341.248 23.7069" stroke="#64AFFF" stroke-width="0.3125"/>
</g>
<defs>
<filter id="filter0_f_89_618" x="341.048" y="14.1756" width="11.9752" height="5.0525" filterUnits="userSpaceOnUse" color-interpolation-filters="sRGB">
<feFlood flood-opacity="0" result="BackgroundImageFix"/>
<feBlend mode="normal" in="SourceGraphic" in2="BackgroundImageFix" result="shape"/>
<feGaussianBlur stdDeviation="0.3125" result="effect1_foregroundBlur_89_618"/>
</filter>
<filter id="filter1_f_89_618" x="343.377" y="11.8258" width="7.12875" height="3.87527" filterUnits="userSpaceOnUse" color-interpolation-filters="sRGB">
<feFlood flood-opacity="0" result="BackgroundImageFix"/>
<feBlend mode="normal" in="SourceGraphic" in2="BackgroundImageFix" result="shape"/>
<feGaussianBlur stdDeviation="0.3125" result="effect1_foregroundBlur_89_618"/>
</filter>
<filter id="filter2_f_89_618" x="344.358" y="14.265" width="1.71875" height="1.71875" filterUnits="userSpaceOnUse" color-interpolation-filters="sRGB">
<feFlood flood-opacity="0" result="BackgroundImageFix"/>
<feBlend mode="normal" in="SourceGraphic" in2="BackgroundImageFix" result="shape"/>
<feGaussianBlur stdDeviation="0.15625" result="effect1_foregroundBlur_89_618"/>
</filter>
<filter id="filter3_f_89_618" x="343.632" y="18.7752" width="2.41211" height="2.41244" filterUnits="userSpaceOnUse" color-interpolation-filters="sRGB">
<feFlood flood-opacity="0" result="BackgroundImageFix"/>
<feBlend mode="normal" in="SourceGraphic" in2="BackgroundImageFix" result="shape"/>
<feGaussianBlur stdDeviation="0.3125" result="effect1_foregroundBlur_89_618"/>
</filter>
<filter id="filter4_f_89_618" x="341.285" y="18.1994" width="1.71875" height="1.71406" filterUnits="userSpaceOnUse" color-interpolation-filters="sRGB">
<feFlood flood-opacity="0" result="BackgroundImageFix"/>
<feBlend mode="normal" in="SourceGraphic" in2="BackgroundImageFix" result="shape"/>
<feGaussianBlur stdDeviation="0.15625" result="effect1_foregroundBlur_89_618"/>
</filter>
<filter id="filter5_f_89_618" x="351.18" y="18.3171" width="1.66959" height="1.75817" filterUnits="userSpaceOnUse" color-interpolation-filters="sRGB">
<feFlood flood-opacity="0" result="BackgroundImageFix"/>
<feBlend mode="normal" in="SourceGraphic" in2="BackgroundImageFix" result="shape"/>
<feGaussianBlur stdDeviation="0.15625" result="effect1_foregroundBlur_89_618"/>
</filter>
<filter id="filter6_f_89_618" x="349.39" y="16.1144" width="1.71875" height="1.71875" filterUnits="userSpaceOnUse" color-interpolation-filters="sRGB">
<feFlood flood-opacity="0" result="BackgroundImageFix"/>
<feBlend mode="normal" in="SourceGraphic" in2="BackgroundImageFix" result="shape"/>
<feGaussianBlur stdDeviation="0.15625" result="effect1_foregroundBlur_89_618"/>
</filter>
<filter id="filter7_f_89_618" x="342.467" y="16.6613" width="1.90625" height="1.25" filterUnits="userSpaceOnUse" color-interpolation-filters="sRGB">
<feFlood flood-opacity="0" result="BackgroundImageFix"/>
<feBlend mode="normal" in="SourceGraphic" in2="BackgroundImageFix" result="shape"/>
<feGaussianBlur stdDeviation="0.15625" result="effect1_foregroundBlur_89_618"/>
</filter>
<filter id="filter8_f_89_618" x="339.951" y="22.7429" width="14.1565" height="5.06771" filterUnits="userSpaceOnUse" color-interpolation-filters="sRGB">
<feFlood flood-opacity="0" result="BackgroundImageFix"/>
<feBlend mode="normal" in="SourceGraphic" in2="BackgroundImageFix" result="shape"/>
<feGaussianBlur stdDeviation="0.0625" result="effect1_foregroundBlur_89_618"/>
</filter>
<filter id="filter9_f_89_618" x="347.976" y="14.1219" width="1.71875" height="1.71875" filterUnits="userSpaceOnUse" color-interpolation-filters="sRGB">
<feFlood flood-opacity="0" result="BackgroundImageFix"/>
<feBlend mode="normal" in="SourceGraphic" in2="BackgroundImageFix" result="shape"/>
<feGaussianBlur stdDeviation="0.15625" result="effect1_foregroundBlur_89_618"/>
</filter>
<filter id="filter10_f_89_618" x="348.064" y="14.017" width="1.61624" height="1.12049" filterUnits="userSpaceOnUse" color-interpolation-filters="sRGB">
<feFlood flood-opacity="0" result="BackgroundImageFix"/>
<feBlend mode="normal" in="SourceGraphic" in2="BackgroundImageFix" result="shape"/>
<feGaussianBlur stdDeviation="0.15625" result="effect1_foregroundBlur_89_618"/>
</filter>
<filter id="filter11_f_89_618" x="348.725" y="19.215" width="1.71875" height="1.71875" filterUnits="userSpaceOnUse" color-interpolation-filters="sRGB">
<feFlood flood-opacity="0" result="BackgroundImageFix"/>
<feBlend mode="normal" in="SourceGraphic" in2="BackgroundImageFix" result="shape"/>
<feGaussianBlur stdDeviation="0.15625" result="effect1_foregroundBlur_89_618"/>
</filter>
<filter id="filter12_f_89_618" x="339.902" y="23.1503" width="14.2642" height="4.84787" filterUnits="userSpaceOnUse" color-interpolation-filters="sRGB">
<feFlood flood-opacity="0" result="BackgroundImageFix"/>
<feBlend mode="normal" in="SourceGraphic" in2="BackgroundImageFix" result="shape"/>
<feGaussianBlur stdDeviation="0.15625" result="effect1_foregroundBlur_89_618"/>
</filter>
<filter id="filter13_f_89_618" x="339.859" y="22.8183" width="14.3696" height="3.27126" filterUnits="userSpaceOnUse" color-interpolation-filters="sRGB">
<feFlood flood-opacity="0" result="BackgroundImageFix"/>
<feBlend mode="normal" in="SourceGraphic" in2="BackgroundImageFix" result="shape"/>
<feGaussianBlur stdDeviation="0.10875" result="effect1_foregroundBlur_89_618"/>
</filter>
<filter id="filter14_f_89_618" x="345.72" y="11.8256" width="2.34375" height="2.34375" filterUnits="userSpaceOnUse" color-interpolation-filters="sRGB">
<feFlood flood-opacity="0" result="BackgroundImageFix"/>
<feBlend mode="normal" in="SourceGraphic" in2="BackgroundImageFix" result="shape"/>
<feGaussianBlur stdDeviation="0.3125" result="effect1_foregroundBlur_89_618"/>
</filter>
<filter id="filter15_f_89_618" x="345.828" y="16.0769" width="2.34375" height="2.34375" filterUnits="userSpaceOnUse" color-interpolation-filters="sRGB">
<feFlood flood-opacity="0" result="BackgroundImageFix"/>
<feBlend mode="normal" in="SourceGraphic" in2="BackgroundImageFix" result="shape"/>
<feGaussianBlur stdDeviation="0.3125" result="effect1_foregroundBlur_89_618"/>
</filter>
<filter id="filter16_f_89_618" x="340.25" y="22.6292" width="1.4295" height="1.4917" filterUnits="userSpaceOnUse" color-interpolation-filters="sRGB">
<feFlood flood-opacity="0" result="BackgroundImageFix"/>
<feBlend mode="normal" in="SourceGraphic" in2="BackgroundImageFix" result="shape"/>
<feGaussianBlur stdDeviation="0.15625" result="effect1_foregroundBlur_89_618"/>
</filter>
<linearGradient id="paint0_linear_89_618" x1="347.006" y1="17.1313" x2="347.006" y2="21.5063" gradientUnits="userSpaceOnUse">
<stop offset="0.418" stop-color="#FE5FD3"/>
<stop offset="0.856" stop-color="#EE49CD"/>
</linearGradient>
<linearGradient id="paint1_linear_89_618" x1="347.006" y1="17.1313" x2="347.006" y2="21.5063" gradientUnits="userSpaceOnUse">
<stop offset="0.887" stop-color="#DF499E" stop-opacity="0"/>
<stop offset="1" stop-color="#D14276"/>
</linearGradient>
<radialGradient id="paint2_radial_89_618" cx="0" cy="0" r="1" gradientUnits="userSpaceOnUse" gradientTransform="translate(353.133 18.375) rotate(-179.269) scale(6.12706 2.305)">
<stop stop-color="#FF85DE"/>
<stop offset="1" stop-color="#FF86DD" stop-opacity="0"/>
</radialGradient>
<radialGradient id="paint3_radial_89_618" cx="0" cy="0" r="1" gradientUnits="userSpaceOnUse" gradientTransform="translate(344.383 15.4453) rotate(-103.764) scale(11.9848 15.6713)">
<stop offset="0.682" stop-color="#B74CAB" stop-opacity="0"/>
<stop offset="0.913" stop-color="#B44AAC"/>
</radialGradient>
<radialGradient id="paint4_radial_89_618" cx="0" cy="0" r="1" gradientUnits="userSpaceOnUse" gradientTransform="translate(338.094 15.9144) rotate(34.6293) scale(8.5925 11.5617)">
<stop offset="0.348" stop-color="#D64984"/>
<stop offset="1" stop-color="#EA56A7" stop-opacity="0"/>
</radialGradient>
<radialGradient id="paint5_radial_89_618" cx="0" cy="0" r="1" gradientUnits="userSpaceOnUse" gradientTransform="translate(347.938 20.0156) rotate(83.8534) scale(5.10749 9.56887)">
<stop offset="0.794" stop-color="#E34E93" stop-opacity="0"/>
<stop offset="0.968" stop-color="#D74887"/>
</radialGradient>
<linearGradient id="paint6_linear_89_618" x1="351.024" y1="17.5937" x2="342.43" y2="17.5937" gradientUnits="userSpaceOnUse">
<stop stop-color="#CA3AAB"/>
<stop offset="1" stop-color="#D3358D"/>
</linearGradient>
<linearGradient id="paint7_linear_89_618" x1="347.003" y1="14.0062" x2="347.003" y2="18.3812" gradientUnits="userSpaceOnUse">
<stop stop-color="#FF85DE"/>
<stop offset="0.525" stop-color="#FC59CC"/>
<stop offset="1" stop-color="#E542CD"/>
</linearGradient>
<radialGradient id="paint8_radial_89_618" cx="0" cy="0" r="1" gradientUnits="userSpaceOnUse" gradientTransform="translate(350.789 15.1719) rotate(90) scale(1.71875 3.08594)">
<stop stop-color="#FF8DE6"/>
<stop offset="1" stop-color="#FF90E9" stop-opacity="0"/>
</radialGradient>
<radialGradient id="paint9_radial_89_618" cx="0" cy="0" r="1" gradientUnits="userSpaceOnUse" gradientTransform="translate(342.742 15.25) rotate(90) scale(2.8125 6.25)">
<stop stop-color="#F543A3"/>
<stop offset="1" stop-color="#F54BAE" stop-opacity="0"/>
</radialGradient>
<radialGradient id="paint10_radial_89_618" cx="0" cy="0" r="1" gradientUnits="userSpaceOnUse" gradientTransform="translate(348.914 11.1875) rotate(90) scale(2.96875 6.40138)">
<stop offset="0.171" stop-color="#FF8AE0"/>
<stop offset="1" stop-color="#FF8AE0" stop-opacity="0"/>
</radialGradient>
<radialGradient id="paint11_radial_89_618" cx="0" cy="0" r="1" gradientUnits="userSpaceOnUse" gradientTransform="translate(348.914 14.7125) rotate(66.3183) scale(0.607828 1.08895)">
<stop offset="0.173" stop-color="#A941A3"/>
<stop offset="1" stop-color="#CD46C2" stop-opacity="0"/>
</radialGradient>
<radialGradient id="paint12_radial_89_618" cx="0" cy="0" r="1" gradientUnits="userSpaceOnUse" gradientTransform="translate(345.467 14.8206) rotate(6.7817) scale(0.727748 0.691828)">
<stop offset="0.359" stop-color="#E0417F"/>
<stop offset="1" stop-color="#E33E92" stop-opacity="0"/>
</radialGradient>
<linearGradient id="paint13_linear_89_618" x1="347.008" y1="21.5063" x2="347.008" y2="27.75" gradientUnits="userSpaceOnUse">
<stop stop-color="#E8885E"/>
<stop offset="0.035" stop-color="#EF976C"/>
<stop offset="0.091" stop-color="#ECA079"/>
<stop offset="0.262" stop-color="#F0979B"/>
<stop offset="1" stop-color="#E8885E" stop-opacity="0"/>
</linearGradient>
<radialGradient id="paint14_radial_89_618" cx="0" cy="0" r="1" gradientUnits="userSpaceOnUse" gradientTransform="translate(349.422 22.2425) rotate(90) scale(0.664063 6.15234)">
<stop stop-color="#FAB188"/>
<stop offset="1" stop-color="#FBB188" stop-opacity="0"/>
</radialGradient>
<radialGradient id="paint15_radial_89_618" cx="0" cy="0" r="1" gradientUnits="userSpaceOnUse" gradientTransform="translate(347.352 23.4531) rotate(90) scale(4.88281 10.7614)">
<stop offset="0.632" stop-color="#BE674C" stop-opacity="0"/>
<stop offset="0.784" stop-color="#C0674C"/>
</radialGradient>
<linearGradient id="paint16_linear_89_618" x1="344.939" y1="14.8494" x2="345.399" y2="15.2794" gradientUnits="userSpaceOnUse">
<stop stop-color="#FCAC40"/>
<stop offset="0.403" stop-color="#FFA43C"/>
<stop offset="0.89" stop-color="#F37E41"/>
</linearGradient>
<linearGradient id="paint17_linear_89_618" x1="344.618" y1="19.6738" x2="345.125" y2="20.1525" gradientUnits="userSpaceOnUse">
<stop stop-color="#D4B3D6"/>
<stop offset="0.393" stop-color="#D8B6F8"/>
<stop offset="0.961" stop-color="#C887ED"/>
</linearGradient>
<linearGradient id="paint18_linear_89_618" x1="341.739" y1="18.925" x2="342.196" y2="19.355" gradientUnits="userSpaceOnUse">
<stop stop-color="#E89C43"/>
<stop offset="0.403" stop-color="#F3913F"/>
<stop offset="0.89" stop-color="#EA6542"/>
</linearGradient>
<linearGradient id="paint19_linear_89_618" x1="351.737" y1="18.925" x2="352.334" y2="19.4856" gradientUnits="userSpaceOnUse">
<stop stop-color="#FFA83E"/>
<stop offset="0.292" stop-color="#FFB84C"/>
<stop offset="0.55" stop-color="#FFA83A"/>
<stop offset="0.81" stop-color="#CC6E53"/>
</linearGradient>
<radialGradient id="paint20_radial_89_618" cx="0" cy="0" r="1" gradientUnits="userSpaceOnUse" gradientTransform="translate(351.59 19.5175) rotate(43.5891) scale(0.701106 0.408482)">
<stop stop-color="#EF6F45"/>
<stop offset="1" stop-color="#EE6E46" stop-opacity="0"/>
</radialGradient>
<linearGradient id="paint21_linear_89_618" x1="350.504" y1="16.7456" x2="350.006" y2="17.2531" gradientUnits="userSpaceOnUse">
<stop offset="0.264" stop-color="#EFEBF7"/>
<stop offset="0.488" stop-color="#DBC8F4"/>
<stop offset="0.931" stop-color="#CA95EB"/>
</linearGradient>
<linearGradient id="paint22_linear_89_618" x1="343.391" y1="17.0812" x2="343.391" y2="17.7062" gradientUnits="userSpaceOnUse">
<stop stop-color="#35A6FF"/>
<stop offset="0.461" stop-color="#299DFF"/>
<stop offset="1" stop-color="#396BFF"/>
</linearGradient>
<radialGradient id="paint23_radial_89_618" cx="0" cy="0" r="1" gradientUnits="userSpaceOnUse" gradientTransform="translate(343.813 17.2811) rotate(111.037) scale(0.272038 0.300944)">
<stop stop-color="#40AAFF"/>
<stop offset="1" stop-color="#43ACFF" stop-opacity="0"/>
</radialGradient>
<linearGradient id="paint24_linear_89_618" x1="350.611" y1="16.6187" x2="350.113" y2="17.1262" gradientUnits="userSpaceOnUse">
<stop offset="0.264" stop-color="#EFEBF7"/>
<stop offset="0.488" stop-color="#DBC8F4"/>
<stop offset="0.931" stop-color="#CA95EB"/>
</linearGradient>
<radialGradient id="paint25_radial_89_618" cx="0" cy="0" r="1" gradientUnits="userSpaceOnUse" gradientTransform="translate(350.787 17.3412) rotate(142.352) scale(0.43168 0.31437)">
<stop stop-color="#C187F1"/>
<stop offset="1" stop-color="#C595F1" stop-opacity="0"/>
</radialGradient>
<linearGradient id="paint26_linear_89_618" x1="347.029" y1="22.8681" x2="347.171" y2="28.0131" gradientUnits="userSpaceOnUse">
<stop offset="0.823" stop-color="#58A0FF"/>
<stop offset="0.915" stop-color="#5473FF"/>
<stop offset="0.953" stop-color="#7163FF"/>
</linearGradient>
<radialGradient id="paint27_radial_89_618" cx="0" cy="0" r="1" gradientUnits="userSpaceOnUse" gradientTransform="translate(347.227 22.8681) rotate(90) scale(5.20291 5.10061)">
<stop offset="0.195" stop-color="#508EFF"/>
<stop offset="1" stop-color="#508FFF" stop-opacity="0"/>
</radialGradient>
<radialGradient id="paint28_radial_89_618" cx="0" cy="0" r="1" gradientUnits="userSpaceOnUse" gradientTransform="translate(340.439 25.2769) scale(1.15051 3.35518)">
<stop offset="0.112" stop-color="#4686D7"/>
<stop offset="1" stop-color="#4992F5" stop-opacity="0"/>
</radialGradient>
<radialGradient id="paint29_radial_89_618" cx="0" cy="0" r="1" gradientUnits="userSpaceOnUse" gradientTransform="translate(353.747 25.2769) rotate(-170.679) scale(1.78773 5.21207)">
<stop offset="0.112" stop-color="#4686D7"/>
<stop offset="1" stop-color="#4992F5" stop-opacity="0"/>
</radialGradient>
<linearGradient id="paint30_linear_89_618" x1="353.843" y1="23.985" x2="340.401" y2="23.985" gradientUnits="userSpaceOnUse">
<stop offset="0.09" stop-color="#5FB6FF"/>
<stop offset="0.107" stop-color="#4394F4"/>
<stop offset="0.171" stop-color="#60B4FF"/>
<stop offset="0.25" stop-color="#5599FF"/>
<stop offset="0.327" stop-color="#65AFFF"/>
<stop offset="0.629" stop-color="#61AEFF"/>
<stop offset="0.806" stop-color="#62AFFF"/>
<stop offset="0.919" stop-color="#469DF3"/>
<stop offset="1" stop-color="#4F9BE5"/>
</linearGradient>
<linearGradient id="paint31_linear_89_618" x1="348.641" y1="14.7131" x2="349.139" y2="15.2156" gradientUnits="userSpaceOnUse">
<stop stop-color="#388EF1"/>
<stop offset="0.356" stop-color="#3AA5FF"/>
<stop offset="0.917" stop-color="#4571FD"/>
</linearGradient>
<radialGradient id="paint32_radial_89_618" cx="0" cy="0" r="1" gradientUnits="userSpaceOnUse" gradientTransform="translate(348.544 15.3281) rotate(45.9707) scale(0.407476 0.268881)">
<stop stop-color="#3673FF"/>
<stop offset="1" stop-color="#3673FF" stop-opacity="0"/>
</radialGradient>
<linearGradient id="paint33_linear_89_618" x1="349.834" y1="19.6756" x2="349.336" y2="20.1781" gradientUnits="userSpaceOnUse">
<stop stop-color="#39A1FF"/>
<stop offset="0.356" stop-color="#40A1FF"/>
<stop offset="0.917" stop-color="#3876FF"/>
</linearGradient>
<radialGradient id="paint34_radial_89_618" cx="0" cy="0" r="1" gradientUnits="userSpaceOnUse" gradientTransform="translate(349.931 20.29) rotate(134.029) scale(0.407476 0.268881)">
<stop stop-color="#3673FF"/>
<stop offset="1" stop-color="#3673FF" stop-opacity="0"/>
</radialGradient>
<linearGradient id="paint35_linear_89_618" x1="346.993" y1="22.8681" x2="347.137" y2="28.0819" gradientUnits="userSpaceOnUse">
<stop offset="0.823" stop-color="#58A0FF"/>
<stop offset="0.915" stop-color="#5473FF"/>
<stop offset="0.953" stop-color="#7163FF"/>
</linearGradient>
<radialGradient id="paint36_radial_89_618" cx="0" cy="0" r="1" gradientUnits="userSpaceOnUse" gradientTransform="translate(347.196 22.8681) rotate(90) scale(5.27252 5.19531)">
<stop offset="0.195" stop-color="#508EFF"/>
<stop offset="1" stop-color="#508FFF" stop-opacity="0"/>
</radialGradient>
<radialGradient id="paint37_radial_89_618" cx="0" cy="0" r="1" gradientUnits="userSpaceOnUse" gradientTransform="translate(340.281 25.3094) scale(1.17187 3.40007)">
<stop offset="0.112" stop-color="#4686D7"/>
<stop offset="1" stop-color="#4992F5" stop-opacity="0"/>
</radialGradient>
<radialGradient id="paint38_radial_89_618" cx="0" cy="0" r="1" gradientUnits="userSpaceOnUse" gradientTransform="translate(353.836 25.3094) rotate(-170.726) scale(1.82067 5.2825)">
<stop offset="0.112" stop-color="#4686D7"/>
<stop offset="1" stop-color="#4992F5" stop-opacity="0"/>
</radialGradient>
<linearGradient id="paint39_linear_89_618" x1="353.934" y1="24" x2="340.243" y2="24" gradientUnits="userSpaceOnUse">
<stop offset="0.011" stop-color="#59B9FF"/>
<stop offset="0.021" stop-color="#5FB6FF"/>
<stop offset="0.09" stop-color="#5FB6FF"/>
<stop offset="0.107" stop-color="#4394F4"/>
<stop offset="0.171" stop-color="#60B4FF"/>
<stop offset="0.25" stop-color="#5599FF"/>
<stop offset="0.327" stop-color="#65AFFF"/>
<stop offset="0.629" stop-color="#61AEFF"/>
<stop offset="0.806" stop-color="#62AFFF"/>
<stop offset="0.919" stop-color="#469DF3"/>
<stop offset="1" stop-color="#4F9BE5"/>
</linearGradient>
<linearGradient id="paint40_linear_89_618" x1="353.582" y1="25.1131" x2="352.938" y2="24.9181" gradientUnits="userSpaceOnUse">
<stop stop-color="#477CC5"/>
<stop offset="1" stop-color="#4881CB" stop-opacity="0"/>
</linearGradient>
<linearGradient id="paint41_linear_89_618" x1="346.993" y1="22.8681" x2="346.993" y2="27.75" gradientUnits="userSpaceOnUse">
<stop offset="0.852" stop-color="#5676F9" stop-opacity="0"/>
<stop offset="1" stop-color="#5477F7"/>
</linearGradient>
<linearGradient id="paint42_linear_89_618" x1="346.993" y1="23.5581" x2="347.099" y2="27.9669" gradientUnits="userSpaceOnUse">
<stop offset="0.823" stop-color="#58A0FF"/>
<stop offset="0.915" stop-color="#5473FF"/>
<stop offset="0.953" stop-color="#7163FF"/>
</linearGradient>
<radialGradient id="paint43_radial_89_618" cx="0" cy="0" r="1" gradientUnits="userSpaceOnUse" gradientTransform="translate(347.19 23.5581) rotate(90) scale(4.45789 5.05815)">
<stop offset="0.195" stop-color="#508EFF"/>
<stop offset="1" stop-color="#508FFF" stop-opacity="0"/>
</radialGradient>
<radialGradient id="paint44_radial_89_618" cx="0" cy="0" r="1" gradientUnits="userSpaceOnUse" gradientTransform="translate(340.459 25.6219) scale(1.14094 2.87475)">
<stop offset="0.112" stop-color="#4686D7"/>
<stop offset="1" stop-color="#4992F5" stop-opacity="0"/>
</radialGradient>
<radialGradient id="paint45_radial_89_618" cx="0" cy="0" r="1" gradientUnits="userSpaceOnUse" gradientTransform="translate(353.655 25.6219) rotate(-171.929) scale(1.76694 4.48066)">
<stop offset="0.112" stop-color="#4686D7"/>
<stop offset="1" stop-color="#4992F5" stop-opacity="0"/>
</radialGradient>
<linearGradient id="paint46_linear_89_618" x1="346.993" y1="23.1406" x2="347.121" y2="27.995" gradientUnits="userSpaceOnUse">
<stop offset="0.823" stop-color="#58A0FF"/>
<stop offset="0.915" stop-color="#5473FF"/>
<stop offset="0.953" stop-color="#7163FF"/>
</linearGradient>
<radialGradient id="paint47_radial_89_618" cx="0" cy="0" r="1" gradientUnits="userSpaceOnUse" gradientTransform="translate(347.19 23.1406) rotate(90) scale(4.90862 5.05815)">
<stop offset="0.195" stop-color="#508EFF"/>
<stop offset="1" stop-color="#508FFF" stop-opacity="0"/>
</radialGradient>
<radialGradient id="paint48_radial_89_618" cx="0" cy="0" r="1" gradientUnits="userSpaceOnUse" gradientTransform="translate(340.459 25.4125) scale(1.14094 3.16541)">
<stop offset="0.112" stop-color="#4686D7"/>
<stop offset="1" stop-color="#4992F5" stop-opacity="0"/>
</radialGradient>
<radialGradient id="paint49_radial_89_618" cx="0" cy="0" r="1" gradientUnits="userSpaceOnUse" gradientTransform="translate(353.655 25.4125) rotate(-171.125) scale(1.77064 4.92338)">
<stop offset="0.112" stop-color="#4686D7"/>
<stop offset="1" stop-color="#4992F5" stop-opacity="0"/>
</radialGradient>
<linearGradient id="paint50_linear_89_618" x1="347.008" y1="24.7031" x2="347.008" y2="27.75" gradientUnits="userSpaceOnUse">
<stop stop-color="#2B8BFF"/>
<stop offset="0.839" stop-color="#2C8AFF"/>
<stop offset="1" stop-color="#4063FF"/>
</linearGradient>
<linearGradient id="paint51_linear_89_618" x1="343.885" y1="24.625" x2="343.885" y2="27.7437" gradientUnits="userSpaceOnUse">
<stop stop-color="#2B8BFF"/>
<stop offset="0.839" stop-color="#2C8AFF"/>
<stop offset="1" stop-color="#4063FF"/>
</linearGradient>
<linearGradient id="paint52_linear_89_618" x1="347.254" y1="12.5937" x2="346.756" y2="13.1019" gradientUnits="userSpaceOnUse">
<stop offset="0.264" stop-color="#EFEBF7"/>
<stop offset="0.488" stop-color="#DBC8F4"/>
<stop offset="0.931" stop-color="#CA95EB"/>
</linearGradient>
<radialGradient id="paint53_radial_89_618" cx="0" cy="0" r="1" gradientUnits="userSpaceOnUse" gradientTransform="translate(347.43 13.3156) rotate(142.352) scale(0.43168 0.31437)">
<stop stop-color="#C187F1"/>
<stop offset="1" stop-color="#C595F1" stop-opacity="0"/>
</radialGradient>
<linearGradient id="paint54_linear_89_618" x1="350.169" y1="24.625" x2="350.169" y2="27.75" gradientUnits="userSpaceOnUse">
<stop stop-color="#2B8BFF"/>
<stop offset="0.839" stop-color="#2C8AFF"/>
<stop offset="1" stop-color="#4063FF"/>
</linearGradient>
<linearGradient id="paint55_linear_89_618" x1="347.205" y1="16.8856" x2="346.771" y2="17.345" gradientUnits="userSpaceOnUse">
<stop stop-color="#FFB248"/>
<stop offset="0.397" stop-color="#FFA43E"/>
<stop offset="0.847" stop-color="#F17F4D"/>
</linearGradient>
<radialGradient id="paint56_radial_89_618" cx="0" cy="0" r="1" gradientUnits="userSpaceOnUse" gradientTransform="translate(346.863 16.8808) rotate(52.786) scale(1.00112)">
<stop offset="0.77" stop-color="#DB644C" stop-opacity="0"/>
<stop offset="0.924" stop-color="#DB644C"/>
</radialGradient>
</defs>
</svg>
