<svg width="26" height="28" viewBox="0 0 26 28" fill="none" xmlns="http://www.w3.org/2000/svg">
<g clip-path="url(#clip0_66_2412)">
<path d="M12.7403 2.48962C16.1412 2.48962 16.544 2.50582 17.8815 2.57062C19.1245 2.63003 19.7957 2.85685 20.2432 3.04586C20.8349 3.29429 21.2625 3.59671 21.705 4.07735C22.1525 4.5634 22.426 5.02244 22.6547 5.66509C22.8287 6.15113 23.0375 6.8856 23.0922 8.23031C23.1519 9.68844 23.1668 10.1259 23.1668 13.8144C23.1668 17.5083 23.1519 17.9458 23.0922 19.3985C23.0375 20.7486 22.8287 21.4777 22.6547 21.9637C22.426 22.6064 22.1475 23.0708 21.705 23.5514C21.2575 24.0375 20.8349 24.3345 20.2432 24.5829C19.7957 24.7719 19.1195 24.9988 17.8815 25.0582C16.539 25.123 16.1363 25.1392 12.7403 25.1392C9.33939 25.1392 8.93665 25.123 7.59915 25.0582C6.35613 24.9988 5.68489 24.7719 5.2374 24.5829C4.64572 24.3345 4.21812 24.0321 3.7756 23.5514C3.32811 23.0654 3.05465 22.6064 2.82593 21.9637C2.65191 21.4777 2.44308 20.7432 2.38839 19.3985C2.32872 17.9404 2.3138 17.5029 2.3138 13.8144C2.3138 10.1205 2.32872 9.68304 2.38839 8.23031C2.44308 6.8802 2.65191 6.15113 2.82593 5.66509C3.05465 5.02244 3.33309 4.55799 3.7756 4.07735C4.22309 3.59131 4.64572 3.29429 5.2374 3.04586C5.68489 2.85685 6.3611 2.63003 7.59915 2.57062C8.93665 2.50582 9.33939 2.48962 12.7403 2.48962ZM12.7403 0C9.2847 0 8.85212 0.0162014 7.49474 0.081007C6.14233 0.145813 5.21254 0.383433 4.40706 0.723663C3.56677 1.08009 2.85576 1.54993 2.14972 2.3222C1.43871 3.08907 1.00614 3.86133 0.677981 4.76861C0.364738 5.64889 0.145966 6.65338 0.0863004 8.1223C0.0266351 9.60203 0.0117188 10.0719 0.0117188 13.8252C0.0117188 17.5785 0.0266351 18.0484 0.0863004 19.5227C0.145966 20.9916 0.364738 22.0015 0.677981 22.8764C1.00614 23.7891 1.43871 24.5613 2.14972 25.3282C2.85576 26.0951 3.56678 26.5703 4.40209 26.9213C5.21254 27.2616 6.13735 27.4992 7.48977 27.564C8.84715 27.6288 9.27973 27.645 12.7353 27.645C16.191 27.645 16.6235 27.6288 17.9809 27.564C19.3333 27.4992 20.2631 27.2616 21.0686 26.9213C21.9039 26.5703 22.6149 26.0951 23.321 25.3282C24.027 24.5613 24.4645 23.7891 24.7877 22.8818C25.101 22.0015 25.3197 20.997 25.3794 19.5281C25.4391 18.0538 25.454 17.5839 25.454 13.8306C25.454 10.0773 25.4391 9.60743 25.3794 8.1331C25.3197 6.66418 25.101 5.65429 24.7877 4.77941C24.4745 3.86133 24.0419 3.08907 23.3309 2.3222C22.6249 1.55533 21.9138 1.08009 21.0785 0.729063C20.2681 0.388834 19.3433 0.151213 17.9909 0.0864075C16.6285 0.0162014 16.1959 0 12.7403 0Z" fill="white"/>
<path d="M12.7403 6.72363C9.13057 6.72363 6.202 9.90451 6.202 13.8252C6.202 17.746 9.13057 20.9269 12.7403 20.9269C16.3501 20.9269 19.2786 17.746 19.2786 13.8252C19.2786 9.90451 16.3501 6.72363 12.7403 6.72363ZM12.7403 18.4318C10.3985 18.4318 8.49911 16.3689 8.49911 13.8252C8.49911 11.2816 10.3985 9.21865 12.7403 9.21865C15.0822 9.21865 16.9815 11.2816 16.9815 13.8252C16.9815 16.3689 15.0822 18.4318 12.7403 18.4318Z" fill="white"/>
<path d="M21.0636 6.44261C21.0636 7.36069 20.3775 8.10056 19.5372 8.10056C18.6919 8.10056 18.0107 7.35529 18.0107 6.44261C18.0107 5.52453 18.6969 4.78467 19.5372 4.78467C20.3775 4.78467 21.0636 5.52993 21.0636 6.44261Z" fill="white"/>
</g>
<defs>
<clipPath id="clip0_66_2412">
<rect width="25.4572" height="27.6504" fill="white" transform="translate(0.0117188)"/>
</clipPath>
</defs>
</svg>
