<svg width="26" height="28" viewBox="0 0 26 28" fill="none" xmlns="http://www.w3.org/2000/svg">
<g clip-path="url(#clip0_66_2409)">
<path d="M23.59 0H1.89673C0.857559 0 0.0172729 0.891077 0.0172729 1.99277V25.6522C0.0172729 26.7539 0.857559 27.6504 1.89673 27.6504H23.59C24.6292 27.6504 25.4745 26.7539 25.4745 25.6576V1.99277C25.4745 0.891077 24.6292 0 23.59 0ZM7.5699 23.5622H3.7911V10.3635H7.5699V23.5622ZM5.6805 8.56514C4.46731 8.56514 3.4878 7.50125 3.4878 6.18893C3.4878 4.87662 4.46731 3.81273 5.6805 3.81273C6.88872 3.81273 7.86823 4.87662 7.86823 6.18893C7.86823 7.49585 6.88872 8.56514 5.6805 8.56514ZM21.7106 23.5622H17.9367V17.1465C17.9367 15.6182 17.9119 13.647 15.9728 13.647C14.0088 13.647 13.7105 15.3157 13.7105 17.0385V23.5622H9.9416V10.3635H13.5613V12.1673H13.611C14.1132 11.1304 15.3463 10.0341 17.181 10.0341C21.0045 10.0341 21.7106 12.7667 21.7106 16.3202V23.5622Z" fill="white"/>
</g>
<defs>
<clipPath id="clip0_66_2409">
<rect width="25.4572" height="27.6504" fill="white" transform="translate(0.0172729)"/>
</clipPath>
</defs>
</svg>
