<svg width="130" height="136" viewBox="0 0 130 136" fill="none" xmlns="http://www.w3.org/2000/svg">
<path d="M99.6125 55.2925H30.4688C22.6281 55.2925 16.25 61.965 16.25 70.1675C16.25 78.37 22.6281 85.0425 30.4688 85.0425H99.6125C107.453 85.0425 113.831 78.37 113.831 70.1675C113.831 61.965 107.453 55.2925 99.6125 55.2925Z" fill="url(#paint0_linear_474_1689)"/>
<path d="M99.6125 55.2925H30.4688C22.6281 55.2925 16.25 61.965 16.25 70.1675C16.25 78.37 22.6281 85.0425 30.4688 85.0425H99.6125C107.453 85.0425 113.831 78.37 113.831 70.1675C113.831 61.965 107.453 55.2925 99.6125 55.2925Z" fill="url(#paint1_linear_474_1689)"/>
<path d="M99.6125 55.2925H30.4688C22.6281 55.2925 16.25 61.965 16.25 70.1675C16.25 78.37 22.6281 85.0425 30.4688 85.0425H99.6125C107.453 85.0425 113.831 78.37 113.831 70.1675C113.831 61.965 107.453 55.2925 99.6125 55.2925Z" fill="url(#paint2_radial_474_1689)"/>
<path d="M99.6125 55.2925H30.4688C22.6281 55.2925 16.25 61.965 16.25 70.1675C16.25 78.37 22.6281 85.0425 30.4688 85.0425H99.6125C107.453 85.0425 113.831 78.37 113.831 70.1675C113.831 61.965 107.453 55.2925 99.6125 55.2925Z" fill="url(#paint3_radial_474_1689)"/>
<path d="M99.6125 55.2925H30.4688C22.6281 55.2925 16.25 61.965 16.25 70.1675C16.25 78.37 22.6281 85.0425 30.4688 85.0425H99.6125C107.453 85.0425 113.831 78.37 113.831 70.1675C113.831 61.965 107.453 55.2925 99.6125 55.2925Z" fill="url(#paint4_radial_474_1689)"/>
<path d="M99.6125 55.2925H30.4688C22.6281 55.2925 16.25 61.965 16.25 70.1675C16.25 78.37 22.6281 85.0425 30.4688 85.0425H99.6125C107.453 85.0425 113.831 78.37 113.831 70.1675C113.831 61.965 107.453 55.2925 99.6125 55.2925Z" fill="url(#paint5_radial_474_1689)"/>
<g filter="url(#filter0_f_474_1689)">
<path d="M87.425 39.4442H42.6969C24.4156 39.4442 28.2465 64.4767 42.6562 64.4767H64.8741C71.4756 64.4767 86.9212 65.3012 86.9212 65.3012C102.94 65.3012 105.771 39.4442 87.425 39.4442Z" fill="url(#paint6_linear_474_1689)"/>
</g>
<path d="M87.425 34.0425H42.6969C40.8296 34.0397 38.9802 34.4217 37.254 35.1667C35.5279 35.9116 33.959 37.005 32.6367 38.3843C29.9664 41.1699 28.4632 44.9511 28.4578 48.8962C28.4524 52.8413 29.9453 56.6271 32.608 59.4207C35.2707 62.2143 38.8852 63.7869 42.6562 63.7925H87.3844C95.225 63.7925 101.603 57.12 101.603 48.9175C101.644 40.6725 95.2656 34.0425 87.425 34.0425Z" fill="url(#paint7_linear_474_1689)"/>
<path d="M87.425 34.0425H42.6969C40.8296 34.0397 38.9802 34.4217 37.254 35.1667C35.5279 35.9116 33.959 37.005 32.6367 38.3843C29.9664 41.1699 28.4632 44.9511 28.4578 48.8962C28.4524 52.8413 29.9453 56.6271 32.608 59.4207C35.2707 62.2143 38.8852 63.7869 42.6562 63.7925H87.3844C95.225 63.7925 101.603 57.12 101.603 48.9175C101.644 40.6725 95.2656 34.0425 87.425 34.0425Z" fill="url(#paint8_radial_474_1689)"/>
<path d="M87.425 34.0425H42.6969C40.8296 34.0397 38.9802 34.4217 37.254 35.1667C35.5279 35.9116 33.959 37.005 32.6367 38.3843C29.9664 41.1699 28.4632 44.9511 28.4578 48.8962C28.4524 52.8413 29.9453 56.6271 32.608 59.4207C35.2707 62.2143 38.8852 63.7869 42.6562 63.7925H87.3844C95.225 63.7925 101.603 57.12 101.603 48.9175C101.644 40.6725 95.2656 34.0425 87.425 34.0425Z" fill="url(#paint9_radial_474_1689)"/>
<g filter="url(#filter1_f_474_1689)">
<path d="M45.5122 30.379C45.5122 40.7787 56.8872 41.7945 64.8497 41.174C72.475 40.579 83.724 40.6385 83.724 30.379C73.5434 20.2555 53.56 22.1127 45.5122 30.379Z" fill="#D73A7E"/>
</g>
<path d="M82.2656 21.8875C82.0219 21.6325 81.7781 21.42 81.4937 21.165L69.5906 10.285C66.9906 7.905 63.0906 7.905 60.4906 10.285L48.1812 21.505C46.0687 23.46 44.7281 26.3075 44.7281 29.5375C44.7281 39.78 57.1837 40.1625 65.0406 40.1625C72.67 40.1625 85.3531 39.2445 85.3531 29.5375C85.3937 26.52 84.175 23.8 82.2656 21.8875Z" fill="#F252B5"/>
<path d="M82.2656 21.8875C82.0219 21.6325 81.7781 21.42 81.4937 21.165L69.5906 10.285C66.9906 7.905 63.0906 7.905 60.4906 10.285L48.1812 21.505C46.0687 23.46 44.7281 26.3075 44.7281 29.5375C44.7281 39.78 57.1837 40.1625 65.0406 40.1625C72.67 40.1625 85.3531 39.2445 85.3531 29.5375C85.3937 26.52 84.175 23.8 82.2656 21.8875Z" fill="url(#paint10_radial_474_1689)"/>
<path d="M82.2656 21.8875C82.0219 21.6325 81.7781 21.42 81.4937 21.165L69.5906 10.285C66.9906 7.905 63.0906 7.905 60.4906 10.285L48.1812 21.505C46.0687 23.46 44.7281 26.3075 44.7281 29.5375C44.7281 39.78 57.1837 40.1625 65.0406 40.1625C72.67 40.1625 85.3531 39.2445 85.3531 29.5375C85.3937 26.52 84.175 23.8 82.2656 21.8875Z" fill="url(#paint11_radial_474_1689)"/>
<path d="M82.2656 21.8875C82.0219 21.6325 81.7781 21.42 81.4937 21.165L69.5906 10.285C66.9906 7.905 63.0906 7.905 60.4906 10.285L48.1812 21.505C46.0687 23.46 44.7281 26.3075 44.7281 29.5375C44.7281 39.78 57.1837 40.1625 65.0406 40.1625C72.67 40.1625 85.3531 39.2445 85.3531 29.5375C85.3937 26.52 84.175 23.8 82.2656 21.8875Z" fill="url(#paint12_radial_474_1689)"/>
<path d="M102.537 85.0425H27.5437C26.4202 85.0405 25.3118 85.3137 24.3073 85.8402C23.3027 86.3666 22.4299 87.1318 21.7587 88.0744C21.0875 89.017 20.6365 90.1109 20.4418 91.2685C20.2471 92.4261 20.3141 93.6153 20.6375 94.741L29.2094 124.776C29.6969 126.391 31.1594 127.5 32.825 127.5H97.2969C98.9219 127.5 100.384 126.395 100.912 124.78L109.484 94.741C109.799 93.6123 109.858 92.4225 109.657 91.2657C109.456 90.109 109.001 89.017 108.327 88.0761C107.653 87.1353 106.779 86.3714 105.774 85.8449C104.769 85.3183 103.661 85.0436 102.537 85.0425Z" fill="url(#paint13_linear_474_1689)"/>
<path d="M102.537 85.0425H27.5437C26.4202 85.0405 25.3118 85.3137 24.3073 85.8402C23.3027 86.3666 22.4299 87.1318 21.7587 88.0744C21.0875 89.017 20.6365 90.1109 20.4418 91.2685C20.2471 92.4261 20.3141 93.6153 20.6375 94.741L29.2094 124.776C29.6969 126.391 31.1594 127.5 32.825 127.5H97.2969C98.9219 127.5 100.384 126.395 100.912 124.78L109.484 94.741C109.799 93.6123 109.858 92.4225 109.657 91.2657C109.456 90.109 109.001 89.017 108.327 88.0761C107.653 87.1353 106.779 86.3714 105.774 85.8449C104.769 85.3183 103.661 85.0436 102.537 85.0425Z" fill="url(#paint14_radial_474_1689)"/>
<path d="M102.537 85.0425H27.5437C26.4202 85.0405 25.3118 85.3137 24.3073 85.8402C23.3027 86.3666 22.4299 87.1318 21.7587 88.0744C21.0875 89.017 20.6365 90.1109 20.4418 91.2685C20.2471 92.4261 20.3141 93.6153 20.6375 94.741L29.2094 124.776C29.6969 126.391 31.1594 127.5 32.825 127.5H97.2969C98.9219 127.5 100.384 126.395 100.912 124.78L109.484 94.741C109.799 93.6123 109.858 92.4225 109.657 91.2657C109.456 90.109 109.001 89.017 108.327 88.0761C107.653 87.1353 106.779 86.3714 105.774 85.8449C104.769 85.3183 103.661 85.0436 102.537 85.0425Z" fill="url(#paint15_radial_474_1689)"/>
<g filter="url(#filter2_f_474_1689)">
<path d="M50.4684 44.727C49.6559 43.877 49.6559 42.5595 50.4684 41.7095L53.4747 38.5645C54.2872 37.7145 55.5466 37.7145 56.3591 38.5645C57.1716 39.4145 57.1716 40.732 56.3591 41.582L53.3122 44.727C52.5403 45.577 51.2403 45.577 50.4684 44.727Z" fill="#C8397E"/>
</g>
<path d="M50.4684 43.7538C49.6559 42.9038 49.6559 41.5863 50.4684 40.7363L53.4747 37.5913C54.2872 36.7413 55.5466 36.7413 56.3591 37.5913C57.1716 38.4413 57.1716 39.7588 56.3591 40.6088L53.3122 43.7538C52.5403 44.6038 51.2403 44.6038 50.4684 43.7538Z" fill="url(#paint16_linear_474_1689)"/>
<g filter="url(#filter3_f_474_1689)">
<path d="M47.8156 77.945C47.611 77.7367 47.4483 77.4876 47.3372 77.2124C47.2261 76.9372 47.1689 76.6415 47.1689 76.3428C47.1689 76.044 47.2261 75.7483 47.3372 75.4731C47.4483 75.1979 47.611 74.9488 47.8156 74.7405L51.0088 71.4C51.208 71.1853 51.4463 71.0145 51.7098 70.8979C51.9732 70.7813 52.2563 70.7213 52.5424 70.7213C52.8284 70.7213 53.1115 70.7813 53.375 70.8979C53.6384 71.0145 53.8768 71.1853 54.076 71.4C54.2806 71.6083 54.4433 71.8574 54.5544 72.1326C54.6654 72.4078 54.7227 72.7035 54.7227 73.0023C54.7227 73.301 54.6654 73.5967 54.5544 73.8719C54.4433 74.1471 54.2806 74.3962 54.076 74.6045L50.8788 77.9493C50.6796 78.1634 50.4415 78.3336 50.1785 78.4498C49.9154 78.566 49.6327 78.6258 49.3472 78.6258C49.0617 78.6258 48.779 78.566 48.5159 78.4498C48.2529 78.3336 48.0148 78.1634 47.8156 77.9493V77.945Z" fill="#DC41B7"/>
</g>
<path d="M48.1812 76.9675C47.3687 76.1175 47.3687 74.8 48.1812 73.95L51.1875 70.805C52 69.955 53.2594 69.955 54.0719 70.805C54.8844 71.655 54.8844 72.9725 54.0719 73.8225L51.0656 76.9675C50.2937 77.8175 48.9937 77.8175 48.1812 76.9675Z" fill="url(#paint17_linear_474_1689)"/>
<g filter="url(#filter4_f_474_1689)">
<path d="M30.4931 71.4808C29.6806 70.6308 29.6806 69.3133 30.4931 68.4633L33.4994 65.3183C34.3119 64.4683 35.5713 64.4683 36.3838 65.3183C37.1963 66.1683 37.1963 67.4858 36.3838 68.3358L33.3775 71.4808C32.565 72.2883 31.3056 72.2883 30.4931 71.4808Z" fill="#D53275"/>
</g>
<path d="M29.6684 71.4808C28.8559 70.6308 28.8559 69.3133 29.6684 68.4633L32.6747 65.3183C33.4872 64.4683 34.7466 64.4683 35.5591 65.3183C36.3716 66.1683 36.3716 67.4858 35.5591 68.3358L32.5528 71.4808C31.7403 72.2883 30.4809 72.2883 29.6684 71.4808Z" fill="url(#paint18_linear_474_1689)"/>
<g filter="url(#filter5_f_474_1689)">
<path d="M94.965 72.726C94.7543 72.5514 94.5792 72.3344 94.4501 72.0878C94.3209 71.8412 94.2403 71.5701 94.2131 71.2904C94.1858 71.0106 94.2124 70.728 94.2913 70.4593C94.3702 70.1905 94.4999 69.941 94.6725 69.7255L97.3619 66.2787C97.5288 66.0583 97.7362 65.8752 97.9719 65.7401C98.2076 65.605 98.4668 65.5206 98.7342 65.4921C99.0015 65.4636 99.2717 65.4914 99.5286 65.574C99.7855 65.6565 100.024 65.7921 100.23 65.9727C101.124 66.7377 101.246 68.0467 100.522 68.9775L97.8331 72.42C97.4849 72.8479 96.9922 73.1185 96.4578 73.1755C95.9234 73.2325 95.3886 73.0715 94.965 72.726Z" fill="#C840AF"/>
</g>
<path d="M94.6522 71.4808C93.8397 70.6308 93.8397 69.3133 94.6522 68.4633L97.6584 65.3183C98.4709 64.4683 99.7303 64.4683 100.543 65.3183C101.355 66.1683 101.355 67.4858 100.543 68.3358L97.5366 71.4808C96.7241 72.2883 95.4241 72.2883 94.6522 71.4808Z" fill="url(#paint19_linear_474_1689)"/>
<path d="M94.6522 71.4808C93.8397 70.6308 93.8397 69.3133 94.6522 68.4633L97.6584 65.3183C98.4709 64.4683 99.7303 64.4683 100.543 65.3183C101.355 66.1683 101.355 67.4858 100.543 68.3358L97.5366 71.4808C96.7241 72.2883 95.4241 72.2883 94.6522 71.4808Z" fill="url(#paint20_radial_474_1689)"/>
<g filter="url(#filter6_f_474_1689)">
<path d="M83.1756 51.1402C83.9881 50.2902 85.2475 50.2902 86.06 51.1402L89.0662 54.2852C89.8787 55.1352 89.8787 56.4527 89.0662 57.3027C88.2537 58.1527 86.9944 58.1527 86.1819 57.3027L83.1756 54.1577C82.3631 53.3502 82.3631 51.9902 83.1756 51.1402Z" fill="url(#paint21_linear_474_1689)"/>
<path d="M83.1756 51.1402C83.9881 50.2902 85.2475 50.2902 86.06 51.1402L89.0662 54.2852C89.8787 55.1352 89.8787 56.4527 89.0662 57.3027C88.2537 58.1527 86.9944 58.1527 86.1819 57.3027L83.1756 54.1577C82.3631 53.3502 82.3631 51.9902 83.1756 51.1402Z" fill="#DA41D6"/>
</g>
<g filter="url(#filter7_f_474_1689)">
<path d="M37.5659 56.3465C37.5659 55.1565 38.4597 54.2215 39.5972 54.2215H43.8628C45.0003 54.2215 45.8941 55.1565 45.8941 56.3465C45.8941 57.5365 45.0003 58.4715 43.8628 58.4715H39.5972C38.4597 58.4715 37.5659 57.5365 37.5659 56.3465Z" fill="#B03F95"/>
</g>
<path d="M37.375 57.0775C37.375 55.8875 38.2688 54.9525 39.4062 54.9525H43.6719C44.8094 54.9525 45.7031 55.8875 45.7031 57.0775C45.7031 58.2675 44.8094 59.2025 43.6719 59.2025H39.4062C38.2688 59.2025 37.375 58.2675 37.375 57.0775Z" fill="url(#paint22_linear_474_1689)"/>
<path d="M37.375 57.0775C37.375 55.8875 38.2688 54.9525 39.4062 54.9525H43.6719C44.8094 54.9525 45.7031 55.8875 45.7031 57.0775C45.7031 58.2675 44.8094 59.2025 43.6719 59.2025H39.4062C38.2688 59.2025 37.375 58.2675 37.375 57.0775Z" fill="url(#paint23_radial_474_1689)"/>
<path d="M83.8744 50.2775C84.6869 49.4275 85.9463 49.4275 86.7588 50.2775L89.765 53.4225C90.5775 54.2725 90.5775 55.59 89.765 56.44C88.9525 57.29 87.6931 57.29 86.8806 56.44L83.8744 53.295C83.0619 52.4875 83.0619 51.1275 83.8744 50.2775Z" fill="url(#paint24_linear_474_1689)"/>
<path d="M83.8744 50.2775C84.6869 49.4275 85.9463 49.4275 86.7588 50.2775L89.765 53.4225C90.5775 54.2725 90.5775 55.59 89.765 56.44C88.9525 57.29 87.6931 57.29 86.8806 56.44L83.8744 53.295C83.0619 52.4875 83.0619 51.1275 83.8744 50.2775Z" fill="url(#paint25_radial_474_1689)"/>
<g filter="url(#filter8_f_474_1689)">
<path d="M33.3247 127.062H97.1425C101.286 127.062 102.688 124.355 103.123 122.868C103.123 122.868 110.841 97.4058 110.366 95.3403C110.073 94.248 108.794 94.1163 108.416 94.9578L107.807 96.4283L107.38 95.3403C107.096 94.6603 105.678 93.7848 104.272 95.3403L101.29 98.991C101.026 99.314 100.559 99.4118 100.376 98.991L99.0031 95.6675C98.3044 94.0525 95.42 93.6615 93.1613 95.812L89.96 98.991C89.3709 99.6285 88.461 99.756 87.8881 98.991L85.085 95.336C83.6713 93.5383 80.3441 94.3203 78.2031 95.982L74.7906 98.991C73.966 99.6073 72.9463 99.705 72.1744 98.991L68.9894 95.6675C67.1978 94.1503 63.5213 93.6105 61.3356 95.812L58.1669 98.991C57.59 99.4585 56.3794 99.5308 55.6684 98.991L51.5166 95.336C49.7291 93.7338 46.3044 94.027 44.7931 95.982L42.51 98.991C42.1444 99.433 41.4659 99.6285 40.6209 98.991L36.7209 95.336C35.1853 93.976 32.2522 93.9548 31.3016 95.982L30.2047 98.5405C30.2047 98.5405 29.9041 99.6285 29.3516 98.991L26.4916 95.336C24.4603 93.024 22.9003 95.336 22.5916 96.4283L21.9822 94.9535C21.4825 93.806 19.4106 94.9535 20.1541 97.7118L27.3447 122.868C27.6494 123.841 29.3556 127.062 33.3247 127.062Z" fill="url(#paint26_linear_474_1689)"/>
<path d="M33.3247 127.062H97.1425C101.286 127.062 102.688 124.355 103.123 122.868C103.123 122.868 110.841 97.4058 110.366 95.3403C110.073 94.248 108.794 94.1163 108.416 94.9578L107.807 96.4283L107.38 95.3403C107.096 94.6603 105.678 93.7848 104.272 95.3403L101.29 98.991C101.026 99.314 100.559 99.4118 100.376 98.991L99.0031 95.6675C98.3044 94.0525 95.42 93.6615 93.1613 95.812L89.96 98.991C89.3709 99.6285 88.461 99.756 87.8881 98.991L85.085 95.336C83.6713 93.5383 80.3441 94.3203 78.2031 95.982L74.7906 98.991C73.966 99.6073 72.9463 99.705 72.1744 98.991L68.9894 95.6675C67.1978 94.1503 63.5213 93.6105 61.3356 95.812L58.1669 98.991C57.59 99.4585 56.3794 99.5308 55.6684 98.991L51.5166 95.336C49.7291 93.7338 46.3044 94.027 44.7931 95.982L42.51 98.991C42.1444 99.433 41.4659 99.6285 40.6209 98.991L36.7209 95.336C35.1853 93.976 32.2522 93.9548 31.3016 95.982L30.2047 98.5405C30.2047 98.5405 29.9041 99.6285 29.3516 98.991L26.4916 95.336C24.4603 93.024 22.9003 95.336 22.5916 96.4283L21.9822 94.9535C21.4825 93.806 19.4106 94.9535 20.1541 97.7118L27.3447 122.868C27.6494 123.841 29.3556 127.062 33.3247 127.062Z" fill="url(#paint27_radial_474_1689)"/>
<path d="M33.3247 127.062H97.1425C101.286 127.062 102.688 124.355 103.123 122.868C103.123 122.868 110.841 97.4058 110.366 95.3403C110.073 94.248 108.794 94.1163 108.416 94.9578L107.807 96.4283L107.38 95.3403C107.096 94.6603 105.678 93.7848 104.272 95.3403L101.29 98.991C101.026 99.314 100.559 99.4118 100.376 98.991L99.0031 95.6675C98.3044 94.0525 95.42 93.6615 93.1613 95.812L89.96 98.991C89.3709 99.6285 88.461 99.756 87.8881 98.991L85.085 95.336C83.6713 93.5383 80.3441 94.3203 78.2031 95.982L74.7906 98.991C73.966 99.6073 72.9463 99.705 72.1744 98.991L68.9894 95.6675C67.1978 94.1503 63.5213 93.6105 61.3356 95.812L58.1669 98.991C57.59 99.4585 56.3794 99.5308 55.6684 98.991L51.5166 95.336C49.7291 93.7338 46.3044 94.027 44.7931 95.982L42.51 98.991C42.1444 99.433 41.4659 99.6285 40.6209 98.991L36.7209 95.336C35.1853 93.976 32.2522 93.9548 31.3016 95.982L30.2047 98.5405C30.2047 98.5405 29.9041 99.6285 29.3516 98.991L26.4916 95.336C24.4603 93.024 22.9003 95.336 22.5916 96.4283L21.9822 94.9535C21.4825 93.806 19.4106 94.9535 20.1541 97.7118L27.3447 122.868C27.6494 123.841 29.3556 127.062 33.3247 127.062Z" fill="url(#paint28_radial_474_1689)"/>
<path d="M33.3247 127.062H97.1425C101.286 127.062 102.688 124.355 103.123 122.868C103.123 122.868 110.841 97.4058 110.366 95.3403C110.073 94.248 108.794 94.1163 108.416 94.9578L107.807 96.4283L107.38 95.3403C107.096 94.6603 105.678 93.7848 104.272 95.3403L101.29 98.991C101.026 99.314 100.559 99.4118 100.376 98.991L99.0031 95.6675C98.3044 94.0525 95.42 93.6615 93.1613 95.812L89.96 98.991C89.3709 99.6285 88.461 99.756 87.8881 98.991L85.085 95.336C83.6713 93.5383 80.3441 94.3203 78.2031 95.982L74.7906 98.991C73.966 99.6073 72.9463 99.705 72.1744 98.991L68.9894 95.6675C67.1978 94.1503 63.5213 93.6105 61.3356 95.812L58.1669 98.991C57.59 99.4585 56.3794 99.5308 55.6684 98.991L51.5166 95.336C49.7291 93.7338 46.3044 94.027 44.7931 95.982L42.51 98.991C42.1444 99.433 41.4659 99.6285 40.6209 98.991L36.7209 95.336C35.1853 93.976 32.2522 93.9548 31.3016 95.982L30.2047 98.5405C30.2047 98.5405 29.9041 99.6285 29.3516 98.991L26.4916 95.336C24.4603 93.024 22.9003 95.336 22.5916 96.4283L21.9822 94.9535C21.4825 93.806 19.4106 94.9535 20.1541 97.7118L27.3447 122.868C27.6494 123.841 29.3556 127.062 33.3247 127.062Z" fill="url(#paint29_radial_474_1689)"/>
<path d="M33.3247 127.062H97.1425C101.286 127.062 102.688 124.355 103.123 122.868C103.123 122.868 110.841 97.4058 110.366 95.3403C110.073 94.248 108.794 94.1163 108.416 94.9578L107.807 96.4283L107.38 95.3403C107.096 94.6603 105.678 93.7848 104.272 95.3403L101.29 98.991C101.026 99.314 100.559 99.4118 100.376 98.991L99.0031 95.6675C98.3044 94.0525 95.42 93.6615 93.1613 95.812L89.96 98.991C89.3709 99.6285 88.461 99.756 87.8881 98.991L85.085 95.336C83.6713 93.5383 80.3441 94.3203 78.2031 95.982L74.7906 98.991C73.966 99.6073 72.9463 99.705 72.1744 98.991L68.9894 95.6675C67.1978 94.1503 63.5213 93.6105 61.3356 95.812L58.1669 98.991C57.59 99.4585 56.3794 99.5308 55.6684 98.991L51.5166 95.336C49.7291 93.7338 46.3044 94.027 44.7931 95.982L42.51 98.991C42.1444 99.433 41.4659 99.6285 40.6209 98.991L36.7209 95.336C35.1853 93.976 32.2522 93.9548 31.3016 95.982L30.2047 98.5405C30.2047 98.5405 29.9041 99.6285 29.3516 98.991L26.4916 95.336C24.4603 93.024 22.9003 95.336 22.5916 96.4283L21.9822 94.9535C21.4825 93.806 19.4106 94.9535 20.1541 97.7118L27.3447 122.868C27.6494 123.841 29.3556 127.062 33.3247 127.062Z" fill="url(#paint30_linear_474_1689)"/>
<path d="M33.3247 127.062H97.1425C101.286 127.062 102.688 124.355 103.123 122.868C103.123 122.868 110.841 97.4058 110.366 95.3403C110.073 94.248 108.794 94.1163 108.416 94.9578L107.807 96.4283L107.38 95.3403C107.096 94.6603 105.678 93.7848 104.272 95.3403L101.29 98.991C101.026 99.314 100.559 99.4118 100.376 98.991L99.0031 95.6675C98.3044 94.0525 95.42 93.6615 93.1613 95.812L89.96 98.991C89.3709 99.6285 88.461 99.756 87.8881 98.991L85.085 95.336C83.6713 93.5383 80.3441 94.3203 78.2031 95.982L74.7906 98.991C73.966 99.6073 72.9463 99.705 72.1744 98.991L68.9894 95.6675C67.1978 94.1503 63.5213 93.6105 61.3356 95.812L58.1669 98.991C57.59 99.4585 56.3794 99.5308 55.6684 98.991L51.5166 95.336C49.7291 93.7338 46.3044 94.027 44.7931 95.982L42.51 98.991C42.1444 99.433 41.4659 99.6285 40.6209 98.991L36.7209 95.336C35.1853 93.976 32.2522 93.9548 31.3016 95.982L30.2047 98.5405C30.2047 98.5405 29.9041 99.6285 29.3516 98.991L26.4916 95.336C24.4603 93.024 22.9003 95.336 22.5916 96.4283L21.9822 94.9535C21.4825 93.806 19.4106 94.9535 20.1541 97.7118L27.3447 122.868C27.6494 123.841 29.3556 127.062 33.3247 127.062Z" fill="#856E5F"/>
</g>
<g filter="url(#filter9_f_474_1689)">
<path d="M73.9862 43.7538C73.1737 42.9038 73.1737 41.5863 73.9862 40.7363L76.9925 37.5913C77.805 36.7413 79.0644 36.7413 79.8769 37.5913C80.6894 38.4413 80.6894 39.7588 79.8769 40.6088L76.8706 43.7538C76.0581 44.6038 74.7581 44.6038 73.9862 43.7538Z" fill="#954093"/>
</g>
<g filter="url(#filter10_f_474_1689)">
<path d="M73.9497 39.61L76.8544 36.771C77.6669 35.921 79.7266 36.074 80.3928 37.366C78.9953 38.7302 75.5706 39.1807 73.9497 39.61Z" fill="#954093"/>
</g>
<path d="M74.3031 43.2225C73.4906 42.3725 73.4906 41.055 74.3031 40.205L77.3094 37.06C78.1219 36.21 79.3813 36.21 80.1938 37.06C81.0063 37.91 81.0063 39.2275 80.1938 40.0775L77.1875 43.2225C76.375 44.0725 75.075 44.0725 74.3031 43.2225Z" fill="url(#paint31_linear_474_1689)"/>
<path d="M74.3031 43.2225C73.4906 42.3725 73.4906 41.055 74.3031 40.205L77.3094 37.06C78.1219 36.21 79.3813 36.21 80.1938 37.06C81.0063 37.91 81.0063 39.2275 80.1938 40.0775L77.1875 43.2225C76.375 44.0725 75.075 44.0725 74.3031 43.2225Z" fill="url(#paint32_radial_474_1689)"/>
<g filter="url(#filter11_f_474_1689)">
<path d="M84.7437 78.387C85.5562 77.537 85.5562 76.2195 84.7437 75.3695L81.7375 72.2245C80.925 71.3745 79.6656 71.3745 78.8531 72.2245C78.0406 73.0745 78.0406 74.392 78.8531 75.242L81.8594 78.387C82.6719 79.237 83.9719 79.237 84.7437 78.387Z" fill="#C53DD2"/>
</g>
<path d="M84.7844 76.9675C85.5969 76.1175 85.5969 74.8 84.7844 73.95L81.7781 70.805C80.9656 69.955 79.7063 69.955 78.8938 70.805C78.0813 71.655 78.0813 72.9725 78.8938 73.8225L81.9 76.9675C82.7125 77.8175 84.0125 77.8175 84.7844 76.9675Z" fill="url(#paint33_linear_474_1689)"/>
<path d="M84.7844 76.9675C85.5969 76.1175 85.5969 74.8 84.7844 73.95L81.7781 70.805C80.9656 69.955 79.7063 69.955 78.8938 70.805C78.0813 71.655 78.0813 72.9725 78.8938 73.8225L81.9 76.9675C82.7125 77.8175 84.0125 77.8175 84.7844 76.9675Z" fill="url(#paint34_radial_474_1689)"/>
<path d="M32.5 127.5H97.5C101.725 127.5 103.151 124.754 103.594 123.25C103.594 123.25 111.459 97.444 110.971 95.353C110.671 94.248 109.371 94.1162 108.981 94.9662L108.363 96.4537L107.928 95.353C107.644 94.673 106.198 93.7805 104.764 95.353L101.725 99.0505C101.457 99.3777 100.986 99.4755 100.795 99.0505L99.3972 95.6845C98.6862 94.0482 95.745 93.653 93.4497 95.8332L90.1875 99.0547C89.5863 99.7007 88.66 99.824 88.075 99.0547L85.2231 95.3572C83.7809 93.5297 80.3887 94.3202 78.2112 96.0032L74.7378 99.0547C73.8969 99.6752 72.8528 99.7772 72.0687 99.0547L68.8269 95.6845C66.9987 94.1502 63.2572 93.602 61.0269 95.8332L57.8012 99.0547C57.2162 99.5265 55.9812 99.603 55.2581 99.0547L51.0291 95.3572C49.2009 93.7252 45.7194 94.0227 44.1797 96.0032L41.8559 99.0547C41.4781 99.5052 40.7916 99.7007 39.9344 99.0547L35.9612 95.3572C34.3931 93.976 31.4072 93.9505 30.4403 96.0032L29.3231 98.5957C29.3231 98.5957 29.0144 99.7007 28.4537 99.0547L25.5409 95.3572C23.4691 93.007 21.8806 95.3572 21.5678 96.458L20.9503 94.962C20.4344 93.8017 18.3259 94.962 19.0856 97.7542L26.4062 123.25C26.7191 124.236 28.4537 127.5 32.5 127.5Z" fill="url(#paint35_linear_474_1689)"/>
<path d="M32.5 127.5H97.5C101.725 127.5 103.151 124.754 103.594 123.25C103.594 123.25 111.459 97.444 110.971 95.353C110.671 94.248 109.371 94.1162 108.981 94.9662L108.363 96.4537L107.928 95.353C107.644 94.673 106.198 93.7805 104.764 95.353L101.725 99.0505C101.457 99.3777 100.986 99.4755 100.795 99.0505L99.3972 95.6845C98.6862 94.0482 95.745 93.653 93.4497 95.8332L90.1875 99.0547C89.5863 99.7007 88.66 99.824 88.075 99.0547L85.2231 95.3572C83.7809 93.5297 80.3887 94.3202 78.2112 96.0032L74.7378 99.0547C73.8969 99.6752 72.8528 99.7772 72.0687 99.0547L68.8269 95.6845C66.9987 94.1502 63.2572 93.602 61.0269 95.8332L57.8012 99.0547C57.2162 99.5265 55.9812 99.603 55.2581 99.0547L51.0291 95.3572C49.2009 93.7252 45.7194 94.0227 44.1797 96.0032L41.8559 99.0547C41.4781 99.5052 40.7916 99.7007 39.9344 99.0547L35.9612 95.3572C34.3931 93.976 31.4072 93.9505 30.4403 96.0032L29.3231 98.5957C29.3231 98.5957 29.0144 99.7007 28.4537 99.0547L25.5409 95.3572C23.4691 93.007 21.8806 95.3572 21.5678 96.458L20.9503 94.962C20.4344 93.8017 18.3259 94.962 19.0856 97.7542L26.4062 123.25C26.7191 124.236 28.4537 127.5 32.5 127.5Z" fill="url(#paint36_radial_474_1689)"/>
<path d="M32.5 127.5H97.5C101.725 127.5 103.151 124.754 103.594 123.25C103.594 123.25 111.459 97.444 110.971 95.353C110.671 94.248 109.371 94.1162 108.981 94.9662L108.363 96.4537L107.928 95.353C107.644 94.673 106.198 93.7805 104.764 95.353L101.725 99.0505C101.457 99.3777 100.986 99.4755 100.795 99.0505L99.3972 95.6845C98.6862 94.0482 95.745 93.653 93.4497 95.8332L90.1875 99.0547C89.5863 99.7007 88.66 99.824 88.075 99.0547L85.2231 95.3572C83.7809 93.5297 80.3887 94.3202 78.2112 96.0032L74.7378 99.0547C73.8969 99.6752 72.8528 99.7772 72.0687 99.0547L68.8269 95.6845C66.9987 94.1502 63.2572 93.602 61.0269 95.8332L57.8012 99.0547C57.2162 99.5265 55.9812 99.603 55.2581 99.0547L51.0291 95.3572C49.2009 93.7252 45.7194 94.0227 44.1797 96.0032L41.8559 99.0547C41.4781 99.5052 40.7916 99.7007 39.9344 99.0547L35.9612 95.3572C34.3931 93.976 31.4072 93.9505 30.4403 96.0032L29.3231 98.5957C29.3231 98.5957 29.0144 99.7007 28.4537 99.0547L25.5409 95.3572C23.4691 93.007 21.8806 95.3572 21.5678 96.458L20.9503 94.962C20.4344 93.8017 18.3259 94.962 19.0856 97.7542L26.4062 123.25C26.7191 124.236 28.4537 127.5 32.5 127.5Z" fill="url(#paint37_radial_474_1689)"/>
<path d="M32.5 127.5H97.5C101.725 127.5 103.151 124.754 103.594 123.25C103.594 123.25 111.459 97.444 110.971 95.353C110.671 94.248 109.371 94.1162 108.981 94.9662L108.363 96.4537L107.928 95.353C107.644 94.673 106.198 93.7805 104.764 95.353L101.725 99.0505C101.457 99.3777 100.986 99.4755 100.795 99.0505L99.3972 95.6845C98.6862 94.0482 95.745 93.653 93.4497 95.8332L90.1875 99.0547C89.5863 99.7007 88.66 99.824 88.075 99.0547L85.2231 95.3572C83.7809 93.5297 80.3887 94.3202 78.2112 96.0032L74.7378 99.0547C73.8969 99.6752 72.8528 99.7772 72.0687 99.0547L68.8269 95.6845C66.9987 94.1502 63.2572 93.602 61.0269 95.8332L57.8012 99.0547C57.2162 99.5265 55.9812 99.603 55.2581 99.0547L51.0291 95.3572C49.2009 93.7252 45.7194 94.0227 44.1797 96.0032L41.8559 99.0547C41.4781 99.5052 40.7916 99.7007 39.9344 99.0547L35.9612 95.3572C34.3931 93.976 31.4072 93.9505 30.4403 96.0032L29.3231 98.5957C29.3231 98.5957 29.0144 99.7007 28.4537 99.0547L25.5409 95.3572C23.4691 93.007 21.8806 95.3572 21.5678 96.458L20.9503 94.962C20.4344 93.8017 18.3259 94.962 19.0856 97.7542L26.4062 123.25C26.7191 124.236 28.4537 127.5 32.5 127.5Z" fill="url(#paint38_radial_474_1689)"/>
<path d="M32.5 127.5H97.5C101.725 127.5 103.151 124.754 103.594 123.25C103.594 123.25 111.459 97.444 110.971 95.353C110.671 94.248 109.371 94.1162 108.981 94.9662L108.363 96.4537L107.928 95.353C107.644 94.673 106.198 93.7805 104.764 95.353L101.725 99.0505C101.457 99.3777 100.986 99.4755 100.795 99.0505L99.3972 95.6845C98.6862 94.0482 95.745 93.653 93.4497 95.8332L90.1875 99.0547C89.5863 99.7007 88.66 99.824 88.075 99.0547L85.2231 95.3572C83.7809 93.5297 80.3887 94.3202 78.2112 96.0032L74.7378 99.0547C73.8969 99.6752 72.8528 99.7772 72.0687 99.0547L68.8269 95.6845C66.9987 94.1502 63.2572 93.602 61.0269 95.8332L57.8012 99.0547C57.2162 99.5265 55.9812 99.603 55.2581 99.0547L51.0291 95.3572C49.2009 93.7252 45.7194 94.0227 44.1797 96.0032L41.8559 99.0547C41.4781 99.5052 40.7916 99.7007 39.9344 99.0547L35.9612 95.3572C34.3931 93.976 31.4072 93.9505 30.4403 96.0032L29.3231 98.5957C29.3231 98.5957 29.0144 99.7007 28.4537 99.0547L25.5409 95.3572C23.4691 93.007 21.8806 95.3572 21.5678 96.458L20.9503 94.962C20.4344 93.8017 18.3259 94.962 19.0856 97.7542L26.4062 123.25C26.7191 124.236 28.4537 127.5 32.5 127.5Z" fill="url(#paint39_linear_474_1689)"/>
<path d="M32.5 127.5H97.5C101.725 127.5 103.151 124.754 103.594 123.25C103.594 123.25 111.459 97.444 110.971 95.353C110.671 94.248 109.371 94.1162 108.981 94.9662L108.363 96.4537L107.928 95.353C107.644 94.673 106.198 93.7805 104.764 95.353L101.725 99.0505C101.457 99.3777 100.986 99.4755 100.795 99.0505L99.3972 95.6845C98.6862 94.0482 95.745 93.653 93.4497 95.8332L90.1875 99.0547C89.5863 99.7007 88.66 99.824 88.075 99.0547L85.2231 95.3572C83.7809 93.5297 80.3887 94.3202 78.2112 96.0032L74.7378 99.0547C73.8969 99.6752 72.8528 99.7772 72.0687 99.0547L68.8269 95.6845C66.9987 94.1502 63.2572 93.602 61.0269 95.8332L57.8012 99.0547C57.2162 99.5265 55.9812 99.603 55.2581 99.0547L51.0291 95.3572C49.2009 93.7252 45.7194 94.0227 44.1797 96.0032L41.8559 99.0547C41.4781 99.5052 40.7916 99.7007 39.9344 99.0547L35.9612 95.3572C34.3931 93.976 31.4072 93.9505 30.4403 96.0032L29.3231 98.5957C29.3231 98.5957 29.0144 99.7007 28.4537 99.0547L25.5409 95.3572C23.4691 93.007 21.8806 95.3572 21.5678 96.458L20.9503 94.962C20.4344 93.8017 18.3259 94.962 19.0856 97.7542L26.4062 123.25C26.7191 124.236 28.4537 127.5 32.5 127.5Z" fill="url(#paint40_linear_474_1689)"/>
<path d="M32.5 127.5H97.5C101.725 127.5 103.151 124.754 103.594 123.25C103.594 123.25 111.459 97.444 110.971 95.353C110.671 94.248 109.371 94.1162 108.981 94.9662L108.363 96.4537L107.928 95.353C107.644 94.673 106.198 93.7805 104.764 95.353L101.725 99.0505C101.457 99.3777 100.986 99.4755 100.795 99.0505L99.3972 95.6845C98.6862 94.0482 95.745 93.653 93.4497 95.8332L90.1875 99.0547C89.5863 99.7007 88.66 99.824 88.075 99.0547L85.2231 95.3572C83.7809 93.5297 80.3887 94.3202 78.2112 96.0032L74.7378 99.0547C73.8969 99.6752 72.8528 99.7772 72.0687 99.0547L68.8269 95.6845C66.9987 94.1502 63.2572 93.602 61.0269 95.8332L57.8012 99.0547C57.2162 99.5265 55.9812 99.603 55.2581 99.0547L51.0291 95.3572C49.2009 93.7252 45.7194 94.0227 44.1797 96.0032L41.8559 99.0547C41.4781 99.5052 40.7916 99.7007 39.9344 99.0547L35.9612 95.3572C34.3931 93.976 31.4072 93.9505 30.4403 96.0032L29.3231 98.5957C29.3231 98.5957 29.0144 99.7007 28.4537 99.0547L25.5409 95.3572C23.4691 93.007 21.8806 95.3572 21.5678 96.458L20.9503 94.962C20.4344 93.8017 18.3259 94.962 19.0856 97.7542L26.4062 123.25C26.7191 124.236 28.4537 127.5 32.5 127.5Z" fill="url(#paint41_linear_474_1689)"/>
<g filter="url(#filter12_f_474_1689)">
<path d="M33.3531 127.062H96.6388C100.754 127.062 102.143 124.742 102.57 123.467C102.57 123.467 104.739 116.293 106.799 109.837C108.331 105.039 109.732 100.636 109.529 99.8835L109.525 99.8708C109.241 98.9443 109.204 98.838 108.834 99.552L108.225 100.814L107.803 99.8793C107.526 99.3013 105.942 98.549 104.544 99.8793L101.814 103.012C101.246 103.76 100.579 103.938 100.165 103.012C100.165 103.012 99.3728 101.227 98.7391 99.8835C98.1013 98.5405 95.5297 98.056 93.7544 99.8835L90.74 103.012C90.1388 103.879 88.4528 104.151 87.4656 103.012L84.6869 99.8835C83.2813 98.3408 79.9663 98.821 78.1381 100.432C76.3141 102.038 74.9328 103.012 74.9328 103.012C74.0147 103.7 72.7106 103.879 71.8819 103.012L68.2378 99.552C66.4625 98.2515 64.1225 97.665 61.9531 99.552L57.9881 103.012C57.1919 103.73 55.7944 103.76 54.9088 103.012L50.7488 99.552C48.9734 98.1793 46.6944 97.8818 45.1953 99.552L42.4653 103.012C41.8966 103.73 40.4016 103.666 39.7353 103.012L35.9572 99.552C34.6247 98.209 32.301 97.818 31.3584 99.552C31.3584 99.552 30.2128 101.911 29.896 102.625C29.5791 103.339 28.7585 103.458 28.1206 102.68L26.1503 99.552C24.1353 97.5673 22.6281 99.8835 22.3275 100.814L21.7222 99.552C21.2225 98.5703 20.4628 99.1738 21.2022 101.537L23.6113 109.901L27.426 123.467C27.7266 124.304 29.4166 127.062 33.3572 127.062H33.3531Z" fill="url(#paint42_linear_474_1689)"/>
<path d="M33.3531 127.062H96.6388C100.754 127.062 102.143 124.742 102.57 123.467C102.57 123.467 104.739 116.293 106.799 109.837C108.331 105.039 109.732 100.636 109.529 99.8835L109.525 99.8708C109.241 98.9443 109.204 98.838 108.834 99.552L108.225 100.814L107.803 99.8793C107.526 99.3013 105.942 98.549 104.544 99.8793L101.814 103.012C101.246 103.76 100.579 103.938 100.165 103.012C100.165 103.012 99.3728 101.227 98.7391 99.8835C98.1013 98.5405 95.5297 98.056 93.7544 99.8835L90.74 103.012C90.1388 103.879 88.4528 104.151 87.4656 103.012L84.6869 99.8835C83.2813 98.3408 79.9663 98.821 78.1381 100.432C76.3141 102.038 74.9328 103.012 74.9328 103.012C74.0147 103.7 72.7106 103.879 71.8819 103.012L68.2378 99.552C66.4625 98.2515 64.1225 97.665 61.9531 99.552L57.9881 103.012C57.1919 103.73 55.7944 103.76 54.9088 103.012L50.7488 99.552C48.9734 98.1793 46.6944 97.8818 45.1953 99.552L42.4653 103.012C41.8966 103.73 40.4016 103.666 39.7353 103.012L35.9572 99.552C34.6247 98.209 32.301 97.818 31.3584 99.552C31.3584 99.552 30.2128 101.911 29.896 102.625C29.5791 103.339 28.7585 103.458 28.1206 102.68L26.1503 99.552C24.1353 97.5673 22.6281 99.8835 22.3275 100.814L21.7222 99.552C21.2225 98.5703 20.4628 99.1738 21.2022 101.537L23.6113 109.901L27.426 123.467C27.7266 124.304 29.4166 127.062 33.3572 127.062H33.3531Z" fill="url(#paint43_radial_474_1689)"/>
<path d="M33.3531 127.062H96.6388C100.754 127.062 102.143 124.742 102.57 123.467C102.57 123.467 104.739 116.293 106.799 109.837C108.331 105.039 109.732 100.636 109.529 99.8835L109.525 99.8708C109.241 98.9443 109.204 98.838 108.834 99.552L108.225 100.814L107.803 99.8793C107.526 99.3013 105.942 98.549 104.544 99.8793L101.814 103.012C101.246 103.76 100.579 103.938 100.165 103.012C100.165 103.012 99.3728 101.227 98.7391 99.8835C98.1013 98.5405 95.5297 98.056 93.7544 99.8835L90.74 103.012C90.1388 103.879 88.4528 104.151 87.4656 103.012L84.6869 99.8835C83.2813 98.3408 79.9663 98.821 78.1381 100.432C76.3141 102.038 74.9328 103.012 74.9328 103.012C74.0147 103.7 72.7106 103.879 71.8819 103.012L68.2378 99.552C66.4625 98.2515 64.1225 97.665 61.9531 99.552L57.9881 103.012C57.1919 103.73 55.7944 103.76 54.9088 103.012L50.7488 99.552C48.9734 98.1793 46.6944 97.8818 45.1953 99.552L42.4653 103.012C41.8966 103.73 40.4016 103.666 39.7353 103.012L35.9572 99.552C34.6247 98.209 32.301 97.818 31.3584 99.552C31.3584 99.552 30.2128 101.911 29.896 102.625C29.5791 103.339 28.7585 103.458 28.1206 102.68L26.1503 99.552C24.1353 97.5673 22.6281 99.8835 22.3275 100.814L21.7222 99.552C21.2225 98.5703 20.4628 99.1738 21.2022 101.537L23.6113 109.901L27.426 123.467C27.7266 124.304 29.4166 127.062 33.3572 127.062H33.3531Z" fill="url(#paint44_radial_474_1689)"/>
<path d="M33.3531 127.062H96.6388C100.754 127.062 102.143 124.742 102.57 123.467C102.57 123.467 104.739 116.293 106.799 109.837C108.331 105.039 109.732 100.636 109.529 99.8835L109.525 99.8708C109.241 98.9443 109.204 98.838 108.834 99.552L108.225 100.814L107.803 99.8793C107.526 99.3013 105.942 98.549 104.544 99.8793L101.814 103.012C101.246 103.76 100.579 103.938 100.165 103.012C100.165 103.012 99.3728 101.227 98.7391 99.8835C98.1013 98.5405 95.5297 98.056 93.7544 99.8835L90.74 103.012C90.1388 103.879 88.4528 104.151 87.4656 103.012L84.6869 99.8835C83.2813 98.3408 79.9663 98.821 78.1381 100.432C76.3141 102.038 74.9328 103.012 74.9328 103.012C74.0147 103.7 72.7106 103.879 71.8819 103.012L68.2378 99.552C66.4625 98.2515 64.1225 97.665 61.9531 99.552L57.9881 103.012C57.1919 103.73 55.7944 103.76 54.9088 103.012L50.7488 99.552C48.9734 98.1793 46.6944 97.8818 45.1953 99.552L42.4653 103.012C41.8966 103.73 40.4016 103.666 39.7353 103.012L35.9572 99.552C34.6247 98.209 32.301 97.818 31.3584 99.552C31.3584 99.552 30.2128 101.911 29.896 102.625C29.5791 103.339 28.7585 103.458 28.1206 102.68L26.1503 99.552C24.1353 97.5673 22.6281 99.8835 22.3275 100.814L21.7222 99.552C21.2225 98.5703 20.4628 99.1738 21.2022 101.537L23.6113 109.901L27.426 123.467C27.7266 124.304 29.4166 127.062 33.3572 127.062H33.3531Z" fill="url(#paint45_radial_474_1689)"/>
</g>
<g filter="url(#filter13_f_474_1689)">
<path d="M20.8528 96.7725C20.3531 95.6888 19.5569 96.7725 20.2962 99.3693L22.8312 107.81C50.8747 123.263 106.99 108.01 106.99 108.01C108.485 102.837 110.228 97.648 110.512 96.6195C110.797 95.5953 109.968 95.4635 109.594 96.254L108.257 99.5775L108.038 96.6195C108.038 95.8248 106.039 95.2255 104.544 97.1338L101.814 100.576C101.246 101.401 101.339 101.601 100.929 100.576C100.929 100.576 100.132 98.6128 99.4987 97.1338C98.865 95.6548 95.5337 95.1278 93.7544 97.1338L90.74 100.576C90.1387 101.537 89.6675 101.834 88.6762 100.576L85.8975 97.1338C84.4919 95.4338 79.9662 95.9693 78.1381 97.7373C76.314 99.5095 74.9328 100.576 74.9328 100.576C74.0147 101.337 72.7106 101.537 71.8819 100.576L68.2378 96.7725C66.4625 95.3403 63.6147 94.69 61.4453 96.7725L57.4803 100.576C56.6841 101.371 55.7944 101.401 54.9087 100.576L50.7487 96.7725C48.9734 95.2553 45.7112 94.928 44.2081 96.7725L41.4822 100.576C40.9134 101.371 40.4016 101.299 39.7353 100.576L35.9572 96.7725C34.6247 95.2935 32.3009 94.86 31.3584 96.7725C31.3584 96.7725 30.2128 99.3693 29.8959 100.156C29.5791 100.942 28.7584 101.069 28.1206 100.215L25.2809 96.7725C23.2659 94.588 21.7587 97.1338 21.4541 98.1623L20.8528 96.7725Z" fill="url(#paint46_linear_474_1689)"/>
<path d="M20.8528 96.7725C20.3531 95.6888 19.5569 96.7725 20.2962 99.3693L22.8312 107.81C50.8747 123.263 106.99 108.01 106.99 108.01C108.485 102.837 110.228 97.648 110.512 96.6195C110.797 95.5953 109.968 95.4635 109.594 96.254L108.257 99.5775L108.038 96.6195C108.038 95.8248 106.039 95.2255 104.544 97.1338L101.814 100.576C101.246 101.401 101.339 101.601 100.929 100.576C100.929 100.576 100.132 98.6128 99.4987 97.1338C98.865 95.6548 95.5337 95.1278 93.7544 97.1338L90.74 100.576C90.1387 101.537 89.6675 101.834 88.6762 100.576L85.8975 97.1338C84.4919 95.4338 79.9662 95.9693 78.1381 97.7373C76.314 99.5095 74.9328 100.576 74.9328 100.576C74.0147 101.337 72.7106 101.537 71.8819 100.576L68.2378 96.7725C66.4625 95.3403 63.6147 94.69 61.4453 96.7725L57.4803 100.576C56.6841 101.371 55.7944 101.401 54.9087 100.576L50.7487 96.7725C48.9734 95.2553 45.7112 94.928 44.2081 96.7725L41.4822 100.576C40.9134 101.371 40.4016 101.299 39.7353 100.576L35.9572 96.7725C34.6247 95.2935 32.3009 94.86 31.3584 96.7725C31.3584 96.7725 30.2128 99.3693 29.8959 100.156C29.5791 100.942 28.7584 101.069 28.1206 100.215L25.2809 96.7725C23.2659 94.588 21.7587 97.1338 21.4541 98.1623L20.8528 96.7725Z" fill="url(#paint47_radial_474_1689)"/>
<path d="M20.8528 96.7725C20.3531 95.6888 19.5569 96.7725 20.2962 99.3693L22.8312 107.81C50.8747 123.263 106.99 108.01 106.99 108.01C108.485 102.837 110.228 97.648 110.512 96.6195C110.797 95.5953 109.968 95.4635 109.594 96.254L108.257 99.5775L108.038 96.6195C108.038 95.8248 106.039 95.2255 104.544 97.1338L101.814 100.576C101.246 101.401 101.339 101.601 100.929 100.576C100.929 100.576 100.132 98.6128 99.4987 97.1338C98.865 95.6548 95.5337 95.1278 93.7544 97.1338L90.74 100.576C90.1387 101.537 89.6675 101.834 88.6762 100.576L85.8975 97.1338C84.4919 95.4338 79.9662 95.9693 78.1381 97.7373C76.314 99.5095 74.9328 100.576 74.9328 100.576C74.0147 101.337 72.7106 101.537 71.8819 100.576L68.2378 96.7725C66.4625 95.3403 63.6147 94.69 61.4453 96.7725L57.4803 100.576C56.6841 101.371 55.7944 101.401 54.9087 100.576L50.7487 96.7725C48.9734 95.2553 45.7112 94.928 44.2081 96.7725L41.4822 100.576C40.9134 101.371 40.4016 101.299 39.7353 100.576L35.9572 96.7725C34.6247 95.2935 32.3009 94.86 31.3584 96.7725C31.3584 96.7725 30.2128 99.3693 29.8959 100.156C29.5791 100.942 28.7584 101.069 28.1206 100.215L25.2809 96.7725C23.2659 94.588 21.7587 97.1338 21.4541 98.1623L20.8528 96.7725Z" fill="url(#paint48_radial_474_1689)"/>
<path d="M20.8528 96.7725C20.3531 95.6888 19.5569 96.7725 20.2962 99.3693L22.8312 107.81C50.8747 123.263 106.99 108.01 106.99 108.01C108.485 102.837 110.228 97.648 110.512 96.6195C110.797 95.5953 109.968 95.4635 109.594 96.254L108.257 99.5775L108.038 96.6195C108.038 95.8248 106.039 95.2255 104.544 97.1338L101.814 100.576C101.246 101.401 101.339 101.601 100.929 100.576C100.929 100.576 100.132 98.6128 99.4987 97.1338C98.865 95.6548 95.5337 95.1278 93.7544 97.1338L90.74 100.576C90.1387 101.537 89.6675 101.834 88.6762 100.576L85.8975 97.1338C84.4919 95.4338 79.9662 95.9693 78.1381 97.7373C76.314 99.5095 74.9328 100.576 74.9328 100.576C74.0147 101.337 72.7106 101.537 71.8819 100.576L68.2378 96.7725C66.4625 95.3403 63.6147 94.69 61.4453 96.7725L57.4803 100.576C56.6841 101.371 55.7944 101.401 54.9087 100.576L50.7487 96.7725C48.9734 95.2553 45.7112 94.928 44.2081 96.7725L41.4822 100.576C40.9134 101.371 40.4016 101.299 39.7353 100.576L35.9572 96.7725C34.6247 95.2935 32.3009 94.86 31.3584 96.7725C31.3584 96.7725 30.2128 99.3693 29.8959 100.156C29.5791 100.942 28.7584 101.069 28.1206 100.215L25.2809 96.7725C23.2659 94.588 21.7587 97.1338 21.4541 98.1623L20.8528 96.7725Z" fill="url(#paint49_radial_474_1689)"/>
</g>
<path fill-rule="evenodd" clip-rule="evenodd" d="M65.0528 106.781C65.5915 106.781 66.1082 107.005 66.4891 107.404C66.87 107.802 67.084 108.343 67.084 108.906V127.5H63.0215V108.906C63.0215 108.343 63.2356 107.802 63.6165 107.404C63.9974 107.005 64.5141 106.781 65.0528 106.781Z" fill="url(#paint50_linear_474_1689)"/>
<path fill-rule="evenodd" clip-rule="evenodd" d="M42.5059 106.293C42.7674 106.237 43.0367 106.235 43.2987 106.288C43.5606 106.341 43.81 106.448 44.0326 106.602C44.2552 106.756 44.4466 106.954 44.5959 107.185C44.7452 107.417 44.8495 107.677 44.9028 107.95L48.6241 127.458H44.5372L40.9216 108.8C40.8682 108.527 40.8668 108.245 40.9175 107.971C40.9682 107.697 41.0701 107.436 41.2172 107.203C41.3643 106.97 41.5539 106.77 41.775 106.614C41.9961 106.457 42.2445 106.348 42.5059 106.293Z" fill="url(#paint51_linear_474_1689)"/>
<g filter="url(#filter14_f_474_1689)">
<path d="M67.2425 30.2642C66.43 31.1142 65.1706 31.1142 64.3581 30.2642L61.3519 27.1192C60.5394 26.2692 60.5394 24.9517 61.3519 24.1017C62.1644 23.2517 63.4237 23.2517 64.2362 24.1017L67.2425 27.2892C68.055 28.0967 68.055 29.4567 67.2425 30.2642Z" fill="#C5419E"/>
</g>
<path d="M67.9453 29.07C67.1328 29.92 65.8734 29.92 65.0609 29.07L62.0547 25.925C61.2422 25.075 61.2422 23.7575 62.0547 22.9075C62.8672 22.0575 64.1266 22.0575 64.9391 22.9075L67.9453 26.095C68.7578 26.9025 68.7578 28.2625 67.9453 29.07Z" fill="url(#paint52_linear_474_1689)"/>
<path d="M67.9453 29.07C67.1328 29.92 65.8734 29.92 65.0609 29.07L62.0547 25.925C61.2422 25.075 61.2422 23.7575 62.0547 22.9075C62.8672 22.0575 64.1266 22.0575 64.9391 22.9075L67.9453 26.095C68.7578 26.9025 68.7578 28.2625 67.9453 29.07Z" fill="url(#paint53_radial_474_1689)"/>
<path fill-rule="evenodd" clip-rule="evenodd" d="M87.7134 106.284C88.243 106.387 88.7116 106.706 89.0164 107.171C89.3211 107.635 89.437 108.208 89.3384 108.762L85.9178 127.5H81.8269L85.3491 107.988C85.4477 107.434 85.7526 106.944 86.1968 106.625C86.6409 106.306 87.1879 106.185 87.7175 106.288L87.7134 106.284Z" fill="url(#paint54_linear_474_1689)"/>
<g filter="url(#filter15_f_474_1689)">
<path d="M67.9453 59.1727C67.1328 60.0227 65.8734 60.0227 65.0609 59.1727L62.0547 56.0277C61.2422 55.1777 61.2422 53.8602 62.0547 53.0102C62.8672 52.1602 64.1266 52.1602 64.9391 53.0102L67.9453 56.1552C68.7578 57.0052 68.7578 58.3227 67.9453 59.1727Z" fill="#D939B9"/>
</g>
<path d="M67.9656 58.3738C67.1531 59.2238 65.8938 59.2238 65.0813 58.3738L62.075 55.2288C61.2625 54.3788 61.2625 53.0613 62.075 52.2113C62.8875 51.3613 64.1469 51.3613 64.9594 52.2113L67.9656 55.3563C68.7781 56.2063 68.7781 57.5238 67.9656 58.3738Z" fill="url(#paint55_linear_474_1689)"/>
<path d="M67.9656 58.3738C67.1531 59.2238 65.8938 59.2238 65.0813 58.3738L62.075 55.2288C61.2625 54.3788 61.2625 53.0613 62.075 52.2113C62.8875 51.3613 64.1469 51.3613 64.9594 52.2113L67.9656 55.3563C68.7781 56.2063 68.7781 57.5238 67.9656 58.3738Z" fill="url(#paint56_radial_474_1689)"/>
<g filter="url(#filter16_f_474_1689)">
<path d="M23.9281 95.4933L27.6128 100.007" stroke="#64AFFF" stroke-width="0.3125"/>
</g>
<defs>
<filter id="filter0_f_474_1689" x="29.7515" y="38.8192" width="70.9636" height="27.107" filterUnits="userSpaceOnUse" color-interpolation-filters="sRGB">
<feFlood flood-opacity="0" result="BackgroundImageFix"/>
<feBlend mode="normal" in="SourceGraphic" in2="BackgroundImageFix" result="shape"/>
<feGaussianBlur stdDeviation="0.3125" result="effect1_foregroundBlur_474_1689"/>
</filter>
<filter id="filter1_f_474_1689" x="44.8872" y="22.8403" width="39.4619" height="19.1018" filterUnits="userSpaceOnUse" color-interpolation-filters="sRGB">
<feFlood flood-opacity="0" result="BackgroundImageFix"/>
<feBlend mode="normal" in="SourceGraphic" in2="BackgroundImageFix" result="shape"/>
<feGaussianBlur stdDeviation="0.3125" result="effect1_foregroundBlur_474_1689"/>
</filter>
<filter id="filter2_f_474_1689" x="49.5466" y="37.6145" width="7.73438" height="8.0625" filterUnits="userSpaceOnUse" color-interpolation-filters="sRGB">
<feFlood flood-opacity="0" result="BackgroundImageFix"/>
<feBlend mode="normal" in="SourceGraphic" in2="BackgroundImageFix" result="shape"/>
<feGaussianBlur stdDeviation="0.15625" result="effect1_foregroundBlur_474_1689"/>
</filter>
<filter id="filter3_f_474_1689" x="46.5439" y="70.0963" width="8.80377" height="9.15457" filterUnits="userSpaceOnUse" color-interpolation-filters="sRGB">
<feFlood flood-opacity="0" result="BackgroundImageFix"/>
<feBlend mode="normal" in="SourceGraphic" in2="BackgroundImageFix" result="shape"/>
<feGaussianBlur stdDeviation="0.3125" result="effect1_foregroundBlur_474_1689"/>
</filter>
<filter id="filter4_f_474_1689" x="29.5713" y="64.3683" width="7.73438" height="8.03064" filterUnits="userSpaceOnUse" color-interpolation-filters="sRGB">
<feFlood flood-opacity="0" result="BackgroundImageFix"/>
<feBlend mode="normal" in="SourceGraphic" in2="BackgroundImageFix" result="shape"/>
<feGaussianBlur stdDeviation="0.15625" result="effect1_foregroundBlur_474_1689"/>
</filter>
<filter id="filter5_f_474_1689" x="93.8902" y="65.1688" width="7.41483" height="8.33054" filterUnits="userSpaceOnUse" color-interpolation-filters="sRGB">
<feFlood flood-opacity="0" result="BackgroundImageFix"/>
<feBlend mode="normal" in="SourceGraphic" in2="BackgroundImageFix" result="shape"/>
<feGaussianBlur stdDeviation="0.15625" result="effect1_foregroundBlur_474_1689"/>
</filter>
<filter id="filter6_f_474_1689" x="82.2538" y="50.1902" width="7.73438" height="8.0625" filterUnits="userSpaceOnUse" color-interpolation-filters="sRGB">
<feFlood flood-opacity="0" result="BackgroundImageFix"/>
<feBlend mode="normal" in="SourceGraphic" in2="BackgroundImageFix" result="shape"/>
<feGaussianBlur stdDeviation="0.15625" result="effect1_foregroundBlur_474_1689"/>
</filter>
<filter id="filter7_f_474_1689" x="37.2534" y="53.909" width="8.95312" height="4.875" filterUnits="userSpaceOnUse" color-interpolation-filters="sRGB">
<feFlood flood-opacity="0" result="BackgroundImageFix"/>
<feBlend mode="normal" in="SourceGraphic" in2="BackgroundImageFix" result="shape"/>
<feGaussianBlur stdDeviation="0.15625" result="effect1_foregroundBlur_474_1689"/>
</filter>
<filter id="filter8_f_474_1689" x="19.8698" y="94.1768" width="90.6423" height="33.0104" filterUnits="userSpaceOnUse" color-interpolation-filters="sRGB">
<feFlood flood-opacity="0" result="BackgroundImageFix"/>
<feBlend mode="normal" in="SourceGraphic" in2="BackgroundImageFix" result="shape"/>
<feGaussianBlur stdDeviation="0.0625" result="effect1_foregroundBlur_474_1689"/>
</filter>
<filter id="filter9_f_474_1689" x="73.0644" y="36.6413" width="7.73438" height="8.0625" filterUnits="userSpaceOnUse" color-interpolation-filters="sRGB">
<feFlood flood-opacity="0" result="BackgroundImageFix"/>
<feBlend mode="normal" in="SourceGraphic" in2="BackgroundImageFix" result="shape"/>
<feGaussianBlur stdDeviation="0.15625" result="effect1_foregroundBlur_474_1689"/>
</filter>
<filter id="filter10_f_474_1689" x="73.6372" y="35.9282" width="7.06812" height="3.99432" filterUnits="userSpaceOnUse" color-interpolation-filters="sRGB">
<feFlood flood-opacity="0" result="BackgroundImageFix"/>
<feBlend mode="normal" in="SourceGraphic" in2="BackgroundImageFix" result="shape"/>
<feGaussianBlur stdDeviation="0.15625" result="effect1_foregroundBlur_474_1689"/>
</filter>
<filter id="filter11_f_474_1689" x="77.9312" y="71.2745" width="7.73438" height="8.0625" filterUnits="userSpaceOnUse" color-interpolation-filters="sRGB">
<feFlood flood-opacity="0" result="BackgroundImageFix"/>
<feBlend mode="normal" in="SourceGraphic" in2="BackgroundImageFix" result="shape"/>
<feGaussianBlur stdDeviation="0.15625" result="effect1_foregroundBlur_474_1689"/>
</filter>
<filter id="filter12_f_474_1689" x="20.5815" y="98.0342" width="89.2797" height="29.3405" filterUnits="userSpaceOnUse" color-interpolation-filters="sRGB">
<feFlood flood-opacity="0" result="BackgroundImageFix"/>
<feBlend mode="normal" in="SourceGraphic" in2="BackgroundImageFix" result="shape"/>
<feGaussianBlur stdDeviation="0.15625" result="effect1_foregroundBlur_474_1689"/>
</filter>
<filter id="filter13_f_474_1689" x="19.7782" y="95.2259" width="91.0097" height="19.7216" filterUnits="userSpaceOnUse" color-interpolation-filters="sRGB">
<feFlood flood-opacity="0" result="BackgroundImageFix"/>
<feBlend mode="normal" in="SourceGraphic" in2="BackgroundImageFix" result="shape"/>
<feGaussianBlur stdDeviation="0.10875" result="effect1_foregroundBlur_474_1689"/>
</filter>
<filter id="filter14_f_474_1689" x="60.1175" y="22.8392" width="8.35938" height="8.6875" filterUnits="userSpaceOnUse" color-interpolation-filters="sRGB">
<feFlood flood-opacity="0" result="BackgroundImageFix"/>
<feBlend mode="normal" in="SourceGraphic" in2="BackgroundImageFix" result="shape"/>
<feGaussianBlur stdDeviation="0.3125" result="effect1_foregroundBlur_474_1689"/>
</filter>
<filter id="filter15_f_474_1689" x="60.8203" y="51.7477" width="8.35938" height="8.6875" filterUnits="userSpaceOnUse" color-interpolation-filters="sRGB">
<feFlood flood-opacity="0" result="BackgroundImageFix"/>
<feBlend mode="normal" in="SourceGraphic" in2="BackgroundImageFix" result="shape"/>
<feGaussianBlur stdDeviation="0.3125" result="effect1_foregroundBlur_474_1689"/>
</filter>
<filter id="filter16_f_474_1689" x="23.4946" y="95.0819" width="4.55176" height="5.33612" filterUnits="userSpaceOnUse" color-interpolation-filters="sRGB">
<feFlood flood-opacity="0" result="BackgroundImageFix"/>
<feBlend mode="normal" in="SourceGraphic" in2="BackgroundImageFix" result="shape"/>
<feGaussianBlur stdDeviation="0.15625" result="effect1_foregroundBlur_474_1689"/>
</filter>
<linearGradient id="paint0_linear_474_1689" x1="65.0406" y1="55.2925" x2="65.0406" y2="85.0425" gradientUnits="userSpaceOnUse">
<stop offset="0.418" stop-color="#FE5FD3"/>
<stop offset="0.856" stop-color="#EE49CD"/>
</linearGradient>
<linearGradient id="paint1_linear_474_1689" x1="65.0406" y1="55.2925" x2="65.0406" y2="85.0425" gradientUnits="userSpaceOnUse">
<stop offset="0.887" stop-color="#DF499E" stop-opacity="0"/>
<stop offset="1" stop-color="#D14276"/>
</linearGradient>
<radialGradient id="paint2_radial_474_1689" cx="0" cy="0" r="1" gradientUnits="userSpaceOnUse" gradientTransform="translate(104.865 63.75) rotate(-179.235) scale(39.8262 15.6739)">
<stop stop-color="#FF85DE"/>
<stop offset="1" stop-color="#FF86DD" stop-opacity="0"/>
</radialGradient>
<radialGradient id="paint3_radial_474_1689" cx="0" cy="0" r="1" gradientUnits="userSpaceOnUse" gradientTransform="translate(47.9895 43.8278) rotate(-103.178) scale(81.2974 102.113)">
<stop offset="0.682" stop-color="#B74CAB" stop-opacity="0"/>
<stop offset="0.913" stop-color="#B44AAC"/>
</radialGradient>
<radialGradient id="paint4_radial_474_1689" cx="0" cy="0" r="1" gradientUnits="userSpaceOnUse" gradientTransform="translate(7.10938 47.0178) rotate(35.8475) scale(56.6965 77.4478)">
<stop offset="0.348" stop-color="#D64984"/>
<stop offset="1" stop-color="#EA56A7" stop-opacity="0"/>
</radialGradient>
<radialGradient id="paint5_radial_474_1689" cx="0" cy="0" r="1" gradientUnits="userSpaceOnUse" gradientTransform="translate(71.0938 74.9063) rotate(84.1226) scale(34.7137 62.2285)">
<stop offset="0.794" stop-color="#E34E93" stop-opacity="0"/>
<stop offset="0.968" stop-color="#D74887"/>
</radialGradient>
<linearGradient id="paint6_linear_474_1689" x1="91.1544" y1="58.4375" x2="35.295" y2="58.4375" gradientUnits="userSpaceOnUse">
<stop stop-color="#CA3AAB"/>
<stop offset="1" stop-color="#D3358D"/>
</linearGradient>
<linearGradient id="paint7_linear_474_1689" x1="65.0203" y1="34.0425" x2="65.0203" y2="63.7925" gradientUnits="userSpaceOnUse">
<stop stop-color="#FF85DE"/>
<stop offset="0.525" stop-color="#FC59CC"/>
<stop offset="1" stop-color="#E542CD"/>
</linearGradient>
<radialGradient id="paint8_radial_474_1689" cx="0" cy="0" r="1" gradientUnits="userSpaceOnUse" gradientTransform="translate(89.6309 41.9687) rotate(90) scale(11.6875 20.0586)">
<stop stop-color="#FF8DE6"/>
<stop offset="1" stop-color="#FF90E9" stop-opacity="0"/>
</radialGradient>
<radialGradient id="paint9_radial_474_1689" cx="0" cy="0" r="1" gradientUnits="userSpaceOnUse" gradientTransform="translate(37.3262 42.5) rotate(90) scale(19.125 40.625)">
<stop stop-color="#F543A3"/>
<stop offset="1" stop-color="#F54BAE" stop-opacity="0"/>
</radialGradient>
<radialGradient id="paint10_radial_474_1689" cx="0" cy="0" r="1" gradientUnits="userSpaceOnUse" gradientTransform="translate(77.4434 14.875) rotate(90) scale(20.1875 41.6089)">
<stop offset="0.171" stop-color="#FF8AE0"/>
<stop offset="1" stop-color="#FF8AE0" stop-opacity="0"/>
</radialGradient>
<radialGradient id="paint11_radial_474_1689" cx="0" cy="0" r="1" gradientUnits="userSpaceOnUse" gradientTransform="translate(77.4434 38.845) rotate(67.2547) scale(4.10436 7.12797)">
<stop offset="0.173" stop-color="#A941A3"/>
<stop offset="1" stop-color="#CD46C2" stop-opacity="0"/>
</radialGradient>
<radialGradient id="paint12_radial_474_1689" cx="0" cy="0" r="1" gradientUnits="userSpaceOnUse" gradientTransform="translate(55.0347 39.5803) rotate(7.09159) scale(4.73348 4.70133)">
<stop offset="0.359" stop-color="#E0417F"/>
<stop offset="1" stop-color="#E33E92" stop-opacity="0"/>
</radialGradient>
<linearGradient id="paint13_linear_474_1689" x1="65.0528" y1="85.0425" x2="65.0528" y2="127.5" gradientUnits="userSpaceOnUse">
<stop stop-color="#E8885E"/>
<stop offset="0.035" stop-color="#EF976C"/>
<stop offset="0.091" stop-color="#ECA079"/>
<stop offset="0.262" stop-color="#F0979B"/>
<stop offset="1" stop-color="#E8885E" stop-opacity="0"/>
</linearGradient>
<radialGradient id="paint14_radial_474_1689" cx="0" cy="0" r="1" gradientUnits="userSpaceOnUse" gradientTransform="translate(80.7422 90.049) rotate(90) scale(4.51563 39.9902)">
<stop stop-color="#FAB188"/>
<stop offset="1" stop-color="#FBB188" stop-opacity="0"/>
</radialGradient>
<radialGradient id="paint15_radial_474_1689" cx="0" cy="0" r="1" gradientUnits="userSpaceOnUse" gradientTransform="translate(67.2872 98.2812) rotate(90) scale(33.2031 69.9489)">
<stop offset="0.632" stop-color="#BE674C" stop-opacity="0"/>
<stop offset="0.784" stop-color="#C0674C"/>
</radialGradient>
<linearGradient id="paint16_linear_474_1689" x1="51.6059" y1="39.7758" x2="54.7173" y2="42.5596" gradientUnits="userSpaceOnUse">
<stop stop-color="#FCAC40"/>
<stop offset="0.403" stop-color="#FFA43C"/>
<stop offset="0.89" stop-color="#F37E41"/>
</linearGradient>
<linearGradient id="paint17_linear_474_1689" x1="49.5137" y1="72.5815" x2="52.9522" y2="75.6821" gradientUnits="userSpaceOnUse">
<stop stop-color="#D4B3D6"/>
<stop offset="0.393" stop-color="#D8B6F8"/>
<stop offset="0.961" stop-color="#C887ED"/>
</linearGradient>
<linearGradient id="paint18_linear_474_1689" x1="30.8019" y1="67.49" x2="33.901" y2="70.2744" gradientUnits="userSpaceOnUse">
<stop stop-color="#E89C43"/>
<stop offset="0.403" stop-color="#F3913F"/>
<stop offset="0.89" stop-color="#EA6542"/>
</linearGradient>
<linearGradient id="paint19_linear_474_1689" x1="95.7897" y1="67.49" x2="99.837" y2="71.12" gradientUnits="userSpaceOnUse">
<stop stop-color="#FFA83E"/>
<stop offset="0.292" stop-color="#FFB84C"/>
<stop offset="0.55" stop-color="#FFA83A"/>
<stop offset="0.81" stop-color="#CC6E53"/>
</linearGradient>
<radialGradient id="paint20_radial_474_1689" cx="0" cy="0" r="1" gradientUnits="userSpaceOnUse" gradientTransform="translate(94.835 71.519) rotate(44.8812) scale(4.65836 2.71735)">
<stop stop-color="#EF6F45"/>
<stop offset="1" stop-color="#EE6E46" stop-opacity="0"/>
</radialGradient>
<linearGradient id="paint21_linear_474_1689" x1="87.7744" y1="52.6702" x2="84.3877" y2="55.9684" gradientUnits="userSpaceOnUse">
<stop offset="0.264" stop-color="#EFEBF7"/>
<stop offset="0.488" stop-color="#DBC8F4"/>
<stop offset="0.931" stop-color="#CA95EB"/>
</linearGradient>
<linearGradient id="paint22_linear_474_1689" x1="41.5391" y1="54.9525" x2="41.5391" y2="59.2025" gradientUnits="userSpaceOnUse">
<stop stop-color="#35A6FF"/>
<stop offset="0.461" stop-color="#299DFF"/>
<stop offset="1" stop-color="#396BFF"/>
</linearGradient>
<radialGradient id="paint23_radial_474_1689" cx="0" cy="0" r="1" gradientUnits="userSpaceOnUse" gradientTransform="translate(44.2814 56.3116) rotate(110.185) scale(1.83954 1.9671)">
<stop stop-color="#40AAFF"/>
<stop offset="1" stop-color="#43ACFF" stop-opacity="0"/>
</radialGradient>
<linearGradient id="paint24_linear_474_1689" x1="88.4691" y1="51.8075" x2="85.0865" y2="55.1059" gradientUnits="userSpaceOnUse">
<stop offset="0.264" stop-color="#EFEBF7"/>
<stop offset="0.488" stop-color="#DBC8F4"/>
<stop offset="0.931" stop-color="#CA95EB"/>
</linearGradient>
<radialGradient id="paint25_radial_474_1689" cx="0" cy="0" r="1" gradientUnits="userSpaceOnUse" gradientTransform="translate(89.6188 56.7205) rotate(141.095) scale(2.85492 2.10102)">
<stop stop-color="#C187F1"/>
<stop offset="1" stop-color="#C595F1" stop-opacity="0"/>
</radialGradient>
<linearGradient id="paint26_linear_474_1689" x1="65.1909" y1="94.3033" x2="66.2002" y2="129.287" gradientUnits="userSpaceOnUse">
<stop offset="0.823" stop-color="#58A0FF"/>
<stop offset="0.915" stop-color="#5473FF"/>
<stop offset="0.953" stop-color="#7163FF"/>
</linearGradient>
<radialGradient id="paint27_radial_474_1689" cx="0" cy="0" r="1" gradientUnits="userSpaceOnUse" gradientTransform="translate(66.4788 94.3033) rotate(90) scale(35.3798 33.154)">
<stop offset="0.195" stop-color="#508EFF"/>
<stop offset="1" stop-color="#508FFF" stop-opacity="0"/>
</radialGradient>
<radialGradient id="paint28_radial_474_1689" cx="0" cy="0" r="1" gradientUnits="userSpaceOnUse" gradientTransform="translate(22.3559 110.683) scale(7.47833 22.8152)">
<stop offset="0.112" stop-color="#4686D7"/>
<stop offset="1" stop-color="#4992F5" stop-opacity="0"/>
</radialGradient>
<radialGradient id="paint29_radial_474_1689" cx="0" cy="0" r="1" gradientUnits="userSpaceOnUse" gradientTransform="translate(108.859 110.683) rotate(-170.257) scale(11.6346 35.3982)">
<stop offset="0.112" stop-color="#4686D7"/>
<stop offset="1" stop-color="#4992F5" stop-opacity="0"/>
</radialGradient>
<linearGradient id="paint30_linear_474_1689" x1="109.48" y1="101.898" x2="22.1081" y2="101.898" gradientUnits="userSpaceOnUse">
<stop offset="0.09" stop-color="#5FB6FF"/>
<stop offset="0.107" stop-color="#4394F4"/>
<stop offset="0.171" stop-color="#60B4FF"/>
<stop offset="0.25" stop-color="#5599FF"/>
<stop offset="0.327" stop-color="#65AFFF"/>
<stop offset="0.629" stop-color="#61AEFF"/>
<stop offset="0.806" stop-color="#62AFFF"/>
<stop offset="0.919" stop-color="#469DF3"/>
<stop offset="1" stop-color="#4F9BE5"/>
</linearGradient>
<linearGradient id="paint31_linear_474_1689" x1="75.6641" y1="38.8493" x2="79.0492" y2="42.1135" gradientUnits="userSpaceOnUse">
<stop stop-color="#388EF1"/>
<stop offset="0.356" stop-color="#3AA5FF"/>
<stop offset="0.917" stop-color="#4571FD"/>
</linearGradient>
<radialGradient id="paint32_radial_474_1689" cx="0" cy="0" r="1" gradientUnits="userSpaceOnUse" gradientTransform="translate(75.0344 43.0313) rotate(47.2612) scale(2.71247 1.78533)">
<stop stop-color="#3673FF"/>
<stop offset="1" stop-color="#3673FF" stop-opacity="0"/>
</radialGradient>
<linearGradient id="paint33_linear_474_1689" x1="83.4235" y1="72.5943" x2="80.0383" y2="75.8585" gradientUnits="userSpaceOnUse">
<stop stop-color="#39A1FF"/>
<stop offset="0.356" stop-color="#40A1FF"/>
<stop offset="0.917" stop-color="#3876FF"/>
</linearGradient>
<radialGradient id="paint34_radial_474_1689" cx="0" cy="0" r="1" gradientUnits="userSpaceOnUse" gradientTransform="translate(84.0531 76.772) rotate(132.739) scale(2.71247 1.78533)">
<stop stop-color="#3673FF"/>
<stop offset="1" stop-color="#3673FF" stop-opacity="0"/>
</radialGradient>
<linearGradient id="paint35_linear_474_1689" x1="64.9553" y1="94.3032" x2="65.9778" y2="129.754" gradientUnits="userSpaceOnUse">
<stop offset="0.823" stop-color="#58A0FF"/>
<stop offset="0.915" stop-color="#5473FF"/>
<stop offset="0.953" stop-color="#7163FF"/>
</linearGradient>
<radialGradient id="paint36_radial_474_1689" cx="0" cy="0" r="1" gradientUnits="userSpaceOnUse" gradientTransform="translate(66.2716 94.3032) rotate(90) scale(35.8532 33.7695)">
<stop offset="0.195" stop-color="#508EFF"/>
<stop offset="1" stop-color="#508FFF" stop-opacity="0"/>
</radialGradient>
<radialGradient id="paint37_radial_474_1689" cx="0" cy="0" r="1" gradientUnits="userSpaceOnUse" gradientTransform="translate(21.3281 110.904) scale(7.61719 23.1205)">
<stop offset="0.112" stop-color="#4686D7"/>
<stop offset="1" stop-color="#4992F5" stop-opacity="0"/>
</radialGradient>
<radialGradient id="paint38_radial_474_1689" cx="0" cy="0" r="1" gradientUnits="userSpaceOnUse" gradientTransform="translate(109.436 110.904) rotate(-170.306) scale(11.8489 35.8771)">
<stop offset="0.112" stop-color="#4686D7"/>
<stop offset="1" stop-color="#4992F5" stop-opacity="0"/>
</radialGradient>
<linearGradient id="paint39_linear_474_1689" x1="110.069" y1="102" x2="21.0762" y2="102" gradientUnits="userSpaceOnUse">
<stop offset="0.011" stop-color="#59B9FF"/>
<stop offset="0.021" stop-color="#5FB6FF"/>
<stop offset="0.09" stop-color="#5FB6FF"/>
<stop offset="0.107" stop-color="#4394F4"/>
<stop offset="0.171" stop-color="#60B4FF"/>
<stop offset="0.25" stop-color="#5599FF"/>
<stop offset="0.327" stop-color="#65AFFF"/>
<stop offset="0.629" stop-color="#61AEFF"/>
<stop offset="0.806" stop-color="#62AFFF"/>
<stop offset="0.919" stop-color="#469DF3"/>
<stop offset="1" stop-color="#4F9BE5"/>
</linearGradient>
<linearGradient id="paint40_linear_474_1689" x1="107.782" y1="109.569" x2="103.563" y2="108.349" gradientUnits="userSpaceOnUse">
<stop stop-color="#477CC5"/>
<stop offset="1" stop-color="#4881CB" stop-opacity="0"/>
</linearGradient>
<linearGradient id="paint41_linear_474_1689" x1="64.9553" y1="94.3032" x2="64.9553" y2="127.5" gradientUnits="userSpaceOnUse">
<stop offset="0.852" stop-color="#5676F9" stop-opacity="0"/>
<stop offset="1" stop-color="#5477F7"/>
</linearGradient>
<linearGradient id="paint42_linear_474_1689" x1="64.9553" y1="98.9953" x2="65.7067" y2="128.973" gradientUnits="userSpaceOnUse">
<stop offset="0.823" stop-color="#58A0FF"/>
<stop offset="0.915" stop-color="#5473FF"/>
<stop offset="0.953" stop-color="#7163FF"/>
</linearGradient>
<radialGradient id="paint43_radial_474_1689" cx="0" cy="0" r="1" gradientUnits="userSpaceOnUse" gradientTransform="translate(66.235 98.9953) rotate(90) scale(30.3136 32.878)">
<stop offset="0.195" stop-color="#508EFF"/>
<stop offset="1" stop-color="#508FFF" stop-opacity="0"/>
</radialGradient>
<radialGradient id="paint44_radial_474_1689" cx="0" cy="0" r="1" gradientUnits="userSpaceOnUse" gradientTransform="translate(22.4819 113.029) scale(7.41609 19.5483)">
<stop offset="0.112" stop-color="#4686D7"/>
<stop offset="1" stop-color="#4992F5" stop-opacity="0"/>
</radialGradient>
<radialGradient id="paint45_radial_474_1689" cx="0" cy="0" r="1" gradientUnits="userSpaceOnUse" gradientTransform="translate(108.258 113.029) rotate(-171.562) scale(11.4958 30.4401)">
<stop offset="0.112" stop-color="#4686D7"/>
<stop offset="1" stop-color="#4992F5" stop-opacity="0"/>
</radialGradient>
<linearGradient id="paint46_linear_474_1689" x1="64.9553" y1="96.1563" x2="65.8667" y2="129.164" gradientUnits="userSpaceOnUse">
<stop offset="0.823" stop-color="#58A0FF"/>
<stop offset="0.915" stop-color="#5473FF"/>
<stop offset="0.953" stop-color="#7163FF"/>
</linearGradient>
<radialGradient id="paint47_radial_474_1689" cx="0" cy="0" r="1" gradientUnits="userSpaceOnUse" gradientTransform="translate(66.235 96.1563) rotate(90) scale(33.3786 32.878)">
<stop offset="0.195" stop-color="#508EFF"/>
<stop offset="1" stop-color="#508FFF" stop-opacity="0"/>
</radialGradient>
<radialGradient id="paint48_radial_474_1689" cx="0" cy="0" r="1" gradientUnits="userSpaceOnUse" gradientTransform="translate(22.4819 111.605) scale(7.41609 21.5248)">
<stop offset="0.112" stop-color="#4686D7"/>
<stop offset="1" stop-color="#4992F5" stop-opacity="0"/>
</radialGradient>
<radialGradient id="paint49_radial_474_1689" cx="0" cy="0" r="1" gradientUnits="userSpaceOnUse" gradientTransform="translate(108.257 111.605) rotate(-170.722) scale(11.5221 33.4414)">
<stop offset="0.112" stop-color="#4686D7"/>
<stop offset="1" stop-color="#4992F5" stop-opacity="0"/>
</radialGradient>
<linearGradient id="paint50_linear_474_1689" x1="65.0528" y1="106.781" x2="65.0528" y2="127.5" gradientUnits="userSpaceOnUse">
<stop stop-color="#2B8BFF"/>
<stop offset="0.839" stop-color="#2C8AFF"/>
<stop offset="1" stop-color="#4063FF"/>
</linearGradient>
<linearGradient id="paint51_linear_474_1689" x1="44.7525" y1="106.25" x2="44.7525" y2="127.458" gradientUnits="userSpaceOnUse">
<stop stop-color="#2B8BFF"/>
<stop offset="0.839" stop-color="#2C8AFF"/>
<stop offset="1" stop-color="#4063FF"/>
</linearGradient>
<linearGradient id="paint52_linear_474_1689" x1="66.6494" y1="24.4375" x2="63.2625" y2="27.7399" gradientUnits="userSpaceOnUse">
<stop offset="0.264" stop-color="#EFEBF7"/>
<stop offset="0.488" stop-color="#DBC8F4"/>
<stop offset="0.931" stop-color="#CA95EB"/>
</linearGradient>
<radialGradient id="paint53_radial_474_1689" cx="0" cy="0" r="1" gradientUnits="userSpaceOnUse" gradientTransform="translate(67.795 29.3463) rotate(141.095) scale(2.85492 2.10102)">
<stop stop-color="#C187F1"/>
<stop offset="1" stop-color="#C595F1" stop-opacity="0"/>
</radialGradient>
<linearGradient id="paint54_linear_474_1689" x1="85.5969" y1="106.25" x2="85.5969" y2="127.5" gradientUnits="userSpaceOnUse">
<stop stop-color="#2B8BFF"/>
<stop offset="0.839" stop-color="#2C8AFF"/>
<stop offset="1" stop-color="#4063FF"/>
</linearGradient>
<linearGradient id="paint55_linear_474_1689" x1="66.3325" y1="53.6223" x2="63.3743" y2="56.6127" gradientUnits="userSpaceOnUse">
<stop stop-color="#FFB248"/>
<stop offset="0.397" stop-color="#FFA43E"/>
<stop offset="0.847" stop-color="#F17F4D"/>
</linearGradient>
<radialGradient id="paint56_radial_474_1689" cx="0" cy="0" r="1" gradientUnits="userSpaceOnUse" gradientTransform="translate(64.1109 53.5897) rotate(54.0233) scale(6.69931 6.61246)">
<stop offset="0.77" stop-color="#DB644C" stop-opacity="0"/>
<stop offset="0.924" stop-color="#DB644C"/>
</radialGradient>
</defs>
</svg>
