<svg width="452" height="81" viewBox="0 0 452 81" fill="none" xmlns="http://www.w3.org/2000/svg">
<path d="M13.6125 52.3227C14.7492 52.3227 15.62 52.0477 16.225 51.4977C16.8483 50.9477 17.16 50.2511 17.16 49.4077C17.16 48.8761 17.0408 48.3811 16.8025 47.9227C16.5642 47.4644 16.0967 47.0427 15.4 46.6577C14.7217 46.2727 13.7225 45.9244 12.4025 45.6127C9.52417 44.9894 7.29667 44.2194 5.72 43.3027C4.16167 42.3861 3.08 41.3319 2.475 40.1402C1.88833 38.9486 1.595 37.6102 1.595 36.1252C1.595 33.4486 2.52083 31.3494 4.3725 29.8277C6.2425 28.3061 8.91917 27.5452 12.4025 27.5452C13.6675 27.5452 14.685 27.6552 15.455 27.8752C16.2433 28.0952 16.8758 28.3152 17.3525 28.5352C17.8292 28.7369 18.2233 28.8377 18.535 28.8377C18.9017 28.8377 19.2408 28.7369 19.5525 28.5352C19.8642 28.3152 20.1758 28.0952 20.4875 27.8752C20.8175 27.6552 21.1658 27.5452 21.5325 27.5452C21.7892 27.5452 22.0275 27.6369 22.2475 27.8202C22.4675 27.9852 22.6417 28.2969 22.77 28.7552L24.31 34.8327C24.4933 35.4561 24.5483 35.9602 24.475 36.3452C24.4017 36.7119 24.1725 36.9686 23.7875 37.1152C23.4025 37.2619 23.0725 37.2711 22.7975 37.1427C22.5225 36.9961 22.2475 36.7302 21.9725 36.3452C21.0375 34.7869 20.0842 33.5311 19.1125 32.5777C18.1592 31.6244 17.1692 30.9369 16.1425 30.5152C15.1158 30.0936 14.0433 29.8827 12.925 29.8827C11.5683 29.8827 10.5508 30.1669 9.8725 30.7352C9.19417 31.3036 8.855 32.0552 8.855 32.9902C8.855 33.5952 9.00167 34.1361 9.295 34.6127C9.60667 35.0894 10.1842 35.5294 11.0275 35.9327C11.8892 36.3361 13.1267 36.7211 14.74 37.0877C17.1417 37.6011 19.0392 38.2886 20.4325 39.1502C21.8258 39.9936 22.825 41.0111 23.43 42.2027C24.0533 43.3944 24.365 44.7694 24.365 46.3277C24.365 48.0144 23.925 49.4811 23.045 50.7277C22.1833 51.9744 20.9917 52.9461 19.47 53.6427C17.9667 54.3394 16.2433 54.6877 14.3 54.6877C13.1083 54.6877 12.1367 54.5594 11.385 54.3027C10.6333 54.0644 10.0192 53.8261 9.5425 53.5877C9.06583 53.3494 8.65333 53.2302 8.305 53.2302C7.95667 53.2302 7.59917 53.3494 7.2325 53.5877C6.88417 53.8077 6.53583 54.0369 6.1875 54.2752C5.83917 54.5136 5.5 54.6327 5.17 54.6327C4.895 54.6327 4.65667 54.5319 4.455 54.3302C4.25333 54.1286 4.10667 53.7802 4.015 53.2852L3.025 47.7302C2.915 47.0702 2.90583 46.5752 2.9975 46.2452C3.08917 45.9152 3.3 45.6769 3.63 45.5302C3.99667 45.3836 4.3175 45.4019 4.5925 45.5852C4.88583 45.7502 5.18833 46.0527 5.5 46.4927C6.82 48.6011 8.15833 50.1044 9.515 51.0027C10.8717 51.8827 12.2375 52.3227 13.6125 52.3227ZM42.2082 54.0827H38.7707C38.239 54.0827 37.7807 53.9636 37.3957 53.7252C37.0107 53.4686 36.7082 53.0377 36.4882 52.4327L29.3657 32.1927C29.164 31.6244 28.9715 31.2394 28.7882 31.0377C28.6232 30.8361 28.4124 30.6986 28.1557 30.6252L27.3307 30.3777C27.0374 30.2677 26.8265 30.1302 26.6982 29.9652C26.5882 29.8002 26.5332 29.5802 26.5332 29.3052C26.5332 28.9752 26.6524 28.7186 26.8907 28.5352C27.129 28.3336 27.4499 28.2327 27.8532 28.2327H40.8057C41.209 28.2327 41.5299 28.3336 41.7682 28.5352C42.0065 28.7186 42.1257 28.9752 42.1257 29.3052C42.1257 29.5802 42.0524 29.8002 41.9057 29.9652C41.759 30.1302 41.5024 30.2586 41.1357 30.3502L40.1182 30.5702C39.6232 30.6802 39.3207 30.9186 39.2107 31.2852C39.119 31.6519 39.2382 32.3302 39.5682 33.3202L44.6007 48.4452L42.4557 51.0577L48.8082 32.6327L51.0357 34.0627L44.4632 52.5977C44.2432 53.1844 43.9224 53.5786 43.5007 53.7802C43.0974 53.9819 42.6665 54.0827 42.2082 54.0827ZM59.7807 54.0827H56.4257C55.9124 54.0827 55.454 53.9544 55.0507 53.6977C54.6657 53.4411 54.3632 53.0194 54.1432 52.4327L47.2682 32.1377C47.0665 31.5694 46.874 31.1936 46.6907 31.0102C46.5257 30.8086 46.3332 30.6711 46.1132 30.5977L45.3707 30.3777C45.0774 30.2677 44.8665 30.1302 44.7382 29.9652C44.6099 29.8002 44.5457 29.5802 44.5457 29.3052C44.5457 28.5902 44.9949 28.2327 45.8932 28.2327H58.5432C59.4232 28.2327 59.8632 28.5902 59.8632 29.3052C59.8632 29.5802 59.7899 29.8094 59.6432 29.9927C59.4965 30.1577 59.2765 30.2677 58.9832 30.3227L57.6632 30.5702C57.1682 30.6619 56.8749 30.9002 56.7832 31.2852C56.7099 31.6702 56.8199 32.3211 57.1132 33.2377L62.0082 48.5002L59.9732 51.1127L65.3082 34.1177C65.6932 32.9077 65.8215 32.0461 65.6932 31.5327C65.5832 31.0194 65.2257 30.6986 64.6207 30.5702L63.6582 30.3502C63.3099 30.2586 63.0532 30.1302 62.8882 29.9652C62.7415 29.8002 62.6682 29.5802 62.6682 29.3052C62.6682 28.9752 62.7874 28.7186 63.0257 28.5352C63.264 28.3336 63.5849 28.2327 63.9882 28.2327H70.5057C70.9274 28.2327 71.2574 28.3336 71.4957 28.5352C71.734 28.7186 71.8532 28.9752 71.8532 29.3052C71.8532 29.5436 71.789 29.7544 71.6607 29.9377C71.5324 30.1027 71.294 30.2402 70.9457 30.3502L70.2582 30.5427C69.8915 30.6894 69.5524 31.0102 69.2407 31.5052C68.929 32.0002 68.5899 32.7794 68.2232 33.8427L62.0357 52.5977C61.834 53.1661 61.5224 53.5602 61.1007 53.7802C60.679 53.9819 60.239 54.0827 59.7807 54.0827ZM98.447 38.2152C98.447 39.0769 98.2087 39.7461 97.732 40.2227C97.2553 40.6994 96.5495 40.9377 95.6145 40.9377H78.7845V38.9852H88.052C88.8403 38.9852 89.2345 38.6094 89.2345 37.8577C89.2345 35.1811 88.8678 33.2194 88.1345 31.9727C87.4195 30.7261 86.4937 30.1027 85.357 30.1027C84.5137 30.1027 83.7528 30.4052 83.0745 31.0102C82.4145 31.5969 81.892 32.4952 81.507 33.7052C81.122 34.8969 80.9295 36.4094 80.9295 38.2427C80.9295 41.7811 81.7178 44.4027 83.2945 46.1077C84.8712 47.7944 86.9795 48.6377 89.6195 48.6377C91.1962 48.6377 92.562 48.3352 93.717 47.7302C94.872 47.1069 95.752 46.1811 96.357 44.9527C96.6687 44.6227 96.9162 44.4027 97.0995 44.2927C97.2828 44.1827 97.457 44.1277 97.622 44.1277C97.8787 44.1277 98.062 44.2469 98.172 44.4852C98.3003 44.7236 98.3645 45.0169 98.3645 45.3652C98.3278 47.0519 97.787 48.6102 96.742 50.0402C95.697 51.4519 94.267 52.5794 92.452 53.4227C90.637 54.2661 88.5562 54.6877 86.2095 54.6877C83.5695 54.6877 81.2228 54.1469 79.1695 53.0652C77.1162 51.9836 75.5028 50.4711 74.3295 48.5277C73.1562 46.5661 72.5695 44.2927 72.5695 41.7077C72.5695 38.8844 73.1287 36.4186 74.247 34.3102C75.3653 32.1836 76.9695 30.5244 79.0595 29.3327C81.1678 28.1411 83.6703 27.5452 86.567 27.5452C89.1153 27.5452 91.2695 28.0127 93.0295 28.9477C94.8078 29.8644 96.1553 31.1294 97.072 32.7427C97.9887 34.3377 98.447 36.1619 98.447 38.2152ZM127.182 38.2152C127.182 39.0769 126.944 39.7461 126.467 40.2227C125.991 40.6994 125.285 40.9377 124.35 40.9377H107.52V38.9852H116.787C117.576 38.9852 117.97 38.6094 117.97 37.8577C117.97 35.1811 117.603 33.2194 116.87 31.9727C116.155 30.7261 115.229 30.1027 114.092 30.1027C113.249 30.1027 112.488 30.4052 111.81 31.0102C111.15 31.5969 110.627 32.4952 110.242 33.7052C109.857 34.8969 109.665 36.4094 109.665 38.2427C109.665 41.7811 110.453 44.4027 112.03 46.1077C113.607 47.7944 115.715 48.6377 118.355 48.6377C119.932 48.6377 121.297 48.3352 122.452 47.7302C123.607 47.1069 124.487 46.1811 125.092 44.9527C125.404 44.6227 125.652 44.4027 125.835 44.2927C126.018 44.1827 126.192 44.1277 126.357 44.1277C126.614 44.1277 126.797 44.2469 126.907 44.4852C127.036 44.7236 127.1 45.0169 127.1 45.3652C127.063 47.0519 126.522 48.6102 125.477 50.0402C124.432 51.4519 123.002 52.5794 121.187 53.4227C119.372 54.2661 117.292 54.6877 114.945 54.6877C112.305 54.6877 109.958 54.1469 107.905 53.0652C105.852 51.9836 104.238 50.4711 103.065 48.5277C101.892 46.5661 101.305 44.2927 101.305 41.7077C101.305 38.8844 101.864 36.4186 102.982 34.3102C104.101 32.1836 105.705 30.5244 107.795 29.3327C109.903 28.1411 112.406 27.5452 115.302 27.5452C117.851 27.5452 120.005 28.0127 121.765 28.9477C123.543 29.8644 124.891 31.1294 125.807 32.7427C126.724 34.3377 127.182 36.1619 127.182 38.2152ZM131.553 30.7627L130.15 30.3777C129.82 30.2494 129.582 30.1027 129.435 29.9377C129.289 29.7544 129.215 29.5436 129.215 29.3052C129.215 28.9569 129.325 28.6911 129.545 28.5077C129.784 28.3244 130.086 28.2327 130.453 28.2327H132.24C132.552 28.2327 132.827 28.1686 133.065 28.0402C133.304 27.9119 133.579 27.6736 133.89 27.3252L138.428 22.6502C138.831 22.2286 139.207 21.9169 139.555 21.7152C139.904 21.5136 140.243 21.4127 140.573 21.4127C140.939 21.4127 141.224 21.5319 141.425 21.7702C141.645 22.0086 141.755 22.3477 141.755 22.7877V45.5577C141.755 46.9511 142.003 48.0052 142.498 48.7202C143.011 49.4169 143.726 49.7652 144.643 49.7652C145.229 49.7652 145.697 49.6369 146.045 49.3802C146.412 49.1236 146.705 48.8211 146.925 48.4727C147.164 48.1244 147.393 47.7852 147.613 47.4552C147.851 47.1069 148.126 46.8502 148.438 46.6852C148.676 46.6486 148.878 46.7127 149.043 46.8777C149.208 47.0244 149.29 47.3086 149.29 47.7302C149.199 49.0502 148.786 50.2327 148.053 51.2777C147.338 52.3227 146.348 53.1477 145.083 53.7527C143.836 54.3394 142.379 54.6327 140.71 54.6327C138.107 54.6327 136.09 54.0094 134.66 52.7627C133.249 51.4977 132.543 49.5819 132.543 47.0152V32.1652C132.543 31.7436 132.46 31.4411 132.295 31.2577C132.149 31.0561 131.901 30.8911 131.553 30.7627ZM138.51 30.8177L138.593 28.2327H147.888C148.273 28.2327 148.575 28.3152 148.795 28.4802C149.015 28.6452 149.125 28.8836 149.125 29.1952C149.125 29.6536 148.896 30.0386 148.438 30.3502C147.979 30.6619 147.246 30.8177 146.238 30.8177H138.51ZM165.275 30.5702L163.515 30.1852C163.167 30.0752 162.919 29.9561 162.773 29.8277C162.644 29.6994 162.58 29.5436 162.58 29.3602C162.58 29.1402 162.653 28.9752 162.8 28.8652C162.965 28.7552 163.176 28.7002 163.433 28.7002H165.413C165.798 28.7002 166.109 28.6361 166.348 28.5077C166.604 28.3794 166.824 28.1502 167.008 27.8202L169.675 23.5302C169.895 23.2002 170.106 22.9619 170.308 22.8152C170.528 22.6686 170.757 22.5952 170.995 22.5952C171.252 22.5952 171.444 22.6777 171.573 22.8427C171.719 22.9894 171.793 23.2094 171.793 23.5027V47.5377C171.793 48.8394 172.058 49.8294 172.59 50.5077C173.122 51.1677 173.855 51.4977 174.79 51.4977C175.377 51.4977 175.853 51.4061 176.22 51.2227C176.587 51.0394 176.88 50.8102 177.1 50.5352C177.338 50.2602 177.558 49.9944 177.76 49.7377C177.962 49.4627 178.182 49.2611 178.42 49.1327C178.603 49.1144 178.75 49.1602 178.86 49.2702C178.97 49.3802 179.016 49.5727 178.998 49.8477C178.924 50.6911 178.613 51.4611 178.063 52.1577C177.513 52.8544 176.779 53.4136 175.863 53.8352C174.946 54.2569 173.892 54.4677 172.7 54.4677C170.738 54.4677 169.18 53.9636 168.025 52.9552C166.87 51.9469 166.293 50.4252 166.293 48.3902V31.8627C166.293 31.4961 166.219 31.2211 166.073 31.0377C165.926 30.8361 165.66 30.6802 165.275 30.5702ZM169.483 30.4052L169.51 28.7002H177.925C178.237 28.7002 178.466 28.7552 178.613 28.8652C178.759 28.9752 178.833 29.1402 178.833 29.3602C178.833 29.6536 178.677 29.9011 178.365 30.1027C178.072 30.3044 177.595 30.4052 176.935 30.4052H169.483ZM190.399 39.9752C190.399 37.4086 190.765 35.2452 191.499 33.4852C192.25 31.7252 193.222 30.3961 194.414 29.4977C195.605 28.5811 196.861 28.1227 198.181 28.1227C199.74 28.1227 200.95 28.5627 201.811 29.4427C202.673 30.3227 203.104 31.5327 203.104 33.0727C203.104 34.2827 202.838 35.1994 202.306 35.8227C201.793 36.4277 201.124 36.7302 200.299 36.7302C199.492 36.7302 198.86 36.5102 198.401 36.0702C197.961 35.6119 197.741 34.9519 197.741 34.0902V33.2102C197.723 32.5869 197.576 32.1194 197.301 31.8077C197.026 31.4961 196.559 31.3402 195.899 31.3402C195.129 31.3402 194.377 31.6611 193.644 32.3027C192.929 32.9444 192.333 33.9069 191.856 35.1902C191.398 36.4552 191.169 38.0594 191.169 40.0027L190.399 39.9752ZM190.949 29.4702L191.169 36.7302V50.8102C191.169 51.2136 191.26 51.5252 191.444 51.7452C191.645 51.9469 191.957 52.0844 192.379 52.1577L194.936 52.5152C195.23 52.5519 195.45 52.6344 195.596 52.7627C195.743 52.8911 195.816 53.0652 195.816 53.2852C195.816 53.5052 195.734 53.6794 195.569 53.8077C195.404 53.9361 195.156 54.0002 194.826 54.0002H183.414C183.084 54.0002 182.836 53.9361 182.671 53.8077C182.525 53.6794 182.451 53.5052 182.451 53.2852C182.451 53.1019 182.515 52.9552 182.644 52.8452C182.772 52.7169 182.965 52.6161 183.221 52.5427L184.651 52.2677C184.963 52.1761 185.201 52.0294 185.366 51.8277C185.531 51.6077 185.614 51.2961 185.614 50.8927V32.9352C185.614 32.6052 185.559 32.3669 185.449 32.2202C185.339 32.0552 185.155 31.9544 184.899 31.9177L182.919 31.8627C182.68 31.8261 182.506 31.7619 182.396 31.6702C182.305 31.5602 182.259 31.4227 182.259 31.2577C182.259 31.0744 182.314 30.9186 182.424 30.7902C182.552 30.6619 182.772 30.5519 183.084 30.4602L188.171 28.8377C188.721 28.6361 189.134 28.5077 189.409 28.4527C189.684 28.3794 189.904 28.3427 190.069 28.3427C190.344 28.3427 190.545 28.4344 190.674 28.6177C190.82 28.8011 190.912 29.0852 190.949 29.4702ZM222.092 50.8377V50.3977L221.789 50.3152V34.3927C221.789 32.7977 221.404 31.5786 220.634 30.7352C219.883 29.8736 218.801 29.4427 217.389 29.4427C215.996 29.4427 214.951 29.7452 214.254 30.3502C213.576 30.9552 213.237 31.6519 213.237 32.4402V34.5027C213.237 35.3644 212.953 36.0336 212.384 36.5102C211.834 36.9869 211.083 37.2252 210.129 37.2252C209.323 37.2252 208.69 37.0052 208.232 36.5652C207.792 36.1252 207.572 35.5202 207.572 34.7502C207.572 33.6686 207.984 32.6236 208.809 31.6152C209.653 30.6069 210.872 29.7819 212.467 29.1402C214.08 28.4802 216.033 28.1502 218.324 28.1502C221.349 28.1502 223.595 28.8011 225.062 30.1027C226.547 31.4044 227.289 33.1736 227.289 35.4102V50.2052C227.289 50.8469 227.408 51.3144 227.647 51.6077C227.885 51.8827 228.197 52.0202 228.582 52.0202C229.003 52.0202 229.315 51.9194 229.517 51.7177C229.737 51.4977 229.911 51.2594 230.039 51.0027C230.113 50.9111 230.186 50.8286 230.259 50.7552C230.333 50.6819 230.424 50.6452 230.534 50.6452C230.699 50.6452 230.809 50.7002 230.864 50.8102C230.938 50.9202 230.974 51.0669 230.974 51.2502C230.974 51.7269 230.809 52.2219 230.479 52.7352C230.149 53.2486 229.654 53.6794 228.994 54.0277C228.334 54.3944 227.491 54.5777 226.464 54.5777C225.071 54.5777 223.989 54.2569 223.219 53.6152C222.468 52.9552 222.092 52.0294 222.092 50.8377ZM206.307 48.4177C206.307 46.3094 207.223 44.5952 209.057 43.2752C210.908 41.9369 213.521 41.2677 216.894 41.2677C218.159 41.2677 219.287 41.3869 220.277 41.6252C221.267 41.8452 222.147 42.1386 222.917 42.5052L222.559 43.6327C221.808 43.3211 221.038 43.0644 220.249 42.8627C219.461 42.6427 218.59 42.5327 217.637 42.5327C215.858 42.5327 214.474 42.9819 213.484 43.8802C212.513 44.7602 212.027 45.9702 212.027 47.5102C212.027 49.0136 212.439 50.1777 213.264 51.0027C214.108 51.8094 215.18 52.2127 216.482 52.2127C217.637 52.2127 218.746 51.9561 219.809 51.4427C220.873 50.9294 221.789 50.1961 222.559 49.2427L223.027 50.2052C222.018 51.6169 220.698 52.7077 219.067 53.4777C217.453 54.2294 215.73 54.6052 213.897 54.6052C211.66 54.6052 209.836 54.0461 208.424 52.9277C207.013 51.7911 206.307 50.2877 206.307 48.4177ZM253.617 49.7927L253.48 49.6277V18.0577C253.48 17.7277 253.425 17.4894 253.315 17.3427C253.205 17.1961 253.022 17.1044 252.765 17.0677L250.812 17.0127C250.574 16.9761 250.4 16.9119 250.29 16.8202C250.18 16.7102 250.125 16.5727 250.125 16.4077C250.125 16.2061 250.18 16.0502 250.29 15.9402C250.418 15.8119 250.647 15.6927 250.977 15.5827L256.092 13.9052C256.551 13.7402 256.917 13.6302 257.192 13.5752C257.467 13.5019 257.715 13.4652 257.935 13.4652C258.302 13.4652 258.577 13.5661 258.76 13.7677C258.943 13.9694 259.035 14.2444 259.035 14.5927V50.8652C259.035 51.2869 259.117 51.6077 259.282 51.8277C259.447 52.0294 259.695 52.1761 260.025 52.2677L261.4 52.5427C261.657 52.5977 261.849 52.6894 261.977 52.8177C262.106 52.9461 262.17 53.1019 262.17 53.2852C262.17 53.5052 262.087 53.6794 261.922 53.8077C261.776 53.9361 261.537 54.0002 261.207 54.0002H255.817C255.139 54.0002 254.598 53.8077 254.195 53.4227C253.81 53.0377 253.617 52.4786 253.617 51.7452V49.7927ZM234.092 41.9827C234.092 39.1227 234.652 36.6569 235.77 34.5852C236.888 32.5136 238.382 30.9186 240.252 29.8002C242.122 28.6819 244.194 28.1227 246.467 28.1227C248.557 28.1227 250.4 28.6269 251.995 29.6352C253.59 30.6252 254.873 32.0186 255.845 33.8152L254.745 34.8877C253.883 33.3661 252.82 32.1927 251.555 31.3677C250.308 30.5427 248.933 30.1302 247.43 30.1302C246.018 30.1302 244.735 30.5427 243.58 31.3677C242.443 32.1744 241.545 33.4119 240.885 35.0802C240.225 36.7302 239.895 38.8202 239.895 41.3502C239.895 43.7152 240.207 45.6952 240.83 47.2902C241.453 48.8669 242.306 50.0586 243.387 50.8652C244.487 51.6719 245.734 52.0752 247.127 52.0752C248.484 52.0752 249.795 51.6902 251.06 50.9202C252.325 50.1319 253.489 48.9494 254.552 47.3727L255.295 48.4727C253.865 50.4894 252.297 52.0202 250.592 53.0652C248.887 54.0919 247.027 54.6052 245.01 54.6052C242.92 54.6052 241.05 54.0736 239.4 53.0102C237.768 51.9469 236.476 50.4711 235.522 48.5827C234.569 46.6761 234.092 44.4761 234.092 41.9827ZM274.476 29.4427V50.8652C274.476 51.2869 274.549 51.6077 274.696 51.8277C274.861 52.0294 275.108 52.1761 275.438 52.2677L276.813 52.5427C277.088 52.5977 277.281 52.6894 277.391 52.8177C277.519 52.9461 277.583 53.1019 277.583 53.2852C277.583 53.5052 277.501 53.6794 277.336 53.8077C277.189 53.9361 276.951 54.0002 276.621 54.0002H266.693C266.363 54.0002 266.116 53.9361 265.951 53.8077C265.804 53.6794 265.731 53.5052 265.731 53.2852C265.731 53.1202 265.786 52.9736 265.896 52.8452C266.024 52.7169 266.217 52.6161 266.473 52.5427L267.931 52.2677C268.261 52.1761 268.508 52.0294 268.673 51.8277C268.838 51.6077 268.921 51.2869 268.921 50.8652V32.9077C268.921 32.5777 268.857 32.3394 268.728 32.1927C268.618 32.0461 268.435 31.9544 268.178 31.9177L266.226 31.8627C265.987 31.8261 265.813 31.7619 265.703 31.6702C265.593 31.5602 265.538 31.4227 265.538 31.2577C265.538 31.0744 265.602 30.9277 265.731 30.8177C265.859 30.6894 266.079 30.5702 266.391 30.4602L271.506 28.7827C271.982 28.5994 272.358 28.4802 272.633 28.4252C272.908 28.3519 273.147 28.3152 273.348 28.3152C273.715 28.3152 273.99 28.4161 274.173 28.6177C274.375 28.8194 274.476 29.0944 274.476 29.4427ZM271.203 23.3927C270.085 23.3927 269.177 23.0719 268.481 22.4302C267.802 21.7886 267.463 20.9636 267.463 19.9552C267.463 18.9652 267.812 18.1586 268.508 17.5352C269.205 16.8936 270.103 16.5727 271.203 16.5727C272.322 16.5727 273.229 16.8936 273.926 17.5352C274.622 18.1769 274.971 18.9836 274.971 19.9552C274.971 20.9636 274.622 21.7886 273.926 22.4302C273.229 23.0719 272.322 23.3927 271.203 23.3927ZM282.687 30.5702L280.927 30.1852C280.579 30.0752 280.331 29.9561 280.185 29.8277C280.056 29.6994 279.992 29.5436 279.992 29.3602C279.992 29.1402 280.065 28.9752 280.212 28.8652C280.377 28.7552 280.588 28.7002 280.845 28.7002H282.825C283.21 28.7002 283.521 28.6361 283.76 28.5077C284.016 28.3794 284.236 28.1502 284.42 27.8202L287.087 23.5302C287.307 23.2002 287.518 22.9619 287.72 22.8152C287.94 22.6686 288.169 22.5952 288.407 22.5952C288.664 22.5952 288.856 22.6777 288.985 22.8427C289.131 22.9894 289.205 23.2094 289.205 23.5027V47.5377C289.205 48.8394 289.47 49.8294 290.002 50.5077C290.534 51.1677 291.267 51.4977 292.202 51.4977C292.789 51.4977 293.265 51.4061 293.632 51.2227C293.999 51.0394 294.292 50.8102 294.512 50.5352C294.75 50.2602 294.97 49.9944 295.172 49.7377C295.374 49.4627 295.594 49.2611 295.832 49.1327C296.015 49.1144 296.162 49.1602 296.272 49.2702C296.382 49.3802 296.428 49.5727 296.41 49.8477C296.336 50.6911 296.025 51.4611 295.475 52.1577C294.925 52.8544 294.191 53.4136 293.275 53.8352C292.358 54.2569 291.304 54.4677 290.112 54.4677C288.15 54.4677 286.592 53.9636 285.437 52.9552C284.282 51.9469 283.705 50.4252 283.705 48.3902V31.8627C283.705 31.4961 283.631 31.2211 283.485 31.0377C283.338 30.8361 283.072 30.6802 282.687 30.5702ZM286.895 30.4052L286.922 28.7002H295.337C295.649 28.7002 295.878 28.7552 296.025 28.8652C296.171 28.9752 296.245 29.1402 296.245 29.3602C296.245 29.6536 296.089 29.9011 295.777 30.1027C295.484 30.3044 295.007 30.4052 294.347 30.4052H286.895ZM308.636 29.4427V50.8652C308.636 51.2869 308.709 51.6077 308.856 51.8277C309.021 52.0294 309.268 52.1761 309.598 52.2677L310.973 52.5427C311.248 52.5977 311.441 52.6894 311.551 52.8177C311.679 52.9461 311.743 53.1019 311.743 53.2852C311.743 53.5052 311.661 53.6794 311.496 53.8077C311.349 53.9361 311.111 54.0002 310.781 54.0002H300.853C300.523 54.0002 300.276 53.9361 300.111 53.8077C299.964 53.6794 299.891 53.5052 299.891 53.2852C299.891 53.1202 299.946 52.9736 300.056 52.8452C300.184 52.7169 300.377 52.6161 300.633 52.5427L302.091 52.2677C302.421 52.1761 302.668 52.0294 302.833 51.8277C302.998 51.6077 303.081 51.2869 303.081 50.8652V32.9077C303.081 32.5777 303.017 32.3394 302.888 32.1927C302.778 32.0461 302.595 31.9544 302.338 31.9177L300.386 31.8627C300.148 31.8261 299.973 31.7619 299.863 31.6702C299.753 31.5602 299.698 31.4227 299.698 31.2577C299.698 31.0744 299.763 30.9277 299.891 30.8177C300.019 30.6894 300.239 30.5702 300.551 30.4602L305.666 28.7827C306.143 28.5994 306.518 28.4802 306.793 28.4252C307.068 28.3519 307.307 28.3152 307.508 28.3152C307.875 28.3152 308.15 28.4161 308.333 28.6177C308.535 28.8194 308.636 29.0944 308.636 29.4427ZM305.363 23.3927C304.245 23.3927 303.338 23.0719 302.641 22.4302C301.963 21.7886 301.623 20.9636 301.623 19.9552C301.623 18.9652 301.972 18.1586 302.668 17.5352C303.365 16.8936 304.263 16.5727 305.363 16.5727C306.482 16.5727 307.389 16.8936 308.086 17.5352C308.783 18.1769 309.131 18.9836 309.131 19.9552C309.131 20.9636 308.783 21.7886 308.086 22.4302C307.389 23.0719 306.482 23.3927 305.363 23.3927ZM328.535 28.1502C331.12 28.1502 333.402 28.7186 335.382 29.8552C337.381 30.9736 338.939 32.5319 340.057 34.5302C341.194 36.5102 341.762 38.8111 341.762 41.4327C341.762 43.9811 341.185 46.2452 340.03 48.2252C338.893 50.2052 337.316 51.7636 335.3 52.9002C333.283 54.0369 330.955 54.6052 328.315 54.6052C325.73 54.6052 323.447 54.0461 321.467 52.9277C319.487 51.8094 317.929 50.2511 316.792 48.2527C315.674 46.2544 315.115 43.9627 315.115 41.3777C315.115 38.8111 315.683 36.5377 316.82 34.5577C317.956 32.5594 319.533 30.9919 321.55 29.8552C323.566 28.7186 325.895 28.1502 328.535 28.1502ZM330.267 52.7627C331.752 52.5794 332.971 51.9744 333.925 50.9477C334.878 49.9211 335.52 48.5186 335.85 46.7402C336.198 44.9619 336.189 42.8536 335.822 40.4152C335.456 37.9586 334.841 35.9236 333.98 34.3102C333.118 32.6786 332.055 31.4961 330.79 30.7627C329.525 30.0294 328.131 29.7636 326.61 29.9652C325.106 30.1669 323.878 30.7902 322.925 31.8352C321.971 32.8619 321.33 34.2644 321 36.0427C320.688 37.8211 320.706 39.9202 321.055 42.3402C321.421 44.7786 322.036 46.8136 322.897 48.4452C323.777 50.0586 324.85 51.2319 326.115 51.9652C327.38 52.6986 328.764 52.9644 330.267 52.7627ZM354.558 29.4427V50.8652C354.558 51.2869 354.64 51.6077 354.805 51.8277C354.97 52.0294 355.208 52.1761 355.52 52.2677L356.895 52.5427C357.353 52.6894 357.583 52.9277 357.583 53.2577C357.583 53.7527 357.262 54.0002 356.62 54.0002H346.775C346.463 54.0002 346.225 53.9361 346.06 53.8077C345.913 53.6794 345.84 53.5052 345.84 53.2852C345.84 53.1202 345.895 52.9736 346.005 52.8452C346.133 52.7169 346.326 52.6161 346.583 52.5427L348.013 52.2677C348.343 52.1761 348.59 52.0294 348.755 51.8277C348.92 51.6077 349.003 51.2869 349.003 50.8652V32.9077C349.003 32.5777 348.948 32.3394 348.838 32.1927C348.728 32.0461 348.535 31.9544 348.26 31.9177L346.335 31.8627C346.078 31.8261 345.895 31.7619 345.785 31.6702C345.693 31.5602 345.648 31.4227 345.648 31.2577C345.648 31.0744 345.703 30.9277 345.813 30.8177C345.941 30.6894 346.161 30.5702 346.473 30.4602L351.588 28.7827C352.046 28.6177 352.413 28.4986 352.688 28.4252C352.981 28.3519 353.238 28.3152 353.458 28.3152C353.824 28.3152 354.099 28.4161 354.283 28.6177C354.466 28.8194 354.558 29.0944 354.558 29.4427ZM353.87 35.0527L353.045 34.2002L354.173 33.2102C356.226 31.3769 357.986 30.0752 359.453 29.3052C360.919 28.5169 362.34 28.1227 363.715 28.1227C365.787 28.1227 367.391 28.8102 368.528 30.1852C369.683 31.5602 370.398 33.4577 370.673 35.8777L372.488 50.7277C372.543 51.1861 372.653 51.5436 372.818 51.8002C372.983 52.0386 373.248 52.2036 373.615 52.2952L374.853 52.5427C375.109 52.6161 375.293 52.7169 375.403 52.8452C375.531 52.9736 375.595 53.1202 375.595 53.2852C375.595 53.5052 375.522 53.6794 375.375 53.8077C375.228 53.9361 374.981 54.0002 374.633 54.0002H364.705C364.045 54.0002 363.715 53.7527 363.715 53.2577C363.715 52.9277 363.944 52.6894 364.403 52.5427L365.833 52.2677C366.199 52.1761 366.474 52.0111 366.658 51.7727C366.859 51.5161 366.933 51.1677 366.878 50.7277L365.145 36.6752C364.925 34.8602 364.467 33.5127 363.77 32.6327C363.073 31.7344 362.056 31.2852 360.718 31.2852C359.856 31.2852 358.958 31.5236 358.023 32.0002C357.106 32.4586 356.098 33.1552 354.998 34.0902L353.87 35.0527Z" fill="#F06C9B"/>
<path d="M310.116 13.3374H298.929C297.661 13.3374 296.629 14.3435 296.629 15.5803C296.629 16.8171 297.661 17.8232 298.929 17.8232H310.116C311.384 17.8232 312.416 16.8171 312.416 15.5803C312.416 14.3435 311.384 13.3374 310.116 13.3374Z" fill="url(#paint0_linear_66_2452)"/>
<path d="M310.116 13.3374H298.929C297.661 13.3374 296.629 14.3435 296.629 15.5803C296.629 16.8171 297.661 17.8232 298.929 17.8232H310.116C311.384 17.8232 312.416 16.8171 312.416 15.5803C312.416 14.3435 311.384 13.3374 310.116 13.3374Z" fill="url(#paint1_linear_66_2452)"/>
<path d="M310.116 13.3374H298.929C297.661 13.3374 296.629 14.3435 296.629 15.5803C296.629 16.8171 297.661 17.8232 298.929 17.8232H310.116C311.384 17.8232 312.416 16.8171 312.416 15.5803C312.416 14.3435 311.384 13.3374 310.116 13.3374Z" fill="url(#paint2_radial_66_2452)"/>
<path d="M310.116 13.3374H298.929C297.661 13.3374 296.629 14.3435 296.629 15.5803C296.629 16.8171 297.661 17.8232 298.929 17.8232H310.116C311.384 17.8232 312.416 16.8171 312.416 15.5803C312.416 14.3435 311.384 13.3374 310.116 13.3374Z" fill="url(#paint3_radial_66_2452)"/>
<path d="M310.116 13.3374H298.929C297.661 13.3374 296.629 14.3435 296.629 15.5803C296.629 16.8171 297.661 17.8232 298.929 17.8232H310.116C311.384 17.8232 312.416 16.8171 312.416 15.5803C312.416 14.3435 311.384 13.3374 310.116 13.3374Z" fill="url(#paint4_radial_66_2452)"/>
<path d="M310.116 13.3374H298.929C297.661 13.3374 296.629 14.3435 296.629 15.5803C296.629 16.8171 297.661 17.8232 298.929 17.8232H310.116C311.384 17.8232 312.416 16.8171 312.416 15.5803C312.416 14.3435 311.384 13.3374 310.116 13.3374Z" fill="url(#paint5_radial_66_2452)"/>
<g filter="url(#filter0_f_66_2452)">
<path d="M308.144 10.9478H300.908C297.95 10.9478 298.57 14.7222 300.901 14.7222H304.496C305.564 14.7222 308.063 14.8465 308.063 14.8465C310.654 14.8465 311.112 10.9478 308.144 10.9478Z" fill="url(#paint6_linear_66_2452)"/>
</g>
<path d="M308.144 10.1333H300.908C300.606 10.1329 300.306 10.1905 300.027 10.3028C299.748 10.4151 299.494 10.58 299.28 10.788C298.848 11.208 298.605 11.7781 298.604 12.373C298.603 12.9678 298.845 13.5386 299.276 13.9599C299.706 14.3811 300.291 14.6182 300.901 14.6191H308.138C309.406 14.6191 310.438 13.613 310.438 12.3762C310.445 11.133 309.413 10.1333 308.144 10.1333Z" fill="url(#paint7_linear_66_2452)"/>
<path d="M308.144 10.1333H300.908C300.606 10.1329 300.306 10.1905 300.027 10.3028C299.748 10.4151 299.494 10.58 299.28 10.788C298.848 11.208 298.605 11.7781 298.604 12.373C298.603 12.9678 298.845 13.5386 299.276 13.9599C299.706 14.3811 300.291 14.6182 300.901 14.6191H308.138C309.406 14.6191 310.438 13.613 310.438 12.3762C310.445 11.133 309.413 10.1333 308.144 10.1333Z" fill="url(#paint8_radial_66_2452)"/>
<path d="M308.144 10.1333H300.908C300.606 10.1329 300.306 10.1905 300.027 10.3028C299.748 10.4151 299.494 10.58 299.28 10.788C298.848 11.208 298.605 11.7781 298.604 12.373C298.603 12.9678 298.845 13.5386 299.276 13.9599C299.706 14.3811 300.291 14.6182 300.901 14.6191H308.138C309.406 14.6191 310.438 13.613 310.438 12.3762C310.445 11.133 309.413 10.1333 308.144 10.1333Z" fill="url(#paint9_radial_66_2452)"/>
<g filter="url(#filter1_f_66_2452)">
<path d="M301.363 9.58103C301.363 11.1491 303.204 11.3023 304.492 11.2087C305.725 11.119 307.545 11.128 307.545 9.58103C305.898 8.05459 302.665 8.33463 301.363 9.58103Z" fill="#D73A7E"/>
</g>
<path d="M307.309 8.30057C307.27 8.26212 307.231 8.23008 307.185 8.19163L305.259 6.55113C304.838 6.19227 304.207 6.19227 303.787 6.55113L301.795 8.2429C301.453 8.53768 301.236 8.96703 301.236 9.45406C301.236 10.9984 303.252 11.0561 304.523 11.0561C305.757 11.0561 307.809 10.9177 307.809 9.45406C307.816 8.99907 307.618 8.58894 307.309 8.30057Z" fill="#F252B5"/>
<path d="M307.309 8.30057C307.27 8.26212 307.231 8.23008 307.185 8.19163L305.259 6.55113C304.838 6.19227 304.207 6.19227 303.787 6.55113L301.795 8.2429C301.453 8.53768 301.236 8.96703 301.236 9.45406C301.236 10.9984 303.252 11.0561 304.523 11.0561C305.757 11.0561 307.809 10.9177 307.809 9.45406C307.816 8.99907 307.618 8.58894 307.309 8.30057Z" fill="url(#paint10_radial_66_2452)"/>
<path d="M307.309 8.30057C307.27 8.26212 307.231 8.23008 307.185 8.19163L305.259 6.55113C304.838 6.19227 304.207 6.19227 303.787 6.55113L301.795 8.2429C301.453 8.53768 301.236 8.96703 301.236 9.45406C301.236 10.9984 303.252 11.0561 304.523 11.0561C305.757 11.0561 307.809 10.9177 307.809 9.45406C307.816 8.99907 307.618 8.58894 307.309 8.30057Z" fill="url(#paint11_radial_66_2452)"/>
<path d="M307.309 8.30057C307.27 8.26212 307.231 8.23008 307.185 8.19163L305.259 6.55113C304.838 6.19227 304.207 6.19227 303.787 6.55113L301.795 8.2429C301.453 8.53768 301.236 8.96703 301.236 9.45406C301.236 10.9984 303.252 11.0561 304.523 11.0561C305.757 11.0561 307.809 10.9177 307.809 9.45406C307.816 8.99907 307.618 8.58894 307.309 8.30057Z" fill="url(#paint12_radial_66_2452)"/>
<path d="M310.589 17.8232H298.456C298.274 17.8229 298.095 17.8641 297.933 17.9435C297.77 18.0229 297.629 18.1383 297.52 18.2804C297.412 18.4225 297.339 18.5875 297.307 18.762C297.276 18.9366 297.287 19.1159 297.339 19.2856L298.726 23.8143C298.805 24.0578 299.041 24.2251 299.311 24.2251H309.741C310.004 24.2251 310.241 24.0584 310.326 23.8149L311.713 19.2856C311.764 19.1154 311.773 18.936 311.741 18.7616C311.708 18.5872 311.635 18.4225 311.526 18.2807C311.417 18.1388 311.275 18.0236 311.113 17.9442C310.95 17.8648 310.771 17.8234 310.589 17.8232Z" fill="url(#paint13_linear_66_2452)"/>
<path d="M310.589 17.8232H298.456C298.274 17.8229 298.095 17.8641 297.933 17.9435C297.77 18.0229 297.629 18.1383 297.52 18.2804C297.412 18.4225 297.339 18.5875 297.307 18.762C297.276 18.9366 297.287 19.1159 297.339 19.2856L298.726 23.8143C298.805 24.0578 299.041 24.2251 299.311 24.2251H309.741C310.004 24.2251 310.241 24.0584 310.326 23.8149L311.713 19.2856C311.764 19.1154 311.773 18.936 311.741 18.7616C311.708 18.5872 311.635 18.4225 311.526 18.2807C311.417 18.1388 311.275 18.0236 311.113 17.9442C310.95 17.8648 310.771 17.8234 310.589 17.8232Z" fill="url(#paint14_radial_66_2452)"/>
<path d="M310.589 17.8232H298.456C298.274 17.8229 298.095 17.8641 297.933 17.9435C297.77 18.0229 297.629 18.1383 297.52 18.2804C297.412 18.4225 297.339 18.5875 297.307 18.762C297.276 18.9366 297.287 19.1159 297.339 19.2856L298.726 23.8143C298.805 24.0578 299.041 24.2251 299.311 24.2251H309.741C310.004 24.2251 310.241 24.0584 310.326 23.8149L311.713 19.2856C311.764 19.1154 311.773 18.936 311.741 18.7616C311.708 18.5872 311.635 18.4225 311.526 18.2807C311.417 18.1388 311.275 18.0236 311.113 17.9442C310.95 17.8648 310.771 17.8234 310.589 17.8232Z" fill="url(#paint15_radial_66_2452)"/>
<g filter="url(#filter2_f_66_2452)">
<path d="M302.165 11.7443C302.034 11.6161 302.034 11.4175 302.165 11.2893L302.651 10.8151C302.783 10.687 302.987 10.687 303.118 10.8151C303.25 10.9433 303.25 11.1419 303.118 11.2701L302.625 11.7443C302.5 11.8725 302.29 11.8725 302.165 11.7443Z" fill="#C8397E"/>
</g>
<path d="M302.165 11.5976C302.034 11.4694 302.034 11.2708 302.165 11.1426L302.651 10.6684C302.783 10.5402 302.987 10.5402 303.118 10.6684C303.25 10.7966 303.25 10.9952 303.118 11.1234L302.625 11.5976C302.5 11.7257 302.29 11.7257 302.165 11.5976Z" fill="url(#paint16_linear_66_2452)"/>
<g filter="url(#filter3_f_66_2452)">
<path d="M301.736 16.753C301.703 16.7216 301.676 16.6841 301.659 16.6426C301.641 16.6011 301.631 16.5565 301.631 16.5114C301.631 16.4664 301.641 16.4218 301.659 16.3803C301.676 16.3388 301.703 16.3013 301.736 16.2699L302.253 15.7662C302.285 15.7338 302.323 15.708 302.366 15.6905C302.409 15.6729 302.454 15.6638 302.501 15.6638C302.547 15.6638 302.593 15.6729 302.635 15.6905C302.678 15.708 302.717 15.7338 302.749 15.7662C302.782 15.7976 302.808 15.8351 302.826 15.8766C302.844 15.9181 302.853 15.9627 302.853 16.0078C302.853 16.0528 302.844 16.0974 302.826 16.1389C302.808 16.1804 302.782 16.2179 302.749 16.2493L302.231 16.7537C302.199 16.786 302.161 16.8116 302.118 16.8291C302.076 16.8467 302.03 16.8557 301.984 16.8557C301.938 16.8557 301.892 16.8467 301.849 16.8291C301.807 16.8116 301.768 16.786 301.736 16.7537V16.753Z" fill="#DC41B7"/>
</g>
<path d="M301.795 16.6056C301.664 16.4775 301.664 16.2788 301.795 16.1507L302.281 15.6764C302.413 15.5483 302.617 15.5483 302.748 15.6764C302.88 15.8046 302.88 16.0033 302.748 16.1314L302.262 16.6056C302.137 16.7338 301.927 16.7338 301.795 16.6056Z" fill="url(#paint17_linear_66_2452)"/>
<g filter="url(#filter4_f_66_2452)">
<path d="M298.933 15.7782C298.802 15.6501 298.802 15.4514 298.933 15.3233L299.42 14.8491C299.551 14.7209 299.755 14.7209 299.886 14.8491C300.018 14.9772 300.018 15.1759 299.886 15.304L299.4 15.7782C299.269 15.9 299.065 15.9 298.933 15.7782Z" fill="#D53275"/>
</g>
<path d="M298.8 15.7782C298.668 15.6501 298.668 15.4514 298.8 15.3233L299.286 14.8491C299.418 14.7209 299.622 14.7209 299.753 14.8491C299.884 14.9772 299.884 15.1759 299.753 15.304L299.267 15.7782C299.135 15.9 298.931 15.9 298.8 15.7782Z" fill="url(#paint18_linear_66_2452)"/>
<g filter="url(#filter5_f_66_2452)">
<path d="M309.364 15.9662C309.33 15.9398 309.302 15.9071 309.281 15.8699C309.26 15.8327 309.247 15.7919 309.242 15.7497C309.238 15.7075 309.242 15.6649 309.255 15.6244C309.268 15.5838 309.289 15.5462 309.317 15.5137L309.752 14.994C309.779 14.9608 309.812 14.9332 309.85 14.9128C309.889 14.8924 309.931 14.8797 309.974 14.8754C310.017 14.8711 310.061 14.8753 310.102 14.8878C310.144 14.9002 310.182 14.9207 310.216 14.9479C310.36 15.0632 310.38 15.2606 310.263 15.4009L309.828 15.92C309.772 15.9845 309.692 16.0253 309.606 16.0339C309.519 16.0425 309.433 16.0182 309.364 15.9662Z" fill="#C840AF"/>
</g>
<path d="M309.313 15.7782C309.182 15.6501 309.182 15.4514 309.313 15.3233L309.8 14.8491C309.931 14.7209 310.135 14.7209 310.266 14.8491C310.398 14.9772 310.398 15.1759 310.266 15.304L309.78 15.7782C309.649 15.9 309.438 15.9 309.313 15.7782Z" fill="url(#paint19_linear_66_2452)"/>
<path d="M309.313 15.7782C309.182 15.6501 309.182 15.4514 309.313 15.3233L309.8 14.8491C309.931 14.7209 310.135 14.7209 310.266 14.8491C310.398 14.9772 310.398 15.1759 310.266 15.304L309.78 15.7782C309.649 15.9 309.438 15.9 309.313 15.7782Z" fill="url(#paint20_radial_66_2452)"/>
<g filter="url(#filter6_f_66_2452)">
<path d="M307.457 12.7114C307.588 12.5832 307.792 12.5832 307.923 12.7114L308.41 13.1856C308.541 13.3137 308.541 13.5124 308.41 13.6406C308.278 13.7687 308.074 13.7687 307.943 13.6406L307.457 13.1663C307.325 13.0446 307.325 12.8395 307.457 12.7114Z" fill="url(#paint21_linear_66_2452)"/>
<path d="M307.457 12.7114C307.588 12.5832 307.792 12.5832 307.923 12.7114L308.41 13.1856C308.541 13.3137 308.541 13.5124 308.41 13.6406C308.278 13.7687 308.074 13.7687 307.943 13.6406L307.457 13.1663C307.325 13.0446 307.325 12.8395 307.457 12.7114Z" fill="#DA41D6"/>
</g>
<g filter="url(#filter7_f_66_2452)">
<path d="M300.078 13.4964C300.078 13.317 300.222 13.176 300.406 13.176H301.096C301.28 13.176 301.425 13.317 301.425 13.4964C301.425 13.6759 301.28 13.8168 301.096 13.8168H300.406C300.222 13.8168 300.078 13.6759 300.078 13.4964Z" fill="#B03F95"/>
</g>
<path d="M300.047 13.6065C300.047 13.4271 300.191 13.2861 300.375 13.2861H301.065C301.25 13.2861 301.394 13.4271 301.394 13.6065C301.394 13.786 301.25 13.927 301.065 13.927H300.375C300.191 13.927 300.047 13.786 300.047 13.6065Z" fill="url(#paint22_linear_66_2452)"/>
<path d="M300.047 13.6065C300.047 13.4271 300.191 13.2861 300.375 13.2861H301.065C301.25 13.2861 301.394 13.4271 301.394 13.6065C301.394 13.786 301.25 13.927 301.065 13.927H300.375C300.191 13.927 300.047 13.786 300.047 13.6065Z" fill="url(#paint23_radial_66_2452)"/>
<path d="M307.57 12.5812C307.701 12.4531 307.905 12.4531 308.036 12.5812L308.523 13.0554C308.654 13.1836 308.654 13.3823 308.523 13.5104C308.391 13.6386 308.187 13.6386 308.056 13.5104L307.57 13.0362C307.438 12.9145 307.438 12.7094 307.57 12.5812Z" fill="url(#paint24_linear_66_2452)"/>
<path d="M307.57 12.5812C307.701 12.4531 307.905 12.4531 308.036 12.5812L308.523 13.0554C308.654 13.1836 308.654 13.3823 308.523 13.5104C308.391 13.6386 308.187 13.6386 308.056 13.5104L307.57 13.0362C307.438 12.9145 307.438 12.7094 307.57 12.5812Z" fill="url(#paint25_radial_66_2452)"/>
<g filter="url(#filter8_f_66_2452)">
<path d="M299.391 24.1589H309.716C310.387 24.1589 310.613 23.7507 310.684 23.5264C310.684 23.5264 311.933 19.6873 311.856 19.3758C311.808 19.2111 311.601 19.1913 311.54 19.3181L311.442 19.5399L311.373 19.3758C311.327 19.2733 311.097 19.1413 310.87 19.3758L310.387 19.9263C310.345 19.975 310.269 19.9897 310.239 19.9263L310.017 19.4252C309.904 19.1816 309.438 19.1227 309.072 19.4469L308.554 19.9263C308.459 20.0224 308.312 20.0416 308.219 19.9263L307.766 19.3752C307.537 19.1041 306.999 19.222 306.652 19.4726L306.1 19.9263C305.967 20.0192 305.802 20.0339 305.677 19.9263L305.161 19.4252C304.872 19.1964 304.277 19.115 303.923 19.4469L303.411 19.9263C303.317 19.9968 303.121 20.0077 303.006 19.9263L302.335 19.3752C302.045 19.1336 301.491 19.1778 301.247 19.4726L300.878 19.9263C300.818 19.9929 300.709 20.0224 300.572 19.9263L299.941 19.3752C299.692 19.1701 299.218 19.1669 299.064 19.4726L298.887 19.8584C298.887 19.8584 298.838 20.0224 298.749 19.9263L298.286 19.3752C297.957 19.0266 297.705 19.3752 297.655 19.5399L297.556 19.3175C297.476 19.1445 297.14 19.3175 297.261 19.7334L298.424 23.5264C298.473 23.6732 298.749 24.1589 299.391 24.1589Z" fill="url(#paint26_linear_66_2452)"/>
<path d="M299.391 24.1589H309.716C310.387 24.1589 310.613 23.7507 310.684 23.5264C310.684 23.5264 311.933 19.6873 311.856 19.3758C311.808 19.2111 311.601 19.1913 311.54 19.3181L311.442 19.5399L311.373 19.3758C311.327 19.2733 311.097 19.1413 310.87 19.3758L310.387 19.9263C310.345 19.975 310.269 19.9897 310.239 19.9263L310.017 19.4252C309.904 19.1816 309.438 19.1227 309.072 19.4469L308.554 19.9263C308.459 20.0224 308.312 20.0416 308.219 19.9263L307.766 19.3752C307.537 19.1041 306.999 19.222 306.652 19.4726L306.1 19.9263C305.967 20.0192 305.802 20.0339 305.677 19.9263L305.161 19.4252C304.872 19.1964 304.277 19.115 303.923 19.4469L303.411 19.9263C303.317 19.9968 303.121 20.0077 303.006 19.9263L302.335 19.3752C302.045 19.1336 301.491 19.1778 301.247 19.4726L300.878 19.9263C300.818 19.9929 300.709 20.0224 300.572 19.9263L299.941 19.3752C299.692 19.1701 299.218 19.1669 299.064 19.4726L298.887 19.8584C298.887 19.8584 298.838 20.0224 298.749 19.9263L298.286 19.3752C297.957 19.0266 297.705 19.3752 297.655 19.5399L297.556 19.3175C297.476 19.1445 297.14 19.3175 297.261 19.7334L298.424 23.5264C298.473 23.6732 298.749 24.1589 299.391 24.1589Z" fill="url(#paint27_radial_66_2452)"/>
<path d="M299.391 24.1589H309.716C310.387 24.1589 310.613 23.7507 310.684 23.5264C310.684 23.5264 311.933 19.6873 311.856 19.3758C311.808 19.2111 311.601 19.1913 311.54 19.3181L311.442 19.5399L311.373 19.3758C311.327 19.2733 311.097 19.1413 310.87 19.3758L310.387 19.9263C310.345 19.975 310.269 19.9897 310.239 19.9263L310.017 19.4252C309.904 19.1816 309.438 19.1227 309.072 19.4469L308.554 19.9263C308.459 20.0224 308.312 20.0416 308.219 19.9263L307.766 19.3752C307.537 19.1041 306.999 19.222 306.652 19.4726L306.1 19.9263C305.967 20.0192 305.802 20.0339 305.677 19.9263L305.161 19.4252C304.872 19.1964 304.277 19.115 303.923 19.4469L303.411 19.9263C303.317 19.9968 303.121 20.0077 303.006 19.9263L302.335 19.3752C302.045 19.1336 301.491 19.1778 301.247 19.4726L300.878 19.9263C300.818 19.9929 300.709 20.0224 300.572 19.9263L299.941 19.3752C299.692 19.1701 299.218 19.1669 299.064 19.4726L298.887 19.8584C298.887 19.8584 298.838 20.0224 298.749 19.9263L298.286 19.3752C297.957 19.0266 297.705 19.3752 297.655 19.5399L297.556 19.3175C297.476 19.1445 297.14 19.3175 297.261 19.7334L298.424 23.5264C298.473 23.6732 298.749 24.1589 299.391 24.1589Z" fill="url(#paint28_radial_66_2452)"/>
<path d="M299.391 24.1589H309.716C310.387 24.1589 310.613 23.7507 310.684 23.5264C310.684 23.5264 311.933 19.6873 311.856 19.3758C311.808 19.2111 311.601 19.1913 311.54 19.3181L311.442 19.5399L311.373 19.3758C311.327 19.2733 311.097 19.1413 310.87 19.3758L310.387 19.9263C310.345 19.975 310.269 19.9897 310.239 19.9263L310.017 19.4252C309.904 19.1816 309.438 19.1227 309.072 19.4469L308.554 19.9263C308.459 20.0224 308.312 20.0416 308.219 19.9263L307.766 19.3752C307.537 19.1041 306.999 19.222 306.652 19.4726L306.1 19.9263C305.967 20.0192 305.802 20.0339 305.677 19.9263L305.161 19.4252C304.872 19.1964 304.277 19.115 303.923 19.4469L303.411 19.9263C303.317 19.9968 303.121 20.0077 303.006 19.9263L302.335 19.3752C302.045 19.1336 301.491 19.1778 301.247 19.4726L300.878 19.9263C300.818 19.9929 300.709 20.0224 300.572 19.9263L299.941 19.3752C299.692 19.1701 299.218 19.1669 299.064 19.4726L298.887 19.8584C298.887 19.8584 298.838 20.0224 298.749 19.9263L298.286 19.3752C297.957 19.0266 297.705 19.3752 297.655 19.5399L297.556 19.3175C297.476 19.1445 297.14 19.3175 297.261 19.7334L298.424 23.5264C298.473 23.6732 298.749 24.1589 299.391 24.1589Z" fill="url(#paint29_radial_66_2452)"/>
<path d="M299.391 24.1589H309.716C310.387 24.1589 310.613 23.7507 310.684 23.5264C310.684 23.5264 311.933 19.6873 311.856 19.3758C311.808 19.2111 311.601 19.1913 311.54 19.3181L311.442 19.5399L311.373 19.3758C311.327 19.2733 311.097 19.1413 310.87 19.3758L310.387 19.9263C310.345 19.975 310.269 19.9897 310.239 19.9263L310.017 19.4252C309.904 19.1816 309.438 19.1227 309.072 19.4469L308.554 19.9263C308.459 20.0224 308.312 20.0416 308.219 19.9263L307.766 19.3752C307.537 19.1041 306.999 19.222 306.652 19.4726L306.1 19.9263C305.967 20.0192 305.802 20.0339 305.677 19.9263L305.161 19.4252C304.872 19.1964 304.277 19.115 303.923 19.4469L303.411 19.9263C303.317 19.9968 303.121 20.0077 303.006 19.9263L302.335 19.3752C302.045 19.1336 301.491 19.1778 301.247 19.4726L300.878 19.9263C300.818 19.9929 300.709 20.0224 300.572 19.9263L299.941 19.3752C299.692 19.1701 299.218 19.1669 299.064 19.4726L298.887 19.8584C298.887 19.8584 298.838 20.0224 298.749 19.9263L298.286 19.3752C297.957 19.0266 297.705 19.3752 297.655 19.5399L297.556 19.3175C297.476 19.1445 297.14 19.3175 297.261 19.7334L298.424 23.5264C298.473 23.6732 298.749 24.1589 299.391 24.1589Z" fill="url(#paint30_linear_66_2452)"/>
<path d="M299.391 24.1589H309.716C310.387 24.1589 310.613 23.7507 310.684 23.5264C310.684 23.5264 311.933 19.6873 311.856 19.3758C311.808 19.2111 311.601 19.1913 311.54 19.3181L311.442 19.5399L311.373 19.3758C311.327 19.2733 311.097 19.1413 310.87 19.3758L310.387 19.9263C310.345 19.975 310.269 19.9897 310.239 19.9263L310.017 19.4252C309.904 19.1816 309.438 19.1227 309.072 19.4469L308.554 19.9263C308.459 20.0224 308.312 20.0416 308.219 19.9263L307.766 19.3752C307.537 19.1041 306.999 19.222 306.652 19.4726L306.1 19.9263C305.967 20.0192 305.802 20.0339 305.677 19.9263L305.161 19.4252C304.872 19.1964 304.277 19.115 303.923 19.4469L303.411 19.9263C303.317 19.9968 303.121 20.0077 303.006 19.9263L302.335 19.3752C302.045 19.1336 301.491 19.1778 301.247 19.4726L300.878 19.9263C300.818 19.9929 300.709 20.0224 300.572 19.9263L299.941 19.3752C299.692 19.1701 299.218 19.1669 299.064 19.4726L298.887 19.8584C298.887 19.8584 298.838 20.0224 298.749 19.9263L298.286 19.3752C297.957 19.0266 297.705 19.3752 297.655 19.5399L297.556 19.3175C297.476 19.1445 297.14 19.3175 297.261 19.7334L298.424 23.5264C298.473 23.6732 298.749 24.1589 299.391 24.1589Z" fill="#856E5F"/>
</g>
<g filter="url(#filter9_f_66_2452)">
<path d="M305.97 11.5976C305.838 11.4694 305.838 11.2708 305.97 11.1426L306.456 10.6684C306.588 10.5402 306.791 10.5402 306.923 10.6684C307.054 10.7966 307.054 10.9952 306.923 11.1234L306.437 11.5976C306.305 11.7257 306.095 11.7257 305.97 11.5976Z" fill="#954093"/>
</g>
<g filter="url(#filter10_f_66_2452)">
<path d="M305.964 10.9729L306.434 10.5448C306.565 10.4166 306.899 10.4397 307.006 10.6345C306.78 10.8402 306.226 10.9082 305.964 10.9729Z" fill="#954093"/>
</g>
<path d="M306.021 11.5175C305.89 11.3893 305.89 11.1907 306.021 11.0625L306.508 10.5883C306.639 10.4601 306.843 10.4601 306.974 10.5883C307.106 10.7165 307.106 10.9151 306.974 11.0433L306.488 11.5175C306.356 11.6457 306.146 11.6457 306.021 11.5175Z" fill="url(#paint31_linear_66_2452)"/>
<path d="M306.021 11.5175C305.89 11.3893 305.89 11.1907 306.021 11.0625L306.508 10.5883C306.639 10.4601 306.843 10.4601 306.974 10.5883C307.106 10.7165 307.106 10.9151 306.974 11.0433L306.488 11.5175C306.356 11.6457 306.146 11.6457 306.021 11.5175Z" fill="url(#paint32_radial_66_2452)"/>
<g filter="url(#filter11_f_66_2452)">
<path d="M307.71 16.8198C307.842 16.6916 307.842 16.4929 307.71 16.3648L307.224 15.8906C307.093 15.7624 306.889 15.7624 306.757 15.8906C306.626 16.0187 306.626 16.2174 306.757 16.3455L307.244 16.8198C307.375 16.9479 307.585 16.9479 307.71 16.8198Z" fill="#C53DD2"/>
</g>
<path d="M307.717 16.6056C307.848 16.4775 307.848 16.2788 307.717 16.1507L307.231 15.6764C307.099 15.5483 306.895 15.5483 306.764 15.6764C306.632 15.8046 306.632 16.0033 306.764 16.1314L307.25 16.6056C307.382 16.7338 307.592 16.7338 307.717 16.6056Z" fill="url(#paint33_linear_66_2452)"/>
<path d="M307.717 16.6056C307.848 16.4775 307.848 16.2788 307.717 16.1507L307.231 15.6764C307.099 15.5483 306.895 15.5483 306.764 15.6764C306.632 15.8046 306.632 16.0033 306.764 16.1314L307.25 16.6056C307.382 16.7338 307.592 16.7338 307.717 16.6056Z" fill="url(#paint34_radial_66_2452)"/>
<path d="M299.258 24.2251H309.774C310.458 24.2251 310.688 23.8111 310.76 23.5842C310.76 23.5842 312.032 19.6932 311.954 19.3779C311.905 19.2113 311.695 19.1914 311.631 19.3196L311.532 19.5438L311.461 19.3779C311.415 19.2753 311.181 19.1408 310.949 19.3779L310.458 19.9354C310.414 19.9847 310.338 19.9995 310.307 19.9354L310.081 19.4279C309.966 19.1811 309.49 19.1215 309.119 19.4503L308.591 19.936C308.494 20.0334 308.344 20.052 308.249 19.936L307.788 19.3785C307.555 19.103 307.006 19.2222 306.653 19.4759L306.091 19.936C305.955 20.0296 305.787 20.045 305.66 19.936L305.135 19.4279C304.839 19.1965 304.234 19.1139 303.873 19.4503L303.351 19.936C303.257 20.0072 303.057 20.0187 302.94 19.936L302.256 19.3785C301.96 19.1324 301.397 19.1773 301.148 19.4759L300.772 19.936C300.711 20.004 300.599 20.0334 300.461 19.936L299.818 19.3785C299.564 19.1702 299.081 19.1664 298.925 19.4759L298.744 19.8668C298.744 19.8668 298.694 20.0334 298.603 19.936L298.132 19.3785C297.797 19.0241 297.54 19.3785 297.489 19.5445L297.389 19.3189C297.306 19.144 296.965 19.3189 297.088 19.7399L298.272 23.5842C298.323 23.7329 298.603 24.2251 299.258 24.2251Z" fill="url(#paint35_linear_66_2452)"/>
<path d="M299.258 24.2251H309.774C310.458 24.2251 310.688 23.8111 310.76 23.5842C310.76 23.5842 312.032 19.6932 311.954 19.3779C311.905 19.2113 311.695 19.1914 311.631 19.3196L311.532 19.5438L311.461 19.3779C311.415 19.2753 311.181 19.1408 310.949 19.3779L310.458 19.9354C310.414 19.9847 310.338 19.9995 310.307 19.9354L310.081 19.4279C309.966 19.1811 309.49 19.1215 309.119 19.4503L308.591 19.936C308.494 20.0334 308.344 20.052 308.249 19.936L307.788 19.3785C307.555 19.103 307.006 19.2222 306.653 19.4759L306.091 19.936C305.955 20.0296 305.787 20.045 305.66 19.936L305.135 19.4279C304.839 19.1965 304.234 19.1139 303.873 19.4503L303.351 19.936C303.257 20.0072 303.057 20.0187 302.94 19.936L302.256 19.3785C301.96 19.1324 301.397 19.1773 301.148 19.4759L300.772 19.936C300.711 20.004 300.599 20.0334 300.461 19.936L299.818 19.3785C299.564 19.1702 299.081 19.1664 298.925 19.4759L298.744 19.8668C298.744 19.8668 298.694 20.0334 298.603 19.936L298.132 19.3785C297.797 19.0241 297.54 19.3785 297.489 19.5445L297.389 19.3189C297.306 19.144 296.965 19.3189 297.088 19.7399L298.272 23.5842C298.323 23.7329 298.603 24.2251 299.258 24.2251Z" fill="url(#paint36_radial_66_2452)"/>
<path d="M299.258 24.2251H309.774C310.458 24.2251 310.688 23.8111 310.76 23.5842C310.76 23.5842 312.032 19.6932 311.954 19.3779C311.905 19.2113 311.695 19.1914 311.631 19.3196L311.532 19.5438L311.461 19.3779C311.415 19.2753 311.181 19.1408 310.949 19.3779L310.458 19.9354C310.414 19.9847 310.338 19.9995 310.307 19.9354L310.081 19.4279C309.966 19.1811 309.49 19.1215 309.119 19.4503L308.591 19.936C308.494 20.0334 308.344 20.052 308.249 19.936L307.788 19.3785C307.555 19.103 307.006 19.2222 306.653 19.4759L306.091 19.936C305.955 20.0296 305.787 20.045 305.66 19.936L305.135 19.4279C304.839 19.1965 304.234 19.1139 303.873 19.4503L303.351 19.936C303.257 20.0072 303.057 20.0187 302.94 19.936L302.256 19.3785C301.96 19.1324 301.397 19.1773 301.148 19.4759L300.772 19.936C300.711 20.004 300.599 20.0334 300.461 19.936L299.818 19.3785C299.564 19.1702 299.081 19.1664 298.925 19.4759L298.744 19.8668C298.744 19.8668 298.694 20.0334 298.603 19.936L298.132 19.3785C297.797 19.0241 297.54 19.3785 297.489 19.5445L297.389 19.3189C297.306 19.144 296.965 19.3189 297.088 19.7399L298.272 23.5842C298.323 23.7329 298.603 24.2251 299.258 24.2251Z" fill="url(#paint37_radial_66_2452)"/>
<path d="M299.258 24.2251H309.774C310.458 24.2251 310.688 23.8111 310.76 23.5842C310.76 23.5842 312.032 19.6932 311.954 19.3779C311.905 19.2113 311.695 19.1914 311.631 19.3196L311.532 19.5438L311.461 19.3779C311.415 19.2753 311.181 19.1408 310.949 19.3779L310.458 19.9354C310.414 19.9847 310.338 19.9995 310.307 19.9354L310.081 19.4279C309.966 19.1811 309.49 19.1215 309.119 19.4503L308.591 19.936C308.494 20.0334 308.344 20.052 308.249 19.936L307.788 19.3785C307.555 19.103 307.006 19.2222 306.653 19.4759L306.091 19.936C305.955 20.0296 305.787 20.045 305.66 19.936L305.135 19.4279C304.839 19.1965 304.234 19.1139 303.873 19.4503L303.351 19.936C303.257 20.0072 303.057 20.0187 302.94 19.936L302.256 19.3785C301.96 19.1324 301.397 19.1773 301.148 19.4759L300.772 19.936C300.711 20.004 300.599 20.0334 300.461 19.936L299.818 19.3785C299.564 19.1702 299.081 19.1664 298.925 19.4759L298.744 19.8668C298.744 19.8668 298.694 20.0334 298.603 19.936L298.132 19.3785C297.797 19.0241 297.54 19.3785 297.489 19.5445L297.389 19.3189C297.306 19.144 296.965 19.3189 297.088 19.7399L298.272 23.5842C298.323 23.7329 298.603 24.2251 299.258 24.2251Z" fill="url(#paint38_radial_66_2452)"/>
<path d="M299.258 24.2251H309.774C310.458 24.2251 310.688 23.8111 310.76 23.5842C310.76 23.5842 312.032 19.6932 311.954 19.3779C311.905 19.2113 311.695 19.1914 311.631 19.3196L311.532 19.5438L311.461 19.3779C311.415 19.2753 311.181 19.1408 310.949 19.3779L310.458 19.9354C310.414 19.9847 310.338 19.9995 310.307 19.9354L310.081 19.4279C309.966 19.1811 309.49 19.1215 309.119 19.4503L308.591 19.936C308.494 20.0334 308.344 20.052 308.249 19.936L307.788 19.3785C307.555 19.103 307.006 19.2222 306.653 19.4759L306.091 19.936C305.955 20.0296 305.787 20.045 305.66 19.936L305.135 19.4279C304.839 19.1965 304.234 19.1139 303.873 19.4503L303.351 19.936C303.257 20.0072 303.057 20.0187 302.94 19.936L302.256 19.3785C301.96 19.1324 301.397 19.1773 301.148 19.4759L300.772 19.936C300.711 20.004 300.599 20.0334 300.461 19.936L299.818 19.3785C299.564 19.1702 299.081 19.1664 298.925 19.4759L298.744 19.8668C298.744 19.8668 298.694 20.0334 298.603 19.936L298.132 19.3785C297.797 19.0241 297.54 19.3785 297.489 19.5445L297.389 19.3189C297.306 19.144 296.965 19.3189 297.088 19.7399L298.272 23.5842C298.323 23.7329 298.603 24.2251 299.258 24.2251Z" fill="url(#paint39_linear_66_2452)"/>
<path d="M299.258 24.2251H309.774C310.458 24.2251 310.688 23.8111 310.76 23.5842C310.76 23.5842 312.032 19.6932 311.954 19.3779C311.905 19.2113 311.695 19.1914 311.631 19.3196L311.532 19.5438L311.461 19.3779C311.415 19.2753 311.181 19.1408 310.949 19.3779L310.458 19.9354C310.414 19.9847 310.338 19.9995 310.307 19.9354L310.081 19.4279C309.966 19.1811 309.49 19.1215 309.119 19.4503L308.591 19.936C308.494 20.0334 308.344 20.052 308.249 19.936L307.788 19.3785C307.555 19.103 307.006 19.2222 306.653 19.4759L306.091 19.936C305.955 20.0296 305.787 20.045 305.66 19.936L305.135 19.4279C304.839 19.1965 304.234 19.1139 303.873 19.4503L303.351 19.936C303.257 20.0072 303.057 20.0187 302.94 19.936L302.256 19.3785C301.96 19.1324 301.397 19.1773 301.148 19.4759L300.772 19.936C300.711 20.004 300.599 20.0334 300.461 19.936L299.818 19.3785C299.564 19.1702 299.081 19.1664 298.925 19.4759L298.744 19.8668C298.744 19.8668 298.694 20.0334 298.603 19.936L298.132 19.3785C297.797 19.0241 297.54 19.3785 297.489 19.5445L297.389 19.3189C297.306 19.144 296.965 19.3189 297.088 19.7399L298.272 23.5842C298.323 23.7329 298.603 24.2251 299.258 24.2251Z" fill="url(#paint40_linear_66_2452)"/>
<path d="M299.258 24.2251H309.774C310.458 24.2251 310.688 23.8111 310.76 23.5842C310.76 23.5842 312.032 19.6932 311.954 19.3779C311.905 19.2113 311.695 19.1914 311.631 19.3196L311.532 19.5438L311.461 19.3779C311.415 19.2753 311.181 19.1408 310.949 19.3779L310.458 19.9354C310.414 19.9847 310.338 19.9995 310.307 19.9354L310.081 19.4279C309.966 19.1811 309.49 19.1215 309.119 19.4503L308.591 19.936C308.494 20.0334 308.344 20.052 308.249 19.936L307.788 19.3785C307.555 19.103 307.006 19.2222 306.653 19.4759L306.091 19.936C305.955 20.0296 305.787 20.045 305.66 19.936L305.135 19.4279C304.839 19.1965 304.234 19.1139 303.873 19.4503L303.351 19.936C303.257 20.0072 303.057 20.0187 302.94 19.936L302.256 19.3785C301.96 19.1324 301.397 19.1773 301.148 19.4759L300.772 19.936C300.711 20.004 300.599 20.0334 300.461 19.936L299.818 19.3785C299.564 19.1702 299.081 19.1664 298.925 19.4759L298.744 19.8668C298.744 19.8668 298.694 20.0334 298.603 19.936L298.132 19.3785C297.797 19.0241 297.54 19.3785 297.489 19.5445L297.389 19.3189C297.306 19.144 296.965 19.3189 297.088 19.7399L298.272 23.5842C298.323 23.7329 298.603 24.2251 299.258 24.2251Z" fill="url(#paint41_linear_66_2452)"/>
<g filter="url(#filter12_f_66_2452)">
<path d="M299.396 24.1591H309.635C310.301 24.1591 310.525 23.8092 310.594 23.617C310.594 23.617 310.945 22.5353 311.279 21.5619C311.526 20.8384 311.753 20.1745 311.72 20.0611L311.72 20.0591C311.674 19.9194 311.668 19.9034 311.608 20.0111L311.509 20.2014L311.441 20.0604C311.396 19.9733 311.14 19.8598 310.914 20.0604L310.472 20.5327C310.38 20.6455 310.272 20.6724 310.205 20.5327C310.205 20.5327 310.077 20.2636 309.975 20.0611C309.871 19.8586 309.455 19.7855 309.168 20.0611L308.68 20.5327C308.583 20.6634 308.31 20.7044 308.151 20.5327L307.701 20.0611C307.474 19.8284 306.937 19.9009 306.642 20.1437C306.347 20.386 306.123 20.5327 306.123 20.5327C305.975 20.6365 305.764 20.6634 305.629 20.5327L305.04 20.0111C304.753 19.815 304.374 19.7266 304.023 20.0111L303.382 20.5327C303.253 20.641 303.027 20.6455 302.883 20.5327L302.21 20.0111C301.923 19.8041 301.555 19.7592 301.312 20.0111L300.87 20.5327C300.778 20.641 300.536 20.6314 300.429 20.5327L299.817 20.0111C299.602 19.8086 299.226 19.7496 299.073 20.0111C299.073 20.0111 298.888 20.3667 298.837 20.4744C298.785 20.5821 298.653 20.6 298.55 20.4827L298.231 20.0111C297.905 19.7118 297.661 20.0611 297.612 20.2014L297.514 20.0111C297.434 19.863 297.311 19.954 297.43 20.3103L297.82 21.5715L298.437 23.617C298.486 23.7432 298.759 24.1591 299.397 24.1591H299.396Z" fill="url(#paint42_linear_66_2452)"/>
<path d="M299.396 24.1591H309.635C310.301 24.1591 310.525 23.8092 310.594 23.617C310.594 23.617 310.945 22.5353 311.279 21.5619C311.526 20.8384 311.753 20.1745 311.72 20.0611L311.72 20.0591C311.674 19.9194 311.668 19.9034 311.608 20.0111L311.509 20.2014L311.441 20.0604C311.396 19.9733 311.14 19.8598 310.914 20.0604L310.472 20.5327C310.38 20.6455 310.272 20.6724 310.205 20.5327C310.205 20.5327 310.077 20.2636 309.975 20.0611C309.871 19.8586 309.455 19.7855 309.168 20.0611L308.68 20.5327C308.583 20.6634 308.31 20.7044 308.151 20.5327L307.701 20.0611C307.474 19.8284 306.937 19.9009 306.642 20.1437C306.347 20.386 306.123 20.5327 306.123 20.5327C305.975 20.6365 305.764 20.6634 305.629 20.5327L305.04 20.0111C304.753 19.815 304.374 19.7266 304.023 20.0111L303.382 20.5327C303.253 20.641 303.027 20.6455 302.883 20.5327L302.21 20.0111C301.923 19.8041 301.555 19.7592 301.312 20.0111L300.87 20.5327C300.778 20.641 300.536 20.6314 300.429 20.5327L299.817 20.0111C299.602 19.8086 299.226 19.7496 299.073 20.0111C299.073 20.0111 298.888 20.3667 298.837 20.4744C298.785 20.5821 298.653 20.6 298.55 20.4827L298.231 20.0111C297.905 19.7118 297.661 20.0611 297.612 20.2014L297.514 20.0111C297.434 19.863 297.311 19.954 297.43 20.3103L297.82 21.5715L298.437 23.617C298.486 23.7432 298.759 24.1591 299.397 24.1591H299.396Z" fill="url(#paint43_radial_66_2452)"/>
<path d="M299.396 24.1591H309.635C310.301 24.1591 310.525 23.8092 310.594 23.617C310.594 23.617 310.945 22.5353 311.279 21.5619C311.526 20.8384 311.753 20.1745 311.72 20.0611L311.72 20.0591C311.674 19.9194 311.668 19.9034 311.608 20.0111L311.509 20.2014L311.441 20.0604C311.396 19.9733 311.14 19.8598 310.914 20.0604L310.472 20.5327C310.38 20.6455 310.272 20.6724 310.205 20.5327C310.205 20.5327 310.077 20.2636 309.975 20.0611C309.871 19.8586 309.455 19.7855 309.168 20.0611L308.68 20.5327C308.583 20.6634 308.31 20.7044 308.151 20.5327L307.701 20.0611C307.474 19.8284 306.937 19.9009 306.642 20.1437C306.347 20.386 306.123 20.5327 306.123 20.5327C305.975 20.6365 305.764 20.6634 305.629 20.5327L305.04 20.0111C304.753 19.815 304.374 19.7266 304.023 20.0111L303.382 20.5327C303.253 20.641 303.027 20.6455 302.883 20.5327L302.21 20.0111C301.923 19.8041 301.555 19.7592 301.312 20.0111L300.87 20.5327C300.778 20.641 300.536 20.6314 300.429 20.5327L299.817 20.0111C299.602 19.8086 299.226 19.7496 299.073 20.0111C299.073 20.0111 298.888 20.3667 298.837 20.4744C298.785 20.5821 298.653 20.6 298.55 20.4827L298.231 20.0111C297.905 19.7118 297.661 20.0611 297.612 20.2014L297.514 20.0111C297.434 19.863 297.311 19.954 297.43 20.3103L297.82 21.5715L298.437 23.617C298.486 23.7432 298.759 24.1591 299.397 24.1591H299.396Z" fill="url(#paint44_radial_66_2452)"/>
<path d="M299.396 24.1591H309.635C310.301 24.1591 310.525 23.8092 310.594 23.617C310.594 23.617 310.945 22.5353 311.279 21.5619C311.526 20.8384 311.753 20.1745 311.72 20.0611L311.72 20.0591C311.674 19.9194 311.668 19.9034 311.608 20.0111L311.509 20.2014L311.441 20.0604C311.396 19.9733 311.14 19.8598 310.914 20.0604L310.472 20.5327C310.38 20.6455 310.272 20.6724 310.205 20.5327C310.205 20.5327 310.077 20.2636 309.975 20.0611C309.871 19.8586 309.455 19.7855 309.168 20.0611L308.68 20.5327C308.583 20.6634 308.31 20.7044 308.151 20.5327L307.701 20.0611C307.474 19.8284 306.937 19.9009 306.642 20.1437C306.347 20.386 306.123 20.5327 306.123 20.5327C305.975 20.6365 305.764 20.6634 305.629 20.5327L305.04 20.0111C304.753 19.815 304.374 19.7266 304.023 20.0111L303.382 20.5327C303.253 20.641 303.027 20.6455 302.883 20.5327L302.21 20.0111C301.923 19.8041 301.555 19.7592 301.312 20.0111L300.87 20.5327C300.778 20.641 300.536 20.6314 300.429 20.5327L299.817 20.0111C299.602 19.8086 299.226 19.7496 299.073 20.0111C299.073 20.0111 298.888 20.3667 298.837 20.4744C298.785 20.5821 298.653 20.6 298.55 20.4827L298.231 20.0111C297.905 19.7118 297.661 20.0611 297.612 20.2014L297.514 20.0111C297.434 19.863 297.311 19.954 297.43 20.3103L297.82 21.5715L298.437 23.617C298.486 23.7432 298.759 24.1591 299.397 24.1591H299.396Z" fill="url(#paint45_radial_66_2452)"/>
</g>
<g filter="url(#filter13_f_66_2452)">
<path d="M297.374 19.5918C297.293 19.4284 297.164 19.5918 297.284 19.9833L297.694 21.256C302.231 23.586 311.309 21.2861 311.309 21.2861C311.551 20.5062 311.833 19.7238 311.879 19.5687C311.925 19.4143 311.791 19.3944 311.731 19.5136L311.515 20.0147L311.479 19.5687C311.479 19.4489 311.156 19.3585 310.914 19.6462L310.472 20.1653C310.38 20.2896 310.395 20.3197 310.329 20.1653C310.329 20.1653 310.2 19.8692 310.097 19.6462C309.995 19.4232 309.456 19.3438 309.168 19.6462L308.68 20.1653C308.583 20.3101 308.507 20.355 308.347 20.1653L307.897 19.6462C307.67 19.3899 306.937 19.4706 306.642 19.7372C306.347 20.0045 306.123 20.1653 306.123 20.1653C305.975 20.28 305.764 20.3101 305.629 20.1653L305.04 19.5918C304.753 19.3758 304.292 19.2778 303.941 19.5918L303.3 20.1653C303.171 20.2851 303.027 20.2896 302.883 20.1653L302.21 19.5918C301.923 19.363 301.395 19.3136 301.152 19.5918L300.711 20.1653C300.619 20.2851 300.536 20.2742 300.429 20.1653L299.817 19.5918C299.602 19.3688 299.226 19.3034 299.073 19.5918C299.073 19.5918 298.888 19.9833 298.837 20.1019C298.785 20.2204 298.653 20.2396 298.55 20.1108L298.09 19.5918C297.764 19.2624 297.52 19.6462 297.471 19.8013L297.374 19.5918Z" fill="url(#paint46_linear_66_2452)"/>
<path d="M297.374 19.5918C297.293 19.4284 297.164 19.5918 297.284 19.9833L297.694 21.256C302.231 23.586 311.309 21.2861 311.309 21.2861C311.551 20.5062 311.833 19.7238 311.879 19.5687C311.925 19.4143 311.791 19.3944 311.731 19.5136L311.515 20.0147L311.479 19.5687C311.479 19.4489 311.156 19.3585 310.914 19.6462L310.472 20.1653C310.38 20.2896 310.395 20.3197 310.329 20.1653C310.329 20.1653 310.2 19.8692 310.097 19.6462C309.995 19.4232 309.456 19.3438 309.168 19.6462L308.68 20.1653C308.583 20.3101 308.507 20.355 308.347 20.1653L307.897 19.6462C307.67 19.3899 306.937 19.4706 306.642 19.7372C306.347 20.0045 306.123 20.1653 306.123 20.1653C305.975 20.28 305.764 20.3101 305.629 20.1653L305.04 19.5918C304.753 19.3758 304.292 19.2778 303.941 19.5918L303.3 20.1653C303.171 20.2851 303.027 20.2896 302.883 20.1653L302.21 19.5918C301.923 19.363 301.395 19.3136 301.152 19.5918L300.711 20.1653C300.619 20.2851 300.536 20.2742 300.429 20.1653L299.817 19.5918C299.602 19.3688 299.226 19.3034 299.073 19.5918C299.073 19.5918 298.888 19.9833 298.837 20.1019C298.785 20.2204 298.653 20.2396 298.55 20.1108L298.09 19.5918C297.764 19.2624 297.52 19.6462 297.471 19.8013L297.374 19.5918Z" fill="url(#paint47_radial_66_2452)"/>
<path d="M297.374 19.5918C297.293 19.4284 297.164 19.5918 297.284 19.9833L297.694 21.256C302.231 23.586 311.309 21.2861 311.309 21.2861C311.551 20.5062 311.833 19.7238 311.879 19.5687C311.925 19.4143 311.791 19.3944 311.731 19.5136L311.515 20.0147L311.479 19.5687C311.479 19.4489 311.156 19.3585 310.914 19.6462L310.472 20.1653C310.38 20.2896 310.395 20.3197 310.329 20.1653C310.329 20.1653 310.2 19.8692 310.097 19.6462C309.995 19.4232 309.456 19.3438 309.168 19.6462L308.68 20.1653C308.583 20.3101 308.507 20.355 308.347 20.1653L307.897 19.6462C307.67 19.3899 306.937 19.4706 306.642 19.7372C306.347 20.0045 306.123 20.1653 306.123 20.1653C305.975 20.28 305.764 20.3101 305.629 20.1653L305.04 19.5918C304.753 19.3758 304.292 19.2778 303.941 19.5918L303.3 20.1653C303.171 20.2851 303.027 20.2896 302.883 20.1653L302.21 19.5918C301.923 19.363 301.395 19.3136 301.152 19.5918L300.711 20.1653C300.619 20.2851 300.536 20.2742 300.429 20.1653L299.817 19.5918C299.602 19.3688 299.226 19.3034 299.073 19.5918C299.073 19.5918 298.888 19.9833 298.837 20.1019C298.785 20.2204 298.653 20.2396 298.55 20.1108L298.09 19.5918C297.764 19.2624 297.52 19.6462 297.471 19.8013L297.374 19.5918Z" fill="url(#paint48_radial_66_2452)"/>
<path d="M297.374 19.5918C297.293 19.4284 297.164 19.5918 297.284 19.9833L297.694 21.256C302.231 23.586 311.309 21.2861 311.309 21.2861C311.551 20.5062 311.833 19.7238 311.879 19.5687C311.925 19.4143 311.791 19.3944 311.731 19.5136L311.515 20.0147L311.479 19.5687C311.479 19.4489 311.156 19.3585 310.914 19.6462L310.472 20.1653C310.38 20.2896 310.395 20.3197 310.329 20.1653C310.329 20.1653 310.2 19.8692 310.097 19.6462C309.995 19.4232 309.456 19.3438 309.168 19.6462L308.68 20.1653C308.583 20.3101 308.507 20.355 308.347 20.1653L307.897 19.6462C307.67 19.3899 306.937 19.4706 306.642 19.7372C306.347 20.0045 306.123 20.1653 306.123 20.1653C305.975 20.28 305.764 20.3101 305.629 20.1653L305.04 19.5918C304.753 19.3758 304.292 19.2778 303.941 19.5918L303.3 20.1653C303.171 20.2851 303.027 20.2896 302.883 20.1653L302.21 19.5918C301.923 19.363 301.395 19.3136 301.152 19.5918L300.711 20.1653C300.619 20.2851 300.536 20.2742 300.429 20.1653L299.817 19.5918C299.602 19.3688 299.226 19.3034 299.073 19.5918C299.073 19.5918 298.888 19.9833 298.837 20.1019C298.785 20.2204 298.653 20.2396 298.55 20.1108L298.09 19.5918C297.764 19.2624 297.52 19.6462 297.471 19.8013L297.374 19.5918Z" fill="url(#paint49_radial_66_2452)"/>
</g>
<path fill-rule="evenodd" clip-rule="evenodd" d="M304.525 21.1011C304.612 21.1011 304.695 21.1348 304.757 21.1949C304.819 21.255 304.853 21.3365 304.853 21.4215V24.2251H304.196V21.4215C304.196 21.3365 304.231 21.255 304.292 21.1949C304.354 21.1348 304.437 21.1011 304.525 21.1011Z" fill="url(#paint50_linear_66_2452)"/>
<path fill-rule="evenodd" clip-rule="evenodd" d="M300.877 21.0272C300.919 21.0188 300.963 21.0186 301.005 21.0266C301.048 21.0346 301.088 21.0507 301.124 21.0739C301.16 21.0971 301.191 21.127 301.215 21.1619C301.239 21.1967 301.256 21.2359 301.265 21.2772L301.867 24.2185H301.205L300.621 21.4053C300.612 21.3641 300.612 21.3216 300.62 21.2803C300.628 21.239 300.645 21.1996 300.668 21.1645C300.692 21.1294 300.723 21.0992 300.759 21.0756C300.794 21.0521 300.835 21.0356 300.877 21.0272Z" fill="url(#paint51_linear_66_2452)"/>
<g filter="url(#filter14_f_66_2452)">
<path d="M304.879 9.56365C304.747 9.69181 304.544 9.69181 304.412 9.56365L303.926 9.08944C303.794 8.96127 303.794 8.76262 303.926 8.63445C304.057 8.50629 304.261 8.50629 304.393 8.63445L304.879 9.11507C305.01 9.23683 305.01 9.44189 304.879 9.56365Z" fill="#C5419E"/>
</g>
<path d="M304.993 9.38347C304.861 9.51164 304.657 9.51164 304.526 9.38347L304.04 8.90926C303.908 8.7811 303.908 8.58244 304.04 8.45428C304.171 8.32611 304.375 8.32611 304.506 8.45428L304.993 8.93489C305.124 9.05665 305.124 9.26171 304.993 9.38347Z" fill="url(#paint52_linear_66_2452)"/>
<path d="M304.993 9.38347C304.861 9.51164 304.657 9.51164 304.526 9.38347L304.04 8.90926C303.908 8.7811 303.908 8.58244 304.04 8.45428C304.171 8.32611 304.375 8.32611 304.506 8.45428L304.993 8.93489C305.124 9.05665 305.124 9.26171 304.993 9.38347Z" fill="url(#paint53_radial_66_2452)"/>
<path fill-rule="evenodd" clip-rule="evenodd" d="M308.191 21.026C308.276 21.0416 308.352 21.0897 308.402 21.1597C308.451 21.2298 308.47 21.3161 308.454 21.3996L307.9 24.225H307.238L307.808 21.283C307.824 21.1994 307.874 21.1255 307.945 21.0774C308.017 21.0294 308.106 21.0111 308.191 21.0266L308.191 21.026Z" fill="url(#paint54_linear_66_2452)"/>
<g filter="url(#filter15_f_66_2452)">
<path d="M304.993 13.9225C304.861 14.0507 304.657 14.0507 304.526 13.9225L304.04 13.4483C303.908 13.3202 303.908 13.1215 304.04 12.9933C304.171 12.8652 304.375 12.8652 304.506 12.9933L304.993 13.4675C305.124 13.5957 305.124 13.7944 304.993 13.9225Z" fill="#D939B9"/>
</g>
<path d="M304.996 13.8019C304.864 13.9301 304.661 13.9301 304.529 13.8019L304.043 13.3277C303.911 13.1996 303.911 13.0009 304.043 12.8727C304.174 12.7446 304.378 12.7446 304.51 12.8727L304.996 13.3469C305.127 13.4751 305.127 13.6738 304.996 13.8019Z" fill="url(#paint55_linear_66_2452)"/>
<path d="M304.996 13.8019C304.864 13.9301 304.661 13.9301 304.529 13.8019L304.043 13.3277C303.911 13.1996 303.911 13.0009 304.043 12.8727C304.174 12.7446 304.378 12.7446 304.51 12.8727L304.996 13.3469C305.127 13.4751 305.127 13.6738 304.996 13.8019Z" fill="url(#paint56_radial_66_2452)"/>
<g filter="url(#filter16_f_66_2452)">
<path d="M297.871 19.3989L298.467 20.0795" stroke="#64AFFF" stroke-width="0.3125"/>
</g>
<defs>
<filter id="filter0_f_66_2452" x="298.289" y="10.3228" width="12.5287" height="5.14868" filterUnits="userSpaceOnUse" color-interpolation-filters="sRGB">
<feFlood flood-opacity="0" result="BackgroundImageFix"/>
<feBlend mode="normal" in="SourceGraphic" in2="BackgroundImageFix" result="shape"/>
<feGaussianBlur stdDeviation="0.3125" result="effect1_foregroundBlur_66_2452"/>
</filter>
<filter id="filter1_f_66_2452" x="300.738" y="7.91357" width="7.43213" height="3.94165" filterUnits="userSpaceOnUse" color-interpolation-filters="sRGB">
<feFlood flood-opacity="0" result="BackgroundImageFix"/>
<feBlend mode="normal" in="SourceGraphic" in2="BackgroundImageFix" result="shape"/>
<feGaussianBlur stdDeviation="0.3125" result="effect1_foregroundBlur_66_2452"/>
</filter>
<filter id="filter2_f_66_2452" x="301.754" y="10.4065" width="1.77521" height="1.74634" filterUnits="userSpaceOnUse" color-interpolation-filters="sRGB">
<feFlood flood-opacity="0" result="BackgroundImageFix"/>
<feBlend mode="normal" in="SourceGraphic" in2="BackgroundImageFix" result="shape"/>
<feGaussianBlur stdDeviation="0.15625" result="effect1_foregroundBlur_66_2452"/>
</filter>
<filter id="filter3_f_66_2452" x="301.006" y="15.0388" width="2.47211" height="2.44189" filterUnits="userSpaceOnUse" color-interpolation-filters="sRGB">
<feFlood flood-opacity="0" result="BackgroundImageFix"/>
<feBlend mode="normal" in="SourceGraphic" in2="BackgroundImageFix" result="shape"/>
<feGaussianBlur stdDeviation="0.3125" result="effect1_foregroundBlur_66_2452"/>
</filter>
<filter id="filter4_f_66_2452" x="298.522" y="14.4404" width="1.77521" height="1.7417" filterUnits="userSpaceOnUse" color-interpolation-filters="sRGB">
<feFlood flood-opacity="0" result="BackgroundImageFix"/>
<feBlend mode="normal" in="SourceGraphic" in2="BackgroundImageFix" result="shape"/>
<feGaussianBlur stdDeviation="0.15625" result="effect1_foregroundBlur_66_2452"/>
</filter>
<filter id="filter5_f_66_2452" x="308.928" y="14.5613" width="1.72351" height="1.78687" filterUnits="userSpaceOnUse" color-interpolation-filters="sRGB">
<feFlood flood-opacity="0" result="BackgroundImageFix"/>
<feBlend mode="normal" in="SourceGraphic" in2="BackgroundImageFix" result="shape"/>
<feGaussianBlur stdDeviation="0.15625" result="effect1_foregroundBlur_66_2452"/>
</filter>
<filter id="filter6_f_66_2452" x="307.046" y="12.3027" width="1.77521" height="1.74634" filterUnits="userSpaceOnUse" color-interpolation-filters="sRGB">
<feFlood flood-opacity="0" result="BackgroundImageFix"/>
<feBlend mode="normal" in="SourceGraphic" in2="BackgroundImageFix" result="shape"/>
<feGaussianBlur stdDeviation="0.15625" result="effect1_foregroundBlur_66_2452"/>
</filter>
<filter id="filter7_f_66_2452" x="299.765" y="12.8635" width="1.97235" height="1.26587" filterUnits="userSpaceOnUse" color-interpolation-filters="sRGB">
<feFlood flood-opacity="0" result="BackgroundImageFix"/>
<feBlend mode="normal" in="SourceGraphic" in2="BackgroundImageFix" result="shape"/>
<feGaussianBlur stdDeviation="0.15625" result="effect1_foregroundBlur_66_2452"/>
</filter>
<filter id="filter8_f_66_2452" x="297.11" y="19.0942" width="14.8741" height="5.1897" filterUnits="userSpaceOnUse" color-interpolation-filters="sRGB">
<feFlood flood-opacity="0" result="BackgroundImageFix"/>
<feBlend mode="normal" in="SourceGraphic" in2="BackgroundImageFix" result="shape"/>
<feGaussianBlur stdDeviation="0.0625" result="effect1_foregroundBlur_66_2452"/>
</filter>
<filter id="filter9_f_66_2452" x="305.559" y="10.2598" width="1.77521" height="1.74634" filterUnits="userSpaceOnUse" color-interpolation-filters="sRGB">
<feFlood flood-opacity="0" result="BackgroundImageFix"/>
<feBlend mode="normal" in="SourceGraphic" in2="BackgroundImageFix" result="shape"/>
<feGaussianBlur stdDeviation="0.15625" result="effect1_foregroundBlur_66_2452"/>
</filter>
<filter id="filter10_f_66_2452" x="305.651" y="10.1523" width="1.66742" height="1.13306" filterUnits="userSpaceOnUse" color-interpolation-filters="sRGB">
<feFlood flood-opacity="0" result="BackgroundImageFix"/>
<feBlend mode="normal" in="SourceGraphic" in2="BackgroundImageFix" result="shape"/>
<feGaussianBlur stdDeviation="0.15625" result="effect1_foregroundBlur_66_2452"/>
</filter>
<filter id="filter11_f_66_2452" x="306.346" y="15.4819" width="1.77521" height="1.74634" filterUnits="userSpaceOnUse" color-interpolation-filters="sRGB">
<feFlood flood-opacity="0" result="BackgroundImageFix"/>
<feBlend mode="normal" in="SourceGraphic" in2="BackgroundImageFix" result="shape"/>
<feGaussianBlur stdDeviation="0.15625" result="effect1_foregroundBlur_66_2452"/>
</filter>
<filter id="filter12_f_66_2452" x="297.068" y="19.5168" width="14.9681" height="4.95483" filterUnits="userSpaceOnUse" color-interpolation-filters="sRGB">
<feFlood flood-opacity="0" result="BackgroundImageFix"/>
<feBlend mode="normal" in="SourceGraphic" in2="BackgroundImageFix" result="shape"/>
<feGaussianBlur stdDeviation="0.15625" result="effect1_foregroundBlur_66_2452"/>
</filter>
<filter id="filter13_f_66_2452" x="297.018" y="19.1739" width="15.0887" height="3.34296" filterUnits="userSpaceOnUse" color-interpolation-filters="sRGB">
<feFlood flood-opacity="0" result="BackgroundImageFix"/>
<feBlend mode="normal" in="SourceGraphic" in2="BackgroundImageFix" result="shape"/>
<feGaussianBlur stdDeviation="0.10875" result="effect1_foregroundBlur_66_2452"/>
</filter>
<filter id="filter14_f_66_2452" x="303.202" y="7.91333" width="2.40021" height="2.37134" filterUnits="userSpaceOnUse" color-interpolation-filters="sRGB">
<feFlood flood-opacity="0" result="BackgroundImageFix"/>
<feBlend mode="normal" in="SourceGraphic" in2="BackgroundImageFix" result="shape"/>
<feGaussianBlur stdDeviation="0.3125" result="effect1_foregroundBlur_66_2452"/>
</filter>
<filter id="filter15_f_66_2452" x="303.316" y="12.2722" width="2.40021" height="2.37134" filterUnits="userSpaceOnUse" color-interpolation-filters="sRGB">
<feFlood flood-opacity="0" result="BackgroundImageFix"/>
<feBlend mode="normal" in="SourceGraphic" in2="BackgroundImageFix" result="shape"/>
<feGaussianBlur stdDeviation="0.3125" result="effect1_foregroundBlur_66_2452"/>
</filter>
<filter id="filter16_f_66_2452" x="297.441" y="18.9834" width="1.45624" height="1.51147" filterUnits="userSpaceOnUse" color-interpolation-filters="sRGB">
<feFlood flood-opacity="0" result="BackgroundImageFix"/>
<feBlend mode="normal" in="SourceGraphic" in2="BackgroundImageFix" result="shape"/>
<feGaussianBlur stdDeviation="0.15625" result="effect1_foregroundBlur_66_2452"/>
</filter>
<linearGradient id="paint0_linear_66_2452" x1="304.523" y1="13.3374" x2="304.523" y2="17.8232" gradientUnits="userSpaceOnUse">
<stop offset="0.418" stop-color="#FE5FD3"/>
<stop offset="0.856" stop-color="#EE49CD"/>
</linearGradient>
<linearGradient id="paint1_linear_66_2452" x1="304.523" y1="13.3374" x2="304.523" y2="17.8232" gradientUnits="userSpaceOnUse">
<stop offset="0.887" stop-color="#DF499E" stop-opacity="0"/>
<stop offset="1" stop-color="#D14276"/>
</linearGradient>
<radialGradient id="paint2_radial_66_2452" cx="0" cy="0" r="1" gradientUnits="userSpaceOnUse" gradientTransform="translate(310.966 14.6126) rotate(-179.287) scale(6.44323 2.36336)">
<stop stop-color="#FF85DE"/>
<stop offset="1" stop-color="#FF86DD" stop-opacity="0"/>
</radialGradient>
<radialGradient id="paint3_radial_66_2452" cx="0" cy="0" r="1" gradientUnits="userSpaceOnUse" gradientTransform="translate(301.764 11.6087) rotate(-104.103) scale(12.3063 16.4559)">
<stop offset="0.682" stop-color="#B74CAB" stop-opacity="0"/>
<stop offset="0.913" stop-color="#B44AAC"/>
</radialGradient>
<radialGradient id="paint4_radial_66_2452" cx="0" cy="0" r="1" gradientUnits="userSpaceOnUse" gradientTransform="translate(295.15 12.0897) rotate(33.9541) scale(8.96361 11.9501)">
<stop offset="0.348" stop-color="#D64984"/>
<stop offset="1" stop-color="#EA56A7" stop-opacity="0"/>
</radialGradient>
<radialGradient id="paint5_radial_66_2452" cx="0" cy="0" r="1" gradientUnits="userSpaceOnUse" gradientTransform="translate(305.502 16.2948) rotate(83.697) scale(5.23835 10.0597)">
<stop offset="0.794" stop-color="#E34E93" stop-opacity="0"/>
<stop offset="0.968" stop-color="#D74887"/>
</radialGradient>
<linearGradient id="paint6_linear_66_2452" x1="308.747" y1="13.8116" x2="299.71" y2="13.8116" gradientUnits="userSpaceOnUse">
<stop stop-color="#CA3AAB"/>
<stop offset="1" stop-color="#D3358D"/>
</linearGradient>
<linearGradient id="paint7_linear_66_2452" x1="304.519" y1="10.1333" x2="304.519" y2="14.6191" gradientUnits="userSpaceOnUse">
<stop stop-color="#FF85DE"/>
<stop offset="0.525" stop-color="#FC59CC"/>
<stop offset="1" stop-color="#E542CD"/>
</linearGradient>
<radialGradient id="paint8_radial_66_2452" cx="0" cy="0" r="1" gradientUnits="userSpaceOnUse" gradientTransform="translate(308.501 11.3284) rotate(90) scale(1.76226 3.24519)">
<stop stop-color="#FF8DE6"/>
<stop offset="1" stop-color="#FF90E9" stop-opacity="0"/>
</radialGradient>
<radialGradient id="paint9_radial_66_2452" cx="0" cy="0" r="1" gradientUnits="userSpaceOnUse" gradientTransform="translate(300.039 11.4085) rotate(90) scale(2.8837 6.57254)">
<stop stop-color="#F543A3"/>
<stop offset="1" stop-color="#F54BAE" stop-opacity="0"/>
</radialGradient>
<radialGradient id="paint10_radial_66_2452" cx="0" cy="0" r="1" gradientUnits="userSpaceOnUse" gradientTransform="translate(306.529 7.24322) rotate(90) scale(3.04391 6.73173)">
<stop offset="0.171" stop-color="#FF8AE0"/>
<stop offset="1" stop-color="#FF8AE0" stop-opacity="0"/>
</radialGradient>
<radialGradient id="paint11_radial_66_2452" cx="0" cy="0" r="1" gradientUnits="userSpaceOnUse" gradientTransform="translate(306.529 10.8575) rotate(65.7801) scale(0.625822 1.14038)">
<stop offset="0.173" stop-color="#A941A3"/>
<stop offset="1" stop-color="#CD46C2" stop-opacity="0"/>
</radialGradient>
<radialGradient id="paint12_radial_66_2452" cx="0" cy="0" r="1" gradientUnits="userSpaceOnUse" gradientTransform="translate(302.904 10.9683) rotate(6.61368) scale(0.765041 0.709587)">
<stop offset="0.359" stop-color="#E0417F"/>
<stop offset="1" stop-color="#E33E92" stop-opacity="0"/>
</radialGradient>
<linearGradient id="paint13_linear_66_2452" x1="304.525" y1="17.8232" x2="304.525" y2="24.2251" gradientUnits="userSpaceOnUse">
<stop stop-color="#E8885E"/>
<stop offset="0.035" stop-color="#EF976C"/>
<stop offset="0.091" stop-color="#ECA079"/>
<stop offset="0.262" stop-color="#F0979B"/>
<stop offset="1" stop-color="#E8885E" stop-opacity="0"/>
</linearGradient>
<radialGradient id="paint14_radial_66_2452" cx="0" cy="0" r="1" gradientUnits="userSpaceOnUse" gradientTransform="translate(307.063 18.5781) rotate(90) scale(0.680874 6.46984)">
<stop stop-color="#FAB188"/>
<stop offset="1" stop-color="#FBB188" stop-opacity="0"/>
</radialGradient>
<radialGradient id="paint15_radial_66_2452" cx="0" cy="0" r="1" gradientUnits="userSpaceOnUse" gradientTransform="translate(304.886 19.8194) rotate(90) scale(5.00643 11.3167)">
<stop offset="0.632" stop-color="#BE674C" stop-opacity="0"/>
<stop offset="0.784" stop-color="#C0674C"/>
</radialGradient>
<linearGradient id="paint16_linear_66_2452" x1="302.349" y1="10.9978" x2="302.821" y2="11.4506" gradientUnits="userSpaceOnUse">
<stop stop-color="#FCAC40"/>
<stop offset="0.403" stop-color="#FFA43C"/>
<stop offset="0.89" stop-color="#F37E41"/>
</linearGradient>
<linearGradient id="paint17_linear_66_2452" x1="302.011" y1="15.9443" x2="302.532" y2="16.4483" gradientUnits="userSpaceOnUse">
<stop stop-color="#D4B3D6"/>
<stop offset="0.393" stop-color="#D8B6F8"/>
<stop offset="0.961" stop-color="#C887ED"/>
</linearGradient>
<linearGradient id="paint18_linear_66_2452" x1="298.983" y1="15.1765" x2="299.453" y2="15.6293" gradientUnits="userSpaceOnUse">
<stop stop-color="#E89C43"/>
<stop offset="0.403" stop-color="#F3913F"/>
<stop offset="0.89" stop-color="#EA6542"/>
</linearGradient>
<linearGradient id="paint19_linear_66_2452" x1="309.497" y1="15.1765" x2="310.111" y2="15.7668" gradientUnits="userSpaceOnUse">
<stop stop-color="#FFA83E"/>
<stop offset="0.292" stop-color="#FFB84C"/>
<stop offset="0.55" stop-color="#FFA83A"/>
<stop offset="0.81" stop-color="#CC6E53"/>
</linearGradient>
<radialGradient id="paint20_radial_66_2452" cx="0" cy="0" r="1" gradientUnits="userSpaceOnUse" gradientTransform="translate(309.343 15.784) rotate(42.8652) scale(0.728583 0.423827)">
<stop stop-color="#EF6F45"/>
<stop offset="1" stop-color="#EE6E46" stop-opacity="0"/>
</radialGradient>
<linearGradient id="paint21_linear_66_2452" x1="308.201" y1="12.9421" x2="307.69" y2="13.4753" gradientUnits="userSpaceOnUse">
<stop offset="0.264" stop-color="#EFEBF7"/>
<stop offset="0.488" stop-color="#DBC8F4"/>
<stop offset="0.931" stop-color="#CA95EB"/>
</linearGradient>
<linearGradient id="paint22_linear_66_2452" x1="300.72" y1="13.2861" x2="300.72" y2="13.927" gradientUnits="userSpaceOnUse">
<stop stop-color="#35A6FF"/>
<stop offset="0.461" stop-color="#299DFF"/>
<stop offset="1" stop-color="#396BFF"/>
</linearGradient>
<radialGradient id="paint23_radial_66_2452" cx="0" cy="0" r="1" gradientUnits="userSpaceOnUse" gradientTransform="translate(301.164 13.4911) rotate(111.528) scale(0.279856 0.315421)">
<stop stop-color="#40AAFF"/>
<stop offset="1" stop-color="#43ACFF" stop-opacity="0"/>
</radialGradient>
<linearGradient id="paint24_linear_66_2452" x1="308.313" y1="12.8119" x2="307.803" y2="13.3452" gradientUnits="userSpaceOnUse">
<stop offset="0.264" stop-color="#EFEBF7"/>
<stop offset="0.488" stop-color="#DBC8F4"/>
<stop offset="0.931" stop-color="#CA95EB"/>
</linearGradient>
<radialGradient id="paint25_radial_66_2452" cx="0" cy="0" r="1" gradientUnits="userSpaceOnUse" gradientTransform="translate(308.499 13.5527) rotate(143.051) scale(0.449757 0.325339)">
<stop stop-color="#C187F1"/>
<stop offset="1" stop-color="#C595F1" stop-opacity="0"/>
</radialGradient>
<linearGradient id="paint26_linear_66_2452" x1="304.547" y1="19.2194" x2="304.689" y2="24.4949" gradientUnits="userSpaceOnUse">
<stop offset="0.823" stop-color="#58A0FF"/>
<stop offset="0.915" stop-color="#5473FF"/>
<stop offset="0.953" stop-color="#7163FF"/>
</linearGradient>
<radialGradient id="paint27_radial_66_2452" cx="0" cy="0" r="1" gradientUnits="userSpaceOnUse" gradientTransform="translate(304.755 19.2194) rotate(90) scale(5.33463 5.36384)">
<stop offset="0.195" stop-color="#508EFF"/>
<stop offset="1" stop-color="#508FFF" stop-opacity="0"/>
</radialGradient>
<radialGradient id="paint28_radial_66_2452" cx="0" cy="0" r="1" gradientUnits="userSpaceOnUse" gradientTransform="translate(297.617 21.6892) scale(1.20989 3.44012)">
<stop offset="0.112" stop-color="#4686D7"/>
<stop offset="1" stop-color="#4992F5" stop-opacity="0"/>
</radialGradient>
<radialGradient id="paint29_radial_66_2452" cx="0" cy="0" r="1" gradientUnits="userSpaceOnUse" gradientTransform="translate(311.612 21.6892) rotate(-170.908) scale(1.87877 5.34748)">
<stop offset="0.112" stop-color="#4686D7"/>
<stop offset="1" stop-color="#4992F5" stop-opacity="0"/>
</radialGradient>
<linearGradient id="paint30_linear_66_2452" x1="311.712" y1="20.3646" x2="297.577" y2="20.3646" gradientUnits="userSpaceOnUse">
<stop offset="0.09" stop-color="#5FB6FF"/>
<stop offset="0.107" stop-color="#4394F4"/>
<stop offset="0.171" stop-color="#60B4FF"/>
<stop offset="0.25" stop-color="#5599FF"/>
<stop offset="0.327" stop-color="#65AFFF"/>
<stop offset="0.629" stop-color="#61AEFF"/>
<stop offset="0.806" stop-color="#62AFFF"/>
<stop offset="0.919" stop-color="#469DF3"/>
<stop offset="1" stop-color="#4F9BE5"/>
</linearGradient>
<linearGradient id="paint31_linear_66_2452" x1="306.241" y1="10.8581" x2="306.752" y2="11.3862" gradientUnits="userSpaceOnUse">
<stop stop-color="#388EF1"/>
<stop offset="0.356" stop-color="#3AA5FF"/>
<stop offset="0.917" stop-color="#4571FD"/>
</linearGradient>
<radialGradient id="paint32_radial_66_2452" cx="0" cy="0" r="1" gradientUnits="userSpaceOnUse" gradientTransform="translate(306.14 11.4887) rotate(45.2456) scale(0.423 0.279275)">
<stop stop-color="#3673FF"/>
<stop offset="1" stop-color="#3673FF" stop-opacity="0"/>
</radialGradient>
<linearGradient id="paint33_linear_66_2452" x1="307.497" y1="15.9462" x2="306.986" y2="16.4744" gradientUnits="userSpaceOnUse">
<stop stop-color="#39A1FF"/>
<stop offset="0.356" stop-color="#40A1FF"/>
<stop offset="0.917" stop-color="#3876FF"/>
</linearGradient>
<radialGradient id="paint34_radial_66_2452" cx="0" cy="0" r="1" gradientUnits="userSpaceOnUse" gradientTransform="translate(307.599 16.5762) rotate(134.754) scale(0.423 0.279275)">
<stop stop-color="#3673FF"/>
<stop offset="1" stop-color="#3673FF" stop-opacity="0"/>
</radialGradient>
<linearGradient id="paint35_linear_66_2452" x1="304.509" y1="19.2196" x2="304.653" y2="24.5655" gradientUnits="userSpaceOnUse">
<stop offset="0.823" stop-color="#58A0FF"/>
<stop offset="0.915" stop-color="#5473FF"/>
<stop offset="0.953" stop-color="#7163FF"/>
</linearGradient>
<radialGradient id="paint36_radial_66_2452" cx="0" cy="0" r="1" gradientUnits="userSpaceOnUse" gradientTransform="translate(304.722 19.2196) rotate(90) scale(5.40601 5.46343)">
<stop offset="0.195" stop-color="#508EFF"/>
<stop offset="1" stop-color="#508FFF" stop-opacity="0"/>
</radialGradient>
<radialGradient id="paint37_radial_66_2452" cx="0" cy="0" r="1" gradientUnits="userSpaceOnUse" gradientTransform="translate(297.451 21.7226) scale(1.23235 3.48615)">
<stop offset="0.112" stop-color="#4686D7"/>
<stop offset="1" stop-color="#4992F5" stop-opacity="0"/>
</radialGradient>
<radialGradient id="paint38_radial_66_2452" cx="0" cy="0" r="1" gradientUnits="userSpaceOnUse" gradientTransform="translate(311.705 21.7226) rotate(-170.954) scale(1.9134 5.41971)">
<stop offset="0.112" stop-color="#4686D7"/>
<stop offset="1" stop-color="#4992F5" stop-opacity="0"/>
</radialGradient>
<linearGradient id="paint39_linear_66_2452" x1="311.808" y1="20.3801" x2="297.41" y2="20.3801" gradientUnits="userSpaceOnUse">
<stop offset="0.011" stop-color="#59B9FF"/>
<stop offset="0.021" stop-color="#5FB6FF"/>
<stop offset="0.09" stop-color="#5FB6FF"/>
<stop offset="0.107" stop-color="#4394F4"/>
<stop offset="0.171" stop-color="#60B4FF"/>
<stop offset="0.25" stop-color="#5599FF"/>
<stop offset="0.327" stop-color="#65AFFF"/>
<stop offset="0.629" stop-color="#61AEFF"/>
<stop offset="0.806" stop-color="#62AFFF"/>
<stop offset="0.919" stop-color="#469DF3"/>
<stop offset="1" stop-color="#4F9BE5"/>
</linearGradient>
<linearGradient id="paint40_linear_66_2452" x1="311.438" y1="21.5214" x2="310.763" y2="21.312" gradientUnits="userSpaceOnUse">
<stop stop-color="#477CC5"/>
<stop offset="1" stop-color="#4881CB" stop-opacity="0"/>
</linearGradient>
<linearGradient id="paint41_linear_66_2452" x1="304.509" y1="19.2196" x2="304.509" y2="24.2251" gradientUnits="userSpaceOnUse">
<stop offset="0.852" stop-color="#5676F9" stop-opacity="0"/>
<stop offset="1" stop-color="#5477F7"/>
</linearGradient>
<linearGradient id="paint42_linear_66_2452" x1="304.509" y1="19.9271" x2="304.614" y2="24.4476" gradientUnits="userSpaceOnUse">
<stop offset="0.823" stop-color="#58A0FF"/>
<stop offset="0.915" stop-color="#5473FF"/>
<stop offset="0.953" stop-color="#7163FF"/>
</linearGradient>
<radialGradient id="paint43_radial_66_2452" cx="0" cy="0" r="1" gradientUnits="userSpaceOnUse" gradientTransform="translate(304.716 19.9271) rotate(90) scale(4.57074 5.31918)">
<stop offset="0.195" stop-color="#508EFF"/>
<stop offset="1" stop-color="#508FFF" stop-opacity="0"/>
</radialGradient>
<radialGradient id="paint44_radial_66_2452" cx="0" cy="0" r="1" gradientUnits="userSpaceOnUse" gradientTransform="translate(297.637 22.0431) scale(1.19982 2.94753)">
<stop offset="0.112" stop-color="#4686D7"/>
<stop offset="1" stop-color="#4992F5" stop-opacity="0"/>
</radialGradient>
<radialGradient id="paint45_radial_66_2452" cx="0" cy="0" r="1" gradientUnits="userSpaceOnUse" gradientTransform="translate(311.515 22.0431) rotate(-172.128) scale(1.85722 4.59633)">
<stop offset="0.112" stop-color="#4686D7"/>
<stop offset="1" stop-color="#4992F5" stop-opacity="0"/>
</radialGradient>
<linearGradient id="paint46_linear_66_2452" x1="304.509" y1="19.4988" x2="304.637" y2="24.4763" gradientUnits="userSpaceOnUse">
<stop offset="0.823" stop-color="#58A0FF"/>
<stop offset="0.915" stop-color="#5473FF"/>
<stop offset="0.953" stop-color="#7163FF"/>
</linearGradient>
<radialGradient id="paint47_radial_66_2452" cx="0" cy="0" r="1" gradientUnits="userSpaceOnUse" gradientTransform="translate(304.716 19.4988) rotate(90) scale(5.03289 5.31918)">
<stop offset="0.195" stop-color="#508EFF"/>
<stop offset="1" stop-color="#508FFF" stop-opacity="0"/>
</radialGradient>
<radialGradient id="paint48_radial_66_2452" cx="0" cy="0" r="1" gradientUnits="userSpaceOnUse" gradientTransform="translate(297.637 21.8282) scale(1.19982 3.24554)">
<stop offset="0.112" stop-color="#4686D7"/>
<stop offset="1" stop-color="#4992F5" stop-opacity="0"/>
</radialGradient>
<radialGradient id="paint49_radial_66_2452" cx="0" cy="0" r="1" gradientUnits="userSpaceOnUse" gradientTransform="translate(311.515 21.8282) rotate(-171.344) scale(1.86092 5.05099)">
<stop offset="0.112" stop-color="#4686D7"/>
<stop offset="1" stop-color="#4992F5" stop-opacity="0"/>
</radialGradient>
<linearGradient id="paint50_linear_66_2452" x1="304.525" y1="21.1011" x2="304.525" y2="24.2251" gradientUnits="userSpaceOnUse">
<stop stop-color="#2B8BFF"/>
<stop offset="0.839" stop-color="#2C8AFF"/>
<stop offset="1" stop-color="#4063FF"/>
</linearGradient>
<linearGradient id="paint51_linear_66_2452" x1="301.24" y1="21.0208" x2="301.24" y2="24.2185" gradientUnits="userSpaceOnUse">
<stop stop-color="#2B8BFF"/>
<stop offset="0.839" stop-color="#2C8AFF"/>
<stop offset="1" stop-color="#4063FF"/>
</linearGradient>
<linearGradient id="paint52_linear_66_2452" x1="304.783" y1="8.68497" x2="304.273" y2="9.21888" gradientUnits="userSpaceOnUse">
<stop offset="0.264" stop-color="#EFEBF7"/>
<stop offset="0.488" stop-color="#DBC8F4"/>
<stop offset="0.931" stop-color="#CA95EB"/>
</linearGradient>
<radialGradient id="paint53_radial_66_2452" cx="0" cy="0" r="1" gradientUnits="userSpaceOnUse" gradientTransform="translate(304.968 9.42512) rotate(143.051) scale(0.449757 0.32534)">
<stop stop-color="#C187F1"/>
<stop offset="1" stop-color="#C595F1" stop-opacity="0"/>
</radialGradient>
<linearGradient id="paint54_linear_66_2452" x1="307.848" y1="21.0209" x2="307.848" y2="24.225" gradientUnits="userSpaceOnUse">
<stop stop-color="#2B8BFF"/>
<stop offset="0.839" stop-color="#2C8AFF"/>
<stop offset="1" stop-color="#4063FF"/>
</linearGradient>
<linearGradient id="paint55_linear_66_2452" x1="304.732" y1="13.0855" x2="304.287" y2="13.5677" gradientUnits="userSpaceOnUse">
<stop stop-color="#FFB248"/>
<stop offset="0.397" stop-color="#FFA43E"/>
<stop offset="0.847" stop-color="#F17F4D"/>
</linearGradient>
<radialGradient id="paint56_radial_66_2452" cx="0" cy="0" r="1" gradientUnits="userSpaceOnUse" gradientTransform="translate(304.372 13.0806) rotate(52.085) scale(1.03617 1.04292)">
<stop offset="0.77" stop-color="#DB644C" stop-opacity="0"/>
<stop offset="0.924" stop-color="#DB644C"/>
</radialGradient>
</defs>
</svg>
