<svg width="40" height="40" viewBox="0 0 40 40" fill="none" xmlns="http://www.w3.org/2000/svg">
<path d="M36.1364 39.3741L23.4091 26.6287C22.2727 27.5391 20.9659 28.2598 19.4886 28.7909C18.0114 29.322 16.4394 29.5875 14.7727 29.5875C10.6439 29.5875 7.15 28.1559 4.29091 25.2927C1.4303 22.4281 0 18.9284 0 14.7937C0 10.6591 1.4303 7.15941 4.29091 4.29474C7.15 1.43158 10.6439 0 14.7727 0C18.9015 0 22.3962 1.43158 25.2568 4.29474C28.1159 7.15941 29.5455 10.6591 29.5455 14.7937C29.5455 16.4628 29.2803 18.037 28.75 19.5164C28.2197 20.9957 27.5 22.3044 26.5909 23.4424L39.375 36.2447C39.7917 36.6619 40 37.174 40 37.7809C40 38.3879 39.7727 38.9189 39.3182 39.3741C38.9015 39.7914 38.3712 40 37.7273 40C37.0833 40 36.553 39.7914 36.1364 39.3741ZM14.7727 25.0356C17.6136 25.0356 20.0288 24.0402 22.0182 22.0495C24.0061 20.0573 25 17.6387 25 14.7937C25 11.9488 24.0061 9.5302 22.0182 7.53798C20.0288 5.54727 17.6136 4.55192 14.7727 4.55192C11.9318 4.55192 9.51667 5.54727 7.52727 7.53798C5.53939 9.5302 4.54545 11.9488 4.54545 14.7937C4.54545 17.6387 5.53939 20.0573 7.52727 22.0495C9.51667 24.0402 11.9318 25.0356 14.7727 25.0356Z" fill="#7F2982"/>
</svg>
