<svg width="26" height="28" viewBox="0 0 26 28" fill="none" xmlns="http://www.w3.org/2000/svg">
<g clip-path="url(#clip0_66_2417)">
<path d="M8.01443 25.0581C17.6186 25.0581 22.8731 16.4136 22.8731 8.91932C22.8731 8.6763 22.8681 8.42788 22.8582 8.18486C23.8803 7.38196 24.7624 6.38746 25.463 5.24809C24.5111 5.70812 23.5003 6.00857 22.4654 6.13916C23.5551 5.42967 24.3711 4.31509 24.762 3.00203C23.7368 3.66194 22.6156 4.12745 21.4466 4.37861C20.6589 3.46955 19.6174 2.86764 18.4832 2.66595C17.349 2.46425 16.1852 2.67401 15.1717 3.26279C14.1582 3.85156 13.3516 4.78656 12.8764 5.92323C12.4013 7.0599 12.2841 8.33493 12.543 9.55118C10.4672 9.43803 8.43636 8.85232 6.58228 7.83202C4.7282 6.81171 3.09222 5.37958 1.7804 3.62849C1.11367 4.87705 0.909649 6.3545 1.2098 7.76058C1.50996 9.16665 2.29177 10.3958 3.39634 11.1983C2.56709 11.1697 1.75602 10.9272 1.03011 10.4909V10.5611C1.02937 11.8713 1.44642 13.1415 2.21036 14.1555C2.9743 15.1696 4.03798 15.865 5.2206 16.1235C4.45244 16.3518 3.64622 16.3851 2.86432 16.2208C3.19804 17.3476 3.84732 18.3332 4.72156 19.0399C5.5958 19.7467 6.65137 20.1393 7.74097 20.1631C5.89116 21.7413 3.60611 22.5974 1.25386 22.5933C0.836705 22.5926 0.419962 22.5648 0.00585938 22.5101C2.3955 24.1753 5.17529 25.0597 8.01443 25.0581Z" fill="white"/>
</g>
<defs>
<clipPath id="clip0_66_2417">
<rect width="25.4572" height="27.6504" fill="white" transform="translate(0.00585938)"/>
</clipPath>
</defs>
</svg>
