<svg width="40" height="40" viewBox="0 0 40 40" fill="none" xmlns="http://www.w3.org/2000/svg">
<path d="M20.3684 34.4525L20.56 34.2436C25.3079 29.558 29.2811 25.634 32.0633 22.0908C34.8451 18.548 36.5 15.3089 36.5 11.9891C36.5 7.39468 33.3158 3.85967 29 3.85967C25.816 3.85967 22.7424 6.02002 21.5166 9.00409H18.4834C17.2576 6.02002 14.184 3.85967 11 3.85967C6.6842 3.85967 3.5 7.39468 3.5 11.9891C3.5 15.3089 5.15484 18.5479 7.93411 22.0906C10.7127 25.6325 14.6789 29.5549 19.4144 34.2381L19.4281 34.2516L19.4284 34.252L19.6481 34.4696L20.0172 34.8353L20.3684 34.4525ZM19.6072 4.84339L20 5.34225L20.3928 4.84339C22.4874 2.18342 25.6879 0.5 29 0.5C34.8448 0.5 39.5 5.48877 39.5 11.9891C39.5 15.9473 37.8664 19.5813 34.9125 23.5202C31.9521 27.4677 27.7077 31.6681 22.5485 36.767L22.5478 36.7677L20 39.2956L17.4522 36.7677L17.4515 36.767C12.2923 31.6681 8.04793 27.4677 5.08751 23.5202C2.13355 19.5813 0.5 15.9473 0.5 11.9891C0.5 5.48877 5.15523 0.5 11 0.5C14.3121 0.5 17.5126 2.18342 19.6072 4.84339Z" fill="#7F2982" stroke="#7F2982"/>
</svg>
